<svg width="13" height="17" viewBox="0 0 13 17" fill="none" xmlns="http://www.w3.org/2000/svg">
<path d="M9.2002 3.93262C9.20002 2.42319 7.97627 1.19922 6.4668 1.19922C4.95748 1.19939 3.73357 2.4233 3.7334 3.93262C3.7334 5.44209 4.95737 6.66584 6.4668 6.66602C7.97638 6.66602 9.2002 5.4422 9.2002 3.93262ZM10.4004 3.93262C10.4004 6.10494 8.63912 7.86621 6.4668 7.86621C4.29463 7.86603 2.53418 6.10483 2.53418 3.93262C2.53436 1.76056 4.29473 0.000176266 6.4668 0C8.63901 0 10.4002 1.76045 10.4004 3.93262Z" fill="#B3B3B3"/>
<path d="M8.96737 9.16669C10.2868 9.16678 11.5517 9.77032 12.2857 10.6647C12.6569 11.1171 12.9103 11.6674 12.9322 12.2682C12.9544 12.8791 12.7346 13.4822 12.2662 14.0182C11.0943 15.359 9.20759 16.1998 6.46737 16.1999C3.72707 16.1999 1.83862 15.3591 0.666592 14.0182C0.198395 13.4824 -0.0208206 12.879 0.00155332 12.2682C0.0235834 11.6674 0.276791 11.1172 0.648038 10.6647C1.38212 9.77016 2.64733 9.16669 3.96737 9.16669H8.96737ZM3.96737 10.3659C2.98575 10.3659 2.06899 10.8254 1.57577 11.4265C1.33356 11.7217 1.21121 12.0275 1.20077 12.3122C1.19071 12.5869 1.28229 12.899 1.57089 13.2292C2.4589 14.2449 3.97796 14.9997 6.46737 14.9997C8.95671 14.9996 10.4749 14.245 11.3629 13.2292C11.6516 12.8989 11.7429 12.5868 11.733 12.3122C11.7226 12.0274 11.6004 11.7208 11.358 11.4255C10.8648 10.8246 9.94846 10.366 8.96737 10.3659H3.96737Z" fill="#B3B3B3"/>
</svg>
