<svg width="33" height="14" viewBox="0 0 33 14" fill="none" xmlns="http://www.w3.org/2000/svg">
<path fill-rule="evenodd" clip-rule="evenodd" d="M5.8894 1.77771C5.51169 2.24346 4.90735 2.61081 4.30302 2.55833C4.22747 1.92858 4.52335 1.25948 4.86958 0.846216C5.24729 0.36735 5.90829 0.0262392 6.44338 0C6.50633 0.655981 6.26082 1.29884 5.8894 1.77771ZM6.43629 2.68294C5.90388 2.65101 5.41807 2.84979 5.02568 3.01035C4.77316 3.11367 4.55933 3.20117 4.39665 3.20117C4.21408 3.20117 3.99142 3.10899 3.74142 3.0055C3.41384 2.8699 3.03932 2.71486 2.64658 2.7223C1.74637 2.73542 0.90911 3.26677 0.449561 4.11298C-0.494717 5.80541 0.204049 8.31126 1.11685 9.68882C1.56381 10.371 2.0989 11.1189 2.80396 11.0926C3.11415 11.0804 3.33728 10.9818 3.56819 10.8797C3.83404 10.7621 4.11021 10.64 4.54144 10.64C4.95771 10.64 5.2218 10.7589 5.47532 10.8731C5.71637 10.9816 5.94785 11.0859 6.2915 11.0795C7.02174 11.0664 7.48129 10.3973 7.92825 9.71506C8.41059 8.98285 8.62255 8.26825 8.65472 8.15981L8.65849 8.14726C8.65772 8.14646 8.65176 8.14361 8.64125 8.1386C8.48001 8.06168 7.2476 7.47377 7.23578 5.89725C7.22391 4.57399 8.21329 3.90354 8.36904 3.798C8.37852 3.79158 8.38491 3.78725 8.3878 3.78499C7.75828 2.81414 6.77623 2.70918 6.43629 2.68294ZM11.4904 11.0073V0.780595H15.1731C17.0742 0.780595 18.4025 2.14503 18.4025 4.13922C18.4025 6.1334 17.0491 7.51096 15.1227 7.51096H13.0138V11.0073H11.4904ZM13.0156 2.11883H14.7719C16.0939 2.11883 16.8493 2.85352 16.8493 4.14581C16.8493 5.43809 16.0939 6.17935 14.7656 6.17935H13.0156V2.11883ZM23.4323 9.78067C23.0294 10.581 22.1418 11.0861 21.1849 11.0861C19.7685 11.0861 18.7802 10.2071 18.7802 8.88197C18.7802 7.57001 19.737 6.81564 21.506 6.70412L23.4071 6.58604V6.0219C23.4071 5.1888 22.8846 4.73618 21.9529 4.73618C21.1849 4.73618 20.6246 5.14945 20.5113 5.77919H19.139C19.1831 4.45411 20.3791 3.48982 21.997 3.48982C23.7408 3.48982 24.8739 4.44099 24.8739 5.91694V11.0074H23.4638V9.78067H23.4323ZM21.5948 9.8725C20.7827 9.8725 20.2665 9.46579 20.2665 8.84261C20.2665 8.19975 20.7639 7.82584 21.7144 7.76681L23.4078 7.65529V8.23255C23.4078 9.19028 22.6272 9.8725 21.5948 9.8725ZM29.5532 11.4075C28.9425 13.1983 28.2438 13.7887 26.7581 13.7887C26.6448 13.7887 26.2671 13.7756 26.179 13.7493V12.5227C26.2734 12.5358 26.5063 12.5489 26.6259 12.5489C27.2995 12.5489 27.6772 12.2537 27.9101 11.4862L28.0486 11.0336L25.4676 3.58821H27.0603L28.8544 9.62979H28.8859L30.68 3.58821H32.2286L29.5532 11.4075Z" fill="white"/>
</svg>
