<svg width="24" height="28" viewBox="0 0 24 28" fill="none" xmlns="http://www.w3.org/2000/svg">
<path d="M23.0907 21.8207C22.6823 22.7718 22.178 23.6787 21.5857 24.5274C20.7935 25.6562 20.1454 26.4372 19.6461 26.8712C18.872 27.5829 18.0419 27.9481 17.1535 27.9685C16.5159 27.9685 15.7471 27.7871 14.8517 27.419C13.9533 27.0527 13.1279 26.8707 12.3731 26.8707C11.5815 26.8707 10.7327 27.0527 9.8245 27.419C8.91508 27.7871 8.18242 27.979 7.62242 27.9977C6.77075 28.0344 5.92142 27.6593 5.07325 26.8712C4.5325 26.3987 3.85642 25.5902 3.04558 24.4446C2.17583 23.2207 1.46067 21.8021 0.900667 20.1839C0.301 18.4368 0 16.7446 0 15.1066C0 13.23 0.405417 11.6118 1.21742 10.2556C1.85617 9.16592 2.70492 8.30725 3.76775 7.67608C4.81045 7.05211 6.00019 6.71633 7.21525 6.70308C7.89192 6.70308 8.77917 6.9125 9.88225 7.32375C10.9818 7.73617 11.6877 7.94558 11.9974 7.94558C12.2284 7.94558 13.013 7.70058 14.3424 7.21292C15.6001 6.76025 16.6612 6.573 17.5303 6.64708C19.8864 6.83725 21.6562 7.76592 22.8328 9.43892C20.7264 10.7152 19.684 12.5032 19.705 14.7968C19.7237 16.5836 20.3717 18.0705 21.6458 19.2506C22.2233 19.7989 22.8678 20.2224 23.5848 20.5228C23.4344 20.9608 23.2697 21.3937 23.0907 21.8207ZM17.6878 0.560583C17.6878 1.96058 17.1763 3.26842 16.1566 4.47825C14.9258 5.91733 13.4377 6.74858 11.8236 6.61733C11.8019 6.44122 11.791 6.26394 11.7909 6.0865C11.7909 4.7425 12.376 3.304 13.4155 2.12742C13.9347 1.53183 14.5938 1.03658 15.3942 0.641667C16.1933 0.252583 16.9482 0.0373333 17.6587 0C17.6791 0.18725 17.6878 0.3745 17.6878 0.56V0.560583Z" fill="white"/>
</svg>
