<svg width="17" height="14" viewBox="0 0 17 14" fill="none" xmlns="http://www.w3.org/2000/svg">
<path d="M15.75 6.02486C16.1642 6.02486 16.5 6.36065 16.5 6.77486C16.5 7.18908 16.1642 7.52486 15.75 7.52486H0.75C0.335786 7.52486 0 7.18908 0 6.77486C0 6.36065 0.335786 6.02486 0.75 6.02486H15.75Z" fill="#1A1A1A"/>
<path d="M9.16887 0.220565C9.46115 -0.0727934 9.93595 -0.0735954 10.2294 0.218611L16.2792 6.24205C16.4206 6.38278 16.4999 6.57481 16.4999 6.77428C16.4998 6.97358 16.4205 7.16488 16.2792 7.30553L10.2294 13.3299C9.93593 13.6222 9.46116 13.6215 9.16887 13.328C8.8766 13.0345 8.87736 12.5597 9.17082 12.2674L14.6864 6.7733L9.17082 1.28111C8.87747 0.988836 8.87666 0.514033 9.16887 0.220565Z" fill="#1A1A1A"/>
</svg>
