<svg width="26" height="32" viewBox="0 0 26 32" fill="none" xmlns="http://www.w3.org/2000/svg">
<path d="M25.5682 27.7342L23.7268 6.98158C23.6936 6.5709 23.3492 6.25957 22.9319 6.25957H19.0503C19.0437 2.80853 16.2351 0 12.7841 0C9.33306 0 6.52453 2.80853 6.51791 6.25957H2.63631C2.22563 6.25957 1.88118 6.5709 1.84144 6.98158L0 27.7342C0 27.7607 0 27.7806 0 27.8071C0 30.1188 2.12627 32 4.73608 32H20.8321C23.4419 32 25.5682 30.1188 25.5682 27.8071C25.5682 27.7806 25.5682 27.7607 25.5682 27.7342ZM12.7841 1.58973C15.3608 1.58973 17.4539 3.68288 17.4606 6.25957H8.10764C8.11426 3.68288 10.2074 1.58973 12.7841 1.58973ZM20.8321 30.4036H4.73608C3.01387 30.4036 1.60961 29.2577 1.58973 27.8336L3.36494 7.84931H6.51791V10.638C6.51791 11.0751 6.8756 11.4328 7.31277 11.4328C7.74995 11.4328 8.10764 11.0751 8.10764 10.638V7.84931H17.4606V10.638C17.4606 11.0751 17.8183 11.4328 18.2554 11.4328C18.6926 11.4328 19.0503 11.0751 19.0503 10.638V7.84931H22.2033L23.9785 27.8402C23.9586 29.2577 22.5543 30.4036 20.8321 30.4036Z" fill="#00B307"/>
<path d="M16.0886 16.5465L11.3989 21.2362L9.48455 19.3219C9.17323 19.0106 8.66981 19.0106 8.35849 19.3219C8.04717 19.6332 8.04717 20.1366 8.35849 20.448L10.8358 22.9253C10.9882 23.0776 11.1935 23.1571 11.3989 23.1571C11.6042 23.1571 11.8029 23.0776 11.9619 22.9253L17.2146 17.6725C17.5259 17.3612 17.5259 16.8578 17.2146 16.5465C16.9033 16.2418 16.3999 16.2418 16.0886 16.5465Z" fill="#00B307"/>
</svg>
