<svg viewBox="0 0 14.5 16" xmlns="http://www.w3.org/2000/svg" xmlns:xlink="http://www.w3.org/1999/xlink" width="14.500000" height="16.000000" fill="none" customFrame="#000000">
	<g id="Group">
		<path id="Vector(Border)" d="M13.2678 1.64645C13.0321 1.54882 12.7761 1.5 12.5 1.5L2 1.5C1.72386 1.5 1.46793 1.54882 1.23223 1.64645C0.99653 1.74408 0.781048 1.89052 0.585786 2.08579C0.390524 2.28105 0.244078 2.49653 0.146447 2.73223C0.0488155 2.96793 0 3.22386 0 3.5L2.38419e-07 14C2.08616e-07 14.2761 0.048815 14.5321 0.146445 14.7678C0.244076 15.0035 0.390523 15.2189 0.585786 15.4142C0.781047 15.6095 0.996528 15.7559 1.23223 15.8535C1.46793 15.9512 1.72386 16 2 16L12.5 16C12.7762 16 13.0321 15.9512 13.2678 15.8535C13.5035 15.7559 13.719 15.6095 13.9142 15.4142C14.1095 15.219 14.2559 15.0035 14.3536 14.7678C14.4512 14.5321 14.5 14.2761 14.5 14L14.5 3.5C14.5 3.22386 14.4512 2.96793 14.3536 2.73223C14.2559 2.49653 14.1095 2.28105 13.9142 2.08579C13.719 1.89053 13.5035 1.74408 13.2678 1.64645ZM2 2.5L12.5 2.5C12.7761 2.5 13.0118 2.59763 13.2071 2.79289C13.4024 2.98816 13.5 3.22386 13.5 3.5L13.5 14C13.5 14.2761 13.4024 14.5118 13.2071 14.7071C13.0118 14.9024 12.7761 15 12.5 15L2 15C1.86193 15 1.73397 14.9756 1.61612 14.9268C1.49827 14.878 1.39052 14.8047 1.29289 14.7071C1.09763 14.5118 1 14.2761 1 14L1 3.5C1 3.36193 1.02441 3.23397 1.07322 3.11612C1.12204 2.99827 1.19526 2.89052 1.29289 2.79289C1.39052 2.69526 1.49827 2.62204 1.61612 2.57322C1.73397 2.52441 1.86193 2.5 2 2.5Z" fill="rgb(0,178.5,6.8)" fill-rule="evenodd" />
		<path id="Vector(Border)" d="M0.5 0C0.22 0 0 0.22 0 0.5C0 0.78 0.22 1 0.5 1L3.5 1C3.78 1 4 0.78 4 0.5C4 0.22 3.78 0 3.5 0L0.5 0Z" fill="rgb(0,178.5,6.8)" fill-rule="evenodd" transform="matrix(0,1,-1,0,10.75,0)" />
		<path id="Vector(Border)" d="M0.5 0C0.22 0 0 0.22 0 0.5C0 0.78 0.22 1 0.5 1L3.5 1C3.78 1 4 0.78 4 0.5C4 0.22 3.78 0 3.5 0L0.5 0Z" fill="rgb(0,178.5,6.8)" fill-rule="evenodd" transform="matrix(0,1,-1,0,4.75,0)" />
		<path id="Vector(Border)" d="M0.5 6C0.22 6 0 6.22 0 6.5C0 6.78 0.22 7 0.5 7L14 7C14.28 7 14.5 6.78 14.5 6.5C14.5 6.22 14.28 6 14 6L0.5 6Z" fill="rgb(0,178.5,6.8)" fill-rule="evenodd" />
	</g>
</svg>
