<svg viewBox="0 0 20.252 20.2504" xmlns="http://www.w3.org/2000/svg" xmlns:xlink="http://www.w3.org/1999/xlink" width="20.251953" height="20.250381" fill="none" customFrame="#000000">
	<g id="Group">
		<path id="Vector(Border)" d="M13.1353 0.809278C12.7297 0.700194 12.3254 0.93316 12.2163 1.33875C12.1072 1.74433 12.3402 2.14872 12.7457 2.2578C13.3856 2.42989 13.9826 2.67608 14.5368 2.99638C15.0909 3.31668 15.6023 3.71108 16.0708 4.17959C16.5393 4.6481 16.9337 5.15944 17.254 5.71362C17.5743 6.26779 17.8205 6.86479 17.9926 7.50462C18.1016 7.91021 18.506 8.14317 18.9116 8.03409C19.3172 7.925 19.5502 7.52062 19.4411 7.11503C19.2343 6.34607 18.9384 5.62859 18.5535 4.96258C18.1685 4.29655 17.6945 3.682 17.1314 3.11893C16.5684 2.55587 15.9538 2.08187 15.2878 1.69693C14.6218 1.31198 13.9043 1.0161 13.1353 0.809278Z" fill="rgb(0,178.5,6.8)" fill-rule="evenodd" />
		<path id="Vector(Border)" d="M12.2897 3.96596C11.8841 3.85685 11.4797 4.08979 11.3706 4.49537C11.2615 4.90095 11.4944 5.30535 11.9 5.41446C12.258 5.51077 12.592 5.64853 12.9021 5.82775C13.2121 6.00697 13.4982 6.22766 13.7604 6.4898C14.0225 6.75194 14.2432 7.03804 14.4224 7.34811C14.6016 7.65817 14.7394 7.99219 14.8357 8.35017C14.9448 8.75575 15.3492 8.98869 15.7548 8.87958C16.1604 8.77046 16.3933 8.36606 16.2842 7.96048C16.1532 7.47339 15.9657 7.0189 15.7219 6.59701C15.478 6.17511 15.1777 5.78582 14.821 5.42914C14.4643 5.07245 14.0751 4.77218 13.6532 4.52831C13.2313 4.28446 12.7768 4.097 12.2897 3.96596Z" fill="rgb(0,178.5,6.8)" fill-rule="evenodd" />
		<path id="Vector(Border)" d="M10.4441 13.4887C10.4342 13.4894 10.4248 13.4878 10.4158 13.4838C9.59529 13.0864 8.8808 12.5832 8.2723 11.974C7.67323 11.3743 7.1769 10.672 6.7833 9.86709C6.77872 9.85756 6.77678 9.84752 6.7775 9.83698C6.77821 9.82643 6.78197 9.81599 6.78877 9.80567L8.48748 7.21024C8.63088 6.9911 8.7141 6.75109 8.73713 6.49021C8.76017 6.22933 8.72013 5.97807 8.61702 5.73642L6.56651 0.952992C6.49844 0.792752 6.40971 0.650773 6.30033 0.527057C6.19094 0.403334 6.06089 0.297875 5.91019 0.210679C5.76715 0.127916 5.61872 0.0695372 5.4649 0.035543C5.29461 -0.00208992 5.11772 -0.00983858 4.93423 0.0122971C4.22906 0.102448 3.58275 0.303458 2.99529 0.615326C2.40783 0.927194 1.87922 1.34992 1.40946 1.88351C0.939767 2.41703 0.587463 2.99487 0.352553 3.61704C0.117583 4.23936 6.54459e-05 4.90603 0 5.61704C-5.96046e-08 6.58731 0.0928271 7.53911 0.278482 8.47244C0.464131 9.40575 0.742603 10.3206 1.1139 11.217C1.48521 12.1134 1.93522 12.9572 2.46393 13.7485C2.9926 14.5397 3.59996 15.2783 4.28601 15.9644C4.97212 16.6505 5.71082 17.2579 6.50211 17.7866C7.2933 18.3153 8.13706 18.7652 9.0334 19.1365C9.92962 19.5077 10.8443 19.7861 11.7774 19.9718C12.7109 20.1575 13.6629 20.2504 14.6334 20.2504C16.0553 20.2503 17.2999 19.7805 18.3672 18.841C18.8953 18.3761 19.315 17.8531 19.6261 17.272C19.9437 16.6788 20.1481 16.0251 20.2396 15.3108C20.2813 14.9651 20.2149 14.6416 20.0405 14.3402C19.8661 14.0388 19.6194 13.8203 19.3005 13.6848L14.5179 11.6346C14.2746 11.5307 14.0213 11.491 13.7578 11.5154C13.4944 11.5399 13.2529 11.6254 13.0332 11.7721L10.4724 13.4788C10.4639 13.4846 10.4544 13.4879 10.4441 13.4887ZM7.24269 13.0678C7.96182 13.7806 8.80324 14.3701 9.76694 14.8362L9.7724 14.8388C10.0216 14.9569 10.2837 15.0054 10.5587 14.9843C10.8336 14.9632 11.0853 14.8754 11.3136 14.7207L13.8651 13.0203C13.8748 13.0138 13.8853 13.01 13.8965 13.009C13.9077 13.008 13.9185 13.0097 13.9288 13.0141L18.7094 15.0635C18.7241 15.0697 18.735 15.079 18.7422 15.0914C18.7493 15.1038 18.7521 15.1171 18.7504 15.1313C18.6852 15.6403 18.5408 16.1077 18.3172 16.5334C18.0873 16.9713 17.7736 17.3652 17.3761 17.7151C16.984 18.0602 16.5595 18.319 16.1023 18.4915C15.6452 18.6641 15.1555 18.7503 14.6333 18.7504C13.7628 18.7504 12.9088 18.6671 12.0714 18.5006C11.2335 18.334 10.4122 18.084 9.60743 17.7507C8.80297 17.4174 8.0457 17.0136 7.33561 16.5392C6.62543 16.0646 5.96245 15.5195 5.34667 14.9037C4.73094 14.288 4.18584 13.6251 3.71136 12.915C3.23685 12.2048 2.83297 11.4475 2.49972 10.643C2.16648 9.83846 1.91656 9.01739 1.74994 8.17976C1.58331 7.34209 1.5 6.48785 1.5 5.61704C1.5001 4.5727 1.8452 3.65858 2.53532 2.87469C2.88038 2.48274 3.26867 2.17223 3.70019 1.94315C4.13171 1.71406 4.60646 1.56641 5.12444 1.50019C5.1351 1.49892 5.14661 1.50186 5.15898 1.50902C5.16517 1.5126 5.17052 1.51693 5.17501 1.52202C5.17949 1.52709 5.18313 1.53292 5.18593 1.53949L7.23835 6.32741C7.24239 6.33689 7.24393 6.34717 7.24295 6.35828C7.24197 6.36938 7.23842 6.37959 7.23232 6.38892L5.5337 8.98422C5.38368 9.21164 5.29942 9.46216 5.28091 9.73577C5.26241 10.0094 5.31256 10.2698 5.43138 10.5169C5.90925 11.4942 6.51302 12.3445 7.24269 13.0678Z" fill="rgb(0,178.5,6.8)" fill-rule="evenodd" />
	</g>
</svg>
