<svg width="17" height="17" viewBox="0 0 17 17" fill="none" xmlns="http://www.w3.org/2000/svg">
<path d="M10.8337 3.9834C10.8335 2.50158 9.63194 1.30078 8.15009 1.30078C6.66823 1.30078 5.46667 2.50158 5.46649 3.9834V5.83398H10.8337V3.9834ZM10.8337 8.9834V7.13379H5.46649V8.9834C5.46649 9.34227 5.17591 9.63361 4.81708 9.63379C4.45809 9.63379 4.16669 9.34238 4.16669 8.9834V7.13379H2.86005L1.42938 15H14.8708L13.4401 7.13379H12.1335V8.9834C12.1335 9.34238 11.8421 9.63379 11.4831 9.63379C11.1243 9.63361 10.8337 9.34227 10.8337 8.9834ZM12.1335 5.83398H13.9831L14.0983 5.84375C14.3612 5.89079 14.5734 6.09673 14.6227 6.36719L16.2897 15.5342C16.3242 15.7237 16.2724 15.9185 16.1491 16.0664C16.0256 16.2144 15.8428 16.3008 15.6501 16.3008H0.650084C0.457344 16.3008 0.274559 16.2144 0.151061 16.0664C0.0277443 15.9185 -0.0239905 15.7237 0.0104357 15.5342L1.67743 6.36719L1.7077 6.25586C1.80112 6.00572 2.04215 5.83398 2.31708 5.83398H4.16669V3.9834C4.16686 1.78361 5.95026 0 8.15009 0C10.3499 0 12.1333 1.78361 12.1335 3.9834V5.83398Z" fill="white"/>
</svg>
