<svg width="14" height="14" viewBox="0 0 14 14" fill="none" xmlns="http://www.w3.org/2000/svg">
<path d="M12.7197 0.219671C13.0126 -0.0732222 13.4873 -0.0732224 13.7802 0.219671C14.0731 0.512564 14.0731 0.987325 13.7802 1.28022L1.28022 13.7802C0.987324 14.0731 0.512563 14.0731 0.21967 13.7802C-0.0732234 13.4873 -0.0732232 13.0126 0.21967 12.7197L12.7197 0.219671Z" fill="white"/>
<path d="M0.21967 0.21967C0.512563 -0.0732233 0.987324 -0.0732233 1.28022 0.21967L13.7802 12.7197C14.0731 13.0126 14.0731 13.4873 13.7802 13.7802C13.4873 14.0731 13.0126 14.0731 12.7197 13.7802L0.21967 1.28022C-0.0732233 0.987324 -0.0732233 0.512563 0.21967 0.21967Z" fill="white"/>
</svg>
