<svg width="15" height="14" viewBox="0 0 15 14" fill="none" xmlns="http://www.w3.org/2000/svg">
<path d="M1.19922 10.125H5.34375C5.49419 10.1249 5.64271 10.1537 5.78125 10.21L5.91602 10.2754L6.04199 10.3574C6.12169 10.4172 6.19299 10.4873 6.25488 10.5654L6.34082 10.6885L7.34961 12.3701L8.35938 10.6885L8.44434 10.5654C8.53719 10.4482 8.65222 10.3495 8.7832 10.2754L8.91797 10.21C9.05644 10.1537 9.20507 10.125 9.35547 10.125H13.5V1.19922H1.19922V10.125ZM14.6992 10.1621C14.6992 10.4704 14.5774 10.7664 14.3594 10.9844C14.1414 11.2024 13.8454 11.3242 13.5371 11.3242H9.37695L8.3457 13.042C8.24243 13.214 8.09649 13.3562 7.92188 13.4551C7.74727 13.5539 7.55027 13.6064 7.34961 13.6064C7.14886 13.6064 6.95106 13.554 6.77637 13.4551C6.60183 13.3562 6.45576 13.214 6.35254 13.042L5.32227 11.3242H1.16211C0.853796 11.3242 0.557856 11.2024 0.339844 10.9844C0.121833 10.7664 0 10.4704 0 10.1621V1.16211C0 0.853795 0.121833 0.557854 0.339844 0.339844L0.425781 0.262695C0.632588 0.0933761 0.89248 0 1.16211 0H13.5371C13.8067 0 14.0666 0.093376 14.2734 0.262695L14.3594 0.339844L14.4365 0.425781C14.6058 0.632589 14.6992 0.892481 14.6992 1.16211V10.1621Z" fill="#B3B3B3"/>
</svg>
