<svg viewBox="0 0 14.0059 14.0061" xmlns="http://www.w3.org/2000/svg" xmlns:xlink="http://www.w3.org/1999/xlink" width="14.005859" height="14.006137" fill="none" customFrame="#000000">
	<g id="Group">
		<path id="Vector(Border)" d="M13.7834 1.2834L1.2834 13.7834C0.986413 14.0804 0.519723 14.0804 0.222738 13.7834C-0.0742461 13.4864 -0.0742461 13.0197 0.222739 12.7227L12.7227 0.22274C13.0197 -0.0742441 13.4864 -0.0742441 13.7834 0.22274C14.0804 0.519725 14.0804 0.986415 13.7834 1.2834Z" fill="rgb(255,255,255)" fill-rule="evenodd" />
		<path id="Vector(Border)" d="M1.2834 0.222741C0.986414 -0.0742444 0.519723 -0.0742443 0.222739 0.222741C-0.0742462 0.519725 -0.0742463 0.986416 0.222739 1.2834L12.7227 13.7834C13.0197 14.0804 13.4864 14.0804 13.7834 13.7834C14.0804 13.4864 14.0804 13.0197 13.7834 12.7227L1.2834 0.222741Z" fill="rgb(255,255,255)" fill-rule="evenodd" />
	</g>
</svg>
