<svg viewBox="0 0 40.2998 40.3008" xmlns="http://www.w3.org/2000/svg" xmlns:xlink="http://www.w3.org/1999/xlink" width="40.299805" height="40.300781" fill="none" customFrame="#000000">
	<g id="Group">
		<path id="Vector" d="M31.2883 17.5208C31.128 17.0262 30.7085 16.6725 30.1938 16.5978L24.0935 15.7113L21.3655 10.1841C21.1358 9.7175 20.6699 9.42773 20.1498 9.42773C19.6297 9.42773 19.1638 9.7175 18.9342 10.1836L16.2059 15.7113L10.1056 16.5978C9.59127 16.6725 9.1719 17.0259 9.01103 17.5206C8.85072 18.0145 8.98205 18.5469 9.35416 18.9102L13.7686 23.2129L12.7265 29.2884C12.6385 29.8007 12.8449 30.3088 13.2656 30.6145C13.5032 30.7873 13.7813 30.8752 14.0613 30.8751C14.2767 30.8751 14.4933 30.823 14.6934 30.7179L20.1498 27.8493L25.6058 30.718C25.7995 30.8197 26.0176 30.8735 26.2364 30.8735C26.5249 30.8735 26.8004 30.784 27.0336 30.6145C27.4535 30.3091 27.6603 29.8013 27.5727 29.2887L27.1605 26.8851C27.1014 26.5412 26.7746 26.3103 26.4312 26.3693C26.0874 26.4283 25.8565 26.7548 25.9155 27.0986L26.3277 29.5019C26.3335 29.5366 26.319 29.5723 26.2908 29.5928C26.2489 29.6234 26.2185 29.613 26.1933 29.5998L20.4433 26.5768C20.2594 26.4802 20.0397 26.4801 19.8555 26.5768L14.1049 29.5999C14.0742 29.6161 14.036 29.6133 14.0078 29.5928C13.9792 29.572 13.965 29.5374 13.971 29.5023L15.0693 23.0992C15.1046 22.8942 15.0367 22.6852 14.8878 22.5402L10.2358 18.0059C10.2106 17.9813 10.2013 17.944 10.212 17.911C10.2228 17.8777 10.2522 17.8528 10.2868 17.8478L16.7158 16.9136C16.9216 16.8837 17.0994 16.7545 17.1914 16.568L20.0668 10.7422C20.0981 10.6788 20.2008 10.6783 20.2324 10.7425L23.1077 16.568C23.1996 16.7545 23.3775 16.8837 23.5832 16.9136L30.0123 17.8478C30.0468 17.8529 30.076 17.8774 30.087 17.9112C30.0978 17.9443 30.0885 17.9814 30.0635 18.0057L25.4114 22.5402C25.2626 22.6852 25.1946 22.8944 25.2299 23.0992L25.5769 25.1223C25.6357 25.466 25.9624 25.697 26.306 25.638C26.6499 25.579 26.8808 25.2524 26.8217 24.9087L26.5309 23.2129L30.9453 18.9099C31.3177 18.5468 31.449 18.0143 31.2883 17.5208Z" fill="rgb(0,178.5,6.8)" fill-rule="nonzero" />
		<path id="Vector" d="M30.1938 16.5978L24.0935 15.7113L21.3655 10.1841C21.1358 9.7175 20.6699 9.42773 20.1498 9.42773C19.6297 9.42773 19.1638 9.7175 18.9342 10.1836L16.2059 15.7113L10.1056 16.5978C9.59127 16.6725 9.1719 17.0259 9.01103 17.5206C8.85072 18.0145 8.98205 18.5469 9.35416 18.9102L13.7686 23.2129L12.7265 29.2884C12.6385 29.8007 12.8449 30.3088 13.2656 30.6145C13.5032 30.7873 13.7813 30.8752 14.0613 30.8751C14.2767 30.8751 14.4933 30.823 14.6934 30.7179L20.1498 27.8493L25.6058 30.718C25.7995 30.8197 26.0176 30.8735 26.2364 30.8735C26.5249 30.8735 26.8004 30.784 27.0336 30.6145C27.4535 30.3091 27.6603 29.8013 27.5727 29.2887L27.1605 26.8851C27.1014 26.5412 26.7746 26.3103 26.4312 26.3693C26.0874 26.4283 25.8565 26.7548 25.9155 27.0986L26.3277 29.5019C26.3335 29.5366 26.319 29.5723 26.2908 29.5928C26.2489 29.6234 26.2185 29.613 26.1933 29.5998L20.4433 26.5768C20.2594 26.4802 20.0397 26.4801 19.8555 26.5768L14.1049 29.5999C14.0742 29.6161 14.036 29.6133 14.0078 29.5928C13.9792 29.572 13.965 29.5374 13.971 29.5023L15.0693 23.0992C15.1046 22.8942 15.0367 22.6852 14.8878 22.5402L10.2358 18.0059C10.2106 17.9813 10.2013 17.944 10.212 17.911C10.2228 17.8777 10.2522 17.8528 10.2868 17.8478L16.7158 16.9136C16.9216 16.8837 17.0994 16.7545 17.1914 16.568L20.0668 10.7422C20.0981 10.6788 20.2008 10.6783 20.2324 10.7425L23.1077 16.568C23.1996 16.7545 23.3775 16.8837 23.5832 16.9136L30.0123 17.8478C30.0468 17.8529 30.076 17.8774 30.087 17.9112C30.0978 17.9443 30.0885 17.9814 30.0635 18.0057L25.4114 22.5402C25.2626 22.6852 25.1946 22.8944 25.2299 23.0992L25.5769 25.1223C25.6357 25.466 25.9624 25.697 26.306 25.638C26.6499 25.579 26.8808 25.2524 26.8217 24.9087L26.5309 23.2129L30.9453 18.9099C31.3177 18.5468 31.449 18.0143 31.2883 17.5208C31.128 17.0262 30.7085 16.6725 30.1938 16.5978Z" fill-rule="nonzero" stroke="rgb(0,178.5,6.8)" stroke-width="0.300000" />
		<path id="Vector(Border)" d="M30.9837 16.7731C30.781 16.6019 30.525 16.4939 30.2157 16.449L24.1935 15.5738L21.5003 10.1173C21.2247 9.55732 20.7746 9.27734 20.1501 9.27734C19.5257 9.27734 19.0756 9.5572 18.7999 10.1169L16.1066 15.5738L10.0843 16.449C9.46693 16.5386 9.06172 16.8803 8.8687 17.4738C8.77262 17.7699 8.75615 18.0463 8.81932 18.3032C8.88267 18.5609 9.02613 18.7988 9.24969 19.0171L13.6078 23.2649L12.579 29.2627C12.4733 29.8776 12.6729 30.3686 13.1777 30.7355C13.443 30.9284 13.7376 31.0248 14.0616 31.0247C14.1709 31.0247 14.2777 31.0133 14.382 30.9905C14.5131 30.9618 14.6403 30.915 14.7635 30.8503L20.1501 28.0184L25.5363 30.8503C25.7556 30.9655 25.9891 31.0231 26.2367 31.0231C26.5631 31.0231 26.8582 30.9272 27.1221 30.7355C27.6263 30.3688 27.8259 29.878 27.7208 29.2631L27.3086 26.8593C27.2904 26.7531 27.2547 26.6578 27.2016 26.5735C27.1484 26.4891 27.0776 26.4156 26.9894 26.3533C26.8131 26.2286 26.6187 26.1846 26.4061 26.2211C26.1934 26.2576 26.0247 26.3639 25.9001 26.5402C25.7755 26.7164 25.7315 26.9109 25.768 27.1236L26.1605 29.4125L20.5134 26.4436C20.2711 26.3163 20.0286 26.3163 19.7861 26.4436L14.1389 29.4124L15.2175 23.1242C15.2639 22.8541 15.189 22.6235 14.9927 22.4323L10.4239 17.9791L16.7377 17.0616C16.8734 17.0419 16.9902 16.9964 17.0884 16.925C17.1864 16.8538 17.2657 16.7568 17.3263 16.634L20.1498 10.9132L22.9735 16.634C23.0947 16.8797 23.2908 17.0222 23.5619 17.0616L29.8758 17.9791L25.307 22.4324C25.2088 22.5281 25.141 22.6336 25.1036 22.7491C25.0662 22.8643 25.0591 22.9894 25.0823 23.1243L25.4294 25.1472C25.4658 25.3599 25.5721 25.5286 25.7484 25.6532C25.9246 25.7779 26.1191 25.8219 26.3317 25.7854C26.5445 25.7489 26.7131 25.6426 26.8378 25.4663C26.9624 25.2901 27.0064 25.0956 26.9699 24.8829L26.6924 23.2649L31.0504 19.0169C31.4973 18.5811 31.6243 18.0667 31.4312 17.4739C31.3351 17.1775 31.186 16.9438 30.9837 16.7731ZM23.9942 15.848L30.1726 16.7459C30.6674 16.8177 30.9919 17.0913 31.146 17.5668C31.3005 18.0413 31.1988 18.4531 30.841 18.8021L26.37 23.1601L26.6742 24.9337C26.6855 24.9991 26.6843 25.0618 26.6708 25.1216C26.6572 25.1816 26.6312 25.2388 26.5928 25.2931C26.516 25.4017 26.4121 25.4672 26.281 25.4897C26.15 25.5122 26.0302 25.4851 25.9216 25.4083C25.813 25.3315 25.7475 25.2276 25.7251 25.0965L25.378 23.0734C25.3494 22.9071 25.3955 22.765 25.5164 22.6472L30.1683 18.1129C30.2047 18.0775 30.228 18.0389 30.2382 17.9971C30.2481 17.9561 30.2454 17.9119 30.23 17.8647C30.199 17.7689 30.1337 17.7136 30.0342 17.699L23.6051 16.7648C23.438 16.7405 23.3172 16.6526 23.2425 16.5013L20.3673 10.6759C20.3241 10.588 20.2515 10.544 20.1497 10.5441C20.0481 10.5442 19.9758 10.588 19.9326 10.6754L17.0572 16.5013C16.9825 16.6526 16.8616 16.7405 16.6945 16.7648L10.2657 17.699C10.2162 17.7061 10.1751 17.7234 10.1425 17.7507C10.1096 17.7783 10.0853 17.8162 10.0696 17.8643C10.0387 17.9595 10.0593 18.0424 10.1314 18.113L14.7834 22.6472C14.9043 22.765 14.9504 22.9071 14.9218 23.0735L13.8235 29.4766C13.8066 29.5756 13.8387 29.6547 13.92 29.7138C14.0014 29.7728 14.0864 29.779 14.1751 29.7323L19.9255 26.7092C20.0751 26.6307 20.2245 26.6307 20.3738 26.7092L26.1238 29.7321C26.213 29.7791 26.2981 29.773 26.3792 29.7138C26.4604 29.6549 26.4926 29.5756 26.4758 29.4761L26.0636 27.0728C26.0412 26.9418 26.0683 26.822 26.1451 26.7134C26.2219 26.6048 26.3258 26.5392 26.4569 26.5167C26.5878 26.4943 26.7076 26.5214 26.8162 26.5982C26.9249 26.6751 26.9905 26.779 27.013 26.91L27.4251 29.3136C27.5093 29.8061 27.3495 30.1992 26.9458 30.4928C26.7344 30.6463 26.4981 30.7231 26.2367 30.7231C26.1375 30.7231 26.0412 30.7116 25.9476 30.6885C25.8542 30.6655 25.7637 30.6309 25.6759 30.5848L20.1501 27.6794L14.6239 30.5847C14.4464 30.678 14.2589 30.7247 14.0615 30.7247C13.8026 30.7248 13.5668 30.6475 13.3541 30.4928C12.9498 30.199 12.79 29.8059 12.8747 29.3134L13.9301 23.1601L9.45926 18.8024C9.28006 18.6275 9.1651 18.4367 9.1144 18.2302C9.06392 18.0247 9.07713 17.8035 9.154 17.5666C9.23137 17.3287 9.35131 17.1413 9.51382 17.0045C9.67598 16.8679 9.88053 16.7817 10.1275 16.7459L16.3058 15.848L19.069 10.2495C19.1792 10.0258 19.3242 9.85794 19.504 9.74592C19.6844 9.63354 19.8997 9.57734 20.1501 9.57734C20.4002 9.57734 20.6154 9.63346 20.7957 9.74568C20.9757 9.8578 21.121 10.0259 21.2313 10.2501L23.9942 15.848Z" fill="rgb(0,178.5,6.8)" fill-rule="evenodd" />
		<path id="Vector" d="M3.78131 19.5186L0.781465 19.5186C0.432637 19.5186 0.149902 19.8013 0.149902 20.1501C0.149902 20.4989 0.432637 20.7817 0.781465 20.7817L3.78131 20.7817C4.13021 20.7817 4.41287 20.4988 4.41287 20.1501C4.41287 19.8013 4.13014 19.5186 3.78131 19.5186Z" fill="rgb(0,178.5,6.8)" fill-rule="nonzero" />
		<path id="Vector" d="M0.781465 19.5186C0.432637 19.5186 0.149902 19.8013 0.149902 20.1501C0.149902 20.4989 0.432637 20.7817 0.781465 20.7817L3.78131 20.7817C4.13021 20.7817 4.41287 20.4988 4.41287 20.1501C4.41287 19.8013 4.13014 19.5186 3.78131 19.5186L0.781465 19.5186Z" fill-rule="nonzero" stroke="rgb(0,178.5,6.8)" stroke-width="0.300000" />
		<path id="Vector(Border)" d="M3.78141 19.3691L0.781562 19.3691C0.673605 19.3691 0.573557 19.3882 0.481418 19.4264C0.389349 19.4646 0.305179 19.5218 0.228906 19.598C0.152628 19.6743 0.0954142 19.7585 0.0572632 19.8506C0.0190877 19.9427 -1.49012e-08 20.0427 0 20.1507C0 20.2586 0.0190877 20.3587 0.057263 20.4508C0.0954139 20.5429 0.152628 20.6271 0.228906 20.7033C0.305179 20.7796 0.38935 20.8368 0.48142 20.875C0.573557 20.9132 0.673605 20.9322 0.781562 20.9322L3.78141 20.9322C3.88939 20.9322 3.98946 20.9131 4.08161 20.875C4.17368 20.8368 4.25784 20.7796 4.3341 20.7033C4.48668 20.5507 4.56297 20.3665 4.56297 20.1507C4.56297 20.0427 4.54388 19.9427 4.50571 19.8506C4.46756 19.7585 4.41034 19.6743 4.33406 19.598C4.25779 19.5218 4.17362 19.4646 4.08155 19.4264C3.98941 19.3882 3.88936 19.3691 3.78141 19.3691ZM0.596582 19.7044C0.653365 19.6809 0.715025 19.6691 0.781562 19.6691L3.78141 19.6691C3.9144 19.6691 4.02791 19.7162 4.12193 19.8102C4.16892 19.8572 4.20417 19.909 4.22767 19.9657C4.2512 20.0225 4.26297 20.0842 4.26297 20.1507C4.26297 20.2172 4.25121 20.2788 4.22769 20.3356C4.20419 20.3923 4.16894 20.4442 4.12195 20.4912C4.07498 20.5382 4.02314 20.5734 3.96644 20.5969C3.90964 20.6205 3.84796 20.6322 3.78141 20.6322L0.781562 20.6322C0.715027 20.6322 0.653368 20.6205 0.596585 20.5969C0.53987 20.5734 0.48802 20.5382 0.441036 20.4912C0.394048 20.4442 0.358801 20.3924 0.335295 20.3356C0.311765 20.2789 0.3 20.2172 0.3 20.1507C0.3 20.0842 0.311765 20.0225 0.335296 19.9657C0.358802 19.909 0.394048 19.8572 0.441036 19.8102C0.488019 19.7632 0.539868 19.7279 0.596582 19.7044Z" fill="rgb(0,178.5,6.8)" fill-rule="evenodd" />
		<path id="Vector" d="M39.5181 19.5186L36.5183 19.5186C36.1694 19.5186 35.8867 19.8014 35.8867 20.1501C35.8867 20.4989 36.1695 20.7817 36.5183 20.7817L39.5181 20.7817C39.867 20.7817 40.1496 20.4988 40.1496 20.1501C40.1496 19.8013 39.867 19.5186 39.5181 19.5186Z" fill="rgb(0,178.5,6.8)" fill-rule="nonzero" />
		<path id="Vector" d="M36.5183 19.5186C36.1694 19.5186 35.8867 19.8014 35.8867 20.1501C35.8867 20.4989 36.1695 20.7817 36.5183 20.7817L39.5181 20.7817C39.867 20.7817 40.1496 20.4988 40.1496 20.1501C40.1496 19.8013 39.867 19.5186 39.5181 19.5186L36.5183 19.5186Z" fill-rule="nonzero" stroke="rgb(0,178.5,6.8)" stroke-width="0.300000" />
		<path id="Vector(Border)" d="M39.5182 19.3691L36.5184 19.3691C36.4104 19.3691 36.3103 19.3882 36.2182 19.4264C36.1261 19.4646 36.0419 19.5218 35.9657 19.5981C35.8894 19.6744 35.8322 19.7585 35.7941 19.8506C35.7559 19.9427 35.7368 20.0428 35.7368 20.1507C35.7368 20.2586 35.7559 20.3587 35.7941 20.4508C35.8322 20.5429 35.8894 20.6271 35.9657 20.7033C36.042 20.7796 36.1262 20.8368 36.2182 20.875C36.3104 20.9132 36.4104 20.9322 36.5184 20.9322L39.5182 20.9322C39.6262 20.9322 39.7262 20.9131 39.8184 20.875C39.9104 20.8368 39.9946 20.7796 40.0709 20.7033C40.2234 20.5507 40.2997 20.3665 40.2997 20.1507C40.2997 20.0427 40.2806 19.9426 40.2424 19.8504C40.2043 19.7584 40.1471 19.6743 40.0709 19.598C39.9183 19.4454 39.734 19.3691 39.5182 19.3691ZM36.3333 19.7045C36.3901 19.6809 36.4518 19.6691 36.5184 19.6691L39.5182 19.6691C39.5848 19.6691 39.6465 19.6809 39.7033 19.7045C39.76 19.728 39.8118 19.7632 39.8587 19.8102C39.9057 19.8571 39.9409 19.9089 39.9644 19.9656C39.988 20.0224 39.9997 20.0841 39.9997 20.1507C39.9997 20.2172 39.988 20.2788 39.9645 20.3356C39.941 20.3923 39.9057 20.4442 39.8587 20.4912C39.8117 20.5382 39.7599 20.5734 39.7032 20.5969C39.6464 20.6205 39.5847 20.6322 39.5182 20.6322L36.5184 20.6322C36.4518 20.6322 36.3902 20.6205 36.3334 20.5969C36.2767 20.5734 36.2248 20.5382 36.1779 20.4912C36.1309 20.4442 36.0956 20.3924 36.0721 20.3357C36.0486 20.2789 36.0368 20.2172 36.0368 20.1507C36.0368 20.0842 36.0486 20.0225 36.0721 19.9658C36.0956 19.9091 36.1308 19.8572 36.1778 19.8102C36.2248 19.7632 36.2766 19.728 36.3333 19.7045Z" fill="rgb(0,178.5,6.8)" fill-rule="evenodd" />
		<path id="Vector" d="M8.12897 31.2778L6.0078 33.3989C5.76108 33.6454 5.76108 34.0453 6.00772 34.292C6.13108 34.4154 6.29272 34.477 6.45436 34.477C6.61593 34.477 6.77765 34.4154 6.90085 34.2921L9.02202 32.1709C9.26874 31.9243 9.26874 31.5244 9.0221 31.2778C8.77546 31.0311 8.37554 31.0311 8.12897 31.2778Z" fill="rgb(0,178.5,6.8)" fill-rule="nonzero" />
		<path id="Vector" d="M6.0078 33.3989C5.76108 33.6454 5.76108 34.0453 6.00772 34.292C6.13108 34.4154 6.29272 34.477 6.45436 34.477C6.61593 34.477 6.77765 34.4154 6.90085 34.2921L9.02202 32.1709C9.26874 31.9243 9.26874 31.5244 9.0221 31.2778C8.77546 31.0311 8.37554 31.0311 8.12897 31.2778L6.0078 33.3989Z" fill-rule="nonzero" stroke="rgb(0,178.5,6.8)" stroke-width="0.300000" />
		<path id="Vector(Border)" d="M5.90187 33.2933L5.90184 33.2934C5.82554 33.3696 5.76831 33.4538 5.73015 33.5459C5.69196 33.638 5.67286 33.738 5.67285 33.846C5.67284 33.9539 5.69192 34.0539 5.73006 34.146C5.76821 34.2381 5.82544 34.3223 5.90176 34.3986C5.97806 34.4749 6.06226 34.5322 6.15436 34.5703C6.24649 34.6085 6.34652 34.6276 6.45446 34.6276C6.56269 34.6276 6.66295 34.6084 6.75525 34.5701C6.84707 34.5319 6.931 34.4748 7.00705 34.3987L9.12819 32.2775C9.20445 32.2013 9.26166 32.1172 9.29983 32.0252C9.33805 31.933 9.35716 31.833 9.35717 31.7249C9.35718 31.5091 9.28088 31.3249 9.12826 31.1723C9.05197 31.096 8.96777 31.0388 8.87567 31.0006C8.78355 30.9624 8.68353 30.9434 8.57561 30.9434C8.46763 30.9434 8.36757 30.9625 8.27542 31.0007C8.18338 31.0388 8.09923 31.096 8.02299 31.1723L5.90187 33.2933ZM5.97285 33.846C5.97286 33.713 6.01989 33.5995 6.11393 33.5055L6.11396 33.5055L8.23516 31.3844C8.32915 31.2904 8.44263 31.2434 8.57561 31.2434C8.64211 31.2434 8.70374 31.2551 8.7605 31.2786C8.81725 31.3021 8.86912 31.3374 8.91613 31.3844C9.01016 31.4784 9.05718 31.5919 9.05717 31.7249C9.05716 31.7914 9.04541 31.853 9.02191 31.9097C8.99839 31.9665 8.9631 32.0184 8.91605 32.0654L6.79485 34.1866C6.74809 34.2334 6.69649 34.2685 6.64004 34.292C6.58311 34.3157 6.52125 34.3276 6.45446 34.3276C6.38794 34.3276 6.3263 34.3158 6.26952 34.2923C6.21278 34.2688 6.1609 34.2335 6.11389 34.1865C6.06687 34.1395 6.03161 34.0876 6.0081 34.0308C5.9846 33.9741 5.97285 33.9125 5.97285 33.846Z" fill="rgb(0,178.5,6.8)" fill-rule="evenodd" />
		<path id="Vector" d="M33.3986 6.00733L31.2773 8.12843C31.0306 8.37507 31.0306 8.77499 31.2773 9.02163C31.4006 9.14499 31.5623 9.20663 31.7239 9.20663C31.8855 9.20663 32.0472 9.14499 32.1704 9.02155L34.2916 6.90046C34.5383 6.6539 34.5383 6.25397 34.2917 6.00733C34.045 5.76062 33.6451 5.76054 33.3986 6.00733Z" fill="rgb(0,178.5,6.8)" fill-rule="nonzero" />
		<path id="Vector" d="M31.2773 8.12843C31.0306 8.37507 31.0306 8.77499 31.2773 9.02163C31.4006 9.14499 31.5623 9.20663 31.7239 9.20663C31.8855 9.20663 32.0472 9.14499 32.1704 9.02155L34.2916 6.90046C34.5383 6.6539 34.5383 6.25397 34.2917 6.00733C34.045 5.76062 33.6451 5.76054 33.3986 6.00733L31.2773 8.12843Z" fill-rule="nonzero" stroke="rgb(0,178.5,6.8)" stroke-width="0.300000" />
		<path id="Vector(Border)" d="M33.2925 5.9019L31.1714 8.02293C31.0187 8.17554 30.9424 8.35976 30.9424 8.57561C30.9424 8.68353 30.9615 8.78355 30.9996 8.87567C31.0378 8.96777 31.095 9.05198 31.1713 9.12828C31.2476 9.20459 31.3318 9.26182 31.4239 9.29997C31.516 9.33814 31.6161 9.35722 31.724 9.35722C31.8323 9.35722 31.9326 9.33802 32.0249 9.29962C32.1167 9.26143 32.2006 9.20426 32.2766 9.1281L34.3978 7.00711C34.474 6.93089 34.5312 6.84677 34.5694 6.75475C34.6076 6.6626 34.6267 6.56252 34.6268 6.45452C34.6268 6.23869 34.5505 6.05447 34.3979 5.90185C34.3215 5.82549 34.2373 5.76823 34.1451 5.73006C34.053 5.69193 33.9531 5.67286 33.8452 5.67285C33.6293 5.67284 33.4451 5.74919 33.2925 5.9019ZM31.2424 8.57562C31.2424 8.44263 31.2894 8.32912 31.3835 8.2351L31.3835 8.23508L33.5048 6.11393C33.5518 6.0669 33.6036 6.03163 33.6604 6.00812C33.7171 5.9846 33.7787 5.97285 33.8452 5.97285C33.9782 5.97286 34.0917 6.0199 34.1857 6.11399C34.2327 6.16101 34.268 6.21289 34.2915 6.26965C34.315 6.3264 34.3268 6.38802 34.3268 6.4545C34.3267 6.58748 34.2797 6.70097 34.1856 6.79498L32.0643 8.91617C32.0176 8.96297 31.966 8.99813 31.9096 9.02163C31.8527 9.04536 31.7908 9.05722 31.724 9.05722C31.6575 9.05722 31.5958 9.04546 31.5391 9.02194C31.4823 8.99843 31.4304 8.96317 31.3834 8.91615C31.2894 8.82212 31.2424 8.70861 31.2424 8.57562Z" fill="rgb(0,178.5,6.8)" fill-rule="evenodd" />
		<path id="Vector" d="M20.1501 35.8877C19.8012 35.8877 19.5186 36.1705 19.5186 36.5193L19.5186 39.519C19.5186 39.8679 19.8013 40.1506 20.1501 40.1506C20.499 40.1506 20.7817 39.8678 20.7817 39.519L20.7817 36.5193C20.7817 36.1704 20.499 35.8877 20.1501 35.8877Z" fill="rgb(0,178.5,6.8)" fill-rule="nonzero" />
		<path id="Vector" d="M19.5186 36.5193L19.5186 39.519C19.5186 39.8679 19.8013 40.1506 20.1501 40.1506C20.499 40.1506 20.7817 39.8678 20.7817 39.519L20.7817 36.5193C20.7817 36.1704 20.499 35.8877 20.1501 35.8877C19.8012 35.8877 19.5186 36.1705 19.5186 36.5193Z" fill-rule="nonzero" stroke="rgb(0,178.5,6.8)" stroke-width="0.300000" />
		<path id="Vector(Border)" d="M19.4254 36.2198C19.3872 36.3119 19.3682 36.4119 19.3682 36.5198L19.3682 39.5196C19.3682 39.6276 19.3873 39.7276 19.4254 39.8198C19.4636 39.9118 19.5208 39.996 19.5971 40.0723C19.6733 40.1485 19.7575 40.2058 19.8496 40.2439C19.9417 40.2821 20.0418 40.3012 20.1497 40.3012C20.2577 40.3012 20.3578 40.2821 20.4499 40.2439C20.542 40.2057 20.6261 40.1485 20.7024 40.0722C20.7787 39.9959 20.8359 39.9118 20.874 39.8197C20.9122 39.7276 20.9313 39.6275 20.9313 39.5196L20.9313 36.5198C20.9313 36.4118 20.9122 36.3117 20.874 36.2196C20.8358 36.1276 20.7786 36.0434 20.7024 35.9672C20.6262 35.891 20.5421 35.8338 20.45 35.7956C20.3579 35.7574 20.2577 35.7383 20.1497 35.7383C20.0417 35.7383 19.9417 35.7574 19.8495 35.7956C19.7575 35.8337 19.6733 35.8909 19.597 35.9672C19.5208 36.0435 19.4636 36.1277 19.4254 36.2198ZM19.6682 39.5196L19.6682 36.5198C19.6682 36.4533 19.6799 36.3917 19.7034 36.3349C19.7269 36.2782 19.7622 36.2263 19.8092 36.1793C19.8562 36.1324 19.908 36.0971 19.9647 36.0736C20.0215 36.0501 20.0832 36.0383 20.1497 36.0383C20.2163 36.0383 20.278 36.0501 20.3349 36.0736C20.3915 36.0971 20.4433 36.1324 20.4903 36.1793C20.5372 36.2263 20.5724 36.2781 20.5959 36.3347C20.6195 36.3915 20.6313 36.4533 20.6313 36.5198L20.6313 39.5196C20.6313 39.6526 20.5843 39.7661 20.4903 39.8601C20.4433 39.9071 20.3914 39.9423 20.3347 39.9659C20.2779 39.9894 20.2163 40.0012 20.1497 40.0012C20.0832 40.0012 20.0215 39.9894 19.9648 39.9659C19.908 39.9424 19.8562 39.9071 19.8092 39.8601C19.7622 39.8132 19.727 39.7613 19.7035 39.7046C19.6799 39.6478 19.6682 39.5861 19.6682 39.5196Z" fill="rgb(0,178.5,6.8)" fill-rule="evenodd" />
		<path id="Vector" d="M20.1501 4.41336C20.499 4.41336 20.7817 4.13055 20.7817 3.7818L20.7817 0.781953C20.7817 0.433125 20.4989 0.150391 20.1501 0.150391C19.8012 0.150391 19.5186 0.433203 19.5186 0.781953L19.5186 3.7818C19.5186 4.13062 19.8012 4.41336 20.1501 4.41336Z" fill="rgb(0,178.5,6.8)" fill-rule="nonzero" />
		<path id="Vector" d="M20.7817 3.7818L20.7817 0.781953C20.7817 0.433125 20.4989 0.150391 20.1501 0.150391C19.8012 0.150391 19.5186 0.433203 19.5186 0.781953L19.5186 3.7818C19.5186 4.13062 19.8012 4.41336 20.1501 4.41336C20.499 4.41336 20.7817 4.13055 20.7817 3.7818Z" fill-rule="nonzero" stroke="rgb(0,178.5,6.8)" stroke-width="0.300000" />
		<path id="Vector(Border)" d="M20.874 4.08149C20.9122 3.98936 20.9313 3.88934 20.9313 3.78141L20.9313 0.781562C20.9313 0.673605 20.9122 0.573557 20.874 0.48142C20.8358 0.38935 20.7786 0.305179 20.7024 0.228905C20.6261 0.152628 20.5419 0.0954139 20.4498 0.057263C20.3577 0.0190876 20.2577 -1.49012e-08 20.1497 0C20.0417 0 19.9417 0.019096 19.8495 0.0572879C19.7575 0.0954452 19.6733 0.152664 19.597 0.228944C19.5208 0.305227 19.4636 0.389407 19.4254 0.481484C19.3872 0.573605 19.3682 0.673632 19.3682 0.781562L19.3682 3.78141C19.3682 3.88942 19.3873 3.98951 19.4255 4.08168C19.4636 4.1737 19.5208 4.25782 19.597 4.33406C19.6733 4.41029 19.7574 4.46749 19.8494 4.50564C19.9416 4.54386 20.0417 4.56297 20.1497 4.56297C20.2577 4.56297 20.3578 4.54387 20.4499 4.50568C20.542 4.46752 20.6261 4.41031 20.7024 4.33402C20.7787 4.25774 20.8359 4.17356 20.874 4.08149ZM20.6313 0.781562L20.6313 3.78141C20.6313 3.91438 20.5843 4.02789 20.4903 4.12191C20.4433 4.1689 20.3914 4.20414 20.3347 4.22765C20.2779 4.2512 20.2163 4.26297 20.1497 4.26297C20.0831 4.26297 20.0214 4.25118 19.9646 4.22761C19.9079 4.2041 19.8561 4.16888 19.8092 4.12194C19.7622 4.07499 19.727 4.02319 19.7035 3.96652C19.6799 3.9097 19.6682 3.848 19.6682 3.78141L19.6682 0.781562C19.6682 0.715048 19.6799 0.653405 19.7034 0.596636C19.7269 0.539911 19.7622 0.488051 19.8092 0.441056C19.8562 0.394072 19.908 0.358825 19.9647 0.335316C20.0215 0.311772 20.0832 0.3 20.1497 0.3C20.2162 0.3 20.2779 0.311765 20.3347 0.335295C20.3914 0.358801 20.4432 0.394048 20.4902 0.441036C20.5372 0.48802 20.5725 0.539869 20.596 0.596584C20.6195 0.653367 20.6313 0.715026 20.6313 0.781562Z" fill="rgb(0,178.5,6.8)" fill-rule="evenodd" />
		<path id="Vector" d="M32.1704 31.2778C31.9239 31.0311 31.524 31.0311 31.2773 31.2778C31.0306 31.5243 31.0306 31.9242 31.2773 32.1709L33.3986 34.2921C33.5218 34.4154 33.6836 34.4771 33.8451 34.4771C34.0067 34.4771 34.1684 34.4154 34.2917 34.292C34.5383 34.0454 34.5383 33.6455 34.2916 33.3989L32.1704 31.2778Z" fill="rgb(0,178.5,6.8)" fill-rule="nonzero" />
		<path id="Vector" d="M31.2773 31.2778C31.0306 31.5243 31.0306 31.9242 31.2773 32.1709L33.3986 34.2921C33.5218 34.4154 33.6836 34.4771 33.8451 34.4771C34.0067 34.4771 34.1684 34.4154 34.2917 34.292C34.5383 34.0454 34.5383 33.6455 34.2916 33.3989L32.1704 31.2778C31.9239 31.0311 31.524 31.0311 31.2773 31.2778Z" fill-rule="nonzero" stroke="rgb(0,178.5,6.8)" stroke-width="0.300000" />
		<path id="Vector(Border)" d="M31.4241 31.0005C31.3319 31.0387 31.2477 31.0959 31.1713 31.1723C31.095 31.2485 31.0378 31.3327 30.9996 31.4247C30.9615 31.5169 30.9424 31.6169 30.9424 31.7249C30.9424 31.9407 31.0187 32.1249 31.1714 32.2776L33.2926 34.3987C33.3687 34.4749 33.4527 34.532 33.5446 34.5702C33.6369 34.6085 33.7371 34.6277 33.8452 34.6277C33.9534 34.6277 34.0535 34.6085 34.1458 34.5702C34.2377 34.532 34.3218 34.4748 34.3979 34.3986C34.4741 34.3224 34.5312 34.2384 34.5694 34.1465C34.6076 34.0543 34.6268 33.9541 34.6268 33.846C34.6267 33.6302 34.5504 33.446 34.3978 33.2934L32.2765 31.1723C32.2004 31.0961 32.1164 31.0389 32.0244 31.0008C31.9322 30.9625 31.8321 30.9434 31.724 30.9434C31.6161 30.9434 31.5161 30.9624 31.4241 31.0005ZM31.2424 31.7249C31.2424 31.5919 31.2894 31.4784 31.3834 31.3844C31.4305 31.3374 31.4824 31.3021 31.5392 31.2786C31.5959 31.2551 31.6575 31.2434 31.724 31.2434C31.7905 31.2434 31.8522 31.2551 31.9089 31.2787C31.9656 31.3022 32.0175 31.3374 32.0644 31.3844L34.1857 33.5055C34.2327 33.5526 34.268 33.6045 34.2915 33.6612C34.315 33.718 34.3267 33.7796 34.3268 33.846C34.3268 33.979 34.2797 34.0925 34.1856 34.1866C34.0917 34.2806 33.9782 34.3277 33.8452 34.3277C33.7786 34.3277 33.7169 34.3159 33.6601 34.2923C33.6034 34.2688 33.5517 34.2335 33.5047 34.1866L31.3835 32.0654C31.3364 32.0184 31.3012 31.9665 31.2776 31.9097C31.2541 31.8529 31.2424 31.7913 31.2424 31.7249Z" fill="rgb(0,178.5,6.8)" fill-rule="evenodd" />
		<path id="Vector" d="M8.1289 9.02253C8.25226 9.14589 8.4139 9.20753 8.57554 9.20753C8.7371 9.20753 8.89882 9.14589 9.0221 9.02268C9.26874 8.77604 9.26874 8.37612 9.0221 8.12948L6.90094 6.00822C6.65437 5.76158 6.25453 5.76158 6.00773 6.00822C5.76109 6.25479 5.76109 6.65471 6.00773 6.90135L8.1289 9.02253Z" fill="rgb(0,178.5,6.8)" fill-rule="nonzero" />
		<path id="Vector" d="M8.57554 9.20753C8.7371 9.20753 8.89882 9.14589 9.0221 9.02268C9.26874 8.77604 9.26874 8.37612 9.0221 8.12948L6.90094 6.00822C6.65437 5.76158 6.25453 5.76158 6.00773 6.00822C5.76109 6.25479 5.76109 6.65471 6.00773 6.90135L8.1289 9.02253C8.25226 9.14589 8.4139 9.20753 8.57554 9.20753Z" fill-rule="nonzero" stroke="rgb(0,178.5,6.8)" stroke-width="0.300000" />
		<path id="Vector(Border)" d="M8.02293 9.1282C8.17556 9.28082 8.35979 9.35714 8.57564 9.35714C8.68367 9.35714 8.78377 9.33803 8.87596 9.29982C8.96794 9.26169 9.05203 9.20455 9.12823 9.12839C9.20457 9.05205 9.26182 8.96781 9.29998 8.87566C9.33811 8.78357 9.35718 8.68358 9.35718 8.57569C9.35718 8.46775 9.3381 8.36772 9.29993 8.27559C9.26178 8.1835 9.20456 8.09931 9.12827 8.02302L7.0071 5.90177C6.93086 5.8255 6.84672 5.7683 6.75469 5.73014C6.66255 5.69195 6.56249 5.67285 6.45452 5.67285C6.34673 5.67285 6.24681 5.69189 6.15477 5.72996C6.06254 5.76811 5.97822 5.82536 5.9018 5.90173C5.82551 5.978 5.76828 6.06217 5.73012 6.15425C5.69194 6.24638 5.67285 6.34642 5.67285 6.45437C5.67285 6.56229 5.69193 6.66231 5.73009 6.75443C5.76824 6.84653 5.82547 6.93073 5.90177 7.00703L8.02293 9.1282ZM8.91617 8.91619C8.82215 9.01015 8.70864 9.05714 8.57564 9.05714C8.44263 9.05714 8.32911 9.01011 8.23507 8.91607L6.1139 6.79489C6.06689 6.74789 6.03163 6.69601 6.00812 6.63927C5.98461 6.5825 5.97285 6.52087 5.97285 6.45437C5.97285 6.38779 5.98463 6.32611 6.0082 6.26931C6.0317 6.21265 6.06692 6.16086 6.11386 6.11393C6.161 6.06683 6.213 6.03152 6.26989 6.00801C6.32659 5.98457 6.38813 5.97285 6.45452 5.97285C6.52101 5.97285 6.58263 5.98461 6.63938 6.00812C6.69611 6.03163 6.74797 6.06689 6.79496 6.1139L8.91613 8.23515C8.96313 8.28215 8.99839 8.33402 9.02189 8.39075C9.04542 8.44753 9.05718 8.50917 9.05718 8.57569C9.05718 8.64226 9.0454 8.70395 9.02185 8.76076C8.99834 8.81743 8.96312 8.86924 8.91617 8.91619Z" fill="rgb(0,178.5,6.8)" fill-rule="evenodd" />
	</g>
</svg>
