<svg viewBox="0 0 37.6219 40" xmlns="http://www.w3.org/2000/svg" xmlns:xlink="http://www.w3.org/1999/xlink" width="37.621887" height="40.000000" fill="none" customFrame="#000000">
	<path id="Vector" d="M32.4958 15.2101L32.4958 13.6723C32.4958 9.9916 31.1933 6.57143 28.8319 4.03361C26.4118 1.42857 23.084 0 19.4538 0L18.1849 0C14.5546 0 11.2269 1.42857 8.80672 4.03361C6.44538 6.57143 5.14286 9.9916 5.14286 13.6723L5.14286 15.2101C2.27731 15.4034 0 17.7899 0 20.7059L0 23.1092C0 26.1429 2.47059 28.6134 5.5042 28.6134L8.60504 28.6134C9.15967 28.6134 9.61345 28.1597 9.61345 27.605L9.61345 16.2017C9.61345 15.6471 9.15967 15.1933 8.60504 15.1933L7.15966 15.1933L7.15966 13.6723C7.15966 7.02521 11.8992 2.01681 18.1765 2.01681L19.4454 2.01681C25.7311 2.01681 30.4622 7.02521 30.4622 13.6723L30.4622 15.1933L29.0168 15.1933C28.4622 15.1933 28.0084 15.6471 28.0084 16.2017L28.0084 27.5966C28.0084 28.1513 28.4622 28.605 29.0168 28.605L30.4286 28.605C30.0168 33.8655 26.395 35.084 24.7143 35.3613C24.2521 33.9412 22.916 32.916 21.3445 32.916L18.8235 32.916C16.874 32.916 15.2857 34.5042 15.2857 36.4538C15.2857 38.4034 16.874 40 18.8235 40L21.3529 40C22.9832 40 24.3529 38.8908 24.7647 37.395C25.5882 37.2773 26.8908 36.9832 28.1849 36.2269C30.0084 35.1597 32.1681 32.9832 32.4538 28.5966C35.3361 28.4202 37.6219 26.0252 37.6219 23.1008L37.6219 20.6975C37.6303 17.7899 35.3614 15.395 32.4958 15.2101ZM7.61345 26.5882L5.52101 26.5882C3.59664 26.5882 2.03361 25.0252 2.03361 23.1008L2.03361 20.6975C2.03361 18.7731 3.59664 17.2101 5.52101 17.2101L7.61345 17.2101L7.61345 26.5882ZM21.3529 37.9832L18.8235 37.9832C17.9832 37.9832 17.3025 37.3025 17.3025 36.4622C17.3025 35.6218 17.9832 34.9412 18.8235 34.9412L21.3529 34.9412C22.1933 34.9412 22.874 35.6218 22.874 36.4622C22.874 37.3025 22.1933 37.9832 21.3529 37.9832ZM35.6135 23.1008C35.6135 25.0252 34.0504 26.5882 32.1261 26.5882L30.0336 26.5882L30.0336 17.2101L32.1261 17.2101C34.0504 17.2101 35.6135 18.7731 35.6135 20.6975L35.6135 23.1008Z" fill="rgb(0,178.5,6.8)" fill-rule="nonzero" />
</svg>
