<svg width="44" height="34" viewBox="0 0 44 34" fill="none" xmlns="http://www.w3.org/2000/svg">
<path d="M33.6405 27.6371C33.588 27.2273 33.4411 26.8353 33.2113 26.492C32.9816 26.1486 32.6752 25.8633 32.3164 25.6585L24.0623 20.9051C23.5494 20.6104 22.9537 20.4927 22.3672 20.5702C21.7807 20.6477 21.236 20.9162 20.8173 21.3341L18.6819 23.4709C18.4789 23.6735 18.208 23.7937 17.9215 23.8082C17.635 23.8227 17.3533 23.7304 17.1309 23.5493C15.8435 22.5073 14.6121 21.3979 13.4418 20.2259C12.2698 19.0556 11.1604 17.8242 10.1184 16.5368C9.93725 16.3144 9.84499 16.0327 9.85946 15.7462C9.87394 15.4597 9.99413 15.1888 10.1968 14.9858L12.3335 12.849C12.7512 12.4304 13.0194 11.886 13.097 11.2998C13.1745 10.7136 13.057 10.1182 12.7625 9.60539L8.00779 1.34851C7.80289 0.989782 7.51755 0.683489 7.17422 0.453726C6.83089 0.223962 6.43893 0.0769944 6.02917 0.0243849C5.61998 -0.0313252 5.20345 0.00872891 4.81238 0.141393C4.42131 0.274057 4.06638 0.495706 3.77554 0.788885L1.32529 3.24051C-2.17271 6.73851 1.47792 15.8699 9.63717 24.0291C15.7009 30.0929 22.3009 33.6679 26.7284 33.6665C28.2574 33.6665 29.5279 33.2403 30.4272 32.341L32.876 29.8908C33.1693 29.5997 33.391 29.2446 33.5237 28.8532C33.6564 28.4619 33.6964 28.0452 33.6405 27.6358V27.6371ZM31.9644 28.9791L31.6385 29.3064L24.5683 25.2721C24.4206 25.1969 24.2495 25.1815 24.0907 25.229C23.9319 25.2766 23.7975 25.3834 23.7154 25.5275C23.6333 25.6715 23.6099 25.8416 23.6499 26.0024C23.6899 26.1633 23.7903 26.3026 23.9303 26.3914L30.6939 30.251L29.5142 31.4294C28.1873 32.7576 25.4483 32.693 22.0025 31.2506C18.323 29.7134 14.2558 26.8231 10.5488 23.1175C6.84179 19.4105 3.95292 15.3433 2.41567 11.6638C0.973293 8.21801 0.907293 5.47901 2.23692 4.15214L3.49504 2.89264L3.94192 3.66951C3.98417 3.74291 4.04047 3.80727 4.10759 3.85891C4.17472 3.91056 4.25136 3.94848 4.33314 3.9705C4.41492 3.99253 4.50023 3.99823 4.58422 3.98728C4.6682 3.97633 4.7492 3.94895 4.82261 3.9067C4.89601 3.86444 4.96037 3.80815 5.01201 3.74102C5.06365 3.6739 5.10157 3.59726 5.1236 3.51548C5.14562 3.4337 5.15132 3.34838 5.14037 3.2644C5.12943 3.18041 5.10205 3.09941 5.05979 3.02601L4.43967 1.94939L4.68717 1.70188C4.83847 1.54918 5.02315 1.43368 5.22668 1.36449C5.43021 1.29529 5.64702 1.27429 5.86004 1.30313C6.29592 1.36088 6.67129 1.61251 6.89129 1.99338L11.6447 10.2489C11.9595 10.7975 11.8674 11.4905 11.4205 11.9374L10.6395 12.7184L6.43754 5.41851C6.35221 5.27027 6.21148 5.162 6.04632 5.11752C5.88116 5.07304 5.70509 5.09599 5.55686 5.18132C5.40862 5.26666 5.30035 5.40738 5.25587 5.57254C5.21138 5.7377 5.23433 5.91377 5.31967 6.06201L9.69629 13.663L9.28379 14.0755C8.85591 14.5032 8.60168 15.0742 8.57019 15.6783C8.5387 16.2825 8.73219 16.8768 9.11329 17.3466C10.1841 18.6696 11.3242 19.935 12.5288 21.1375C13.7317 22.3421 14.9976 23.4822 16.321 24.553C16.7911 24.9342 17.3857 25.1277 17.99 25.0963C18.5944 25.0648 19.1657 24.8105 19.5935 24.3825L19.8905 24.0855L21.4814 24.993C21.5548 25.0354 21.6359 25.0629 21.72 25.0739C21.804 25.0848 21.8895 25.079 21.9713 25.0567C22.0531 25.0345 22.1297 24.9963 22.1966 24.9443C22.2636 24.8923 22.3196 24.8275 22.3614 24.7538C22.4034 24.6802 22.4305 24.5991 22.4412 24.515C22.4518 24.431 22.4458 24.3456 22.4234 24.2639C22.4011 24.1822 22.3629 24.1057 22.3109 24.0387C22.259 23.9718 22.1944 23.9157 22.1208 23.8738L20.8352 23.1409L21.7289 22.2471C21.9468 22.0297 22.2301 21.8899 22.5352 21.8494C22.8404 21.8089 23.1504 21.8699 23.4174 22.023L31.6743 26.7764C32.0552 26.9964 32.3068 27.3704 32.3632 27.8063C32.392 28.0193 32.371 28.2361 32.3018 28.4396C32.2326 28.6432 32.1171 28.8278 31.9644 28.9791Z" fill="#1A1A1A"/>
<path d="M20.6181 16.5381H15.7891C16.0146 14.6544 17.2204 13.3756 18.4896 12.0295C19.8536 10.5857 21.2629 9.09111 21.2629 6.84711C21.2618 5.94561 20.9032 5.08135 20.2658 4.44389C19.6283 3.80643 18.7641 3.44783 17.8626 3.44674C16.9608 3.44747 16.0962 3.80591 15.4585 4.44341C14.8207 5.0809 14.4619 5.94538 14.4608 6.84711C14.4608 7.01815 14.5288 7.18217 14.6497 7.30311C14.7706 7.42405 14.9347 7.49199 15.1057 7.49199C15.2767 7.49199 15.4407 7.42405 15.5617 7.30311C15.6826 7.18217 15.7506 7.01815 15.7506 6.84711C15.7506 5.68249 16.6979 4.73649 17.8626 4.73649C19.0258 4.73649 19.9732 5.68249 19.9732 6.84711C19.9732 8.57961 18.8512 9.76761 17.5532 11.1454C16.1039 12.6812 14.4608 14.422 14.4608 17.1816C14.4608 17.5391 14.7496 17.8279 15.1071 17.8279H20.6181C20.7891 17.8279 20.9531 17.7599 21.0741 17.639C21.195 17.518 21.2629 17.354 21.2629 17.183C21.2629 17.012 21.195 16.8479 21.0741 16.727C20.9531 16.6061 20.7891 16.5381 20.6181 16.5381Z" fill="#1A1A1A"/>
<path d="M28.8858 13.0938H28.153V4.09025C28.153 3.91922 28.085 3.7552 27.9641 3.63426C27.8431 3.51332 27.6791 3.44538 27.5081 3.44538C27.337 3.44538 27.173 3.51332 27.0521 3.63426C26.9311 3.7552 26.8632 3.91922 26.8632 4.09025V13.091H23.4298L24.7031 4.181C24.7151 4.09713 24.7105 4.01171 24.6895 3.92963C24.6685 3.84754 24.6315 3.7704 24.5807 3.7026C24.5299 3.6348 24.4662 3.57768 24.3933 3.53449C24.3204 3.4913 24.2397 3.46289 24.1558 3.45088C24.072 3.43887 23.9865 3.4435 23.9045 3.4645C23.8224 3.48551 23.7452 3.52247 23.6774 3.57329C23.6096 3.62411 23.5525 3.68778 23.5093 3.76067C23.4661 3.83357 23.4377 3.91425 23.4257 3.99813L22.048 13.6451C22.0352 13.7365 22.0421 13.8295 22.0683 13.918C22.0945 14.0064 22.1393 14.0882 22.1998 14.1579C22.2602 14.2276 22.3349 14.2836 22.4187 14.322C22.5026 14.3604 22.5937 14.3805 22.686 14.3808H26.8646V17.1803C26.8646 17.2649 26.8813 17.3488 26.9137 17.427C26.9461 17.5053 26.9936 17.5764 27.0535 17.6363C27.1133 17.6961 27.1844 17.7436 27.2627 17.776C27.3409 17.8084 27.4248 17.8251 27.5095 17.8251C27.5941 17.8251 27.678 17.8084 27.7562 17.776C27.8345 17.7436 27.9056 17.6961 27.9654 17.6363C28.0253 17.5764 28.0728 17.5053 28.1052 17.427C28.1377 17.3488 28.1543 17.2649 28.1543 17.1803V14.3808H28.8872C29.0582 14.3808 29.2223 14.3128 29.3432 14.1919C29.4641 14.0709 29.5321 13.9069 29.5321 13.7359C29.5321 13.5648 29.4641 13.4008 29.3432 13.2799C29.2223 13.1589 29.0582 13.091 28.8872 13.091L28.8858 13.0938Z" fill="#1A1A1A"/>
<path d="M43.8763 3.71074C43.8163 3.62882 43.7379 3.56222 43.6473 3.51635C43.5568 3.47047 43.4567 3.44662 43.3552 3.44674H38.5317C38.3606 3.44674 38.1966 3.51468 38.0757 3.63562C37.9547 3.75656 37.8868 3.92058 37.8868 4.09161C37.8868 4.26265 37.9547 4.42667 38.0757 4.54761C38.1966 4.66855 38.3606 4.73649 38.5317 4.73649H42.4752L38.6073 16.9877C38.5604 17.1494 38.5786 17.323 38.6579 17.4714C38.7373 17.6199 38.8715 17.7314 39.032 17.7822C39.1925 17.833 39.3665 17.819 39.5168 17.7433C39.6671 17.6676 39.7819 17.5361 39.8365 17.3769L43.9698 4.28549C44.0001 4.18895 44.0073 4.08665 43.9908 3.98682C43.9743 3.88699 43.9346 3.79243 43.8749 3.71074H43.8763Z" fill="#1A1A1A"/>
<path d="M35.9491 1.40351C35.7846 1.35783 35.6087 1.37923 35.46 1.46299C35.3113 1.54676 35.2019 1.68606 35.1557 1.85038L30.3322 19.075C30.2903 19.2383 30.314 19.4115 30.3982 19.5575C30.4825 19.7035 30.6205 19.8108 30.7828 19.8562C30.9452 19.9017 31.1188 19.8818 31.2667 19.8008C31.4145 19.7198 31.5248 19.5842 31.5738 19.4229L36.3959 2.19826C36.4187 2.11664 36.4252 2.03133 36.415 1.9472C36.4048 1.86308 36.3782 1.78179 36.3365 1.70798C36.2949 1.63417 36.2391 1.56929 36.1724 1.51705C36.1057 1.4648 36.0293 1.42622 35.9477 1.40351H35.9491Z" fill="#1A1A1A"/>
</svg>
