<svg viewBox="0 0 43.9994 33.6665" xmlns="http://www.w3.org/2000/svg" xmlns:xlink="http://www.w3.org/1999/xlink" width="43.999390" height="33.666515" fill="none" customFrame="#000000">
	<g id="Group">
		<g id="Group">
			<path id="Vector" d="M33.6402 27.6371C33.5877 27.2273 33.4407 26.8353 33.211 26.492C32.9812 26.1486 32.6748 25.8633 32.3161 25.6585L24.0619 20.9051C23.549 20.6104 22.9533 20.4927 22.3668 20.5702C21.7803 20.6477 21.2356 20.9162 20.8169 21.3341L18.6816 23.4709C18.4785 23.6735 18.2076 23.7937 17.9211 23.8082C17.6346 23.8227 17.353 23.7304 17.1306 23.5493C15.8431 22.5073 14.6117 21.3979 13.4414 20.2259C12.2694 19.0556 11.1601 17.8242 10.1181 16.5368C9.93688 16.3144 9.84462 16.0327 9.8591 15.7462C9.87357 15.4597 9.99376 15.1888 10.1964 14.9858L12.3332 12.849C12.7508 12.4304 13.0191 11.886 13.0966 11.2998C13.1741 10.7136 13.0566 10.1182 12.7622 9.60539L8.00743 1.34851C7.80253 0.989782 7.51719 0.683489 7.17386 0.453726C6.83052 0.223962 6.43856 0.0769944 6.0288 0.0243849C5.61962 -0.0313252 5.20308 0.00872892 4.81201 0.141393C4.42094 0.274057 4.06601 0.495706 3.77518 0.788885L1.32493 3.24051C-2.17307 6.73851 1.47755 15.8699 9.6368 24.0291C15.7006 30.0929 22.3006 33.6679 26.7281 33.6665C28.257 33.6665 29.5276 33.2403 30.4268 32.341L32.8757 29.8908C33.169 29.5997 33.3907 29.2446 33.5233 28.8532C33.656 28.4619 33.696 28.0452 33.6402 27.6358L33.6402 27.6371ZM31.9641 28.9791L31.6382 29.3064L24.5679 25.2721C24.4202 25.1969 24.2492 25.1815 24.0904 25.229C23.9316 25.2766 23.7972 25.3834 23.7151 25.5275C23.633 25.6715 23.6095 25.8416 23.6495 26.0024C23.6895 26.1633 23.7899 26.3026 23.9299 26.3914L30.6936 30.251L29.5138 31.4294C28.1869 32.7576 25.4479 32.693 22.0022 31.2506C18.3227 29.7134 14.2554 26.8231 10.5484 23.1175C6.84143 19.4105 3.95255 15.3433 2.4153 11.6638C0.972926 8.21801 0.906927 5.47901 2.23655 4.15214L3.49468 2.89264L3.94155 3.66951C3.9838 3.74291 4.0401 3.80727 4.10723 3.85891C4.17435 3.91056 4.25099 3.94848 4.33277 3.9705C4.41455 3.99252 4.49987 3.99823 4.58385 3.98728C4.66783 3.97633 4.74884 3.94895 4.82224 3.9067C4.89564 3.86444 4.96 3.80815 5.01164 3.74102C5.06329 3.6739 5.1012 3.59726 5.12323 3.51548C5.14525 3.4337 5.15096 3.34838 5.14001 3.2644C5.12906 3.18041 5.10168 3.09941 5.05943 3.02601L4.4393 1.94939L4.6868 1.70188C4.8381 1.54918 5.02279 1.43368 5.22631 1.36449C5.42984 1.29529 5.64665 1.27429 5.85968 1.30313C6.29555 1.36088 6.67093 1.61251 6.89093 1.99338L11.6443 10.2489C11.9592 10.7975 11.8671 11.4905 11.4202 11.9374L10.6392 12.7184L6.43718 5.41851C6.35184 5.27027 6.21112 5.162 6.04596 5.11752C5.88079 5.07304 5.70473 5.09599 5.55649 5.18132C5.40825 5.26666 5.29998 5.40738 5.2555 5.57254C5.21102 5.7377 5.23397 5.91377 5.3193 6.06201L9.69593 13.663L9.28343 14.0755C8.85555 14.5032 8.60131 15.0742 8.56982 15.6783C8.53833 16.2825 8.73183 16.8768 9.11293 17.3466C10.1838 18.6696 11.3239 19.935 12.5284 21.1375C13.7314 22.3421 14.9972 23.4822 16.3207 24.553C16.7907 24.9342 17.3853 25.1277 17.9897 25.0963C18.594 25.0648 19.1653 24.8105 19.5932 24.3825L19.8902 24.0855L21.4811 24.993C21.5545 25.0354 21.6355 25.0629 21.7196 25.0739C21.8037 25.0848 21.8891 25.079 21.9709 25.0567C22.0527 25.0345 22.1293 24.9963 22.1963 24.9443C22.2632 24.8923 22.3192 24.8275 22.3611 24.7538C22.4031 24.6802 22.4302 24.5991 22.4408 24.515C22.4515 24.431 22.4454 24.3456 22.4231 24.2639C22.4007 24.1822 22.3625 24.1057 22.3106 24.0387C22.2586 23.9718 22.194 23.9157 22.1204 23.8738L20.8348 23.1409L21.7286 22.2471C21.9464 22.0297 22.2297 21.8899 22.5349 21.8494C22.84 21.8089 23.15 21.8699 23.4171 22.023L31.6739 26.7764C32.0548 26.9964 32.3064 27.3704 32.3628 27.8063C32.3916 28.0193 32.3706 28.2361 32.3015 28.4396C32.2323 28.6432 32.1168 28.8278 31.9641 28.9791Z" fill="rgb(25.5,25.5,25.5)" fill-rule="nonzero" />
			<path id="Vector" d="M20.6178 16.5381L15.7888 16.5381C16.0143 14.6544 17.2202 13.3756 18.4893 12.0295C19.8533 10.5857 21.2627 9.09111 21.2627 6.84711C21.2616 5.94561 20.903 5.08135 20.2655 4.44389C19.6281 3.80643 18.7638 3.44783 17.8623 3.44674C16.9606 3.44747 16.096 3.80591 15.4582 4.44341C14.8205 5.0809 14.4617 5.94538 14.4606 6.84711C14.4606 7.01815 14.5285 7.18217 14.6495 7.30311C14.7704 7.42405 14.9344 7.49199 15.1054 7.49199C15.2765 7.49199 15.4405 7.42405 15.5614 7.30311C15.6824 7.18217 15.7503 7.01815 15.7503 6.84711C15.7503 5.68249 16.6977 4.73649 17.8623 4.73649C19.0256 4.73649 19.9729 5.68249 19.9729 6.84711C19.9729 8.57961 18.8509 9.76761 17.5529 11.1454C16.1037 12.6812 14.4606 14.422 14.4606 17.1816C14.4606 17.5391 14.7493 17.8279 15.1068 17.8279L20.6178 17.8279C20.7889 17.8279 20.9529 17.7599 21.0738 17.639C21.1948 17.518 21.2627 17.354 21.2627 17.183C21.2627 17.012 21.1948 16.8479 21.0738 16.727C20.9529 16.6061 20.7889 16.5381 20.6178 16.5381Z" fill="rgb(25.5,25.5,25.5)" fill-rule="nonzero" />
			<path id="Vector" d="M28.8857 13.0938L28.1528 13.0938L28.1528 4.09025C28.1528 3.91922 28.0849 3.7552 27.964 3.63426C27.843 3.51332 27.679 3.44538 27.508 3.44538C27.3369 3.44538 27.1729 3.51332 27.052 3.63426C26.931 3.7552 26.8631 3.91922 26.8631 4.09025L26.8631 13.091L23.4297 13.091L24.703 4.181C24.715 4.09713 24.7103 4.01171 24.6893 3.92963C24.6683 3.84754 24.6314 3.7704 24.5805 3.7026C24.5297 3.6348 24.4661 3.57768 24.3932 3.53449C24.3203 3.4913 24.2396 3.46289 24.1557 3.45088C24.0718 3.43887 23.9864 3.4435 23.9043 3.4645C23.8223 3.48551 23.7451 3.52247 23.6773 3.57329C23.6095 3.62411 23.5524 3.68778 23.5092 3.76067C23.466 3.83357 23.4376 3.91425 23.4256 3.99813L22.0478 13.6451C22.0351 13.7365 22.042 13.8295 22.0682 13.918C22.0944 14.0064 22.1392 14.0882 22.1997 14.1579C22.2601 14.2276 22.3348 14.2836 22.4186 14.322C22.5025 14.3604 22.5936 14.3805 22.6858 14.3808L26.8645 14.3808L26.8645 17.1803C26.8645 17.2649 26.8811 17.3488 26.9135 17.427C26.946 17.5053 26.9935 17.5764 27.0533 17.6362C27.1132 17.6961 27.1843 17.7436 27.2626 17.776C27.3408 17.8084 27.4246 17.8251 27.5093 17.8251C27.594 17.8251 27.6779 17.8084 27.7561 17.776C27.8344 17.7436 27.9054 17.6961 27.9653 17.6362C28.0252 17.5764 28.0727 17.5053 28.1051 17.427C28.1375 17.3488 28.1542 17.2649 28.1542 17.1803L28.1542 14.3808L28.8871 14.3808C29.0581 14.3808 29.2221 14.3128 29.3431 14.1919C29.464 14.0709 29.532 13.9069 29.532 13.7359C29.532 13.5648 29.464 13.4008 29.3431 13.2799C29.2221 13.1589 29.0581 13.091 28.8871 13.091L28.8857 13.0938Z" fill="rgb(25.5,25.5,25.5)" fill-rule="nonzero" />
			<path id="Vector" d="M43.8759 3.71074C43.8159 3.62882 43.7375 3.56222 43.6469 3.51635C43.5564 3.47047 43.4562 3.44662 43.3547 3.44674L38.5312 3.44674C38.3602 3.44674 38.1962 3.51468 38.0752 3.63562C37.9543 3.75656 37.8864 3.92058 37.8864 4.09161C37.8864 4.26265 37.9543 4.42667 38.0752 4.54761C38.1962 4.66855 38.3602 4.73649 38.5312 4.73649L42.4747 4.73649L38.6068 16.9877C38.56 17.1494 38.5781 17.323 38.6575 17.4714C38.7369 17.6199 38.8711 17.7314 39.0316 17.7822C39.1921 17.833 39.366 17.819 39.5163 17.7433C39.6667 17.6676 39.7814 17.5361 39.8361 17.3769L43.9694 4.28549C43.9996 4.18895 44.0068 4.08665 43.9904 3.98682C43.9739 3.88699 43.9342 3.79243 43.8745 3.71074L43.8759 3.71074Z" fill="rgb(25.5,25.5,25.5)" fill-rule="nonzero" />
			<path id="Vector" d="M35.9492 1.40351C35.7848 1.35783 35.6089 1.37923 35.4602 1.46299C35.3115 1.54676 35.202 1.68606 35.1559 1.85038L30.3324 19.075C30.2905 19.2383 30.3142 19.4115 30.3984 19.5575C30.4826 19.7035 30.6207 19.8108 30.783 19.8562C30.9454 19.9017 31.119 19.8818 31.2669 19.8008C31.4147 19.7198 31.525 19.5842 31.574 19.4229L36.3961 2.19826C36.4189 2.11664 36.4254 2.03133 36.4152 1.9472C36.405 1.86308 36.3783 1.78179 36.3367 1.70798C36.2951 1.63417 36.2393 1.56929 36.1726 1.51705C36.1059 1.4648 36.0295 1.42622 35.9479 1.40351L35.9492 1.40351Z" fill="rgb(25.5,25.5,25.5)" fill-rule="nonzero" />
		</g>
	</g>
</svg>
