<svg width="19" height="17" viewBox="0 0 19 17" fill="none" xmlns="http://www.w3.org/2000/svg">
<path d="M9.45704 0C9.87227 5.99562e-05 10.2808 0.106836 10.6426 0.310547C11.0043 0.514241 11.3071 0.808167 11.5225 1.16309L10.8809 1.55273L10.9688 1.5L11.5225 1.16309L11.5254 1.16699L18.583 12.9502L17.917 13.3486L17.9404 13.3359L18.583 12.9502L18.5899 12.9609C18.8007 13.3262 18.9119 13.7404 18.9131 14.1621C18.9143 14.5841 18.8057 14.9996 18.5967 15.3662C18.3878 15.7327 18.0862 16.038 17.7227 16.252C17.359 16.4659 16.9453 16.5813 16.5234 16.5859L16.5147 15.751V15.8359L16.5234 16.5859H2.38966L2.39845 15.8359V15.751L2.38966 16.5859C1.96796 16.5812 1.55491 16.4658 1.19142 16.252C0.82787 16.038 0.526346 15.7326 0.317392 15.3662C0.108428 14.9996 -0.00117209 14.5841 9.45303e-06 14.1621C0.00122149 13.7402 0.113287 13.3263 0.324228 12.9609L0.330088 12.9502L0.973642 13.3359L0.996103 13.3486L0.330088 12.9502L7.38868 1.16699L7.99513 1.53027L7.39063 1.16309C7.60604 0.808078 7.90965 0.514267 8.27149 0.310547C8.63331 0.106936 9.04186 0 9.45704 0ZM9.45704 1.5C9.2995 1.5 9.14413 1.54087 9.00685 1.61816C8.86966 1.69545 8.75453 1.80678 8.67286 1.94141L1.62208 13.71C1.54212 13.8484 1.50054 14.0061 1.50001 14.166C1.49956 14.3261 1.54088 14.484 1.62013 14.623C1.69939 14.7621 1.81421 14.8778 1.95216 14.959C2.08996 15.04 2.24641 15.0841 2.40626 15.0859H16.5068C16.6669 15.0842 16.824 15.0401 16.9619 14.959C17.0997 14.8778 17.2138 14.762 17.293 14.623C17.3722 14.484 17.4135 14.3261 17.4131 14.166C17.4126 14.0061 17.37 13.8494 17.29 13.7109V13.71L10.2402 1.94141L10.1729 1.84473C10.0996 1.75302 10.0092 1.6761 9.90626 1.61816C9.76908 1.54093 9.61447 1.50006 9.45704 1.5Z" fill="#EA4B48"/>
<path d="M8.70703 9.16862V5.83562C8.70703 5.4214 9.04282 5.08562 9.45703 5.08562C9.87124 5.08562 10.207 5.4214 10.207 5.83562V9.16862C10.207 9.58284 9.87124 9.91862 9.45703 9.91862C9.04282 9.91862 8.70703 9.58284 8.70703 9.16862Z" fill="#EA4B48"/>
<path d="M9.46582 11.7523C9.87982 11.7525 10.2158 12.0882 10.2158 12.5023C10.2158 12.9163 9.87982 13.252 9.46582 13.2523H9.45703C9.04282 13.2523 8.70703 12.9165 8.70703 12.5023C8.70703 12.0881 9.04282 11.7523 9.45703 11.7523H9.46582Z" fill="#EA4B48"/>
</svg>
