<svg width="40" height="40" viewBox="0 0 40 40" fill="none" xmlns="http://www.w3.org/2000/svg">
<path d="M31.1384 17.3704C30.9781 16.8758 30.5586 16.5221 30.0439 16.4474L23.9436 15.5609L21.2156 10.0337C20.9859 9.56711 20.52 9.27734 19.9999 9.27734C19.4798 9.27734 19.0139 9.56711 18.7843 10.0332L16.056 15.5609L9.95566 16.4474C9.44137 16.5221 9.02199 16.8755 8.86113 17.3702C8.70082 17.8641 8.83215 18.3965 9.20426 18.7598L13.6187 23.0625L12.5766 29.138C12.4886 29.6503 12.695 30.1584 13.1157 30.4641C13.3533 30.637 13.6314 30.7248 13.9114 30.7247C14.1268 30.7247 14.3434 30.6727 14.5435 30.5675L19.9999 27.6989L25.4559 30.5676C25.6496 30.6693 25.8677 30.7231 26.0865 30.7231C26.375 30.7231 26.6505 30.6336 26.8837 30.4641C27.3036 30.1587 27.5104 29.6509 27.4228 29.1384L27.0106 26.7347C26.9515 26.3909 26.6247 26.1599 26.2813 26.2189C25.9375 26.2779 25.7066 26.6045 25.7656 26.9482L26.1778 29.3515C26.1836 29.3862 26.1691 29.422 26.1409 29.4424C26.099 29.473 26.0686 29.4627 26.0434 29.4494L20.2934 26.4264C20.1095 26.3298 19.8898 26.3297 19.7056 26.4264L13.955 29.4495C13.9243 29.4657 13.8861 29.4629 13.8579 29.4424C13.8293 29.4216 13.8151 29.387 13.8211 29.3519L14.9194 22.9488C14.9546 22.7438 14.8868 22.5348 14.7379 22.3898L10.0859 17.8555C10.0607 17.8309 10.0514 17.7936 10.0621 17.7606C10.0729 17.7273 10.1023 17.7024 10.1369 17.6974L16.5659 16.7632C16.7717 16.7333 16.9495 16.6041 17.0415 16.4177L19.9169 10.5918C19.9482 10.5284 20.0509 10.5279 20.0825 10.5921L22.9578 16.4177C23.0497 16.6041 23.2276 16.7333 23.4333 16.7632L29.8624 17.6974C29.8969 17.7025 29.9261 17.727 29.9371 17.7609C29.9479 17.7939 29.9386 17.831 29.9136 17.8553L25.2615 22.3898C25.1127 22.5348 25.0447 22.744 25.08 22.9488L25.427 24.9719C25.4858 25.3156 25.8125 25.5466 26.1561 25.4876C26.5 25.4286 26.7309 25.102 26.6718 24.7583L26.381 23.0625L30.7954 18.7595C31.1678 18.3964 31.2991 17.8639 31.1384 17.3704Z" fill="#00B307"/>
<path d="M20.0003 9.12695C20.5775 9.127 21.0959 9.44994 21.3509 9.96777L24.0433 15.4229L30.0657 16.2988C30.6368 16.3817 31.1036 16.7752 31.2815 17.3242C31.4598 17.8721 31.3138 18.4643 30.9007 18.8672L26.5423 23.1133L26.8196 24.7324C26.8927 25.1578 26.6073 25.5627 26.1819 25.6357C25.7567 25.7087 25.3524 25.4225 25.2796 24.9971L24.9319 22.9746C24.8883 22.721 24.9733 22.4618 25.1575 22.2822L29.7249 17.8281L23.4124 16.9121C23.158 16.8751 22.9374 16.7149 22.8235 16.4844L19.9993 10.7627L17.1761 16.4844C17.0622 16.7149 16.8425 16.875 16.5882 16.9121L10.2737 17.8281L14.8431 22.2822C15.0273 22.4618 15.1113 22.721 15.0677 22.9746L13.9886 29.2617L19.636 26.2939C19.8639 26.1743 20.136 26.1743 20.3636 26.2939L26.01 29.2617L25.6184 26.9736C25.5455 26.5483 25.8307 26.1443 26.2561 26.0713C26.6812 25.9983 27.0853 26.2837 27.1585 26.709L27.5706 29.1133C27.6677 29.6819 27.438 30.247 26.972 30.5859C26.7133 30.7738 26.407 30.873 26.0872 30.873C25.8441 30.873 25.6012 30.8132 25.386 30.7002L19.9993 27.8682L14.6136 30.7002C14.3919 30.8167 14.1511 30.875 13.9114 30.875C13.6 30.875 13.2909 30.7773 13.0276 30.5859C12.5608 30.2467 12.3313 29.6809 12.429 29.1123L13.4573 23.1143L9.09989 18.8672C8.68706 18.4641 8.54118 17.8724 8.71903 17.3242C8.89754 16.7753 9.36403 16.3817 9.93485 16.2988L15.9563 15.4229L18.6497 9.9668C18.9046 9.4494 19.4231 9.12695 20.0003 9.12695ZM20.0003 9.42773C19.5373 9.42773 19.1236 9.68482 18.9192 10.0996L16.1907 15.627L16.055 15.5596L16.0559 15.5605L16.1907 15.627L16.1556 15.6982L16.0774 15.709L9.97782 16.5957C9.52005 16.6622 9.1474 16.9766 9.00419 17.417C8.86173 17.8564 8.97784 18.329 9.30888 18.6523L13.7239 22.9551L13.7806 23.0098L13.7669 23.0879L12.7249 29.1631C12.6465 29.6191 12.83 30.0706 13.2044 30.3428C13.4162 30.4968 13.6632 30.5742 13.9114 30.5742C14.1026 30.5742 14.2954 30.5284 14.4739 30.4346L19.93 27.5664L19.9993 27.6992H20.0003L19.93 27.5664L20.0003 27.5293L20.0696 27.5664L25.5257 30.4346C25.6978 30.525 25.8927 30.5732 26.0872 30.5732C26.3438 30.5732 26.5887 30.4935 26.7962 30.3428C27.1696 30.071 27.3534 29.6201 27.2757 29.1641L26.8626 26.7598C26.8174 26.4977 26.5685 26.3223 26.3069 26.3672C26.0448 26.4122 25.8684 26.6608 25.9134 26.9229L26.3255 29.3262L26.3274 29.3945C26.3198 29.4609 26.2854 29.5229 26.2298 29.5635C26.187 29.5947 26.1369 29.6137 26.0823 29.6123C26.0316 29.611 25.9929 29.592 25.9739 29.582L20.2239 26.5596C20.0837 26.4859 19.9162 26.4858 19.7757 26.5596L14.0257 29.582C13.9441 29.625 13.8439 29.6173 13.7698 29.5635C13.6953 29.5091 13.6575 29.4176 13.6731 29.3262L14.7718 22.9238C14.7986 22.7675 14.7466 22.6077 14.6331 22.4971L9.98173 17.9629C9.91663 17.8992 9.89059 17.8021 9.91923 17.7139H9.92021C9.94871 17.6269 10.0242 17.5621 10.1155 17.5488L16.5442 16.6152C16.7011 16.5924 16.8373 16.4937 16.9075 16.3516L19.7825 10.5254C19.8288 10.4315 19.9224 10.3947 19.9993 10.3945C20.0764 10.3945 20.1695 10.4316 20.2161 10.5254H20.2171L23.0921 16.3516H23.0931C23.1632 16.4934 23.2986 16.5924 23.4554 16.6152L29.8841 17.5488L29.8489 17.7881V17.7891V17.7881L29.8841 17.5488C29.975 17.5622 30.0517 17.6262 30.0804 17.7139L30.0921 17.7812C30.0942 17.8485 30.0679 17.915 30.0188 17.9629L25.3665 22.4971C25.2813 22.5801 25.2305 22.6907 25.222 22.8066L25.2278 22.9238L25.5755 24.9463C25.6203 25.2083 25.8692 25.3848 26.1311 25.3398C26.3606 25.3005 26.5245 25.1047 26.5315 24.8809L26.5247 24.7832L26.2337 23.0879L26.22 23.0098L26.2767 22.9551L30.6907 18.6523C31.0222 18.3291 31.1392 17.856 30.9964 17.417C30.8537 16.9768 30.4808 16.6622 30.0227 16.5957L23.9222 15.709L23.844 15.6982L23.8099 15.627L21.0813 10.0996L20.9954 9.95215C20.773 9.62452 20.4055 9.42777 20.0003 9.42773Z" fill="#00B307"/>
<path d="M3.63141 19.3682H0.631562C0.282734 19.3682 0 19.6509 0 19.9997C0 20.3485 0.282734 20.6313 0.631562 20.6313H3.63141C3.98031 20.6313 4.26297 20.3485 4.26297 19.9997C4.26297 19.6509 3.98023 19.3682 3.63141 19.3682Z" fill="#00B307"/>
<path d="M4.11328 20C4.11328 19.7342 3.89763 19.5188 3.63184 19.5186H0.631836C0.365848 19.5186 0.150391 19.734 0.150391 20C0.150545 20.2658 0.365944 20.4814 0.631836 20.4814H3.63184C3.89758 20.4812 4.11313 20.2656 4.11328 20ZM4.41309 20C4.41293 20.4313 4.06331 20.781 3.63184 20.7812H0.631836C0.200263 20.7812 -0.150236 20.4315 -0.150391 20C-0.150391 19.5683 0.200168 19.2178 0.631836 19.2178H3.63184C4.06331 19.218 4.41309 19.5685 4.41309 20Z" fill="#00B307"/>
<path d="M39.3682 19.3682H36.3684C36.0195 19.3682 35.7368 19.651 35.7368 19.9997C35.7368 20.3485 36.0195 20.6313 36.3684 20.6313H39.3682C39.7171 20.6313 39.9997 20.3485 39.9997 19.9997C39.9997 19.6509 39.7171 19.3682 39.3682 19.3682Z" fill="#00B307"/>
<path d="M39.8501 20C39.8501 19.7342 39.6345 19.5188 39.3687 19.5186H36.3687C36.1026 19.5186 35.8872 19.7341 35.8872 20C35.8874 20.2658 36.1028 20.4814 36.3687 20.4814H39.3687C39.6344 20.4812 39.8499 20.2656 39.8501 20ZM40.1499 20C40.1497 20.4313 39.8001 20.781 39.3687 20.7812H36.3687C35.9371 20.7812 35.5866 20.4315 35.5864 20C35.5864 19.5684 35.9369 19.2178 36.3687 19.2178H39.3687C39.8002 19.218 40.1499 19.5685 40.1499 20Z" fill="#00B307"/>
<path d="M7.97907 31.1274L5.8579 33.2485C5.61118 33.495 5.61118 33.895 5.85782 34.1416C5.98118 34.265 6.14282 34.3266 6.30446 34.3266C6.46603 34.3266 6.62774 34.265 6.75095 34.1417L8.87212 32.0205C9.11884 31.7739 9.11884 31.374 8.8722 31.1274C8.62556 30.8807 8.22563 30.8807 7.97907 31.1274Z" fill="#00B307"/>
<path d="M7.87346 31.0219C8.17862 30.7166 8.67372 30.7167 8.97893 31.0219C9.28392 31.3271 9.2842 31.8223 8.97893 32.1274L6.85784 34.2485L6.64495 34.0356L8.76604 31.9145C8.95405 31.7266 8.95486 31.4219 8.76702 31.2338C8.57894 31.0457 8.27335 31.0458 8.08537 31.2338L5.96428 33.3549C5.77626 33.5428 5.77641 33.8475 5.96428 34.0356C6.05837 34.1297 6.18161 34.1772 6.3051 34.1772C6.4283 34.1771 6.55115 34.1292 6.64495 34.0356L6.85784 34.2485C6.70539 34.401 6.5047 34.4769 6.3051 34.477C6.10544 34.477 5.90496 34.4009 5.75237 34.2485C5.44718 33.9433 5.44708 33.4481 5.75237 33.143L7.87346 31.0219Z" fill="#00B307"/>
<path d="M33.2487 5.85694L31.1274 7.97804C30.8807 8.22468 30.8807 8.6246 31.1274 8.87124C31.2507 8.9946 31.4123 9.05624 31.574 9.05624C31.7356 9.05624 31.8973 8.9946 32.0205 8.87116L34.1417 6.75007C34.3884 6.50351 34.3884 6.10358 34.1418 5.85694C33.8951 5.61022 33.4952 5.61015 33.2487 5.85694Z" fill="#00B307"/>
<path d="M33.2021 5.69774C33.509 5.44728 33.9619 5.46528 34.248 5.75145C34.553 6.05667 34.5533 6.55181 34.248 6.85692L34.0361 6.64403C34.2237 6.45607 34.2238 6.1513 34.0361 5.96336C33.848 5.77521 33.5424 5.77524 33.3544 5.96336L31.2333 8.08446C31.0452 8.27252 31.0453 8.57804 31.2333 8.7661C31.3274 8.86005 31.4508 8.90672 31.5742 8.90672C31.6974 8.90666 31.8202 8.85988 31.914 8.7661L32.1269 8.97801C31.9744 9.13073 31.7738 9.20647 31.5742 9.20653C31.3745 9.20653 31.174 9.13049 31.0214 8.97801C30.7162 8.67279 30.7161 8.17776 31.0214 7.87254L33.1425 5.75145L33.2021 5.69774ZM34.0361 6.64403L34.248 6.85692L32.1269 8.97801L31.914 8.7661L34.0361 6.64403Z" fill="#00B307"/>
<path d="M20.0002 35.7373C19.6513 35.7373 19.3687 36.0201 19.3687 36.3689V39.3686C19.3687 39.7175 19.6514 40.0002 20.0002 40.0002C20.3491 40.0002 20.6318 39.7174 20.6318 39.3686V36.3689C20.6318 36.02 20.3491 35.7373 20.0002 35.7373Z" fill="#00B307"/>
<path d="M20.4819 36.3691C20.4819 36.1032 20.2664 35.8878 20.0005 35.8877C19.7345 35.8877 19.519 36.1032 19.519 36.3691V39.3682C19.519 39.6342 19.7345 39.8506 20.0005 39.8506C20.2664 39.8504 20.4819 39.634 20.4819 39.3682V36.3691ZM20.7817 39.3682C20.7817 39.7996 20.4321 40.1502 20.0005 40.1504C19.5688 40.1504 19.2183 39.7998 19.2183 39.3682V36.3691C19.2183 35.9376 19.5687 35.5869 20.0005 35.5869C20.4321 35.5871 20.7817 35.9376 20.7817 36.3691V39.3682Z" fill="#00B307"/>
<path d="M20.0002 4.26297C20.3491 4.26297 20.6318 3.98016 20.6318 3.63141V0.631562C20.6318 0.282734 20.349 0 20.0002 0C19.6513 0 19.3687 0.282812 19.3687 0.631562V3.63141C19.3687 3.98023 19.6513 4.26297 20.0002 4.26297Z" fill="#00B307"/>
<path d="M20.4819 0.631836C20.4819 0.365944 20.2663 0.150545 20.0005 0.150391C19.7345 0.150391 19.519 0.365902 19.519 0.631836V3.63184C19.5193 3.89764 19.7346 4.11328 20.0005 4.11328C20.2662 4.11313 20.4817 3.89748 20.4819 3.63184V0.631836ZM20.7817 3.63184C20.7815 4.06311 20.432 4.41293 20.0005 4.41309C19.5689 4.41309 19.2185 4.06329 19.2183 3.63184V0.631836C19.2183 0.20027 19.5687 -0.150391 20.0005 -0.150391C20.432 -0.150236 20.7817 0.200263 20.7817 0.631836V3.63184Z" fill="#00B307"/>
<path d="M32.0205 31.1274C31.774 30.8807 31.3741 30.8807 31.1274 31.1274C30.8807 31.3739 30.8807 31.7739 31.1274 32.0205L33.2487 34.1417C33.3719 34.265 33.5337 34.3267 33.6952 34.3267C33.8568 34.3267 34.0185 34.265 34.1418 34.1416C34.3884 33.895 34.3884 33.4951 34.1417 33.2485L32.0205 31.1274Z" fill="#00B307"/>
<path d="M31.0214 31.0219C31.3267 30.7167 31.8218 30.7166 32.1269 31.0219L34.248 33.143L34.0361 33.3549H34.0351L31.914 31.2338C31.7261 31.046 31.4215 31.0458 31.2333 31.2338C31.0454 31.4217 31.0454 31.7264 31.2333 31.9145L33.3544 34.0356C33.4484 34.1296 33.5718 34.1772 33.6953 34.1772C33.8187 34.1771 33.9421 34.1296 34.0361 34.0356C34.2237 33.8476 34.2239 33.5429 34.0361 33.3549L34.248 33.143C34.5531 33.4482 34.5532 33.9434 34.248 34.2485C34.0955 34.4011 33.8949 34.4769 33.6953 34.477C33.5207 34.477 33.3453 34.4189 33.2021 34.3022L33.1425 34.2485L31.0214 32.1274C30.7161 31.8222 30.7162 31.3271 31.0214 31.0219Z" fill="#00B307"/>
<path d="M7.979 8.87214C8.10236 8.9955 8.264 9.05714 8.42564 9.05714C8.5872 9.05714 8.74892 8.9955 8.8722 8.87229C9.11884 8.62565 9.11884 8.22573 8.8722 7.97909L6.75103 5.85783C6.50447 5.61119 6.10463 5.61119 5.85783 5.85783C5.61119 6.1044 5.61119 6.50432 5.85783 6.75096L7.979 8.87214Z" fill="#00B307"/>
<path d="M5.75186 5.75137C6.0572 5.44622 6.55216 5.4461 6.85733 5.75137L8.97843 7.87246C9.28349 8.17768 9.28355 8.67275 8.97843 8.97793C8.82591 9.13035 8.62532 9.20641 8.42569 9.20645C8.226 9.20645 8.02556 9.13041 7.87296 8.97793L5.75186 6.85684C5.44666 6.55163 5.44663 6.05652 5.75186 5.75137ZM6.64444 5.96328C6.47988 5.79887 6.22596 5.77811 6.03897 5.90176L5.96378 5.96328C5.77581 6.15119 5.7759 6.45586 5.96378 6.64395L8.08487 8.76504C8.17896 8.85913 8.3022 8.90664 8.42569 8.90664C8.54909 8.9066 8.67254 8.85993 8.76651 8.76602C8.95448 8.578 8.95442 8.27243 8.76651 8.08438L6.64444 5.96328Z" fill="#00B307"/>
</svg>
