<svg width="40" height="29" viewBox="0 0 40 29" fill="none" xmlns="http://www.w3.org/2000/svg">
<path d="M8.72764 23.1725C8.40606 23.1725 8.09766 23.3003 7.87027 23.5277C7.64288 23.7551 7.51514 24.0635 7.51514 24.385C7.51514 24.7066 7.64288 25.015 7.87027 25.2424C8.09766 25.4698 8.40606 25.5975 8.72764 25.5975C9.04921 25.5975 9.35762 25.4698 9.585 25.2424C9.81239 25.015 9.94014 24.7066 9.94014 24.385C9.94014 24.0635 9.81239 23.7551 9.585 23.5277C9.35762 23.3003 9.04921 23.1725 8.72764 23.1725Z" fill="#2C742F"/>
<path d="M33.7774 23.1725C33.4559 23.1725 33.1475 23.3003 32.9201 23.5277C32.6927 23.7551 32.5649 24.0635 32.5649 24.385C32.5649 24.7066 32.6927 25.015 32.9201 25.2424C33.1475 25.4698 33.4559 25.5975 33.7774 25.5975C34.099 25.5975 34.4074 25.4698 34.6348 25.2424C34.8622 25.015 34.9899 24.7066 34.9899 24.385C34.9899 24.0635 34.8622 23.7551 34.6348 23.5277C34.4074 23.3003 34.099 23.1725 33.7774 23.1725Z" fill="#2C742F"/>
<path d="M38.315 14.0062L34.225 12.6437L31.6562 5.965C31.4757 5.50128 31.1597 5.10261 30.7495 4.82083C30.3394 4.53905 29.8539 4.3872 29.3563 4.385H18.7675L18.755 4.23875C18.7301 3.93615 18.5919 3.65409 18.368 3.44898C18.1442 3.24388 17.8511 3.13085 17.5475 3.1325H15.575V2.46375C15.574 1.81041 15.3139 1.18413 14.8518 0.722271C14.3897 0.260407 13.7633 0.000661191 13.11 0C12.4569 0.000991835 11.8308 0.260884 11.369 0.722712C10.9071 1.18454 10.6472 1.81063 10.6462 2.46375V3.13125H8.675C8.37138 3.1296 8.07833 3.24263 7.85445 3.44773C7.63057 3.65284 7.49238 3.9349 7.4675 4.2375L7.455 4.38375H1.2125C0.890925 4.38375 0.582521 4.51149 0.355133 4.73888C0.127745 4.96627 0 5.27467 0 5.59625L0 22.505C0 23.1725 0.54375 23.7175 1.2125 23.7175H5.07125C4.97434 24.2531 4.99612 24.8035 5.13505 25.3298C5.27398 25.8561 5.52667 26.3455 5.87531 26.7635C6.22395 27.1815 6.66005 27.5179 7.15286 27.7491C7.64567 27.9802 8.18318 28.1004 8.7275 28.1012C9.27195 28.1005 9.80959 27.9802 10.3025 27.749C10.7954 27.5178 11.2316 27.1812 11.5802 26.7631C11.9289 26.3449 12.1816 25.8554 12.3204 25.3289C12.4592 24.8025 12.4809 24.252 12.3837 23.7162H30.1213C30.0243 24.2519 30.0461 24.8022 30.185 25.3285C30.324 25.8548 30.5767 26.3442 30.9253 26.7622C31.274 27.1803 31.7101 27.5167 32.2029 27.7478C32.6957 27.979 33.2332 28.0992 33.7775 28.1C34.3369 28.0991 34.8889 27.9722 35.3924 27.7285C35.8959 27.4849 36.3381 27.1309 36.6859 26.6929C37.0338 26.2548 37.2784 25.7439 37.4016 25.1983C37.5248 24.6527 37.5234 24.0863 37.3975 23.5412L38.6375 22.9212C39.0476 22.718 39.3926 22.4039 39.6334 22.0146C39.8742 21.6254 40.0012 21.1765 40 20.7187V16.3437C40.0002 15.8265 39.8375 15.3224 39.5351 14.9028C39.2326 14.4832 38.8058 14.1696 38.315 14.0062ZM31.2075 8.06125L32.925 12.5262H31.0687L29.5813 8.06125H31.2062H31.2075ZM29.8325 12.5262H25.01C24.8334 12.5259 24.6641 12.4556 24.5393 12.3307C24.4144 12.2059 24.3441 12.0366 24.3438 11.86V8.06125H28.345L29.8325 12.5262ZM11.82 2.46375C11.82 1.75125 12.4 1.17125 13.1125 1.17125C13.825 1.17125 14.405 1.75125 14.405 2.46375V3.13125H11.8188V2.46375H11.82ZM7.49125 17.4925L8.635 4.34125C8.63564 4.33108 8.64013 4.32154 8.64756 4.31457C8.655 4.3076 8.66481 4.30373 8.675 4.30375H10.6462V5.59625C10.6462 5.75173 10.708 5.90085 10.818 6.01079C10.9279 6.12073 11.077 6.1825 11.2325 6.1825C11.388 6.1825 11.5371 6.12073 11.647 6.01079C11.757 5.90085 11.8187 5.75173 11.8188 5.59625V4.30375H14.4037V5.59625C14.4037 5.75173 14.4655 5.90085 14.5755 6.01079C14.6854 6.12073 14.8345 6.1825 14.99 6.1825C15.1455 6.1825 15.2946 6.12073 15.4045 6.01079C15.5145 5.90085 15.5763 5.75173 15.5763 5.59625V4.30375H17.5475C17.5688 4.30375 17.585 4.32 17.5875 4.34125L18.7312 17.4912C18.7312 17.4975 18.7312 17.51 18.72 17.5225C18.7075 17.535 18.695 17.535 18.69 17.535H7.5325C7.5275 17.535 7.515 17.535 7.5025 17.5225C7.49875 17.5185 7.49591 17.5138 7.49418 17.5086C7.49246 17.5034 7.49188 17.4979 7.4925 17.4925H7.49125ZM8.7275 26.93C8.05261 26.9293 7.40554 26.661 6.9282 26.1839C6.45087 25.7068 6.18224 25.0599 6.18125 24.385C6.18125 22.9812 7.32375 21.8387 8.7275 21.8387C10.1312 21.8387 11.2725 22.9812 11.2725 24.385C11.2715 25.0597 11.0031 25.7064 10.526 26.1835C10.0489 26.6606 9.40217 26.929 8.7275 26.93ZM33.7775 26.93C33.1028 26.929 32.4561 26.6606 31.979 26.1835C31.5019 25.7064 31.2335 25.0597 31.2325 24.385C31.2325 22.9812 32.3737 21.8387 33.7775 21.8387C35.1812 21.8387 36.3237 22.9812 36.3237 24.385C36.3228 25.0599 36.0541 25.7068 35.5768 26.1839C35.0995 26.661 34.4524 26.9293 33.7775 26.93ZM38.8275 17.5362H38.1612C38.0821 17.5326 38.003 17.545 37.9287 17.5728C37.8545 17.6006 37.7867 17.6431 37.7293 17.6979C37.672 17.7526 37.6264 17.8184 37.5952 17.8913C37.564 17.9642 37.5479 18.0426 37.5479 18.1219C37.5479 18.2011 37.564 18.2796 37.5952 18.3525C37.6264 18.4253 37.672 18.4911 37.7293 18.5459C37.7867 18.6006 37.8545 18.6432 37.9287 18.6709C38.003 18.6987 38.0821 18.7112 38.1612 18.7075H38.8288V20.7175C38.8288 21.2113 38.5537 21.655 38.1138 21.875L36.9538 22.455C36.6224 21.9097 36.1562 21.4588 35.6002 21.1458C35.0441 20.8327 34.4169 20.668 33.7788 20.6675C32.3963 20.6675 31.19 21.425 30.5487 22.5462H11.9562C11.6316 21.9761 11.162 21.502 10.5949 21.172C10.0278 20.8421 9.38357 20.668 8.7275 20.6675C7.34625 20.6675 6.14 21.425 5.49875 22.5462H1.21125C1.20086 22.5459 1.191 22.5416 1.18377 22.5341C1.17654 22.5266 1.1725 22.5166 1.1725 22.5062V18.7075H4.34375C4.42293 18.7112 4.50203 18.6987 4.57627 18.6709C4.65051 18.6432 4.71834 18.6006 4.77567 18.5459C4.833 18.4911 4.87863 18.4253 4.90981 18.3525C4.94099 18.2796 4.95706 18.2011 4.95706 18.1219C4.95706 18.0426 4.94099 17.9642 4.90981 17.8913C4.87863 17.8184 4.833 17.7526 4.77567 17.6979C4.71834 17.6431 4.65051 17.6006 4.57627 17.5728C4.50203 17.545 4.42293 17.5326 4.34375 17.5362H1.17125V5.59625C1.17125 5.575 1.19 5.55625 1.2125 5.55625H7.3525L6.32375 17.3913C6.30976 17.5585 6.33057 17.7268 6.38487 17.8856C6.43916 18.0444 6.52575 18.1902 6.6392 18.3139C6.75264 18.4375 6.89047 18.5363 7.044 18.6041C7.19754 18.6718 7.36344 18.707 7.53125 18.7075H18.69C18.8579 18.707 19.0238 18.6718 19.1774 18.6041C19.331 18.5363 19.4689 18.4376 19.5824 18.3139C19.696 18.1903 19.7827 18.0445 19.8371 17.8857C19.8916 17.7269 19.9126 17.5585 19.8988 17.3913L18.8687 5.55625H29.3563C29.8875 5.55625 30.3725 5.89 30.5625 6.385L30.7562 6.89H23.7575C23.6022 6.89 23.4533 6.95159 23.3434 7.06127C23.2335 7.17094 23.1716 7.31973 23.1713 7.475V11.8587C23.1713 12.8725 23.9963 13.6975 25.01 13.6975H33.6825L37.945 15.1187C38.4725 15.2937 38.8288 15.7875 38.8288 16.3437V17.5362H38.8275Z" fill="#2C742F"/>
<path d="M35.6564 17.5362H21.8789C21.7998 17.5325 21.7207 17.545 21.6464 17.5727C21.5722 17.6005 21.5043 17.6431 21.447 17.6978C21.3897 17.7525 21.3441 17.8183 21.3129 17.8912C21.2817 17.9641 21.2656 18.0425 21.2656 18.1218C21.2656 18.2011 21.2817 18.2795 21.3129 18.3524C21.3441 18.4253 21.3897 18.4911 21.447 18.5458C21.5043 18.6006 21.5722 18.6431 21.6464 18.6709C21.7207 18.6987 21.7998 18.7111 21.8789 18.7074H35.6564C35.8071 18.7005 35.9492 18.6357 36.0534 18.5267C36.1575 18.4176 36.2156 18.2726 36.2156 18.1218C36.2156 17.971 36.1575 17.826 36.0534 17.7169C35.9492 17.6079 35.8071 17.5431 35.6564 17.5362Z" fill="#2C742F"/>
</svg>
