<svg width="31" height="32" viewBox="0 0 31 32" fill="none" xmlns="http://www.w3.org/2000/svg">
<path d="M25.9966 12.1681V10.9378C25.9966 7.99328 24.9546 5.25714 23.0655 3.22689C21.1294 1.14286 18.4672 0 15.563 0H14.5479C11.6437 0 8.98151 1.14286 7.04538 3.22689C5.1563 5.25714 4.11429 7.99328 4.11429 10.9378V12.1681C1.82185 12.3227 0 14.2319 0 16.5647V18.4874C0 20.9143 1.97647 22.8908 4.40336 22.8908H6.88403C7.32773 22.8908 7.69076 22.5277 7.69076 22.084V12.9613C7.69076 12.5176 7.32773 12.1546 6.88403 12.1546H5.72773V10.9378C5.72773 5.62017 9.51933 1.61345 14.5412 1.61345H15.5563C20.5849 1.61345 24.3697 5.62017 24.3697 10.9378V12.1546H23.2134C22.7698 12.1546 22.4067 12.5176 22.4067 12.9613V22.0773C22.4067 22.521 22.7698 22.884 23.2134 22.884H24.3429C24.0134 27.0924 21.116 28.0672 19.7714 28.2891C19.4017 27.1529 18.3328 26.3328 17.0756 26.3328H15.0588C13.4992 26.3328 12.2286 27.6034 12.2286 29.163C12.2286 30.7227 13.4992 32 15.0588 32H17.0824C18.3866 32 19.4824 31.1126 19.8118 29.916C20.4706 29.8218 21.5126 29.5866 22.5479 28.9815C24.0067 28.1277 25.7345 26.3866 25.963 22.8773C28.2689 22.7361 30.0975 20.8202 30.0975 18.4807V16.558C30.1042 14.2319 28.2891 12.316 25.9966 12.1681ZM6.09076 21.2706H4.41681C2.87731 21.2706 1.62689 20.0202 1.62689 18.4807V16.558C1.62689 15.0185 2.87731 13.7681 4.41681 13.7681H6.09076V21.2706ZM17.0824 30.3866H15.0588C14.3866 30.3866 13.842 29.842 13.842 29.1697C13.842 28.4975 14.3866 27.9529 15.0588 27.9529H17.0824C17.7546 27.9529 18.2992 28.4975 18.2992 29.1697C18.2992 29.842 17.7546 30.3866 17.0824 30.3866ZM28.4908 18.4807C28.4908 20.0202 27.2403 21.2706 25.7008 21.2706H24.0269V13.7681H25.7008C27.2403 13.7681 28.4908 15.0185 28.4908 16.558V18.4807Z" fill="#00B307"/>
</svg>
