<svg viewBox="0 0 36.8257 40" xmlns="http://www.w3.org/2000/svg" xmlns:xlink="http://www.w3.org/1999/xlink" width="36.825684" height="40.000000" fill="none" customFrame="#000000">
	<g id="Group">
		<path id="Vector" d="M36.8088 9.43014C36.8088 9.27818 36.775 9.12621 36.7075 8.98269C36.5724 8.69565 36.3107 8.50148 36.0236 8.44238L18.8265 0.101309C18.5479 -0.0337695 18.2187 -0.0337695 17.9401 0.101309L0.574082 8.51836C0.236387 8.67877 0.0168848 9.01646 0 9.39637L0 9.40481C0 9.41325 0 9.4217 0 9.43858L0 30.5614C0 30.9498 0.219502 31.3043 0.574082 31.4732L17.9401 39.8903C17.9485 39.8903 17.9485 39.8903 17.9569 39.8987C17.9823 39.9071 18.0076 39.9156 18.0329 39.9325C18.0414 39.9325 18.0498 39.9409 18.0667 39.9409C18.092 39.9493 18.1173 39.9578 18.1427 39.9662C18.1511 39.9662 18.1596 39.9747 18.168 39.9747C18.1933 39.9831 18.2271 39.9831 18.2524 39.9916C18.2609 39.9916 18.2693 39.9916 18.2778 39.9916C18.3115 39.9916 18.3537 40 18.3875 40C18.4213 40 18.4635 40 18.4973 39.9916C18.5057 39.9916 18.5141 39.9916 18.5226 39.9916C18.5479 39.9916 18.5817 39.9831 18.607 39.9747C18.6154 39.9747 18.6239 39.9662 18.6323 39.9662C18.6577 39.9578 18.683 39.9493 18.7083 39.9409C18.7168 39.9409 18.7252 39.9325 18.7421 39.9325C18.7674 39.924 18.7927 39.9156 18.8181 39.8987C18.8265 39.8987 18.8265 39.8987 18.8349 39.8903L36.2516 31.4479C36.5977 31.279 36.8257 30.9244 36.8257 30.5361L36.8257 9.45547C36.8088 9.44703 36.8088 9.43858 36.8088 9.43014ZM18.3791 2.13592L33.4403 9.43858L27.8936 12.1317L12.8324 4.82904L18.3791 2.13592ZM18.3791 16.7412L3.31786 9.43858L10.5108 5.95188L25.572 13.2545L18.3791 16.7412ZM2.02617 11.068L17.366 18.5057L17.366 37.3575L2.02617 29.9198L2.02617 11.068ZM19.3921 37.3575L19.3921 18.5057L26.5935 15.0106L26.5935 19.9409C26.5935 20.4981 27.0494 20.954 27.6066 20.954C28.1638 20.954 28.6197 20.4981 28.6197 19.9409L28.6197 14.0228L34.7826 11.0342L34.7826 29.886L19.3921 37.3575Z" fill="rgb(0,178.5,6.8)" fill-rule="nonzero" />
	</g>
</svg>
