<svg width="40" height="40" viewBox="0 0 40 40" fill="none" xmlns="http://www.w3.org/2000/svg">
<g clip-path="url(#clip0_42518_1114)">
<path d="M38.4163 8.82585L20.2548 0.0581888C20.0938 -0.0194675 19.9063 -0.0194675 19.7453 0.0581888L1.58369 8.82585C1.38119 8.92358 1.25252 9.12866 1.25252 9.3535V30.6464C1.25252 30.8712 1.38119 31.0763 1.58369 31.174L19.7453 39.9417C19.8257 39.9805 19.9129 40 20 40C20.0871 40 20.1742 39.9805 20.2548 39.9417L38.4163 31.174C38.6188 31.0763 38.7475 30.8712 38.7475 30.6464V9.35358C38.7475 9.12858 38.6188 8.92366 38.4163 8.82585ZM20 1.23655L36.8138 9.3535L31.9399 11.7065C31.909 11.683 31.8764 11.6612 31.8406 11.644L15.141 3.58225L20 1.23655ZM13.8178 4.24475L30.6071 12.3499L27.1685 14.01L10.386 5.90811L13.8178 4.24475ZM30.9999 13.4615V19.5979L27.788 21.1485V15.0121L30.9999 13.4615ZM37.5756 30.2787L20.586 38.4805V18.4889L24.6385 16.5325C24.9299 16.3918 25.0521 16.0415 24.9114 15.7501C24.7707 15.4587 24.4205 15.3364 24.129 15.4772L20 17.4705L18.3753 16.6862C18.0838 16.5453 17.7336 16.6676 17.5929 16.959C17.4522 17.2505 17.5744 17.6008 17.8658 17.7415L19.4141 18.4889V38.4805L2.42439 30.2786V10.287L15.3619 16.5327C15.444 16.5724 15.5308 16.5912 15.6162 16.5912C15.834 16.5912 16.0432 16.4691 16.1442 16.2598C16.2849 15.9684 16.1628 15.6181 15.8713 15.4774L3.18619 9.3535L9.00689 6.5435L26.608 15.0406C26.6106 15.0442 26.6135 15.0474 26.6161 15.0509V22.0821C26.6161 22.2837 26.7198 22.4712 26.8906 22.5784C26.9854 22.638 27.0936 22.668 27.2021 22.668C27.289 22.668 27.3761 22.6487 27.4568 22.6098L31.8406 20.4934C32.0431 20.3957 32.1718 20.1907 32.1718 19.9658V12.8958L37.5756 10.2871V30.2787Z" fill="#1A1A1A"/>
<path d="M7.25988 28.0062L4.59465 26.7196C4.30308 26.5787 3.95293 26.701 3.81222 26.9924C3.67152 27.2839 3.79371 27.6342 4.08512 27.7749L6.75035 29.0615C6.83246 29.1012 6.91926 29.1199 7.00465 29.1199C7.22246 29.1199 7.43168 28.9979 7.5327 28.7886C7.67348 28.4971 7.55129 28.147 7.25988 28.0062Z" fill="#1A1A1A"/>
<path d="M9.71268 26.4095L4.59823 23.9404C4.30674 23.7997 3.95651 23.9219 3.81581 24.2134C3.67518 24.5048 3.79737 24.8551 4.08878 24.9958L9.20323 27.4649C9.28534 27.5045 9.37214 27.5233 9.45753 27.5233C9.67534 27.5233 9.88456 27.4013 9.98557 27.192C10.1263 26.9004 10.0041 26.5501 9.71268 26.4095Z" fill="#1A1A1A"/>
</g>
<defs>
<clipPath id="clip0_42518_1114">
<rect width="40" height="40" fill="white"/>
</clipPath>
</defs>
</svg>
