<svg width="18" height="19" viewBox="0 0 18 19" fill="none" xmlns="http://www.w3.org/2000/svg">
<path d="M8.36816 0.104447C8.64228 -0.0579498 8.99671 -0.0310037 9.24414 0.185502L17.2441 7.1855C17.4068 7.32791 17.5 7.53374 17.5 7.74996V17.75C17.5 18.1642 17.1642 18.5 16.75 18.5H11.75C11.3358 18.5 11 18.1642 11 17.75V13.75C11 13.1532 10.7628 12.5811 10.3408 12.1591C9.91886 11.7372 9.34674 11.5 8.75 11.5C8.15326 11.5 7.58114 11.7372 7.15918 12.1591C6.73722 12.5811 6.5 13.1532 6.5 13.75V17.75C6.5 18.1642 6.16421 18.5 5.75 18.5H0.75C0.335786 18.5 0 18.1642 0 17.75V7.74996C0 7.53374 0.0931835 7.32791 0.255859 7.1855L8.25586 0.185502L8.36816 0.104447ZM12.5 17H16V8.0898L8.75 1.74605L1.5 8.0898V17H5V13.75C5 12.7554 5.39537 11.8018 6.09863 11.0986C6.80189 10.3953 7.75544 9.99996 8.75 9.99996C9.74456 9.99996 10.6981 10.3953 11.4014 11.0986C12.1046 11.8018 12.5 12.7554 12.5 13.75V17Z" fill="#808080"/>
</svg>
