<svg width="18" height="18" viewBox="0 0 18 18" fill="none" xmlns="http://www.w3.org/2000/svg">
<path d="M15.9756 8.93262C15.9755 8.65139 15.865 8.38132 15.667 8.18164L8.68457 1.19922H1.19922V8.68359L8.18262 15.6592C8.28158 15.7582 8.39901 15.837 8.52832 15.8906C8.65781 15.9443 8.79732 15.9717 8.9375 15.9717C9.07755 15.9716 9.21633 15.9443 9.3457 15.8906C9.47504 15.837 9.59242 15.7582 9.69141 15.6592L10.541 16.5068C10.3305 16.7176 10.0799 16.885 9.80469 16.999C9.52974 17.1129 9.2351 17.1718 8.9375 17.1719C8.6397 17.1719 8.34445 17.113 8.06934 16.999C7.79447 16.8851 7.54435 16.7182 7.33398 16.5078L0.175781 9.35742C0.0631082 9.24488 0 9.09187 0 8.93262V0.599609C0 0.268239 0.268239 0 0.599609 0H8.93262C9.09175 0 9.2449 0.0632594 9.35742 0.175781L16.5166 7.33496L16.2324 7.61621L16.1758 7.67285L16.5166 7.33496C16.9387 7.75957 17.1757 8.33391 17.1758 8.93262C17.1758 9.53144 16.9388 10.1066 16.5166 10.5312L16.0908 10.1074L16.5156 10.5322L10.541 16.5068L9.69238 15.6582L15.667 9.68359C15.8649 9.48387 15.9756 9.21381 15.9756 8.93262Z" fill="#B3B3B3"/>
<path d="M4.7749 4.01627C5.18891 4.01651 5.5249 4.3522 5.5249 4.76627C5.5249 5.18033 5.18891 5.51602 4.7749 5.51627H4.76611C4.3519 5.51627 4.01611 5.18048 4.01611 4.76627C4.01611 4.35205 4.3519 4.01627 4.76611 4.01627H4.7749Z" fill="#B3B3B3"/>
</svg>
