<svg width="32" height="13" viewBox="0 0 32 13" fill="none" xmlns="http://www.w3.org/2000/svg">
<path d="M5.13333 6.09503C17.2644 -6.50258 31.2617 6.09504 31.2617 6.09504C31.2617 6.09504 17.2644 18.6927 5.13333 6.09503Z" fill="#36C63F"/>
<path d="M22.8938 11.2895C27.954 9.70077 31.4454 6.5927 31.5916 6.46113L32 6.09351L31.5916 5.72588C31.4454 5.59432 27.954 2.48618 22.8938 0.897488C19.902 -0.0417661 16.9897 -0.245017 14.2377 0.293485C10.858 0.954737 7.72564 2.73987 4.92432 5.59888L-1.61925e-06 5.59888L-1.66249e-06 6.58807L4.92432 6.58807C7.7257 9.44708 10.8579 11.2322 14.2377 11.8935C16.9897 12.4319 19.9021 12.2287 22.8938 11.2895ZM14.4097 10.9193C11.5163 10.3494 8.80595 8.89402 6.33845 6.58807L13.3259 6.58807L15.9805 9.24271L16.6798 8.54327L14.7247 6.58814L20.5294 6.58814L20.5294 5.59894L17.0575 5.59894L19.0127 3.64375L18.3133 2.94437L15.6587 5.59894L10.992 5.59894L12.4806 4.11031L11.7812 3.41093L9.59314 5.59901L6.33839 5.59901C8.80595 3.29306 11.5163 1.83762 14.4097 1.26774C16.9942 0.758737 19.7388 0.94855 22.5674 1.83187C26.4272 3.03725 29.4068 5.22644 30.4887 6.09357C29.4067 6.96076 26.4272 9.14983 22.5674 10.3553C19.7389 11.2385 16.9942 11.4283 14.4097 10.9193Z" fill="#009F06"/>
<path opacity="0.3" d="M22.3945 6.58676L22.3945 5.59766L21.4615 5.59766L21.4615 6.58676L22.3945 6.58676Z" fill="white"/>
<path opacity="0.2" d="M24.2617 6.58676L24.2617 5.59766L23.3287 5.59766L23.3287 6.58676L24.2617 6.58676Z" fill="#1A1A1A"/>
</svg>
