<svg width="19" height="17" viewBox="0 0 19 17" fill="none" xmlns="http://www.w3.org/2000/svg">
<path d="M9.39714 1.61853C12.2972 -1.20642 16.6166 -0.0739081 18.1911 3.01502C19.0481 4.6964 19.064 6.87604 17.7897 9.19666C16.5255 11.4988 13.999 13.939 9.76042 16.2816L9.39812 16.4818L9.03483 16.2816C4.79644 13.939 2.27059 11.4987 1.00652 9.19666C-0.267773 6.8759 -0.251904 4.69645 0.605148 3.01502C2.17949 -0.0736306 6.49739 -1.20569 9.39714 1.61853ZM16.8551 3.69568C15.6233 1.27915 12.1179 0.506547 9.98601 3.20252L9.39812 3.94568L8.80925 3.20252L8.60612 2.95935C6.46155 0.55584 3.13453 1.35465 1.94109 3.69568C1.33983 4.87526 1.25167 6.52759 2.32097 8.47498C3.36806 10.3819 5.53191 12.5672 9.39714 14.7621C13.2631 12.567 15.428 10.3821 16.4753 8.47498C17.5445 6.52766 17.4564 4.87522 16.8551 3.69568Z" fill="#1A1A1A"/>
</svg>
