<svg width="19" height="10" viewBox="0 0 19 10" fill="none" xmlns="http://www.w3.org/2000/svg">
<path d="M5 1.66667C4.11594 1.66667 3.2681 2.01786 2.64298 2.64298C2.01786 3.2681 1.66667 4.11594 1.66667 5C1.66667 5.88405 2.01786 6.7319 2.64298 7.35702C3.2681 7.98214 4.11594 8.33333 5 8.33333H6.66667C6.88768 8.33333 7.09964 8.42113 7.25592 8.57741C7.4122 8.73369 7.5 8.94565 7.5 9.16667C7.5 9.38768 7.4122 9.59964 7.25592 9.75592C7.09964 9.9122 6.88768 10 6.66667 10H5C3.67392 10 2.40215 9.47322 1.46447 8.53553C0.526784 7.59785 0 6.32608 0 5C0 3.67392 0.526784 2.40215 1.46447 1.46447C2.40215 0.526784 3.67392 0 5 0H6.66667C6.88768 0 7.09964 0.0877975 7.25592 0.244078C7.4122 0.400358 7.5 0.61232 7.5 0.833333C7.5 1.05435 7.4122 1.26631 7.25592 1.42259C7.09964 1.57887 6.88768 1.66667 6.66667 1.66667H5ZM10.8333 0.833333C10.8333 0.61232 10.9211 0.400358 11.0774 0.244078C11.2337 0.0877975 11.4457 0 11.6667 0H13.3333C14.6594 0 15.9312 0.526784 16.8689 1.46447C17.8065 2.40215 18.3333 3.67392 18.3333 5C18.3333 6.32608 17.8065 7.59785 16.8689 8.53553C15.9312 9.47322 14.6594 10 13.3333 10H11.6667C11.4457 10 11.2337 9.9122 11.0774 9.75592C10.9211 9.59964 10.8333 9.38768 10.8333 9.16667C10.8333 8.94565 10.9211 8.73369 11.0774 8.57741C11.2337 8.42113 11.4457 8.33333 11.6667 8.33333H13.3333C14.2174 8.33333 15.0652 7.98214 15.6904 7.35702C16.3155 6.7319 16.6667 5.88405 16.6667 5C16.6667 4.11594 16.3155 3.2681 15.6904 2.64298C15.0652 2.01786 14.2174 1.66667 13.3333 1.66667H11.6667C11.4457 1.66667 11.2337 1.57887 11.0774 1.42259C10.9211 1.26631 10.8333 1.05435 10.8333 0.833333ZM5 5C5 4.77899 5.0878 4.56702 5.24408 4.41074C5.40036 4.25446 5.61232 4.16667 5.83333 4.16667H12.5C12.721 4.16667 12.933 4.25446 13.0893 4.41074C13.2455 4.56702 13.3333 4.77899 13.3333 5C13.3333 5.22101 13.2455 5.43297 13.0893 5.58926C12.933 5.74554 12.721 5.83333 12.5 5.83333H5.83333C5.61232 5.83333 5.40036 5.74554 5.24408 5.58926C5.0878 5.43297 5 5.22101 5 5Z" fill="#4D4D4D"/>
</svg>
