<svg width="17" height="21" viewBox="0 0 17 21" fill="none" xmlns="http://www.w3.org/2000/svg">
<path d="M15 19.5C15.4142 19.5 15.75 19.8358 15.75 20.25C15.75 20.6642 15.4142 21 15 21H1.5C1.08579 21 0.75 20.6642 0.75 20.25C0.75 19.8358 1.08579 19.5 1.5 19.5H15Z" fill="#00B307"/>
<path d="M10.5 8.25C10.5 7.65326 10.2628 7.08114 9.84082 6.65918C9.41886 6.23722 8.84674 6 8.25 6C7.65326 6 7.08114 6.23722 6.65918 6.65918C6.23722 7.08114 6 7.65326 6 8.25C6 8.84674 6.23722 9.41886 6.65918 9.84082C7.08114 10.2628 7.65326 10.5 8.25 10.5C8.84674 10.5 9.41886 10.2628 9.84082 9.84082C10.2628 9.41886 10.5 8.84674 10.5 8.25ZM12 8.25C12 9.24456 11.6046 10.1981 10.9014 10.9014C10.1981 11.6046 9.24456 12 8.25 12C7.25544 12 6.30189 11.6046 5.59863 10.9014C4.89537 10.1981 4.5 9.24456 4.5 8.25C4.5 7.25544 4.89537 6.30189 5.59863 5.59863C6.30189 4.89537 7.25544 4.5 8.25 4.5C9.24456 4.5 10.1981 4.89537 10.9014 5.59863C11.6046 6.30189 12 7.25544 12 8.25Z" fill="#00B307"/>
<path d="M8.67969 20.8643C8.42154 21.0448 8.07846 21.0448 7.82031 20.8643L8.25 20.25L8.67969 20.8643ZM15 8.25C15 6.45979 14.2893 4.74243 13.0234 3.47656C11.7576 2.21069 10.0402 1.5 8.25 1.5C6.45979 1.5 4.74243 2.21069 3.47656 3.47656C2.21069 4.74243 1.5 6.45979 1.5 8.25C1.5 11.355 3.23434 14.1822 5.06641 16.2891C5.97316 17.3318 6.8813 18.1731 7.56348 18.7529C7.83282 18.9819 8.06732 19.168 8.25 19.3105C8.43268 19.168 8.66718 18.9819 8.93652 18.7529C9.6187 18.1731 10.5268 17.3318 11.4336 16.2891C13.2657 14.1822 15 11.355 15 8.25ZM16.5 8.25C16.5 11.8949 14.4843 15.0678 12.5664 17.2734C11.5983 18.3868 10.6312 19.2801 9.90723 19.8955C9.54476 20.2036 9.24152 20.4437 9.02734 20.6074C8.92042 20.6891 8.83544 20.7518 8.77637 20.7949C8.74705 20.8163 8.72419 20.8332 8.70801 20.8447C8.69995 20.8505 8.69306 20.8552 8.68848 20.8584C8.68618 20.86 8.68401 20.8613 8.68262 20.8623L8.68066 20.8643C8.68043 20.8644 8.6801 20.8644 8.25 20.25C7.8199 20.8644 7.81957 20.8644 7.81934 20.8643L7.81738 20.8623C7.81599 20.8613 7.81382 20.86 7.81152 20.8584C7.80694 20.8552 7.80005 20.8505 7.79199 20.8447C7.77581 20.8332 7.75295 20.8163 7.72363 20.7949C7.66457 20.7518 7.57958 20.6891 7.47266 20.6074C7.25848 20.4437 6.95524 20.2036 6.59277 19.8955C5.86876 19.2801 4.90172 18.3868 3.93359 17.2734C2.01571 15.0678 0 11.8949 0 8.25C0 6.06196 0.86884 3.96319 2.41602 2.41602C3.96319 0.86884 6.06196 0 8.25 0C10.438 0 12.5368 0.86884 14.084 2.41602C15.6312 3.96319 16.5 6.06196 16.5 8.25Z" fill="#00B307"/>
</svg>
