<svg width="10" height="11" viewBox="0 0 10 11" fill="none" xmlns="http://www.w3.org/2000/svg">
<path d="M7.79171 4.5835H1.37504C0.86878 4.5835 0.458374 4.9939 0.458374 5.50016V8.7085C0.458374 9.21476 0.86878 9.62516 1.37504 9.62516H7.79171C8.29797 9.62516 8.70837 9.21476 8.70837 8.7085V5.50016C8.70837 4.9939 8.29797 4.5835 7.79171 4.5835Z" stroke="white" stroke-width="0.916667" stroke-linecap="round" stroke-linejoin="round"/>
<path d="M2.29175 4.5835V2.75016C2.29175 2.14237 2.53319 1.55948 2.96296 1.12971C3.39273 0.699939 3.97563 0.458496 4.58341 0.458496C5.1912 0.458496 5.7741 0.699939 6.20387 1.12971C6.63364 1.55948 6.87508 2.14237 6.87508 2.75016V4.5835" stroke="white" stroke-width="0.916667" stroke-linecap="round" stroke-linejoin="round"/>
</svg>
