<svg viewBox="0 0 82.6445 32" xmlns="http://www.w3.org/2000/svg" xmlns:xlink="http://www.w3.org/1999/xlink" width="82.644531" height="32.000000" fill="none">
	<rect id="food" width="82.644630" height="32.000000" x="0.000000" y="0.000000" fill="rgb(255,255,255)" fill-opacity="0" />
	<path id="Vector" d="M72.6584 18.3893C72.3345 18.3893 72.0916 18.3083 71.9027 18.1194C71.7407 17.9574 71.6328 17.6875 71.6328 17.3636L71.6328 7.40416C71.6328 7.08028 71.7137 6.81037 71.9027 6.64843C72.0916 6.48649 72.3345 6.40552 72.6584 6.40552L74.4668 6.40552C74.8716 6.40552 75.2225 6.43251 75.5194 6.4595C75.8163 6.51348 76.0862 6.59445 76.2751 6.75639C76.491 6.91833 76.626 7.13426 76.7339 7.45814C76.8419 7.75504 76.8959 8.18688 76.8959 8.6997L76.8959 16.0951C76.8959 16.7698 76.8149 17.2557 76.626 17.5795C76.437 17.9034 76.1672 18.1194 75.8163 18.2273C75.4654 18.3353 75.0066 18.3893 74.4668 18.3623L72.6584 18.3893ZM66.8555 0.602578C66.5316 0.629568 66.2617 0.71054 66.0997 0.872482C65.9378 1.03442 65.8568 1.30433 65.8568 1.62821L65.8568 23.1666C65.8568 23.4904 65.9378 23.7334 66.1267 23.9223C66.2887 24.0842 66.5586 24.1922 66.8824 24.1922L74.3858 24.1922C75.9512 24.1922 77.3007 24.0303 78.3804 23.7064C79.46 23.3825 80.3237 22.8697 80.9714 22.2219C81.6192 21.5741 82.105 20.7104 82.3749 19.6848C82.6718 18.6592 82.8068 17.4716 82.8068 16.0951L82.8068 8.6997C82.8068 7.32319 82.6718 6.13561 82.3749 5.10998C82.078 4.08434 81.6192 3.24764 80.9714 2.59987C80.3237 1.92511 79.46 1.43928 78.3804 1.1154C77.3007 0.791511 75.9782 0.629568 74.3858 0.629568L66.8555 0.602578ZM57.031 14.8265C57.031 15.4743 57.004 16.0681 56.977 16.5809C56.923 17.0937 56.815 17.5256 56.6531 17.9034C56.4911 18.2813 56.2212 18.5512 55.8434 18.7401C55.4925 18.9291 55.0067 19.037 54.3859 19.037C53.7651 19.037 53.2793 18.9291 52.9284 18.7401C52.5505 18.5512 52.3076 18.2813 52.1187 17.9034C51.9568 17.5526 51.8488 17.0937 51.7948 16.5809C51.7408 16.0681 51.7138 15.4743 51.7408 14.8265L51.7408 9.96825C51.7408 9.32048 51.7678 8.72669 51.7948 8.21387C51.8488 7.70106 51.9568 7.26921 52.1187 6.89134C52.2806 6.51348 52.5505 6.24357 52.9284 6.05464C53.2793 5.86571 53.7651 5.75775 54.3859 5.75775C55.0067 5.75775 55.4925 5.86571 55.8434 6.05464C56.2212 6.24357 56.4641 6.51348 56.6531 6.89134C56.815 7.24222 56.923 7.70106 56.977 8.21387C57.031 8.72669 57.031 9.32048 57.031 9.96825L57.031 14.8265ZM62.8069 8.18688C62.8069 7.80902 62.7799 7.35018 62.7259 6.81037C62.6719 6.27056 62.564 5.70376 62.3751 5.08299C62.1861 4.46221 61.9162 3.86842 61.5653 3.27463C61.1875 2.68084 60.7016 2.14103 60.0809 1.6552C59.4601 1.16938 58.6774 0.764521 57.7327 0.467626C56.788 0.170732 55.6544 0.0357795 54.3319 0.00878906C53.0094 0.00878906 51.8758 0.170732 50.9311 0.467626C49.9865 0.764521 49.2037 1.16938 48.583 1.6552C47.9622 2.14103 47.4763 2.68084 47.0985 3.27463C46.7206 3.86842 46.4507 4.4892 46.2888 5.08299C46.0998 5.70376 45.9919 6.27056 45.9379 6.81037C45.8839 7.35018 45.8569 7.80902 45.8569 8.18688L45.8569 16.6079C45.8569 16.9858 45.8839 17.4446 45.9379 17.9844C45.9919 18.5242 46.0998 19.091 46.2888 19.7118C46.4507 20.3326 46.7476 20.9264 47.0985 21.5201C47.4763 22.1139 47.9622 22.6537 48.583 23.1666C49.2037 23.6524 49.9865 24.0572 50.9311 24.3271C51.8758 24.624 53.0094 24.786 54.3319 24.786C55.6544 24.786 56.788 24.624 57.7327 24.3271C58.6774 24.0303 59.4601 23.6524 60.0809 23.1666C60.7016 22.6807 61.1875 22.1409 61.5653 21.5201C61.9432 20.9264 62.2131 20.3056 62.3751 19.7118C62.537 19.091 62.6719 18.5242 62.7259 17.9844C62.7799 17.4446 62.8069 16.9858 62.8069 16.6079L62.8069 8.18688ZM37.4089 14.8265C37.4089 15.4743 37.3819 16.0681 37.3549 16.5809C37.301 17.0937 37.193 17.5256 37.0311 17.9034C36.8691 18.2813 36.5992 18.5512 36.2213 18.7401C35.8705 18.9291 35.3846 19.037 34.7639 19.037C34.1431 19.037 33.6573 18.9291 33.3064 18.7401C32.9285 18.5512 32.6856 18.2813 32.4967 17.9034C32.3347 17.5526 32.2268 17.0937 32.1728 16.5809C32.1188 16.0681 32.0918 15.4743 32.1188 14.8265L32.1188 9.96825C32.1188 9.32048 32.1458 8.72669 32.1728 8.21387C32.2268 7.70106 32.3347 7.26921 32.4967 6.89134C32.6586 6.51348 32.9285 6.24357 33.3064 6.05464C33.6573 5.86571 34.1431 5.75775 34.7639 5.75775C35.3846 5.75775 35.8705 5.86571 36.2213 6.05464C36.5992 6.24357 36.8421 6.51348 37.0311 6.89134C37.193 7.24222 37.301 7.70106 37.3549 8.21387C37.4089 8.72669 37.4089 9.32048 37.4089 9.96825L37.4089 14.8265ZM43.2119 8.18688C43.2119 7.80902 43.1849 7.35018 43.1309 6.81037C43.0769 6.27056 42.969 5.70376 42.78 5.08299C42.5911 4.46221 42.3212 3.86842 41.9703 3.27463C41.5924 2.68084 41.1066 2.14103 40.4858 1.6552C39.8651 1.16938 39.0823 0.764521 38.1377 0.467626C37.193 0.170732 36.0594 0.0357795 34.7369 0.00878906C33.4143 0.00878906 32.2807 0.170732 31.3361 0.467626C30.3914 0.764521 29.6087 1.16938 28.9879 1.6552C28.3671 2.14103 27.8813 2.68084 27.5034 3.27463C27.1256 3.86842 26.8557 4.4892 26.6937 5.08299C26.5048 5.70376 26.3968 6.27056 26.3429 6.81037C26.2889 7.35018 26.2619 7.80902 26.2619 8.18688L26.2619 16.6079C26.2619 16.9858 26.2889 17.4446 26.3429 17.9844C26.3968 18.5242 26.5048 19.091 26.6937 19.7118C26.8557 20.3326 27.1526 20.9264 27.5034 21.5201C27.8813 22.1139 28.3671 22.6537 28.9879 23.1666C29.6087 23.6524 30.3914 24.0572 31.3361 24.3271C32.2807 24.624 33.4143 24.786 34.7369 24.786C36.0594 24.786 37.193 24.624 38.1377 24.3271C39.0823 24.0303 39.8651 23.6524 40.4858 23.1666C41.1066 22.6807 41.5924 22.1409 41.9703 21.5201C42.3482 20.9264 42.6181 20.3056 42.78 19.7118C42.942 19.091 43.0769 18.5242 43.1309 17.9844C43.1849 17.4446 43.2119 16.9858 43.2119 16.6079L43.2119 8.18688ZM23.2929 0.602578C23.9677 0.602578 24.2916 0.953453 24.2916 1.60122L24.2916 5.37988C24.2916 5.70376 24.2106 5.94668 24.0487 6.13561C23.8867 6.32454 23.6168 6.40552 23.2929 6.40552L14.4941 6.40552C14.1702 6.40552 13.9273 6.48649 13.7383 6.64843C13.5494 6.81037 13.4684 7.08028 13.4684 7.40416L13.4684 23.1936C13.4684 23.5174 13.3875 23.7603 13.2255 23.9493C13.0636 24.1112 12.7937 24.2192 12.4698 24.2192L8.5022 24.2192C8.17831 24.2192 7.9354 24.1382 7.74647 23.9493C7.58452 23.7603 7.47656 23.5174 7.47656 23.1936L7.47656 1.62821C7.47656 1.30433 7.55753 1.03442 7.74647 0.872482C7.9354 0.71054 8.17831 0.629568 8.5022 0.629568L23.2929 0.602578Z" fill="rgb(179,179,179)" fill-rule="nonzero" />
	<path id="Vector" d="M81.2682 29.454C81.2682 29.427 81.2412 29.427 81.2412 29.4C81.2412 29.373 81.2412 29.373 81.2682 29.346L82.6178 27.5107C82.6717 27.4297 82.6717 27.3757 82.6447 27.3487C82.6178 27.3217 82.5638 27.2678 82.4828 27.2678L81.5111 27.2678C81.4572 27.2678 81.4032 27.2678 81.3762 27.2948C81.3492 27.3217 81.2952 27.3487 81.2682 27.4027L80.2156 28.8332C80.1886 28.8602 80.1886 28.8602 80.1616 28.8602C80.1346 28.8602 80.1346 28.8332 80.1346 28.8062L80.1346 27.4837C80.1346 27.3487 80.0807 27.2948 79.9457 27.2948L79.19 27.2948C79.136 27.2948 79.082 27.3217 79.055 27.3487C79.028 27.3757 79.001 27.4297 79.001 27.5107L79.001 31.7752C79.001 31.8291 79.028 31.8831 79.055 31.9101C79.082 31.9371 79.136 31.9641 79.19 31.9641L79.9457 31.9641C79.9997 31.9641 80.0537 31.9371 80.1076 31.9101C80.1616 31.8831 80.1616 31.8291 80.1616 31.7752L80.1616 31.0464L80.1616 30.9924C80.1616 30.9655 80.1616 30.9654 80.1886 30.9385L80.4585 30.5606C80.4585 30.5336 80.4855 30.5336 80.5125 30.5336C80.5395 30.5336 80.5395 30.5336 80.5665 30.5606L81.4032 31.8291C81.4302 31.8831 81.4572 31.9101 81.5111 31.9371C81.5381 31.9641 81.5921 31.9641 81.6461 31.9641L82.6447 31.9641C82.7257 31.9641 82.7797 31.9371 82.8067 31.8831C82.8337 31.8291 82.8337 31.7752 82.7797 31.7212L81.2682 29.454ZM75.2224 27.2678C75.1684 27.2678 75.1144 27.2948 75.0874 27.3217C75.0604 27.3487 75.0335 27.4027 75.0335 27.4837L75.0335 30.4526C75.0335 30.5336 75.0335 30.6146 75.0604 30.7225C75.0604 30.8305 75.0874 30.9385 75.1414 31.0734C75.1684 31.1814 75.2224 31.3163 75.3034 31.4243C75.3843 31.5322 75.4653 31.6402 75.6003 31.7482C75.7352 31.8561 75.8701 31.9101 76.0591 31.9911C76.248 32.0451 76.4639 32.0721 76.7338 32.0721C77.0037 32.0721 77.2197 32.0451 77.4086 31.9911C77.5975 31.9371 77.7595 31.8561 77.8674 31.7482C78.0024 31.6402 78.0834 31.5322 78.1643 31.4243C78.2453 31.3163 78.2993 31.1814 78.3263 31.0734C78.3533 30.9654 78.3803 30.8305 78.3803 30.7225C78.3803 30.6146 78.4072 30.5336 78.4072 30.4526L78.4072 27.4837C78.4072 27.3487 78.3533 27.2948 78.2183 27.2948L77.4626 27.2948C77.4086 27.2948 77.3546 27.3217 77.3276 27.3487C77.3006 27.3757 77.2737 27.4297 77.2737 27.5107L77.2737 30.4796C77.2737 30.5876 77.2467 30.6686 77.2197 30.7495C77.1927 30.8305 77.1387 30.8845 77.0577 30.9115C76.9768 30.9385 76.8958 30.9654 76.7608 30.9654C76.6259 30.9654 76.5449 30.9385 76.4639 30.9115C76.383 30.8845 76.329 30.8305 76.302 30.7495C76.275 30.6686 76.248 30.5876 76.248 30.4796C76.248 30.3717 76.221 30.2637 76.248 30.1287L76.248 27.5107C76.248 27.3757 76.194 27.3217 76.0591 27.3217L75.2224 27.2678ZM74.3587 30.7765C74.4936 30.7765 74.5476 30.8305 74.5476 30.9654L74.5476 31.7212C74.5476 31.7752 74.5206 31.8291 74.4936 31.8561C74.4667 31.8831 74.4127 31.9101 74.3317 31.9101L73.576 31.9101C73.522 31.9101 73.468 31.8831 73.441 31.8561C73.414 31.8291 73.387 31.7752 73.387 31.7212L73.387 30.9654C73.387 30.9115 73.414 30.8575 73.441 30.8035C73.468 30.7765 73.522 30.7495 73.576 30.7495L74.3587 30.7765ZM71.7406 30.0748L71.7406 30.4256C71.7406 30.5336 71.7136 30.6146 71.6866 30.6955C71.6597 30.7765 71.6057 30.8305 71.5247 30.8575C71.4437 30.8845 71.3628 30.9115 71.2278 30.9115C71.0929 30.9115 71.0119 30.8845 70.9309 30.8575C70.8499 30.8305 70.796 30.7765 70.769 30.6955C70.742 30.6146 70.715 30.5336 70.715 30.4256C70.715 30.3177 70.688 30.2097 70.715 30.0748L70.715 29.1301L70.715 28.7792C70.715 28.6713 70.742 28.5903 70.769 28.5093C70.796 28.4284 70.8499 28.3744 70.9309 28.3474C71.0119 28.3204 71.0929 28.2934 71.2278 28.2934C71.3628 28.2934 71.4437 28.3204 71.5247 28.3474C71.6057 28.3744 71.6597 28.4284 71.6866 28.5093C71.7136 28.5903 71.7406 28.6713 71.7406 28.7792L71.7406 30.0748ZM72.9012 28.7522C72.9012 28.6713 72.9012 28.5903 72.8742 28.4823C72.8742 28.3744 72.8472 28.2664 72.8202 28.1315C72.7933 28.0235 72.7393 27.8885 72.6583 27.7806C72.5773 27.6726 72.4964 27.5647 72.3614 27.4567C72.2265 27.3487 72.0915 27.2948 71.9026 27.2138C71.7136 27.1598 71.4977 27.1328 71.2278 27.1328C70.9579 27.1328 70.742 27.1598 70.553 27.2138C70.3641 27.2678 70.2022 27.3487 70.0942 27.4567C69.9593 27.5647 69.8783 27.6726 69.7973 27.7806C69.7164 27.8885 69.6624 28.0235 69.6354 28.1315C69.6084 28.2394 69.5814 28.3744 69.5544 28.4823C69.5544 28.5903 69.5274 28.6713 69.5274 28.7522L69.5274 30.4256C69.5274 30.5066 69.5274 30.5876 69.5544 30.6955C69.5544 30.8035 69.5814 30.9115 69.6354 31.0464C69.6624 31.1544 69.7164 31.2893 69.7973 31.3973C69.8783 31.5053 69.9593 31.6132 70.0942 31.7212C70.2292 31.8291 70.3641 31.8831 70.553 31.9641C70.742 32.0181 70.9579 32.0451 71.2278 32.0451C71.4977 32.0451 71.7136 32.0181 71.9026 31.9641C72.0915 31.9101 72.2534 31.8291 72.3614 31.7212C72.4964 31.6132 72.5773 31.5053 72.6583 31.3973C72.7393 31.2893 72.7933 31.1544 72.8202 31.0464C72.8472 30.9385 72.8742 30.8035 72.8742 30.6955C72.8742 30.5876 72.9012 30.5066 72.9012 30.4256L72.9012 28.7522ZM65.8297 30.4256C65.8297 30.5066 65.8297 30.5876 65.8567 30.6955C65.8567 30.8035 65.8837 30.9115 65.9377 31.0464C65.9647 31.1544 66.0187 31.2893 66.0996 31.3973C66.1806 31.5053 66.2616 31.6132 66.3965 31.7212C66.5315 31.8291 66.6664 31.8831 66.8554 31.9641C67.0443 32.0181 67.2602 32.0451 67.5301 32.0451C67.773 32.0451 67.962 32.0181 68.1509 31.9641C68.3129 31.9101 68.4748 31.8561 68.5828 31.7752C68.6907 31.6942 68.7987 31.6132 68.8796 31.5053C68.9606 31.3973 69.0146 31.2893 69.0686 31.1814C69.1226 31.0734 69.1496 30.9655 69.1496 30.8575C69.1765 30.7495 69.1765 30.6686 69.1765 30.5606C69.1765 30.5066 69.1765 30.4796 69.1496 30.4256C69.1226 30.3986 69.0956 30.3717 69.0416 30.3717L68.2859 30.2097C68.2319 30.1827 68.1509 30.2097 68.1239 30.2367C68.0699 30.2637 68.0429 30.3177 68.0429 30.3986C68.0429 30.5066 68.016 30.5876 67.962 30.6686C67.935 30.7495 67.881 30.8035 67.8 30.8305C67.7191 30.8575 67.6381 30.8845 67.5031 30.8845C67.3682 30.8845 67.2872 30.8575 67.2062 30.8305C67.1253 30.8035 67.0713 30.7495 67.0443 30.6686C67.0173 30.5876 66.9903 30.5066 66.9903 30.3986C66.9903 30.2907 66.9633 30.1827 66.9903 30.0478L66.9903 29.1031L66.9903 28.7522C66.9903 28.6443 67.0173 28.5633 67.0443 28.4823C67.0713 28.4014 67.1253 28.3474 67.2062 28.3204C67.2872 28.2934 67.3682 28.2664 67.5031 28.2664C67.6111 28.2664 67.7191 28.2934 67.8 28.3204C67.881 28.3474 67.935 28.4014 67.962 28.4823C67.989 28.5633 68.016 28.6443 68.016 28.7252C68.016 28.8062 68.0429 28.8602 68.0969 28.8872C68.1509 28.9142 68.2049 28.9412 68.2859 28.9412L69.0146 28.7792C69.0686 28.7792 69.0956 28.7522 69.1226 28.7252C69.1496 28.6983 69.1496 28.6443 69.1496 28.6173C69.1496 28.5363 69.1226 28.4284 69.1226 28.3204L69.0416 27.9965C68.9876 27.8885 68.9336 27.7806 68.8527 27.6726C68.7717 27.5647 68.6637 27.4837 68.5558 27.4027C68.4208 27.3217 68.2859 27.2678 68.1239 27.2138C67.962 27.1598 67.7461 27.1328 67.5031 27.1328C67.2332 27.1328 67.0173 27.1598 66.8284 27.2138C66.6395 27.2678 66.4775 27.3487 66.3695 27.4567C66.2346 27.5647 66.1536 27.6726 66.0726 27.7806C65.9917 27.8885 65.9377 28.0235 65.9107 28.1315C65.8837 28.2394 65.8567 28.3744 65.8297 28.4823C65.8297 28.5903 65.8027 28.6713 65.8027 28.7522L65.8027 30.4256L65.8297 30.4256ZM65.209 30.7765C65.3439 30.7765 65.3979 30.8305 65.3979 30.9654L65.3979 31.7212C65.3979 31.7752 65.3709 31.8291 65.3439 31.8561C65.3169 31.8831 65.2629 31.9101 65.182 31.9101L64.4262 31.9101C64.3723 31.9101 64.3183 31.8831 64.2913 31.8561C64.2643 31.8291 64.2373 31.7752 64.2373 31.7212L64.2373 30.9654C64.2373 30.9115 64.2643 30.8575 64.2913 30.8035C64.3183 30.7765 64.3723 30.7495 64.4262 30.7495L65.209 30.7765Z" fill="rgb(179,179,179)" fill-rule="nonzero" />
	<g id="Group">
		<path id="Vector" d="M15.7897 13.4227C13.2796 13.2068 1.02598 15.204 0.108311 13.0448C-1.43014 9.45508 11.4443 11.4794 13.1717 11.5333C14.0354 11.5603 15.115 11.7223 15.7358 11.5603C16.1676 11.4254 16.4645 10.7236 16.9503 10.4537C18.0299 9.80596 19.7843 10.1568 21.2958 10.2918C22.3214 10.3728 23.3201 10.4807 24.3997 10.5617C22.8612 10.7776 21.2148 10.9935 19.5954 11.2095C19.4065 11.2365 19.1096 11.1555 18.9746 11.3714C20.621 11.6413 22.4834 11.6953 24.2647 11.8302C22.5104 12.1001 20.5401 12.1541 18.8127 12.478C18.9206 12.6669 19.2445 12.613 19.4334 12.64C20.9719 12.7479 22.6723 12.8829 24.2917 12.9638C22.6183 13.2337 20.675 13.2877 19.0016 13.6116C19.0556 13.8815 19.4065 13.8005 19.5684 13.8005C21.1068 13.9895 22.8342 14.2054 24.4267 14.3404C22.6723 14.4753 20.5131 14.8802 18.7047 14.9881C17.3012 15.0691 16.4645 14.2594 15.7897 13.4227Z" fill="rgb(179,179,179)" fill-rule="nonzero" />
	</g>
	<g id="Group">
		<path id="Vector" d="M11.4444 13.6387C13.3877 13.4767 15.0341 13.3418 15.7899 13.3958C16.1407 13.8276 16.4916 14.2325 16.9774 14.5294C17.4363 14.8263 17.9761 15.0152 18.6778 14.9612C19.6765 14.9072 20.7831 14.7453 21.8627 14.6103C22.6454 14.5024 23.4012 14.3944 24.1029 14.3404C23.4012 14.2865 22.6994 14.2055 21.9707 14.1245C21.134 14.0435 20.3243 13.9356 19.5685 13.8276L19.4336 13.8276C19.2446 13.8276 19.0017 13.8276 18.9747 13.6117L18.9747 13.5847L19.0017 13.5847C19.9194 13.3958 20.945 13.2878 21.9707 13.2068C22.6724 13.1529 23.3742 13.0719 24.0219 12.9909C22.8074 12.9099 21.5388 12.829 20.3512 12.748C20.0543 12.721 19.7575 12.694 19.4606 12.694L19.3256 12.694C19.1367 12.694 18.9207 12.694 18.8128 12.5321L18.7858 12.5051L18.8128 12.5051C19.7844 12.3162 20.8371 12.2082 21.8897 12.1272C22.5914 12.0732 23.3202 11.9923 23.9949 11.9113C23.6441 11.8843 23.2662 11.8573 22.9153 11.8303C21.5658 11.7494 20.1893 11.6684 18.9747 11.4795L18.9207 11.4795L18.9477 11.4525C19.0557 11.2905 19.2446 11.2905 19.4066 11.2905L19.5685 11.2905L20.8641 11.1286C21.9437 10.9936 23.0503 10.8317 24.0759 10.6967C23.4551 10.6428 22.8344 10.5888 22.2406 10.5348C21.9167 10.5078 21.6198 10.4808 21.2689 10.4538L20.4592 10.3728C19.1637 10.2379 17.8141 10.076 16.9504 10.6158C16.7345 10.7507 16.5456 10.9666 16.3837 11.1826C16.1677 11.4255 15.9788 11.6684 15.7359 11.7494C15.304 11.8573 14.6563 11.8303 14.0085 11.7763C13.7116 11.7494 13.4147 11.7224 13.1448 11.7224C12.8479 11.7224 12.2271 11.6414 11.4174 11.5604C8.50245 11.1016 3.0234 10.5348 0.891157 11.4525C0.135426 11.7763 -0.188459 12.2622 0.135426 13.0449C0.756205 14.5294 6.91002 14.0166 11.4444 13.6387ZM15.7899 13.4498C15.0341 13.3958 13.3877 13.5307 11.4444 13.6927C6.91002 14.0705 0.729215 14.5834 0.0814451 13.0449C-0.26943 12.2352 0.0814451 11.7224 0.864167 11.3715C3.0234 10.4538 8.50245 11.0206 11.4444 11.3175C12.2541 11.3985 12.8749 11.4795 13.1718 11.4795C13.4417 11.4795 13.7386 11.5064 14.0355 11.5334C14.6833 11.5874 15.304 11.6144 15.7359 11.5064C15.9518 11.4525 16.1407 11.2095 16.3567 10.9666C16.5456 10.7507 16.7075 10.5348 16.9504 10.3998C17.8411 9.86003 19.1907 10.022 20.5132 10.1569L21.3229 10.2379C21.6198 10.2649 21.9707 10.2919 22.2945 10.3189C22.9963 10.3728 23.6981 10.4538 24.4268 10.4808L24.7237 10.5078L24.4538 10.5618C23.3472 10.7237 22.1596 10.8857 20.972 11.0476L19.6765 11.2095L19.5145 11.2095C19.3796 11.2095 19.2176 11.2096 19.1097 11.3175C20.3243 11.5064 21.6738 11.5874 23.0233 11.6684C23.4821 11.6954 23.914 11.7224 24.3728 11.7494L24.6427 11.7763L24.3728 11.8033C23.6171 11.9113 22.8074 11.9923 21.9977 12.0732C20.972 12.1812 19.9194 12.2622 18.9747 12.4511C19.0557 12.5591 19.2446 12.5591 19.4066 12.5591L19.5415 12.5591C19.8384 12.5861 20.1353 12.6131 20.4322 12.6131C21.7278 12.721 23.0773 12.802 24.3728 12.883L24.6427 12.9099L24.3728 12.9639C23.6171 13.0719 22.8344 13.1529 22.0516 13.2338C21.053 13.3418 20.0543 13.4228 19.1367 13.6117C19.1907 13.7736 19.3796 13.7466 19.5415 13.7466L19.6765 13.7466C20.4592 13.8276 21.2689 13.9356 22.0786 14.0435C22.8883 14.1245 23.725 14.2325 24.5078 14.2865L24.5078 14.3404C23.725 14.3944 22.8344 14.5294 21.9437 14.6373C20.8641 14.7723 19.7575 14.9342 18.7588 14.9882C18.0571 15.0422 17.4903 14.8533 17.0314 14.5564C16.4916 14.2865 16.1137 13.8816 15.7899 13.4498Z" fill="rgb(179,179,179)" fill-rule="nonzero" />
	</g>
</svg>
