<svg viewBox="0 0 131.019 32" xmlns="http://www.w3.org/2000/svg" xmlns:xlink="http://www.w3.org/1999/xlink" width="131.018555" height="32.000000" fill="none">
	<rect id="bookoff-corporation-logo" width="131.018661" height="32.000000" x="0.000000" y="0.000000" fill="rgb(255,255,255)" fill-opacity="0" />
	<path id="Vector" d="M113.179 0C111.109 0 109.416 1.6718 109.422 3.74189C109.416 5.82247 111.125 7.48903 113.2 7.48379C115.27 7.48903 116.926 5.82247 116.926 3.74189C116.921 1.67704 115.249 0 113.179 0ZM45.2487 0.062889C43.1682 0.062889 41.4911 1.71897 41.4911 3.78906C41.4911 5.86964 43.1734 7.5624 45.2487 7.56764C47.3136 7.56764 48.9906 5.86964 48.9906 3.78906C48.9959 1.71897 47.3136 0.062889 45.2487 0.062889ZM101.147 4.26597C99.0817 4.26597 97.3889 5.93777 97.3889 8.00786C97.3889 10.078 99.0764 11.7655 101.147 11.7655C103.222 11.7655 104.888 10.0832 104.888 8.00786C104.894 5.94301 103.222 4.26597 101.147 4.26597ZM125.285 4.26597C123.221 4.26597 121.528 5.93777 121.528 8.00786C121.528 10.078 123.221 11.7655 125.285 11.7655C127.366 11.7655 129.012 10.078 129.012 8.00786C129.012 5.93777 127.366 4.26073 125.285 4.26597ZM57.0876 4.32886C55.0227 4.32886 53.33 6.02162 53.33 8.08647C53.33 10.1618 55.0175 11.8284 57.0876 11.8284C59.1472 11.8284 60.8295 10.1566 60.8295 8.08647C60.8295 6.02162 59.1524 4.32886 57.0876 4.32886ZM33.1898 4.42843C31.1249 4.42319 29.4479 6.09499 29.4479 8.15984L29.4479 8.17557C29.4479 10.2509 31.1144 11.9384 33.1898 11.9332C35.2494 11.9332 36.9317 10.2457 36.9317 8.17557C36.9317 6.10023 35.2494 4.42843 33.1898 4.42843ZM114.463 13.17C114.463 13.17 107.016 13.2172 106.927 13.2172C105.659 13.2172 104.584 14.2968 104.584 15.5598L104.569 29.1019L104.584 29.1019C104.642 30.7055 105.984 32 107.598 32C109.228 32 110.569 30.7055 110.627 29.1019L110.627 24.3957C110.627 24.3957 113.604 24.38 113.703 24.38C114.851 24.38 115.805 23.4681 115.805 22.3151C115.805 21.1569 114.856 20.2136 113.703 20.2136L110.627 20.2136L110.627 18.961L114.468 18.961C116.062 18.961 117.34 17.6875 117.335 16.0943C117.33 14.5169 116.056 13.17 114.463 13.17ZM128.168 13.17C128.168 13.17 120.721 13.2172 120.632 13.2172C119.353 13.2172 118.289 14.2915 118.289 15.5598L118.289 29.1019L118.305 29.1019C118.357 30.7055 119.678 32 121.302 32C122.938 32 124.248 30.7108 124.3 29.1019L124.316 29.1019L124.316 24.3957C124.316 24.3957 127.287 24.38 127.392 24.38C128.54 24.38 129.494 23.4681 129.494 22.3151C129.494 21.1569 128.54 20.2136 127.392 20.2136L124.311 20.2136L124.311 18.961L128.152 18.961C129.735 18.961 131.019 17.6875 131.019 16.0943C131.019 14.5169 129.751 13.1648 128.168 13.17ZM60.7613 13.2014C59.1734 13.2014 57.8947 14.4802 57.8947 16.0524C57.8947 16.1572 57.9156 16.2673 57.9261 16.3773L57.9104 29.0757L57.9261 29.2224C58.0047 30.7213 59.2468 31.9266 60.7771 31.9266C62.365 31.9266 63.6438 30.6531 63.6438 29.0757C63.6438 28.8922 63.628 28.7193 63.5966 28.5568L63.5966 24.7887L67.8626 30.5169C67.9254 30.6112 67.9936 30.7055 68.0565 30.8104L68.0722 30.8418C68.6225 31.4812 69.4557 31.8847 70.3676 31.8847C72.0289 31.8847 73.3653 30.5431 73.3653 28.887C73.3706 28.3105 73.2081 27.7445 72.8937 27.2571L72.8465 27.1942C72.8046 27.1261 72.7679 27.058 72.7155 27.0003L68.8583 21.8225L71.9975 18.0282L71.9818 18.0282C72.3906 17.5303 72.6474 16.8962 72.6474 16.1887C72.6421 14.5745 71.3319 13.2434 69.7178 13.2434C68.6591 13.2434 67.742 13.8041 67.2284 14.6426L63.5966 19.0239L63.5966 16.4821C63.6123 16.3406 63.628 16.1887 63.628 16.0419C63.628 14.4802 62.3441 13.2014 60.7613 13.2014ZM2.54189 13.2172C1.14261 13.2172 0.0210933 14.3596 0.0210933 15.738C0.0210933 15.738 0.00537109 29.1857 0.00537109 29.4111C0.00537109 30.8418 1.09545 31.9161 2.52617 31.9161L9.03518 31.9319C12.232 31.9319 14.8314 29.3482 14.8314 26.1513C14.8314 24.3433 14.0244 22.7344 12.7299 21.6757C13.4898 20.7743 13.9667 19.6056 13.9667 18.3217C13.972 15.5126 11.6398 13.2067 8.80458 13.2119L2.54189 13.2119L2.54189 13.2172ZM46.4908 13.301C41.3758 13.301 37.2147 17.4569 37.2147 22.5771C37.2147 27.6973 41.3758 31.869 46.4908 31.869C51.611 31.869 55.7722 27.6973 55.7669 22.5771C55.7669 17.4569 51.611 13.301 46.4908 13.301ZM25.5068 13.3325C20.3814 13.3325 16.2412 17.4989 16.2464 22.6295C16.2464 27.7445 20.3762 31.8952 25.5068 31.8899C30.6375 31.8899 34.783 27.7445 34.783 22.6295C34.783 17.5041 30.6375 13.3325 25.5068 13.3325ZM93.8043 13.3325C88.6631 13.3325 84.4914 17.5146 84.4914 22.661C84.4914 27.7969 88.6578 31.9738 93.8043 31.9738C98.9402 31.9738 103.117 27.7969 103.117 22.661C103.117 17.5146 98.9454 13.3325 93.8043 13.3325ZM5.06269 17.4307L7.38958 17.4307C8.16521 17.4307 8.78886 18.0439 8.78886 18.83C8.78886 19.5952 8.15997 20.1978 7.38958 20.1978C7.31621 20.1978 5.06269 20.2136 5.06269 20.2136L5.06269 17.4307ZM78.2969 18.6518C76.2268 18.6518 74.5602 20.3393 74.555 22.4094C74.5602 24.4795 76.2268 26.167 78.2969 26.167C80.3722 26.167 82.0545 24.4795 82.0545 22.4094C82.0492 20.3446 80.3617 18.6518 78.2969 18.6518ZM46.4908 18.7357C48.6185 18.7357 50.348 20.4599 50.348 22.5929C50.348 24.7154 48.6185 26.4343 46.4908 26.4343C44.363 26.4343 42.6493 24.7049 42.6493 22.5771C42.6441 20.4599 44.3578 18.7409 46.4751 18.7357L46.4908 18.7357ZM25.5068 18.7671C27.6293 18.7671 29.364 20.4913 29.364 22.6243C29.364 24.752 27.6346 26.471 25.5068 26.4658C23.4001 26.471 21.6706 24.752 21.6654 22.6243C21.6654 20.4913 23.3948 18.7671 25.5068 18.7671ZM93.8043 18.7986C95.9372 18.7986 97.6614 20.5123 97.6614 22.6557C97.6614 24.7835 95.932 26.5129 93.8043 26.5129C91.6713 26.5129 89.9418 24.7835 89.9471 22.6557C89.9418 20.528 91.6608 18.8038 93.7885 18.7986L93.8043 18.7986ZM5.06269 24.1703L8.02371 24.186C8.83079 24.186 9.49112 24.8254 9.49112 25.6325C9.48588 26.4501 8.83603 27.0999 8.02371 27.0999L5.07841 27.0999L5.06269 24.1703ZM128.037 27.0999C126.685 27.0999 125.61 28.1847 125.61 29.5421C125.616 30.9047 126.679 31.9843 128.037 31.9843C129.389 31.9843 130.479 30.8994 130.479 29.5421C130.484 28.1952 129.394 27.1051 128.047 27.0999C128.047 27.0999 128.042 27.0999 128.037 27.0999ZM128.037 27.3462C129.242 27.3462 130.233 28.3262 130.233 29.5421C130.233 30.7527 129.242 31.738 128.037 31.738C126.826 31.738 125.857 30.7475 125.857 29.5421C125.857 28.3262 126.826 27.3462 128.037 27.3462ZM126.931 28.0956L126.931 30.9256L127.518 30.9256L127.518 29.8199L128.121 29.8199C128.294 29.8199 128.419 29.8408 128.477 29.9037C128.54 29.9561 128.577 30.0819 128.577 30.2601L128.577 30.5221C128.577 30.6112 128.587 30.6846 128.592 30.7684C128.603 30.8156 128.624 30.8732 128.639 30.9309L129.289 30.9309L129.289 30.868C129.232 30.8366 129.19 30.7632 129.174 30.6898C129.164 30.6426 129.158 30.5588 129.158 30.4278L129.158 30.2496C129.158 30.0504 129.132 29.9037 129.074 29.8094C129.022 29.7098 128.917 29.6364 128.797 29.584C128.943 29.5316 129.074 29.4373 129.137 29.3063C129.205 29.1805 129.232 29.0495 129.237 28.9132C129.237 28.7979 129.221 28.7088 129.19 28.6197C129.148 28.5306 129.09 28.452 129.027 28.3734C128.959 28.2843 128.865 28.2214 128.765 28.1795C128.655 28.1323 128.519 28.1061 128.325 28.0956L126.931 28.0956ZM127.518 28.5988L128.199 28.5988C128.33 28.5988 128.414 28.6145 128.477 28.6459C128.592 28.7036 128.655 28.8136 128.655 28.9866C128.655 29.1386 128.587 29.2434 128.477 29.2958C128.409 29.3272 128.32 29.3429 128.184 29.3429L127.518 29.3429L127.518 28.5988Z" fill="rgb(179,179,179)" fill-rule="nonzero" />
</svg>
