<svg width="22" height="18" viewBox="0 0 22 18" fill="none" xmlns="http://www.w3.org/2000/svg">
<path d="M20 2.75C20 2.06421 19.4358 1.5 18.75 1.5H2.75C2.06421 1.5 1.5 2.06421 1.5 2.75V14.75C1.5 15.4358 2.06421 16 2.75 16H18.75C19.4358 16 20 15.4358 20 14.75V2.75ZM21.5 14.75C21.5 16.2642 20.2642 17.5 18.75 17.5H2.75C1.23579 17.5 0 16.2642 0 14.75V2.75C0 1.23579 1.23579 0 2.75 0H18.75C20.2642 0 21.5 1.23579 21.5 2.75V14.75Z" fill="#00B307"/>
<path d="M20.32 2.13574C20.6594 1.89838 21.1265 1.98104 21.364 2.32031C21.6013 2.65963 21.5187 3.12677 21.1794 3.36426L11.1794 10.3643C10.9213 10.5448 10.5782 10.5448 10.32 10.3643L0.320038 3.36426C-0.0192333 3.12677 -0.101898 2.65963 0.135468 2.32031C0.372958 1.98104 0.840092 1.89838 1.17941 2.13574L10.7497 8.83496L20.32 2.13574Z" fill="#00B307"/>
</svg>
