<svg viewBox="0 0 17.1763 17.1721" xmlns="http://www.w3.org/2000/svg" xmlns:xlink="http://www.w3.org/1999/xlink" width="17.176270" height="17.172150" fill="none" customFrame="#000000">
	<g id="Group">
		<path id="Vector(Border)" d="M10.5409 16.5076L10.5412 16.5074L16.5172 10.5313C16.7369 10.3103 16.9017 10.0666 17.0115 9.8003C17.1214 9.53397 17.1763 9.24498 17.1763 8.93333C17.1763 8.62373 17.122 8.33638 17.0134 8.07128C16.9033 7.8027 16.7375 7.55696 16.5159 7.33407L9.3576 0.175736C9.29902 0.117158 9.23438 0.0732241 9.16367 0.0439348C9.09296 0.0146449 9.01618 0 8.93333 0L0.6 0C0.4 0 0.25 0.05 0.15 0.15C0.05 0.25 0 0.4 0 0.6L0 8.93333C0 9.09916 0.058661 9.24066 0.175983 9.35785L7.33383 16.5074C7.54641 16.7202 7.79163 16.8842 8.0695 16.9994C8.34737 17.1146 8.6367 17.1721 8.9375 17.1721C9.2383 17.1721 9.52763 17.1146 9.8055 16.9994C10.0833 16.8842 10.3284 16.7203 10.5409 16.5076ZM15.6661 9.68533L9.6924 15.6591L9.69217 15.6593C9.59213 15.7595 9.47673 15.8366 9.34597 15.8908C9.21521 15.945 9.07905 15.9721 8.9375 15.9721C8.79595 15.9721 8.65979 15.945 8.52903 15.8908C8.39827 15.8366 8.28287 15.7595 8.18283 15.6593L1.2 8.6846L1.2 1.2L8.68481 1.2L15.6674 8.1826C15.8733 8.38977 15.9763 8.64002 15.9763 8.93333C15.9763 9.07999 15.9505 9.21599 15.8988 9.34132C15.8471 9.46665 15.7695 9.58133 15.6661 9.68533Z" fill="rgb(179,179,179)" fill-rule="evenodd" />
		<path id="Vector(Border)" d="M4.77494 4.01666C5.19494 4.01666 5.52494 4.34666 5.52494 4.76666C5.52494 5.18666 5.19494 5.51666 4.77494 5.51666L4.7666 5.51666C4.3466 5.51666 4.0166 5.18666 4.0166 4.76666C4.0166 4.34666 4.3466 4.01666 4.7666 4.01666L4.77494 4.01666Z" fill="rgb(179,179,179)" fill-rule="evenodd" />
	</g>
</svg>
