<svg width="30" height="32" viewBox="0 0 30 32" fill="none" xmlns="http://www.w3.org/2000/svg">
<path d="M29.447 7.54411C29.447 7.42254 29.42 7.30097 29.366 7.18616C29.2579 6.95652 29.0485 6.80118 28.8189 6.75391L15.0612 0.0810469C14.8383 -0.0270156 14.5749 -0.0270156 14.352 0.0810469L0.459266 6.81469C0.189109 6.94301 0.0135078 7.21317 0 7.5171V7.52385C0 7.5306 0 7.53736 0 7.55087V24.4491C0 24.7598 0.175602 25.0435 0.459266 25.1786L14.352 31.9122C14.3588 31.9122 14.3588 31.9122 14.3656 31.919C14.3858 31.9257 14.4061 31.9325 14.4263 31.946C14.4331 31.946 14.4398 31.9527 14.4534 31.9527C14.4736 31.9595 14.4939 31.9662 14.5141 31.973C14.5209 31.973 14.5276 31.9797 14.5344 31.9797C14.5547 31.9865 14.5817 31.9865 14.6019 31.9932C14.6087 31.9932 14.6155 31.9932 14.6222 31.9932C14.6492 31.9932 14.683 32 14.71 32C14.737 32 14.7708 32 14.7978 31.9932C14.8046 31.9932 14.8113 31.9932 14.8181 31.9932C14.8383 31.9932 14.8653 31.9865 14.8856 31.9797C14.8924 31.9797 14.8991 31.973 14.9059 31.973C14.9261 31.9662 14.9464 31.9595 14.9667 31.9527C14.9734 31.9527 14.9802 31.946 14.9937 31.946C15.0139 31.9392 15.0342 31.9325 15.0545 31.919C15.0612 31.919 15.0612 31.919 15.068 31.9122L29.0013 25.1583C29.2782 25.0232 29.4605 24.7396 29.4605 24.4289V7.56437C29.447 7.55762 29.447 7.55087 29.447 7.54411ZM14.7033 1.70874L26.7522 7.55087L22.3149 9.70536L10.2659 3.86323L14.7033 1.70874ZM14.7033 13.393L2.65428 7.55087L8.40861 4.7615L20.4576 10.6036L14.7033 13.393ZM1.62094 8.85437L13.8928 14.8046V29.886L1.62094 23.9358V8.85437ZM15.5137 29.886V14.8046L21.2748 12.0084V15.9527C21.2748 16.3985 21.6395 16.7632 22.0853 16.7632C22.531 16.7632 22.8957 16.3985 22.8957 15.9527V11.2182L27.8261 8.82735V23.9088L15.5137 29.886Z" fill="#00B307"/>
</svg>
