<svg width="132" height="32" viewBox="0 0 132 32" fill="none" xmlns="http://www.w3.org/2000/svg">
<g clip-path="url(#clip0_629_3421)">
<path d="M113.179 0C111.109 0 109.416 1.6718 109.422 3.74189C109.416 5.82247 111.125 7.48903 113.2 7.48379C115.27 7.48903 116.926 5.82247 116.926 3.74189C116.921 1.67704 115.249 0 113.179 0ZM45.2486 0.062889C43.168 0.062889 41.491 1.71897 41.491 3.78906C41.491 5.86964 43.1733 7.5624 45.2486 7.56764C47.3135 7.56764 48.9905 5.86964 48.9905 3.78906C48.9957 1.71897 47.3135 0.062889 45.2486 0.062889ZM101.146 4.26597C99.0816 4.26597 97.3888 5.93777 97.3888 8.00786C97.3888 10.078 99.0763 11.7655 101.146 11.7655C103.222 11.7655 104.888 10.0832 104.888 8.00786C104.894 5.94301 103.222 4.26597 101.146 4.26597ZM125.285 4.26597C123.22 4.26597 121.528 5.93777 121.528 8.00786C121.528 10.078 123.22 11.7655 125.285 11.7655C127.366 11.7655 129.011 10.078 129.011 8.00786C129.011 5.93777 127.366 4.26073 125.285 4.26597ZM57.0875 4.32886C55.0226 4.32886 53.3298 6.02162 53.3298 8.08647C53.3298 10.1618 55.0174 11.8284 57.0875 11.8284C59.1471 11.8284 60.8293 10.1566 60.8293 8.08647C60.8293 6.02162 59.1523 4.32886 57.0875 4.32886ZM33.1897 4.42843C31.1248 4.42319 29.4478 6.09499 29.4478 8.15984V8.17557C29.4478 10.2509 31.1143 11.9384 33.1897 11.9332C35.2493 11.9332 36.9315 10.2457 36.9315 8.17557C36.9315 6.10023 35.2493 4.42843 33.1897 4.42843ZM114.463 13.17C114.463 13.17 107.016 13.2172 106.927 13.2172C105.659 13.2172 104.584 14.2968 104.584 15.5598L104.569 29.1019H104.584C104.642 30.7055 105.984 32 107.598 32C109.228 32 110.569 30.7055 110.627 29.1019V24.3957C110.627 24.3957 113.604 24.38 113.703 24.38C114.851 24.38 115.805 23.4681 115.805 22.3151C115.805 21.1569 114.856 20.2136 113.703 20.2136H110.627V18.961H114.468C116.062 18.961 117.34 17.6875 117.335 16.0943C117.33 14.5169 116.056 13.17 114.463 13.17ZM128.168 13.17C128.168 13.17 120.721 13.2172 120.632 13.2172C119.353 13.2172 118.289 14.2915 118.289 15.5598V29.1019H118.305C118.357 30.7055 119.678 32 121.302 32C122.937 32 124.248 30.7108 124.3 29.1019H124.316V24.3957C124.316 24.3957 127.287 24.38 127.392 24.38C128.54 24.38 129.494 23.4681 129.494 22.3151C129.494 21.1569 128.54 20.2136 127.392 20.2136H124.311V18.961H128.152C129.735 18.961 131.019 17.6875 131.019 16.0943C131.019 14.5169 129.75 13.1648 128.168 13.17ZM60.7612 13.2014C59.1733 13.2014 57.8945 14.4802 57.8945 16.0524C57.8945 16.1572 57.9155 16.2673 57.926 16.3773L57.9103 29.0757L57.926 29.2224C58.0046 30.7213 59.2466 31.9266 60.7769 31.9266C62.3649 31.9266 63.6436 30.6531 63.6436 29.0757C63.6436 28.8922 63.6279 28.7193 63.5965 28.5568V24.7887L67.8624 30.5169C67.9253 30.6112 67.9934 30.7055 68.0563 30.8104L68.0721 30.8418C68.6223 31.4812 69.4556 31.8847 70.3675 31.8847C72.0288 31.8847 73.3652 30.5431 73.3652 28.887C73.3705 28.3105 73.208 27.7445 72.8935 27.2571L72.8464 27.1942C72.8045 27.1261 72.7678 27.058 72.7154 27.0003L68.8582 21.8225L71.9974 18.0282H71.9817C72.3904 17.5303 72.6472 16.8962 72.6472 16.1887C72.642 14.5745 71.3318 13.2434 69.7177 13.2434C68.659 13.2434 67.7419 13.8041 67.2283 14.6426L63.5965 19.0239V16.4821C63.6122 16.3406 63.6279 16.1887 63.6279 16.0419C63.6279 14.4802 62.3439 13.2014 60.7612 13.2014ZM2.54177 13.2172C1.14249 13.2172 0.0209713 14.3596 0.0209713 15.738C0.0209713 15.738 0.00524902 29.1857 0.00524902 29.4111C0.00524902 30.8418 1.09532 31.9161 2.52605 31.9161L9.03505 31.9319C12.2319 31.9319 14.8313 29.3482 14.8313 26.1513C14.8313 24.3433 14.0242 22.7344 12.7298 21.6757C13.4897 20.7743 13.9666 19.6056 13.9666 18.3217C13.9718 15.5126 11.6397 13.2067 8.80446 13.2119H2.54177V13.2172ZM46.4907 13.301C41.3757 13.301 37.2145 17.4569 37.2145 22.5771C37.2145 27.6973 41.3757 31.869 46.4907 31.869C51.6109 31.869 55.772 27.6973 55.7668 22.5771C55.7668 17.4569 51.6109 13.301 46.4907 13.301ZM25.5067 13.3325C20.3813 13.3325 16.2411 17.4989 16.2463 22.6295C16.2463 27.7445 20.376 31.8952 25.5067 31.8899C30.6374 31.8899 34.7828 27.7445 34.7828 22.6295C34.7828 17.5041 30.6374 13.3325 25.5067 13.3325ZM93.8041 13.3325C88.663 13.3325 84.4913 17.5146 84.4913 22.661C84.4913 27.7969 88.6577 31.9738 93.8041 31.9738C98.9401 31.9738 103.117 27.7969 103.117 22.661C103.117 17.5146 98.9453 13.3325 93.8041 13.3325ZM5.06257 17.4307H7.38946C8.16509 17.4307 8.78874 18.0439 8.78874 18.83C8.78874 19.5952 8.15985 20.1978 7.38946 20.1978C7.31609 20.1978 5.06257 20.2136 5.06257 20.2136V17.4307ZM78.2968 18.6518C76.2267 18.6518 74.5601 20.3393 74.5549 22.4094C74.5601 24.4795 76.2267 26.167 78.2968 26.167C80.3721 26.167 82.0544 24.4795 82.0544 22.4094C82.0491 20.3446 80.3616 18.6518 78.2968 18.6518ZM46.4907 18.7357C48.6184 18.7357 50.3479 20.4599 50.3479 22.5929C50.3479 24.7154 48.6184 26.4343 46.4907 26.4343C44.3629 26.4343 42.6492 24.7049 42.6492 22.5771C42.644 20.4599 44.3577 18.7409 46.4749 18.7357H46.4907ZM25.5067 18.7671C27.6292 18.7671 29.3639 20.4913 29.3639 22.6243C29.3639 24.752 27.6345 26.471 25.5067 26.4658C23.3999 26.471 21.6705 24.752 21.6653 22.6243C21.6653 20.4913 23.3947 18.7671 25.5067 18.7671ZM93.8041 18.7986C95.9371 18.7986 97.6613 20.5123 97.6613 22.6557C97.6613 24.7835 95.9319 26.5129 93.8041 26.5129C91.6711 26.5129 89.9417 24.7835 89.9469 22.6557C89.9417 20.528 91.6607 18.8038 93.7884 18.7986H93.8041ZM5.06257 24.1703L8.02359 24.186C8.83067 24.186 9.491 24.8254 9.491 25.6325C9.48576 26.4501 8.83591 27.0999 8.02359 27.0999H5.07829L5.06257 24.1703ZM128.037 27.0999C126.685 27.0999 125.61 28.1847 125.61 29.5421C125.615 30.9047 126.679 31.9843 128.037 31.9843C129.389 31.9843 130.479 30.8994 130.479 29.5421C130.484 28.1952 129.394 27.1051 128.047 27.0999C128.047 27.0999 128.042 27.0999 128.037 27.0999ZM128.037 27.3462C129.242 27.3462 130.233 28.3262 130.233 29.5421C130.233 30.7527 129.242 31.738 128.037 31.738C126.826 31.738 125.857 30.7475 125.857 29.5421C125.857 28.3262 126.826 27.3462 128.037 27.3462ZM126.931 28.0956V30.9256H127.518V29.8199H128.121C128.293 29.8199 128.419 29.8408 128.477 29.9037C128.54 29.9561 128.576 30.0819 128.576 30.2601V30.5221C128.576 30.6112 128.587 30.6846 128.592 30.7684C128.603 30.8156 128.624 30.8732 128.639 30.9309H129.289V30.868C129.232 30.8366 129.19 30.7632 129.174 30.6898C129.163 30.6426 129.158 30.5588 129.158 30.4278V30.2496C129.158 30.0504 129.132 29.9037 129.074 29.8094C129.022 29.7098 128.917 29.6364 128.797 29.584C128.943 29.5316 129.074 29.4373 129.137 29.3063C129.205 29.1805 129.232 29.0495 129.237 28.9132C129.237 28.7979 129.221 28.7088 129.19 28.6197C129.148 28.5306 129.09 28.452 129.027 28.3734C128.959 28.2843 128.865 28.2214 128.765 28.1795C128.655 28.1323 128.519 28.1061 128.325 28.0956H126.931ZM127.518 28.5988H128.199C128.33 28.5988 128.414 28.6145 128.477 28.6459C128.592 28.7036 128.655 28.8136 128.655 28.9866C128.655 29.1386 128.587 29.2434 128.477 29.2958C128.409 29.3272 128.32 29.3429 128.183 29.3429H127.518V28.5988Z" fill="#CCCCCC"/>
</g>
<defs>
<clipPath id="clip0_629_3421">
<rect width="131.019" height="32" fill="white"/>
</clipPath>
</defs>
</svg>
