<svg width="60" height="32" viewBox="0 0 60 32" fill="none" xmlns="http://www.w3.org/2000/svg">
<path fill-rule="evenodd" clip-rule="evenodd" d="M25.6324 27.7551C23.0484 29.8774 19.6339 31.1692 16.0347 31.1692C7.54444 31.1692 0.738446 24.3399 0.738446 15.9653C0.738446 7.56744 7.54444 0.738103 16.0347 0.738103C21.6642 0.738103 26.5556 3.78355 29.2316 8.39789C29.6007 8.49024 29.8777 8.58259 30.2464 8.67494C27.5707 3.50685 22.2179 0 16.0347 0C7.17504 0 0 7.10604 0 15.9653C0 24.802 7.17539 32 16.0347 32C20.1876 32 23.9712 30.3391 26.8323 27.7551H25.6324Z" fill="#CCCCCC"/>
<path fill-rule="evenodd" clip-rule="evenodd" d="M18.0649 27.0173H59.9394V20.7417H18.0649V27.0173Z" fill="#CCCCCC"/>
<path fill-rule="evenodd" clip-rule="evenodd" d="M20.1873 9.50508L20.0026 10.3359H17.9723C17.4186 16.2424 17.0495 21.0178 16.6805 23.2331C15.85 27.2013 12.1585 29.416 9.75911 29.416C8.92866 29.416 7.91351 29.0473 7.91351 28.0321C7.91351 27.4784 8.37491 27.017 8.92866 27.017C9.75911 27.017 10.4052 27.6627 10.8666 28.4009C12.1588 27.6627 12.3432 27.017 12.8969 24.4326C13.174 23.2331 13.9121 14.6732 14.2811 10.3359H12.6199L12.8046 9.50508H14.4658L14.6505 8.02888C15.5733 2.58408 19.5415 1.93799 21.0184 1.93799C21.7565 1.93799 23.2331 2.30704 23.2331 3.32219C23.2331 3.96794 22.6793 4.24499 22.1256 4.24499C21.1104 4.24499 20.649 3.69124 20.1873 2.86044C18.5261 3.59889 18.2494 7.65948 18.0647 9.50474H20.1873V9.50508ZM20.0029 17.0725C20.0029 12.7356 22.7717 8.95168 27.478 8.95168C30.4315 8.95168 32.092 10.2439 32.092 13.1046C32.092 17.4419 29.3236 21.1105 24.6169 21.1105C21.6642 21.1105 20.0029 19.8183 20.0029 17.0725ZM28.3088 13.7507C28.3088 12.6432 28.2165 9.96717 26.5556 9.96717C24.1562 9.96717 23.7868 14.6735 23.7868 16.4271C23.7868 17.4423 23.8792 20.188 25.5401 20.188C27.9394 20.1877 28.3088 15.504 28.3088 13.7507ZM33.1075 17.0725C33.1075 12.7356 35.9686 8.95168 40.675 8.95168C43.5361 8.95168 45.266 10.2439 45.266 13.1046C45.266 17.4419 42.4282 21.1105 37.7219 21.1105C34.8608 21.1105 33.1075 19.8183 33.1075 17.0725ZM41.5054 13.7507C41.5054 12.6432 41.4134 9.96717 39.7522 9.96717C37.2605 9.96717 36.9838 14.6735 36.9838 16.4271C36.9838 17.4423 36.9838 20.188 38.6447 20.188C41.136 20.1877 41.5054 15.504 41.5054 13.7507ZM59.5707 19.7263C57.9091 20.4644 55.8788 21.1101 54.495 21.1101C53.7569 21.1101 53.8486 20.0023 53.8486 19.5412C53.8486 18.9882 53.8486 18.249 54.0336 16.7962L53.9409 16.7035C53.0181 18.6184 51.1725 21.1101 48.7732 21.1101C46.9272 21.1101 46.0964 19.1722 46.0964 17.5343C46.0964 13.4733 49.3262 9.13638 53.9409 9.13638H54.8637C55.2331 6.27529 55.2331 5.07578 55.2331 4.15264C55.2331 3.87594 55.2331 3.59889 54.9561 3.59889C54.679 3.59889 54.3103 3.69124 53.3871 3.96794L53.2028 3.22984C55.0487 2.58409 57.079 2.21469 58.9243 2.12234C59.1093 2.12234 59.2013 2.12234 59.2013 2.49139C59.2013 4.89074 57.3554 17.4416 57.3554 18.7111C57.3554 18.9882 57.3554 19.4492 57.7248 19.4492C57.9091 19.4492 58.5556 19.2642 59.2937 18.9878L59.5707 19.7263ZM53.5715 15.781C54.2179 14.2121 54.4023 12.6432 54.7717 10.2439C54.5867 10.1512 54.4023 10.1512 54.3103 10.1512C51.4492 10.1512 50.0647 14.3965 50.0647 16.7035C50.0647 17.2572 50.1574 18.6184 50.9878 18.6184C52.1876 18.6188 53.2028 16.7038 53.5715 15.781Z" fill="#CCCCCC"/>
<path fill-rule="evenodd" clip-rule="evenodd" d="M20.5567 22.2178H21.5719L22.8637 24.1558V22.2178H23.6945V25.909H22.956L21.3872 23.7871V25.909H20.5567V22.2178ZM26.0935 22.2178H28.9546V22.9563H27.201V23.6017H28.3088V24.4325H27.201V25.0782H28.9546V25.909H26.0935V22.2178ZM32.0004 22.9563H30.9852V22.2178H34.1227V22.9563H33.1075V25.909H32.0004V22.9563ZM35.9686 22.2178H37.0754L37.5375 24.1558H37.6292L38.0906 22.2178H39.0141L39.4751 24.1558H39.5678L40.0292 22.2178H40.8593L39.9365 25.909H39.0141L38.46 23.8787L37.9062 25.909H36.9838L35.9686 22.2178ZM44.6202 26.0017C43.5361 26.0017 42.7976 25.2636 42.7976 24.0634C42.7976 22.8639 43.5357 22.1255 44.6202 22.1255C45.7281 22.1255 46.3735 22.8636 46.3735 24.0634C46.3735 25.2633 45.7277 26.0017 44.6202 26.0017ZM43.9745 24.0631C43.9745 25.0782 44.2515 25.2633 44.6202 25.2633C44.9896 25.2633 45.266 25.0782 45.266 24.0631C45.266 23.0486 44.9896 22.8636 44.6202 22.8636C44.1588 22.8636 43.9745 23.1406 43.9745 24.0631ZM48.5881 22.2178H50.4341C51.6336 22.2178 51.9106 22.7709 51.9106 23.233C51.9106 23.6944 51.6336 24.0631 51.1725 24.1558L51.9106 25.909H50.7111L50.1574 24.3401H49.696V25.909H48.5881V22.2178ZM49.696 23.6944H50.2497C50.5261 23.6944 50.8035 23.5093 50.8035 23.325C50.8035 23.0486 50.6184 22.8636 50.2497 22.8636H49.696V23.6944ZM54.218 22.2178H55.3254V23.6944L56.4326 22.2178H57.4478L56.525 23.4173L57.6321 25.909H56.525L55.7868 24.3401L55.3254 24.9866V25.909H54.218V22.2178Z" fill="white"/>
</svg>
