<svg width="83" height="32" viewBox="0 0 83 32" fill="none" xmlns="http://www.w3.org/2000/svg">
<g clip-path="url(#clip0_629_3413)">
<path d="M72.6581 18.3893C72.3342 18.3893 72.0913 18.3083 71.9024 18.1194C71.7404 17.9574 71.6325 17.6875 71.6325 17.3636V7.40416C71.6325 7.08028 71.7134 6.81037 71.9024 6.64843C72.0913 6.48649 72.3342 6.40552 72.6581 6.40552H74.4664C74.8713 6.40552 75.2222 6.43251 75.5191 6.4595C75.816 6.51348 76.0859 6.59445 76.2748 6.75639C76.4907 6.91833 76.6257 7.13426 76.7336 7.45814C76.8416 7.75504 76.8956 8.18688 76.8956 8.6997V16.0951C76.8956 16.7698 76.8146 17.2557 76.6257 17.5795C76.4367 17.9034 76.1668 18.1194 75.816 18.2273C75.4651 18.3353 75.0063 18.3893 74.4664 18.3623L72.6581 18.3893ZM66.8552 0.602578C66.5313 0.629568 66.2614 0.71054 66.0994 0.872482C65.9375 1.03442 65.8565 1.30433 65.8565 1.62821V23.1666C65.8565 23.4904 65.9375 23.7334 66.1264 23.9223C66.2884 24.0842 66.5583 24.1922 66.8821 24.1922H74.3855C75.9509 24.1922 77.3004 24.0303 78.3801 23.7064C79.4597 23.3825 80.3234 22.8697 80.9711 22.2219C81.6189 21.5741 82.1047 20.7104 82.3746 19.6848C82.6715 18.6592 82.8065 17.4716 82.8065 16.0951V8.6997C82.8065 7.32319 82.6715 6.13561 82.3746 5.10998C82.0777 4.08434 81.6189 3.24764 80.9711 2.59987C80.3234 1.92511 79.4597 1.43928 78.3801 1.1154C77.3004 0.791511 75.9779 0.629568 74.3855 0.629568L66.8552 0.602578ZM57.0306 14.8265C57.0306 15.4743 57.0037 16.0681 56.9767 16.5809C56.9227 17.0937 56.8147 17.5256 56.6528 17.9034C56.4908 18.2813 56.2209 18.5512 55.8431 18.7401C55.4922 18.9291 55.0064 19.037 54.3856 19.037C53.7648 19.037 53.279 18.9291 52.9281 18.7401C52.5502 18.5512 52.3073 18.2813 52.1184 17.9034C51.9565 17.5526 51.8485 17.0937 51.7945 16.5809C51.7405 16.0681 51.7135 15.4743 51.7405 14.8265V9.96825C51.7405 9.32048 51.7675 8.72669 51.7945 8.21387C51.8485 7.70106 51.9565 7.26921 52.1184 6.89134C52.2803 6.51348 52.5502 6.24357 52.9281 6.05464C53.279 5.86571 53.7648 5.75775 54.3856 5.75775C55.0064 5.75775 55.4922 5.86571 55.8431 6.05464C56.2209 6.24357 56.4638 6.51348 56.6528 6.89134C56.8147 7.24222 56.9227 7.70106 56.9767 8.21387C57.0306 8.72669 57.0306 9.32048 57.0306 9.96825V14.8265ZM62.8066 8.18688C62.8066 7.80902 62.7796 7.35018 62.7256 6.81037C62.6716 6.27056 62.5637 5.70376 62.3747 5.08299C62.1858 4.46221 61.9159 3.86842 61.565 3.27463C61.1872 2.68084 60.7013 2.14103 60.0806 1.6552C59.4598 1.16938 58.6771 0.764521 57.7324 0.467626C56.7877 0.170732 55.6541 0.0357795 54.3316 0.00878906C53.0091 0.00878906 51.8755 0.170732 50.9308 0.467626C49.9861 0.764521 49.2034 1.16938 48.5826 1.6552C47.9619 2.14103 47.476 2.68084 47.0982 3.27463C46.7203 3.86842 46.4504 4.4892 46.2885 5.08299C46.0995 5.70376 45.9916 6.27056 45.9376 6.81037C45.8836 7.35018 45.8566 7.80902 45.8566 8.18688V16.6079C45.8566 16.9858 45.8836 17.4446 45.9376 17.9844C45.9916 18.5242 46.0995 19.091 46.2885 19.7118C46.4504 20.3326 46.7473 20.9264 47.0982 21.5201C47.476 22.1139 47.9619 22.6537 48.5826 23.1666C49.2034 23.6524 49.9861 24.0572 50.9308 24.3271C51.8755 24.624 53.0091 24.786 54.3316 24.786C55.6541 24.786 56.7877 24.624 57.7324 24.3271C58.6771 24.0303 59.4598 23.6524 60.0806 23.1666C60.7013 22.6807 61.1872 22.1409 61.565 21.5201C61.9429 20.9264 62.2128 20.3056 62.3747 19.7118C62.5367 19.091 62.6716 18.5242 62.7256 17.9844C62.7796 17.4446 62.8066 16.9858 62.8066 16.6079V8.18688ZM37.4086 14.8265C37.4086 15.4743 37.3816 16.0681 37.3546 16.5809C37.3007 17.0937 37.1927 17.5256 37.0308 17.9034C36.8688 18.2813 36.5989 18.5512 36.221 18.7401C35.8702 18.9291 35.3843 19.037 34.7636 19.037C34.1428 19.037 33.657 18.9291 33.3061 18.7401C32.9282 18.5512 32.6853 18.2813 32.4964 17.9034C32.3344 17.5526 32.2265 17.0937 32.1725 16.5809C32.1185 16.0681 32.0915 15.4743 32.1185 14.8265V9.96825C32.1185 9.32048 32.1455 8.72669 32.1725 8.21387C32.2265 7.70106 32.3344 7.26921 32.4964 6.89134C32.6583 6.51348 32.9282 6.24357 33.3061 6.05464C33.657 5.86571 34.1428 5.75775 34.7636 5.75775C35.3843 5.75775 35.8702 5.86571 36.221 6.05464C36.5989 6.24357 36.8418 6.51348 37.0308 6.89134C37.1927 7.24222 37.3007 7.70106 37.3546 8.21387C37.4086 8.72669 37.4086 9.32048 37.4086 9.96825V14.8265ZM43.2116 8.18688C43.2116 7.80902 43.1846 7.35018 43.1306 6.81037C43.0766 6.27056 42.9686 5.70376 42.7797 5.08299C42.5908 4.46221 42.3209 3.86842 41.97 3.27463C41.5921 2.68084 41.1063 2.14103 40.4855 1.6552C39.8647 1.16938 39.082 0.764521 38.1374 0.467626C37.1927 0.170732 36.0591 0.0357795 34.7366 0.00878906C33.414 0.00878906 32.2804 0.170732 31.3358 0.467626C30.3911 0.764521 29.6084 1.16938 28.9876 1.6552C28.3668 2.14103 27.881 2.68084 27.5031 3.27463C27.1253 3.86842 26.8554 4.4892 26.6934 5.08299C26.5045 5.70376 26.3965 6.27056 26.3426 6.81037C26.2886 7.35018 26.2616 7.80902 26.2616 8.18688V16.6079C26.2616 16.9858 26.2886 17.4446 26.3426 17.9844C26.3965 18.5242 26.5045 19.091 26.6934 19.7118C26.8554 20.3326 27.1523 20.9264 27.5031 21.5201C27.881 22.1139 28.3668 22.6537 28.9876 23.1666C29.6084 23.6524 30.3911 24.0572 31.3358 24.3271C32.2804 24.624 33.414 24.786 34.7366 24.786C36.0591 24.786 37.1927 24.624 38.1374 24.3271C39.082 24.0303 39.8647 23.6524 40.4855 23.1666C41.1063 22.6807 41.5921 22.1409 41.97 21.5201C42.3479 20.9264 42.6178 20.3056 42.7797 19.7118C42.9417 19.091 43.0766 18.5242 43.1306 17.9844C43.1846 17.4446 43.2116 16.9858 43.2116 16.6079V8.18688ZM23.2926 0.602578C23.9674 0.602578 24.2913 0.953453 24.2913 1.60122V5.37988C24.2913 5.70376 24.2103 5.94668 24.0484 6.13561C23.8864 6.32454 23.6165 6.40552 23.2926 6.40552H14.4938C14.1699 6.40552 13.927 6.48649 13.738 6.64843C13.5491 6.81037 13.4681 7.08028 13.4681 7.40416V23.1936C13.4681 23.5174 13.3872 23.7603 13.2252 23.9493C13.0633 24.1112 12.7934 24.2192 12.4695 24.2192H8.50189C8.17801 24.2192 7.93509 24.1382 7.74616 23.9493C7.58422 23.7603 7.47626 23.5174 7.47626 23.1936V1.62821C7.47626 1.30433 7.55723 1.03442 7.74616 0.872482C7.93509 0.71054 8.17801 0.629568 8.50189 0.629568L23.2926 0.602578Z" fill="#CCCCCC"/>
<path d="M81.268 29.4545C81.268 29.4275 81.2411 29.4275 81.2411 29.4005C81.2411 29.3735 81.2411 29.3735 81.268 29.3465L82.6176 27.5112C82.6715 27.4302 82.6716 27.3762 82.6446 27.3492C82.6176 27.3222 82.5636 27.2683 82.4826 27.2683H81.511C81.457 27.2683 81.403 27.2683 81.376 27.2952C81.349 27.3222 81.295 27.3492 81.268 27.4032L80.2154 28.8337C80.1884 28.8607 80.1884 28.8607 80.1614 28.8607C80.1345 28.8607 80.1345 28.8337 80.1345 28.8067V27.4842C80.1345 27.3492 80.0805 27.2952 79.9455 27.2952H79.1898C79.1358 27.2952 79.0818 27.3222 79.0548 27.3492C79.0278 27.3762 79.0009 27.4302 79.0009 27.5112V31.7756C79.0009 31.8296 79.0278 31.8836 79.0548 31.9106C79.0818 31.9376 79.1358 31.9646 79.1898 31.9646H79.9455C79.9995 31.9646 80.0535 31.9376 80.1075 31.9106C80.1614 31.8836 80.1614 31.8296 80.1614 31.7756V31.0469V30.9929C80.1614 30.9659 80.1614 30.9659 80.1884 30.9389L80.4583 30.5611C80.4583 30.5341 80.4853 30.5341 80.5123 30.5341C80.5393 30.5341 80.5393 30.5341 80.5663 30.5611L81.403 31.8296C81.43 31.8836 81.457 31.9106 81.511 31.9376C81.538 31.9646 81.5919 31.9646 81.6459 31.9646H82.6446C82.7255 31.9646 82.7795 31.9376 82.8065 31.8836C82.8335 31.8296 82.8335 31.7756 82.7795 31.7217L81.268 29.4545ZM75.2222 27.2683C75.1682 27.2683 75.1142 27.2952 75.0873 27.3222C75.0603 27.3492 75.0333 27.4032 75.0333 27.4842V30.4531C75.0333 30.5341 75.0333 30.6151 75.0603 30.723C75.0603 30.831 75.0873 30.9389 75.1412 31.0739C75.1682 31.1819 75.2222 31.3168 75.3032 31.4248C75.3841 31.5327 75.4651 31.6407 75.6001 31.7487C75.735 31.8566 75.87 31.9106 76.0589 31.9916C76.2478 32.0456 76.4638 32.0725 76.7337 32.0725C77.0036 32.0725 77.2195 32.0456 77.4084 31.9916C77.5974 31.9376 77.7593 31.8566 77.8673 31.7487C78.0022 31.6407 78.0832 31.5327 78.1642 31.4248C78.2451 31.3168 78.2991 31.1819 78.3261 31.0739C78.3531 30.9659 78.3801 30.831 78.3801 30.723C78.3801 30.6151 78.4071 30.5341 78.4071 30.4531V27.4842C78.4071 27.3492 78.3531 27.2952 78.2181 27.2952H77.4624C77.4084 27.2952 77.3544 27.3222 77.3275 27.3492C77.3005 27.3762 77.2735 27.4302 77.2735 27.5112V30.4801C77.2735 30.5881 77.2465 30.669 77.2195 30.75C77.1925 30.831 77.1385 30.885 77.0576 30.912C76.9766 30.9389 76.8956 30.9659 76.7607 30.9659C76.6257 30.9659 76.5447 30.9389 76.4638 30.912C76.3828 30.885 76.3288 30.831 76.3018 30.75C76.2748 30.669 76.2478 30.5881 76.2478 30.4801C76.2478 30.3721 76.2208 30.2642 76.2478 30.1292V27.5112C76.2478 27.3762 76.1939 27.3222 76.0589 27.3222L75.2222 27.2683ZM74.3585 30.777C74.4935 30.777 74.5474 30.831 74.5474 30.9659V31.7217C74.5474 31.7756 74.5205 31.8296 74.4935 31.8566C74.4665 31.8836 74.4125 31.9106 74.3315 31.9106H73.5758C73.5218 31.9106 73.4678 31.8836 73.4408 31.8566C73.4139 31.8296 73.3869 31.7756 73.3869 31.7217V30.9659C73.3869 30.912 73.4139 30.858 73.4408 30.804C73.4678 30.777 73.5218 30.75 73.5758 30.75L74.3585 30.777ZM71.7404 30.0753V30.4261C71.7404 30.5341 71.7135 30.6151 71.6865 30.696C71.6595 30.777 71.6055 30.831 71.5245 30.858C71.4436 30.885 71.3626 30.912 71.2276 30.912C71.0927 30.912 71.0117 30.885 70.9307 30.858C70.8498 30.831 70.7958 30.777 70.7688 30.696C70.7418 30.6151 70.7148 30.5341 70.7148 30.4261C70.7148 30.3182 70.6878 30.2102 70.7148 30.0753V29.1306V28.7797C70.7148 28.6718 70.7418 28.5908 70.7688 28.5098C70.7958 28.4288 70.8498 28.3749 70.9307 28.3479C71.0117 28.3209 71.0927 28.2939 71.2276 28.2939C71.3626 28.2939 71.4436 28.3209 71.5245 28.3479C71.6055 28.3749 71.6595 28.4288 71.6865 28.5098C71.7135 28.5908 71.7404 28.6718 71.7404 28.7797V30.0753ZM72.901 28.7527C72.901 28.6718 72.901 28.5908 72.874 28.4828C72.874 28.3749 72.847 28.2669 72.8201 28.1319C72.7931 28.024 72.7391 27.889 72.6581 27.7811C72.5772 27.6731 72.4962 27.5651 72.3612 27.4572C72.2263 27.3492 72.0913 27.2952 71.9024 27.2143C71.7135 27.1603 71.4975 27.1333 71.2276 27.1333C70.9577 27.1333 70.7418 27.1603 70.5529 27.2143C70.3639 27.2683 70.202 27.3492 70.094 27.4572C69.9591 27.5651 69.8781 27.6731 69.7971 27.7811C69.7162 27.889 69.6622 28.024 69.6352 28.1319C69.6082 28.2399 69.5812 28.3749 69.5542 28.4828C69.5542 28.5908 69.5272 28.6718 69.5272 28.7527V30.4261C69.5272 30.5071 69.5272 30.5881 69.5542 30.696C69.5542 30.804 69.5812 30.912 69.6352 31.0469C69.6622 31.1549 69.7162 31.2898 69.7971 31.3978C69.8781 31.5057 69.9591 31.6137 70.094 31.7217C70.229 31.8296 70.3639 31.8836 70.5529 31.9646C70.7418 32.0186 70.9577 32.0456 71.2276 32.0456C71.4975 32.0456 71.7135 32.0186 71.9024 31.9646C72.0913 31.9106 72.2533 31.8296 72.3612 31.7217C72.4962 31.6137 72.5772 31.5057 72.6581 31.3978C72.7391 31.2898 72.7931 31.1549 72.8201 31.0469C72.847 30.9389 72.874 30.804 72.874 30.696C72.874 30.5881 72.901 30.5071 72.901 30.4261V28.7527ZM65.8296 30.4261C65.8296 30.5071 65.8296 30.5881 65.8565 30.696C65.8565 30.804 65.8835 30.912 65.9375 31.0469C65.9645 31.1549 66.0185 31.2898 66.0995 31.3978C66.1804 31.5057 66.2614 31.6137 66.3964 31.7217C66.5313 31.8296 66.6663 31.8836 66.8552 31.9646C67.0441 32.0186 67.26 32.0456 67.5299 32.0456C67.7729 32.0456 67.9618 32.0186 68.1507 31.9646C68.3127 31.9106 68.4746 31.8566 68.5826 31.7756C68.6905 31.6947 68.7985 31.6137 68.8795 31.5057C68.9604 31.3978 69.0144 31.2898 69.0684 31.1819C69.1224 31.0739 69.1494 30.9659 69.1494 30.858C69.1764 30.75 69.1764 30.669 69.1764 30.5611C69.1764 30.5071 69.1764 30.4801 69.1494 30.4261C69.1224 30.3991 69.0954 30.3721 69.0414 30.3721L68.2857 30.2102C68.2317 30.1832 68.1507 30.2102 68.1237 30.2372C68.0698 30.2642 68.0428 30.3182 68.0428 30.3991C68.0428 30.5071 68.0158 30.5881 67.9618 30.669C67.9348 30.75 67.8808 30.804 67.7999 30.831C67.7189 30.858 67.6379 30.885 67.503 30.885C67.368 30.885 67.287 30.858 67.2061 30.831C67.1251 30.804 67.0711 30.75 67.0441 30.669C67.0171 30.5881 66.9901 30.5071 66.9901 30.3991C66.9901 30.2912 66.9631 30.1832 66.9901 30.0483V29.1036V28.7527C66.9901 28.6448 67.0171 28.5638 67.0441 28.4828C67.0711 28.4018 67.1251 28.3479 67.2061 28.3209C67.287 28.2939 67.368 28.2669 67.503 28.2669C67.6109 28.2669 67.7189 28.2939 67.7999 28.3209C67.8808 28.3479 67.9348 28.4018 67.9618 28.4828C67.9888 28.5638 68.0158 28.6448 68.0158 28.7257C68.0158 28.8067 68.0428 28.8607 68.0967 28.8877C68.1507 28.9147 68.2047 28.9417 68.2857 28.9417L69.0144 28.7797C69.0684 28.7797 69.0954 28.7527 69.1224 28.7257C69.1494 28.6987 69.1494 28.6448 69.1494 28.6178C69.1494 28.5368 69.1224 28.4288 69.1224 28.3209L69.0414 27.997C68.9874 27.889 68.9334 27.7811 68.8525 27.6731C68.7715 27.5651 68.6635 27.4842 68.5556 27.4032C68.4206 27.3222 68.2857 27.2683 68.1237 27.2143C67.9618 27.1603 67.7459 27.1333 67.503 27.1333C67.2331 27.1333 67.0171 27.1603 66.8282 27.2143C66.6393 27.2683 66.4773 27.3492 66.3694 27.4572C66.2344 27.5651 66.1534 27.6731 66.0725 27.7811C65.9915 27.889 65.9375 28.024 65.9105 28.1319C65.8835 28.2399 65.8565 28.3749 65.8296 28.4828C65.8296 28.5908 65.8026 28.6718 65.8026 28.7527V30.4261H65.8296ZM65.2088 30.777C65.3437 30.777 65.3977 30.831 65.3977 30.9659V31.7217C65.3977 31.7756 65.3707 31.8296 65.3437 31.8566C65.3167 31.8836 65.2628 31.9106 65.1818 31.9106H64.4261C64.3721 31.9106 64.3181 31.8836 64.2911 31.8566C64.2641 31.8296 64.2371 31.7756 64.2371 31.7217V30.9659C64.2371 30.912 64.2641 30.858 64.2911 30.804C64.3181 30.777 64.3721 30.75 64.4261 30.75L65.2088 30.777Z" fill="#CCCCCC"/>
<path d="M15.7894 13.4227C13.2793 13.2068 1.02568 15.204 0.108005 13.0448C-1.43045 9.45508 11.444 11.4794 13.1714 11.5333C14.0351 11.5603 15.1147 11.7223 15.7355 11.5603C16.1673 11.4254 16.4642 10.7236 16.95 10.4537C18.0296 9.80596 19.784 10.1568 21.2955 10.2918C22.3211 10.3728 23.3198 10.4807 24.3994 10.5617C22.8609 10.7776 21.2145 10.9935 19.5951 11.2095C19.4061 11.2365 19.1093 11.1555 18.9743 11.3714C20.6207 11.6413 22.4831 11.6953 24.2644 11.8302C22.51 12.1001 20.5397 12.1541 18.8124 12.478C18.9203 12.6669 19.2442 12.613 19.4331 12.64C20.9716 12.7479 22.672 12.8829 24.2914 12.9638C22.618 13.2337 20.6747 13.2877 19.0013 13.6116C19.0553 13.8815 19.4061 13.8005 19.5681 13.8005C21.1065 13.9895 22.8339 14.2054 24.4264 14.3404C22.672 14.4753 20.5128 14.8802 18.7044 14.9881C17.3009 15.0691 16.4642 14.2594 15.7894 13.4227Z" fill="#CCCCCC"/>
<path d="M11.444 13.6387C13.3873 13.4767 15.0337 13.3418 15.7894 13.3958C16.1403 13.8276 16.4912 14.2325 16.977 14.5294C17.4359 14.8263 17.9757 15.0152 18.6774 14.9612C19.6761 14.9072 20.7827 14.7453 21.8623 14.6103C22.645 14.5024 23.4007 14.3944 24.1025 14.3404C23.4007 14.2865 22.699 14.2055 21.9702 14.1245C21.1335 14.0435 20.3238 13.9356 19.5681 13.8276H19.4331C19.2442 13.8276 19.0013 13.8276 18.9743 13.6117V13.5847H19.0013C19.919 13.3958 20.9446 13.2878 21.9702 13.2068C22.672 13.1529 23.3737 13.0719 24.0215 12.9909C22.8069 12.9099 21.5384 12.829 20.3508 12.748C20.0539 12.721 19.757 12.694 19.4601 12.694H19.3252C19.1362 12.694 18.9203 12.694 18.8124 12.5321L18.7854 12.5051H18.8124C19.784 12.3162 20.8366 12.2082 21.8893 12.1272C22.591 12.0732 23.3198 11.9923 23.9945 11.9113C23.6436 11.8843 23.2658 11.8573 22.9149 11.8303C21.5654 11.7494 20.1889 11.6684 18.9743 11.4795H18.9203L18.9473 11.4525C19.0553 11.2905 19.2442 11.2905 19.4062 11.2905H19.5681L20.8636 11.1286C21.9432 10.9936 23.0499 10.8317 24.0755 10.6967C23.4547 10.6428 22.8339 10.5888 22.2401 10.5348C21.9163 10.5078 21.6194 10.4808 21.2685 10.4538L20.4588 10.3728C19.1632 10.2379 17.8137 10.076 16.95 10.6158C16.7341 10.7507 16.5452 10.9666 16.3832 11.1826C16.1673 11.4255 15.9784 11.6684 15.7355 11.7494C15.3036 11.8573 14.6558 11.8303 14.0081 11.7763C13.7112 11.7494 13.4143 11.7224 13.1444 11.7224C12.8475 11.7224 12.2267 11.6414 11.417 11.5604C8.50202 11.1016 3.02297 10.5348 0.89073 11.4525C0.134999 11.7763 -0.188886 12.2622 0.134999 13.0449C0.755778 14.5294 6.90959 14.0166 11.444 13.6387ZM15.7894 13.4498C15.0337 13.3958 13.3873 13.5307 11.444 13.6927C6.90959 14.0705 0.728788 14.5834 0.0810179 13.0449C-0.269857 12.2352 0.0810179 11.7224 0.86374 11.3715C3.02297 10.4538 8.50203 11.0206 11.444 11.3175C12.2537 11.3985 12.8745 11.4795 13.1714 11.4795C13.4413 11.4795 13.7382 11.5064 14.0351 11.5334C14.6828 11.5874 15.3036 11.6144 15.7355 11.5064C15.9514 11.4525 16.1403 11.2095 16.3562 10.9666C16.5452 10.7507 16.7071 10.5348 16.95 10.3998C17.8407 9.86003 19.1902 10.022 20.5128 10.1569L21.3225 10.2379C21.6194 10.2649 21.9702 10.2919 22.2941 10.3189C22.9959 10.3728 23.6976 10.4538 24.4264 10.4808L24.7233 10.5078L24.4534 10.5618C23.3468 10.7237 22.1592 10.8857 20.9716 11.0476L19.6761 11.2096H19.5141C19.3792 11.2096 19.2172 11.2096 19.1093 11.3175C20.3238 11.5064 21.6733 11.5874 23.0229 11.6684C23.4817 11.6954 23.9135 11.7224 24.3724 11.7494L24.6423 11.7763L24.3724 11.8033C23.6167 11.9113 22.8069 11.9923 21.9972 12.0732C20.9716 12.1812 19.919 12.2622 18.9743 12.4511C19.0553 12.5591 19.2442 12.5591 19.4062 12.5591H19.5411C19.838 12.5861 20.1349 12.6131 20.4318 12.6131C21.7273 12.721 23.0768 12.802 24.3724 12.883L24.6423 12.9099L24.3724 12.9639C23.6167 13.0719 22.8339 13.1529 22.0512 13.2338C21.0526 13.3418 20.0539 13.4228 19.1362 13.6117C19.1902 13.7736 19.3792 13.7466 19.5411 13.7466H19.6761C20.4588 13.8276 21.2685 13.9356 22.0782 14.0435C22.8879 14.1245 23.7246 14.2325 24.5073 14.2865V14.3404C23.7246 14.3944 22.8339 14.5294 21.9432 14.6373C20.8636 14.7723 19.757 14.9342 18.7584 14.9882C18.0566 15.0422 17.4898 14.8533 17.031 14.5564C16.4912 14.2865 16.1133 13.8816 15.7894 13.4498Z" fill="#CCCCCC"/>
</g>
<defs>
<clipPath id="clip0_629_3413">
<rect width="82.6446" height="32" fill="white"/>
</clipPath>
</defs>
</svg>
