<svg width="67" height="32" viewBox="0 0 67 32" fill="none" xmlns="http://www.w3.org/2000/svg">
<path fill-rule="evenodd" clip-rule="evenodd" d="M1.44813 4.43062H5.65404C5.27729 4.17376 4.56803 3.84668 3.40054 3.84668C2.55548 3.84668 1.92265 4.08258 1.44813 4.43062ZM6.36019 4.43062H10.7593C10.241 4.08258 9.5154 3.84668 8.50195 3.84668C7.43184 3.84668 6.73927 4.17376 6.36019 4.43062ZM0.854492 5.01456H11.3879C11.211 4.78747 10.9988 4.5903 10.7593 4.43062H6.36019C6.11537 4.59629 6.00129 4.73248 6.00129 4.73248C6.00129 4.73248 5.89653 4.59629 5.65404 4.43062H1.44813C1.22378 4.59638 1.02393 4.79296 0.854492 5.01456Z" fill="#CCCCCC"/>
<path fill-rule="evenodd" clip-rule="evenodd" d="M0.502441 5.5789H11.73C11.6381 5.37844 11.5234 5.18927 11.3881 5.01514H0.854356C0.714676 5.19672 0.598665 5.388 0.502441 5.5789Z" fill="#CCCCCC"/>
<path fill-rule="evenodd" clip-rule="evenodd" d="M0.262164 6.16206H11.9343C11.8841 5.96153 11.8156 5.76606 11.7295 5.57812H0.502335C0.402231 5.77678 0.323855 5.97505 0.262164 6.16206ZM0.10968 6.74639H2.79618C2.96923 6.54541 3.25441 6.36382 3.7204 6.36382C4.18677 6.36382 4.45216 6.54579 4.60271 6.74639H7.58021C7.75597 6.54541 8.04619 6.36382 8.5211 6.36382C8.96963 6.36382 9.23696 6.54579 9.39604 6.74639H12.0329C12.015 6.54949 11.9819 6.35426 11.9339 6.16245H0.262164C0.199398 6.35378 0.148474 6.5488 0.10968 6.74639Z" fill="#CCCCCC"/>
<path fill-rule="evenodd" clip-rule="evenodd" d="M0.0395552 7.31035H2.54021V7.26999C2.54021 7.26999 2.58289 6.99413 2.79629 6.74658H0.109783C0.0484791 7.06125 0.0395552 7.26999 0.0395552 7.26999V7.31035ZM4.80107 7.31035H7.3219V7.26999C7.3219 7.26999 7.36497 6.99413 7.58108 6.74658H4.60358C4.71613 6.89969 4.78457 7.08072 4.80146 7.26999V7.31035H4.80107ZM9.62196 7.31035H12.0427V7.26999C12.0427 7.26999 12.0621 7.06086 12.0334 6.74658H9.39653C9.59131 6.99413 9.62196 7.26999 9.62196 7.26999V7.31035ZM0.0383911 7.89428H2.54021V7.31035H0.0395552L0.0383911 7.89428ZM4.80107 7.89428H7.3219V7.31035H4.80107V7.89428ZM9.62196 7.89428H12.0427V7.31035H9.62196V7.89428Z" fill="#CCCCCC"/>
<path fill-rule="evenodd" clip-rule="evenodd" d="M0.0372574 8.47896H2.54062V7.89502H0.0388097L0.0372574 8.47896ZM4.8011 8.47896H7.32193V7.89502H4.8011V8.47896ZM9.62199 8.47896H12.0427V7.89502H9.62199V8.47896ZM0.0357056 9.04272H2.54024V8.47896H0.0368697L0.0357056 9.04272ZM4.8011 9.04272H7.32193V8.47896H4.8011V9.04272ZM9.62199 9.04272H12.0427V8.47896H9.62199V9.04272Z" fill="#CCCCCC"/>
<path fill-rule="evenodd" clip-rule="evenodd" d="M0.0349776 9.62593H2.54067V9.04199H0.0357535L0.0349776 9.62593ZM4.80115 9.62593H7.32198V9.04199H4.80115V9.62593ZM9.62204 9.62593H12.0428V9.04199H9.62204V9.62593ZM0.0338135 10.1897H2.54067V9.62593H0.0349776L0.0338135 10.1897ZM4.80115 10.1897H7.32198V9.62593H4.80115V10.1897ZM9.62204 10.1897H12.0428V9.62593H9.62204V10.1897Z" fill="#CCCCCC"/>
<path fill-rule="evenodd" clip-rule="evenodd" d="M0.03217 10.7743H2.54019V10.1899H0.0333341L0.03217 10.7743ZM4.80106 10.7743H7.32189V10.1899H4.80106V10.7743ZM9.62194 10.7743H12.0427V10.1899H9.62194V10.7743ZM0.0310059 11.3582H2.54058V10.7743H0.0325577L0.0310059 11.3582ZM4.80106 11.3582H7.32189V10.7743H4.80106V11.3582ZM9.62194 11.3582H12.0427V10.7743H9.62194V11.3582Z" fill="#CCCCCC"/>
<path fill-rule="evenodd" clip-rule="evenodd" d="M0.0297852 11.9217H2.54052V11.3579H0.0309493L0.0297852 11.9217ZM4.801 11.9217H7.32183V11.3579H4.801V11.9217ZM9.62189 11.9217H12.0426V11.3579H9.62189V11.9217Z" fill="#CCCCCC"/>
<path fill-rule="evenodd" clip-rule="evenodd" d="M0.0286865 12.5062H2.54059V11.9219H0.0298502L0.0286865 12.5062ZM4.80107 12.5062H7.3219V11.9219H4.80107V12.5062ZM9.62195 12.5062H12.0427V11.9219H9.62195V12.5062Z" fill="#CCCCCC"/>
<path fill-rule="evenodd" clip-rule="evenodd" d="M0.0270996 13.0898H2.54055V12.5059H0.0286519L0.0270996 13.0898ZM4.80103 13.0898H7.32186V12.5059H4.80103V13.0898ZM9.62192 13.0898H12.0426V12.5059H9.62192V13.0898Z" fill="#CCCCCC"/>
<path fill-rule="evenodd" clip-rule="evenodd" d="M0.0264192 13.6536H2.54065V13.0898H0.0271951L0.0264192 13.6536ZM4.80113 13.6536H7.32196V13.0898H4.80113V13.6536ZM9.62201 13.6536H12.0427V13.0898H9.62201V13.6536ZM0.0248673 14.2375H2.54026V13.6536H0.0260314L0.0248673 14.2375ZM4.80113 14.2375H7.32196V13.6536H4.80113V14.2375ZM9.62201 14.2375H12.0427V13.6536H9.62201V14.2375ZM0.0233154 14.8219H2.54026V14.2379H0.0248673L0.0233154 14.8219ZM4.80113 14.8219H7.32196V14.2379H4.80113V14.8219ZM9.62201 14.8219H12.0427V14.2379H9.62201V14.8219Z" fill="#CCCCCC"/>
<path fill-rule="evenodd" clip-rule="evenodd" d="M0.0221602 15.3855H2.54027V14.8218H0.0233243L0.0221602 15.3855ZM4.80114 15.3855H7.32197V14.8218H4.80114V15.3855ZM9.62202 15.3855H12.0427V14.8218H9.62202V15.3855ZM0.0209961 15.9695H2.54027V15.3855H0.0221602L0.0209961 15.9695ZM4.80114 15.9695H7.32197V15.3855H4.80114V15.9695ZM9.62202 15.9695H12.0427V15.3855H9.62202V15.9695Z" fill="#CCCCCC"/>
<path fill-rule="evenodd" clip-rule="evenodd" d="M0.0197754 16.5537H2.5406V15.9697H0.0213276L0.0197754 16.5537ZM4.80108 16.5537H7.32191V15.9697H4.80108V16.5537ZM9.62197 16.5537H12.0427V15.9697H9.62197V16.5537Z" fill="#CCCCCC"/>
<path fill-rule="evenodd" clip-rule="evenodd" d="M0.0185591 17.117H2.54055V16.5532H0.0197228L0.0185591 17.117ZM4.80103 17.117H7.32186V16.5532H4.80103V17.117ZM9.62191 17.117H12.0426V16.5532H9.62191V17.117ZM0.017395 17.7013H2.54055V17.117H0.0185591L0.017395 17.7013ZM4.80103 17.7013H7.32186V17.117H4.80103V17.7013ZM9.62191 17.7013H12.0426V17.117H9.62191V17.7013Z" fill="#CCCCCC"/>
<path fill-rule="evenodd" clip-rule="evenodd" d="M0.015939 18.2654H2.54026V17.7017H0.0171028L0.015939 18.2654ZM4.80113 18.2654H7.32195V17.7017H4.80113V18.2654ZM9.62201 18.2654H12.0427V17.7017H9.62201V18.2654ZM0.0147749 18.8497H2.54065V18.2654H0.0163268L0.0147749 18.8497ZM4.80113 18.8497H7.32195V18.2654H4.80113V18.8497ZM9.62201 18.8497H12.0427V18.2654H9.62201V18.8497ZM0.0136108 19.4333H2.54065V18.8497H0.0147749L0.0136108 19.4333ZM4.80113 19.4333H7.32195V18.8497H4.80113V19.4333ZM9.62201 19.4333H12.0427V18.8497H9.62201V19.4333Z" fill="#CCCCCC"/>
<path fill-rule="evenodd" clip-rule="evenodd" d="M0.0119673 19.9981H2.54055V19.4336H0.0135192L0.0119673 19.9981ZM4.80103 19.9981H7.32186V19.4336H4.80103V19.9981ZM9.62192 19.9981H12.0426V19.4336H9.62192V19.9981ZM0.0108032 20.5817H2.54017V19.9981H0.0115792L0.0108032 20.5817ZM4.80103 20.5817H7.32186V19.9981H4.80103V20.5817ZM9.62192 20.5817H12.0426V19.9981H9.62192V20.5817Z" fill="#CCCCCC"/>
<path fill-rule="evenodd" clip-rule="evenodd" d="M0.00966956 21.1654H2.5402V20.5811H0.0108337L0.00966956 21.1654ZM4.80106 21.1654H7.32189V20.5811H4.80106V21.1654ZM9.62195 21.1654H12.0427V20.5811H9.62195V21.1654ZM0.00811768 21.7295H2.5402V21.1658H0.00966956L0.00811768 21.7295ZM4.80106 21.7295H7.32189V21.1658H4.80106V21.7295ZM9.62195 21.7295H12.0427V21.1658H9.62195V21.7295Z" fill="#CCCCCC"/>
<path fill-rule="evenodd" clip-rule="evenodd" d="M0.00738525 22.3138H2.54063V21.7295H0.00854935L0.00738525 22.3138ZM4.80111 22.3138H7.32194V21.7295H4.80111V22.3138ZM9.62199 22.3138H12.0427V21.7295H9.62199V22.3138Z" fill="#CCCCCC"/>
<path fill-rule="evenodd" clip-rule="evenodd" d="M0.00574173 22.897H2.54015V22.3135H0.00690546L0.00574173 22.897ZM4.80102 22.897H7.32184V22.3135H4.80102V22.897ZM9.6219 22.897H12.0426V22.3135H9.6219V22.897ZM0.00457764 23.4608H2.54015V22.897H0.00574173L0.00457764 23.4608ZM4.80102 23.4608H7.32184V22.897H4.80102V23.4608ZM9.6219 23.4608H12.0426V22.897H9.6219V23.4608Z" fill="#CCCCCC"/>
<path fill-rule="evenodd" clip-rule="evenodd" d="M0.00342646 24.0453H2.54016V23.4609H0.00459055L0.00342646 24.0453ZM4.80103 24.0453H7.32186V23.4609H4.80103V24.0453ZM9.62191 24.0453H12.0426V23.4609H9.62191V24.0453ZM0.00265051 24.6296H2.54055V24.0453H0.00381461L0.00265051 24.6296ZM4.80103 24.6296H7.32186V24.0453H4.80103V24.6296ZM9.62191 24.6296H12.0426V24.0453H9.62191V24.6296ZM0.00109863 25.1933H2.54055V24.6296H0.00265051L0.00109863 25.1933ZM4.80103 25.1933H7.32186V24.6296H4.80103V25.1933ZM9.62191 25.1933H12.0426V24.6296H9.62191V25.1933Z" fill="#CCCCCC"/>
<path fill-rule="evenodd" clip-rule="evenodd" d="M0 25.7764H2.54062V25.1929H0.0011641L0 25.7764ZM4.8011 25.7764H7.32192V25.1929H4.8011V25.7764ZM9.62198 25.7764H12.0427V25.1929H9.62198V25.7764Z" fill="#CCCCCC"/>
<path fill-rule="evenodd" clip-rule="evenodd" d="M30.6678 3.60493H30.998L30.6678 3.021V3.60493ZM30.6678 4.20905H31.3402L30.998 3.60493H30.6678V4.20905Z" fill="#CCCCCC"/>
<path fill-rule="evenodd" clip-rule="evenodd" d="M30.6678 4.8131H31.682L31.3402 4.20898H30.6678V4.8131ZM35.569 4.8131H37.9296V4.22916H35.569V4.8131Z" fill="#CCCCCC"/>
<path fill-rule="evenodd" clip-rule="evenodd" d="M30.6678 5.41749H32.0242L31.682 4.81299H30.6678V5.41749ZM35.569 5.41749H37.9296V4.81299H35.569V5.41749Z" fill="#CCCCCC"/>
<path fill-rule="evenodd" clip-rule="evenodd" d="M30.6678 6.00142H32.3544L32.0242 5.41748H30.6678V6.00142ZM35.569 6.00142H37.9296V5.41748H35.569V6.00142Z" fill="#CCCCCC"/>
<path fill-rule="evenodd" clip-rule="evenodd" d="M30.6678 6.60558H32.6966L32.3544 6.00146H30.6678V6.60558ZM35.569 6.60558H37.9296V6.00146H35.569V6.60558ZM30.6678 7.20969H33.0385L32.6966 6.60558H30.6678V7.20969ZM35.569 7.20969H37.9296V6.60558H35.569V7.20969Z" fill="#CCCCCC"/>
<path fill-rule="evenodd" clip-rule="evenodd" d="M30.6678 7.8132H33.3807L33.0385 7.20947H30.6678V7.8132ZM35.569 7.8132H37.9296V7.20947H35.569V7.8132ZM30.6678 8.39753H33.7109L33.3803 7.8132H30.6674V8.39753H30.6678ZM35.569 8.39753H37.9296V7.8132H35.569V8.39753Z" fill="#CCCCCC"/>
<path fill-rule="evenodd" clip-rule="evenodd" d="M30.6678 9.00206H34.0527L33.7109 8.39795H30.6678V9.00206ZM35.569 9.00206H37.9296V8.39795H35.569V9.00206ZM30.6678 9.60618H34.3953L34.0527 9.00206H30.6678V9.60618ZM35.569 9.60618H37.9296V9.00206H35.569V9.60618Z" fill="#CCCCCC"/>
<path fill-rule="evenodd" clip-rule="evenodd" d="M30.6678 10.2105H34.7371L34.3953 9.60596H30.6678V10.2105ZM35.569 10.2105H37.9296V9.60596H35.569V10.2105Z" fill="#CCCCCC"/>
<path fill-rule="evenodd" clip-rule="evenodd" d="M30.6678 10.7939H35.0673L34.7367 10.21H30.6678V10.7939ZM35.569 10.7939H37.9296V10.21H35.569V10.7939ZM30.6678 11.398H35.4091L35.0673 10.7939H30.6678V11.398ZM35.569 11.398H37.9296V10.7939H35.569V11.398Z" fill="#CCCCCC"/>
<path fill-rule="evenodd" clip-rule="evenodd" d="M30.6678 12.0021H37.9296V11.3979H35.569V11.6804L35.4091 11.3979H30.6678V12.0021ZM30.6678 12.6062H32.988V12.0626L33.338 12.6062H37.9296V12.0021H30.6678V12.6062Z" fill="#CCCCCC"/>
<path fill-rule="evenodd" clip-rule="evenodd" d="M30.6678 13.1909H32.988V12.6069H30.6678V13.1909ZM33.7132 13.1909H37.9296V12.6069H33.338L33.7132 13.1909Z" fill="#CCCCCC"/>
<path fill-rule="evenodd" clip-rule="evenodd" d="M30.6678 13.795H32.988V13.1909H30.6678V13.795ZM34.102 13.795H37.9296V13.1909H33.7132L34.102 13.795Z" fill="#CCCCCC"/>
<path fill-rule="evenodd" clip-rule="evenodd" d="M30.6678 14.3985H32.988V13.7944H30.6678V14.3985ZM34.4907 14.3985H37.9296V13.7944H34.102L34.4907 14.3985Z" fill="#CCCCCC"/>
<path fill-rule="evenodd" clip-rule="evenodd" d="M30.6678 14.9833H32.988V14.3989H30.6678V14.9833ZM34.8659 14.9833H37.9296V14.3989H34.4907L34.8659 14.9833Z" fill="#CCCCCC"/>
<path fill-rule="evenodd" clip-rule="evenodd" d="M30.6678 15.587H32.988V14.9829H30.6678V15.587ZM35.2543 15.587H37.9296V14.9829H34.8659L35.2543 15.587Z" fill="#CCCCCC"/>
<path fill-rule="evenodd" clip-rule="evenodd" d="M30.6678 16.191H32.988V15.5869H30.6678V16.191ZM35.6431 16.191H37.9296V15.5869H35.2543L35.6431 16.191ZM30.6678 16.7951H32.988V16.191H30.6678V16.7951ZM35.6691 16.7951H37.9296V16.191H35.6431L35.6687 16.2314V16.7951H35.6691ZM30.6678 17.3795H32.988V16.7951H30.6678V17.3795ZM35.6691 17.3795H37.9296V16.7951H35.6691V17.3795Z" fill="#CCCCCC"/>
<path fill-rule="evenodd" clip-rule="evenodd" d="M30.6678 17.983H32.988V17.3789H30.6678V17.983ZM35.6691 17.983H37.9296V17.3789H35.6691V17.983ZM30.6678 18.5871H32.988V17.983H30.6678V18.5871ZM35.6691 18.5871H37.9296V17.983H35.6691V18.5871Z" fill="#CCCCCC"/>
<path fill-rule="evenodd" clip-rule="evenodd" d="M30.6678 19.1918H32.988V18.5869H30.6678V19.1918ZM35.6691 19.1918H37.9296V18.5869H35.6691V19.1918Z" fill="#CCCCCC"/>
<path fill-rule="evenodd" clip-rule="evenodd" d="M30.6678 19.7754H32.988V19.1919H30.6678V19.7754ZM35.6691 19.7754H37.9296V19.1919H35.6691V19.7754ZM30.6678 20.3803H32.988V19.7754H30.6678V20.3803ZM35.6691 20.3803H37.9296V19.7754H35.6691V20.3803Z" fill="#CCCCCC"/>
<path fill-rule="evenodd" clip-rule="evenodd" d="M30.6678 20.9845H32.988V20.3804H30.6678V20.9845ZM35.6691 20.9845H37.9296V20.3804H35.6691V20.9845Z" fill="#CCCCCC"/>
<path fill-rule="evenodd" clip-rule="evenodd" d="M30.6678 21.588H32.988V20.9839H30.6678V21.588ZM35.6691 21.588H37.9296V20.9839H35.6691V21.588ZM30.6678 22.1723H32.988V21.588H30.6678V22.1723ZM35.6691 22.1723H37.9296V21.588H35.6691V22.1723Z" fill="#CCCCCC"/>
<path fill-rule="evenodd" clip-rule="evenodd" d="M30.6678 22.777H32.988V22.1729H30.6678V22.777ZM35.6691 22.777H37.9296V22.1729H35.6691V22.777Z" fill="#CCCCCC"/>
<path fill-rule="evenodd" clip-rule="evenodd" d="M30.6678 23.3805H32.988V22.7764H30.6678V23.3805ZM35.6691 23.3805H37.9296V22.7764H35.6691V23.3805Z" fill="#CCCCCC"/>
<path fill-rule="evenodd" clip-rule="evenodd" d="M30.6678 23.9845H32.988V23.3804H30.6678V23.9845ZM35.6691 23.9845H37.9296V23.3804H35.6691V23.9845Z" fill="#CCCCCC"/>
<path fill-rule="evenodd" clip-rule="evenodd" d="M30.6678 24.5692H32.988V23.9849H30.6678V24.5692ZM35.6691 24.5692H37.9296V23.9849H35.6691V24.5692ZM30.6678 25.1733H32.988V24.5692H30.6678V25.1733ZM35.6691 25.1733H37.9296V24.5692H35.6691V25.1733Z" fill="#CCCCCC"/>
<path fill-rule="evenodd" clip-rule="evenodd" d="M30.6678 25.777H32.988V25.1729H30.6678V25.777ZM35.6691 25.777H37.9296V25.1729H35.6691V25.777Z" fill="#CCCCCC"/>
<path fill-rule="evenodd" clip-rule="evenodd" d="M51.9006 0.846225H53.7533V0C53.7533 0 53.0076 0.255303 51.9006 0.846225Z" fill="#CCCCCC"/>
<path fill-rule="evenodd" clip-rule="evenodd" d="M50.4681 1.69164H53.7533V0.846191H51.9006C51.4112 1.10726 50.9332 1.38934 50.4681 1.69164Z" fill="#CCCCCC"/>
<path fill-rule="evenodd" clip-rule="evenodd" d="M49.2943 2.51756H53.7532V1.69189H50.468C50.0669 1.95275 49.6754 2.22816 49.2943 2.51756ZM48.2592 3.36339H53.7532V2.51756H49.2943C48.9396 2.7874 48.5943 3.06951 48.2592 3.36339ZM47.359 4.20923H52.8624C53.4087 3.95276 53.7536 3.84684 53.7536 3.84684V3.36339H48.2596C47.9497 3.63489 47.6494 3.917 47.359 4.20923Z" fill="#CCCCCC"/>
<path fill-rule="evenodd" clip-rule="evenodd" d="M46.5715 5.05472H51.3602C51.8399 4.737 52.3418 4.45419 52.8621 4.2085H47.3588C47.0872 4.48191 46.8246 4.76413 46.5715 5.05472ZM45.8828 5.90056H50.2249C50.587 5.59749 50.9661 5.31522 51.3602 5.05511H46.5715C46.3328 5.32937 46.1031 5.61133 45.8828 5.90056Z" fill="#CCCCCC"/>
<path fill-rule="evenodd" clip-rule="evenodd" d="M45.278 6.74623H49.3116C49.6014 6.4488 49.9062 6.16648 50.225 5.90039H45.8829C45.6722 6.17579 45.4705 6.45788 45.278 6.74623ZM44.7612 7.57189H48.5783C48.81 7.28553 49.0549 7.01002 49.312 6.74623H45.2784C45.0999 7.01201 44.928 7.2871 44.7612 7.57189Z" fill="#CCCCCC"/>
<path fill-rule="evenodd" clip-rule="evenodd" d="M44.2997 8.41761H47.9516C48.1481 8.12671 48.3571 7.8445 48.5782 7.57178H44.7611C44.5991 7.84918 44.4452 8.13124 44.2997 8.41761ZM43.9012 9.26384H47.432C47.5989 8.96741 47.7723 8.68572 47.9519 8.418H44.3001C44.1604 8.69193 44.027 8.97362 43.9012 9.26384Z" fill="#CCCCCC"/>
<path fill-rule="evenodd" clip-rule="evenodd" d="M43.5602 10.1095H47.0014C47.1341 9.82225 47.2777 9.5401 47.4317 9.26367H43.9009C43.7796 9.54245 43.666 9.8245 43.5602 10.1095Z" fill="#CCCCCC"/>
<path fill-rule="evenodd" clip-rule="evenodd" d="M43.2734 10.9547H46.6494C46.7584 10.6622 46.876 10.3797 47.0009 10.1089H43.5597C43.4585 10.3844 43.363 10.6664 43.2734 10.9547ZM43.0417 11.7804H46.37C46.4565 11.496 46.5496 11.2209 46.6497 10.9547H43.2738C43.1892 11.2279 43.1118 11.5032 43.0417 11.7804Z" fill="#CCCCCC"/>
<path fill-rule="evenodd" clip-rule="evenodd" d="M42.8486 12.6266H46.1466C46.2141 12.336 46.2882 12.0539 46.37 11.7808H43.0418C42.9703 12.061 42.9058 12.3431 42.8486 12.6266ZM42.7007 13.4724H45.9766C46.0259 13.1822 46.0825 12.9005 46.1466 12.6266H42.8486C42.7931 12.9032 42.7438 13.1853 42.7007 13.4724Z" fill="#CCCCCC"/>
<path fill-rule="evenodd" clip-rule="evenodd" d="M42.5945 14.318H45.8576C45.8901 14.0286 45.9305 13.7465 45.9767 13.4722H42.7008C42.6588 13.7533 42.6234 14.0353 42.5945 14.318ZM42.5243 15.1638H45.785C45.8025 14.8752 45.8265 14.5931 45.8579 14.318H42.5949C42.5652 14.5994 42.5416 14.8814 42.5243 15.1638ZM42.4955 15.9895H45.7547C45.7586 15.7086 45.7683 15.4331 45.785 15.1642H42.5243C42.5091 15.4391 42.4995 15.7142 42.4955 15.9895Z" fill="#CCCCCC"/>
<path fill-rule="evenodd" clip-rule="evenodd" d="M42.4974 16.8351H45.7636C45.7556 16.6338 45.7516 16.4324 45.7516 16.231C45.7516 16.1499 45.7531 16.07 45.7547 15.9893H42.4955C42.4939 16.1029 42.4908 16.2166 42.4908 16.3319C42.4908 16.5018 42.494 16.6694 42.4974 16.8351ZM50.4925 16.8351H53.7533V16.3319H50.4925V16.8351Z" fill="#CCCCCC"/>
<path fill-rule="evenodd" clip-rule="evenodd" d="M42.5409 17.6821H45.823C45.7954 17.4005 45.7757 17.1182 45.764 16.8354H42.4979C42.506 17.1226 42.5204 17.4046 42.5409 17.6821ZM50.4926 17.6821H53.7533V16.8354H50.4926V17.6821Z" fill="#CCCCCC"/>
<path fill-rule="evenodd" clip-rule="evenodd" d="M42.6197 18.528H45.9328C45.8875 18.2472 45.8509 17.9651 45.823 17.6821H42.541C42.5611 17.9685 42.5871 18.2513 42.6197 18.528ZM50.4926 18.528H53.7533V17.6821H50.4926V18.528Z" fill="#CCCCCC"/>
<path fill-rule="evenodd" clip-rule="evenodd" d="M42.7447 19.3732H46.0966C46.0332 19.093 45.9786 18.8109 45.9329 18.5273H42.6198C42.6547 18.8149 42.697 19.0965 42.7447 19.3732ZM50.4926 19.3732H53.7534V18.5273H50.4926V19.3732Z" fill="#CCCCCC"/>
<path fill-rule="evenodd" clip-rule="evenodd" d="M42.9138 20.2189H46.3193C46.2357 19.9395 46.1614 19.6574 46.0965 19.373H42.7446C42.7947 19.6609 42.8509 19.943 42.9138 20.2189ZM50.4926 20.2189H53.7533V19.373H50.4926V20.2189Z" fill="#CCCCCC"/>
<path fill-rule="evenodd" clip-rule="evenodd" d="M43.1238 21.0445H46.5968C46.4948 20.7727 46.4023 20.4974 46.3193 20.2192H42.9139C42.9775 20.5005 43.047 20.7756 43.1238 21.0445ZM50.4927 21.0445H53.7534V20.2192H50.4927V21.0445ZM43.3896 21.8911H46.9491C46.8217 21.6131 46.7042 21.3308 46.5968 21.0445H43.1238C43.2057 21.3332 43.2941 21.616 43.3896 21.8911ZM50.4927 21.8911H53.7534V21.0445H50.4927V21.8911Z" fill="#CCCCCC"/>
<path fill-rule="evenodd" clip-rule="evenodd" d="M43.7115 22.7365H47.3769C47.2236 22.46 47.0807 22.1778 46.9485 21.8906H43.389C43.4903 22.1797 43.5978 22.4614 43.7115 22.7365ZM50.4925 22.7365H53.7533V21.8906H50.4925V22.7365Z" fill="#CCCCCC"/>
<path fill-rule="evenodd" clip-rule="evenodd" d="M44.0945 23.5822H47.891C47.7089 23.307 47.5375 23.0248 47.3773 22.7363H43.7119C43.8322 23.0258 43.9602 23.3079 44.0945 23.5822ZM50.4926 23.5822H53.7533V22.7363H50.4926V23.5822Z" fill="#CCCCCC"/>
<path fill-rule="evenodd" clip-rule="evenodd" d="M44.5422 24.4279H48.5049C48.2883 24.1548 48.0835 23.8726 47.891 23.582H44.0945C44.2369 23.873 44.387 24.1543 44.5422 24.4279ZM50.4926 24.4279H53.7533V23.582H50.4926V24.4279Z" fill="#CCCCCC"/>
<path fill-rule="evenodd" clip-rule="evenodd" d="M45.0485 25.2535H49.2211C48.9699 24.9894 48.7309 24.714 48.5048 24.4282H44.5422C44.7018 24.7088 44.8707 24.9841 45.0485 25.2535ZM50.4925 25.2535H53.7533V24.4282H50.4925V25.2535Z" fill="#CCCCCC"/>
<path fill-rule="evenodd" clip-rule="evenodd" d="M45.6466 26.0995H50.1252C49.8073 25.8356 49.5054 25.5529 49.2212 25.2529H45.0486C45.2385 25.5417 45.438 25.824 45.6466 26.0995ZM50.4927 26.0995H53.7534V25.2529H50.4927V26.0995Z" fill="#CCCCCC"/>
<path fill-rule="evenodd" clip-rule="evenodd" d="M46.3337 26.9454H53.7534V26.0996H50.4926V26.3817C50.4926 26.3817 50.3549 26.2886 50.1252 26.0996H45.6465C45.866 26.3892 46.0951 26.6713 46.3337 26.9454Z" fill="#CCCCCC"/>
<path fill-rule="evenodd" clip-rule="evenodd" d="M47.1239 27.7911H53.7533V26.9453H46.3336C46.592 27.2425 46.8566 27.5234 47.1239 27.7911Z" fill="#CCCCCC"/>
<path fill-rule="evenodd" clip-rule="evenodd" d="M48.0358 28.6369H53.7534V27.791H47.124C47.4179 28.0837 47.722 28.3658 48.0358 28.6369Z" fill="#CCCCCC"/>
<path fill-rule="evenodd" clip-rule="evenodd" d="M49.0923 29.4826H53.7537V28.6367H48.0361C48.3774 28.9319 48.7297 29.214 49.0923 29.4826ZM50.3001 30.3086H53.7533V29.4826H49.0919C49.484 29.7732 49.887 30.0487 50.3001 30.3086ZM51.79 31.1544H53.7537V30.3086H50.3005C50.8359 30.6442 51.3403 30.9255 51.79 31.1544Z" fill="#CCCCCC"/>
<path fill-rule="evenodd" clip-rule="evenodd" d="M53.7533 32.0001V31.1543H51.7897C52.9583 31.7495 53.7533 32.0001 53.7533 32.0001Z" fill="#CCCCCC"/>
<path fill-rule="evenodd" clip-rule="evenodd" d="M59.2952 17.158H61.6755V16.9966H59.2952V17.158ZM64.4567 17.158H66.9372V16.9966H64.4567V17.158ZM59.2952 17.7415H61.6755V17.158H59.2952V17.7415ZM64.4567 17.7415H66.9372V17.158H64.4567V17.7415Z" fill="#CCCCCC"/>
<path fill-rule="evenodd" clip-rule="evenodd" d="M59.2952 18.326H61.6755V17.7417H59.2952V18.326ZM64.4567 18.326H66.9372V17.7417H64.4567V18.326Z" fill="#CCCCCC"/>
<path fill-rule="evenodd" clip-rule="evenodd" d="M59.2952 18.9092H61.6755V18.3257H59.2952V18.9092ZM64.4567 18.9092H66.9372V18.3257H64.4567V18.9092ZM59.2952 19.4936H61.6755V18.9092H59.2952V19.4936ZM64.4567 19.4936H66.9372V18.9092H64.4567V19.4936Z" fill="#CCCCCC"/>
<path fill-rule="evenodd" clip-rule="evenodd" d="M59.2952 20.0785H61.6755V19.4941H59.2952V20.0785ZM64.4567 20.0785H66.9372V19.4941H64.4567V20.0785ZM59.2952 20.6628H61.6755V20.0785H59.2952V20.6628ZM64.4567 20.6628H66.9372V20.0785H64.4567V20.6628Z" fill="#CCCCCC"/>
<path fill-rule="evenodd" clip-rule="evenodd" d="M59.2952 21.2457H61.6755V20.6621H59.2952V21.2457ZM64.4567 21.2457H66.9372V20.6621H64.4567V21.2457ZM59.2952 21.8498H61.6755V21.2457H59.2952V21.8498ZM64.4567 21.8498H66.9372V21.2457H64.4567V21.8498ZM59.2952 22.4341H61.6755V21.8498H59.2952V22.4341ZM64.4567 22.4341H66.9372V21.8498H64.4567V22.4341Z" fill="#CCCCCC"/>
<path fill-rule="evenodd" clip-rule="evenodd" d="M59.3537 23.0184H61.9362C61.7247 22.7243 61.6755 22.4341 61.6755 22.4341H59.2951C59.2951 22.4341 59.2916 22.6696 59.3537 23.0184ZM64.3507 23.0184H66.8956C66.9243 22.8244 66.9344 22.6653 66.9371 22.5629V22.4341H64.4566C64.4566 22.4341 64.4853 22.7243 64.3507 23.0184ZM59.5038 23.602H62.9275C62.4251 23.5298 62.1197 23.2729 61.9362 23.0184H59.3537C59.3847 23.1903 59.4317 23.3897 59.5038 23.602ZM63.5041 23.602H66.7625C66.8285 23.3897 66.8692 23.1903 66.8952 23.0184H64.3503C64.2339 23.2729 63.9937 23.5298 63.5041 23.602Z" fill="#CCCCCC"/>
<path fill-rule="evenodd" clip-rule="evenodd" d="M59.7576 24.1864H66.527C66.6287 23.9885 66.7051 23.7902 66.7625 23.6021H63.5041C63.3129 23.6299 63.1187 23.6299 62.9275 23.6021H59.5038C59.5675 23.7898 59.6497 23.9885 59.7576 24.1864Z" fill="#CCCCCC"/>
<path fill-rule="evenodd" clip-rule="evenodd" d="M60.1639 24.7704H66.1398C66.2904 24.5907 66.4203 24.3947 66.527 24.186H59.7576C59.8711 24.3952 60.0073 24.5911 60.1639 24.7704ZM60.8487 25.3539H65.4744C65.7242 25.1939 65.9485 24.9971 66.1398 24.7704H60.1639C60.3624 24.9973 60.5931 25.1939 60.8487 25.3539Z" fill="#CCCCCC"/>
<path fill-rule="evenodd" clip-rule="evenodd" d="M65.4744 25.3535H60.8486C61.4035 25.7019 62.155 25.9378 63.1758 25.9378C64.1916 25.9378 64.9335 25.7023 65.4744 25.3535Z" fill="#CCCCCC"/>
<path fill-rule="evenodd" clip-rule="evenodd" d="M60.8366 4.26948H65.413C64.859 3.92029 64.1043 3.68555 63.0761 3.68555C62.0983 3.68516 61.374 3.92029 60.8366 4.26948ZM60.1719 4.85342H66.0943C65.8974 4.6261 65.6678 4.4293 65.413 4.26948H60.8366C60.5877 4.43066 60.3638 4.6274 60.1719 4.85342Z" fill="#CCCCCC"/>
<path fill-rule="evenodd" clip-rule="evenodd" d="M59.7743 5.43745H66.4928C66.3819 5.22875 66.2483 5.03292 66.0944 4.85352H60.172C60.019 5.03345 59.8857 5.2292 59.7743 5.43745ZM59.5209 6.02139H66.7396C66.6746 5.81983 66.5919 5.62442 66.4925 5.43745H59.7739C59.6738 5.62487 59.5891 5.82017 59.5209 6.02139ZM59.3672 6.60572H61.8923C62.0782 6.33373 62.4204 6.08192 63.0556 6.08192C63.7012 6.08192 64.0492 6.33334 64.2362 6.60572H66.8832C66.8502 6.40775 66.8023 6.21255 66.74 6.02178H59.5213C59.4564 6.21261 59.405 6.40773 59.3672 6.60572Z" fill="#CCCCCC"/>
<path fill-rule="evenodd" clip-rule="evenodd" d="M59.2967 7.18931H61.681C61.7038 6.98057 61.7763 6.78034 61.8924 6.60537H59.3673C59.3165 6.87115 59.3014 7.08105 59.2967 7.18931ZM64.4509 7.18931H66.9372V7.14314C66.9315 6.96273 66.9135 6.78293 66.8833 6.60498H64.2363C64.3915 6.82963 64.4369 7.06825 64.4509 7.18931ZM59.2952 7.79342H61.6755V7.26962C61.6755 7.26962 61.6755 7.23936 61.681 7.18931H59.2967C59.2944 7.24091 59.2952 7.26962 59.2952 7.26962V7.79342ZM64.4567 7.79342H66.9372V7.18931H64.4509C64.4571 7.23936 64.4571 7.26962 64.4571 7.26962V7.79342H64.4567Z" fill="#CCCCCC"/>
<path fill-rule="evenodd" clip-rule="evenodd" d="M59.2952 8.37778H61.6755V7.79346H59.2952V8.37778ZM64.4567 8.37778H66.9372V7.79346H64.4567V8.37778ZM59.2952 8.96172H61.6755V8.37778H59.2952V8.96172ZM64.4567 8.96172H66.9372V8.37778H64.4567V8.96172Z" fill="#CCCCCC"/>
<path fill-rule="evenodd" clip-rule="evenodd" d="M59.2952 9.54536H61.6755V8.96143H59.2952V9.54536ZM64.4567 9.54536H66.9372V8.96143H64.4567V9.54536ZM59.2952 10.1297H61.6755V9.54575H59.2952V10.1297ZM64.4567 10.1297H66.9372V9.54575H64.4567V10.1297Z" fill="#CCCCCC"/>
<path fill-rule="evenodd" clip-rule="evenodd" d="M59.2952 10.7138H61.6755V10.1299H59.2952V10.7138ZM64.4567 10.7138H66.9372V10.1299H64.4567V10.7138ZM59.2952 11.2978H61.6755V10.7138H59.2952V11.2978ZM64.4567 11.2978H66.9372V10.7138H64.4567V11.2978ZM59.2952 11.8817H61.6755V11.2978H59.2952V11.8817ZM64.4567 11.8817H66.9372V11.2978H64.4567V11.8817Z" fill="#CCCCCC"/>
<path fill-rule="evenodd" clip-rule="evenodd" d="M59.2952 12.4653H61.6755V11.8813H59.2952V12.4653ZM64.4567 12.4653H66.9372V11.8813H64.4567V12.4653Z" fill="#CCCCCC"/>
<path fill-rule="evenodd" clip-rule="evenodd" d="M59.2952 13.0497H61.6755V12.4653H59.2952V13.0497ZM64.4567 13.0497H66.9372V12.4653H64.4567V13.0497Z" fill="#CCCCCC"/>
<path fill-rule="evenodd" clip-rule="evenodd" d="M59.2952 13.6337H61.6755V13.0498H59.2952V13.6337ZM64.4567 13.6337H66.9372V13.0498H64.4567V13.6337ZM59.2952 14.2181H61.6755V13.6341H59.2952V14.2181ZM64.4567 14.2181H66.9372V13.6341H64.4567V14.2181ZM59.2952 14.8222H61.6755V14.2181H59.2952V14.8222ZM64.4567 14.8222H66.9372V14.2181H64.4567V14.8222Z" fill="#CCCCCC"/>
<path fill-rule="evenodd" clip-rule="evenodd" d="M59.2952 15.4057H61.6755V14.8218H59.2952V15.4057ZM64.4567 15.4057H66.9372V14.8218H64.4567V15.4057ZM59.2952 15.9897H61.6755V15.4057H59.2952V15.9897ZM64.4567 15.9897H66.9372V15.4057H64.4567V15.9897Z" fill="#CCCCCC"/>
<path fill-rule="evenodd" clip-rule="evenodd" d="M59.2952 16.5736H61.6755V15.9893H59.2952V16.5736ZM64.4567 16.5736H66.9372V15.9893H64.4567V16.5736ZM66.9372 16.9965V16.5736H64.4567V16.9965H66.9372ZM61.6755 16.5736H59.2952V16.9965H61.6755V16.5736Z" fill="#CCCCCC"/>
<path fill-rule="evenodd" clip-rule="evenodd" d="M19.382 4.43062H23.9942C23.4533 4.08258 22.7095 3.84668 21.6856 3.84668C20.6663 3.84668 19.9237 4.08258 19.382 4.43062ZM18.7155 5.01456H24.6569C24.4669 4.78723 24.2433 4.5903 23.9938 4.43062H19.382C19.1317 4.59059 18.907 4.78746 18.7155 5.01456Z" fill="#CCCCCC"/>
<path fill-rule="evenodd" clip-rule="evenodd" d="M18.3391 5.5789H25.029C24.9262 5.37788 24.8015 5.18882 24.6573 5.01514H18.7155C18.5698 5.18878 18.4436 5.37782 18.3391 5.5789Z" fill="#CCCCCC"/>
<path fill-rule="evenodd" clip-rule="evenodd" d="M18.099 6.16206H25.2638C25.2033 5.96074 25.1247 5.76529 25.029 5.57812H18.3391C18.242 5.76531 18.1617 5.96072 18.099 6.16206ZM17.9647 6.74639H20.5973C20.7785 6.50156 21.1122 6.26294 21.7256 6.26294C22.3584 6.26294 22.6933 6.50156 22.8694 6.74639H25.3922C25.3647 6.54871 25.3219 6.35348 25.2641 6.16245H18.099C18.0318 6.37702 17.9903 6.57683 17.9647 6.74639Z" fill="#CCCCCC"/>
<path fill-rule="evenodd" clip-rule="evenodd" d="M17.9244 7.31035H20.385V7.26999C20.385 7.26999 20.4064 7.0046 20.5973 6.74658H17.9647C17.917 7.06125 17.9244 7.26999 17.9244 7.26999V7.31035ZM23.0657 7.31035H25.4263V7.14428C25.4223 7.01117 25.4108 6.87839 25.3918 6.74658H22.869C23.0553 7.0046 23.0657 7.26999 23.0657 7.26999V7.31035ZM17.9244 7.89428H20.385V7.31035H17.9244V7.89428ZM23.0657 7.89428H25.4263V7.31035H23.0657V7.89428Z" fill="#CCCCCC"/>
<path fill-rule="evenodd" clip-rule="evenodd" d="M17.9244 8.47896H20.3851V7.89502H17.9244V8.47896ZM23.0657 8.47896H25.4263V7.89502H23.0657V8.47896ZM17.9244 9.04272H20.3851V8.47896H17.9244V9.04272ZM23.0657 9.04272H25.4263V8.47896H23.0657V9.04272Z" fill="#CCCCCC"/>
<path fill-rule="evenodd" clip-rule="evenodd" d="M17.9244 9.62593H20.3851V9.04199H17.9244V9.62593ZM23.0657 9.62593H25.4263V9.04199H23.0657V9.62593ZM17.9244 10.1897H20.3851V9.62593H17.9244V10.1897ZM23.0657 10.1897H25.4263V9.62593H23.0657V10.1897Z" fill="#CCCCCC"/>
<path fill-rule="evenodd" clip-rule="evenodd" d="M17.9244 10.7743H20.3851V10.1899H17.9244V10.7743ZM23.0657 10.7743H25.4263V10.1899H23.0657V10.7743ZM17.9244 11.3582H20.3851V10.7743H17.9244V11.3582ZM23.0657 11.3582H25.4263V10.7743H23.0657V11.3582Z" fill="#CCCCCC"/>
<path fill-rule="evenodd" clip-rule="evenodd" d="M17.9244 11.9217H20.3851V11.3579H17.9244V11.9217ZM23.0657 11.9217H25.4263V11.3579H23.0657V11.9217Z" fill="#CCCCCC"/>
<path fill-rule="evenodd" clip-rule="evenodd" d="M17.9244 12.5062H20.3851V11.9219H17.9244V12.5062ZM23.0657 12.5062H25.4263V11.9219H23.0657V12.5062Z" fill="#CCCCCC"/>
<path fill-rule="evenodd" clip-rule="evenodd" d="M17.9244 13.0898H20.3851V12.5059H17.9244V13.0898ZM23.0657 13.0898H25.4263V12.5059H23.0657V13.0898Z" fill="#CCCCCC"/>
<path fill-rule="evenodd" clip-rule="evenodd" d="M17.9244 13.6536H20.3851V13.0898H17.9244V13.6536ZM23.0657 13.6536H25.4263V13.0898H23.0657V13.6536ZM17.9244 14.2375H20.3851V13.6536H17.9244V14.2375ZM23.0657 14.2375H25.4263V13.6536H23.0657V14.2375ZM17.9244 14.8219H20.3851V14.2379H17.9244V14.8219ZM23.0657 14.8219H25.4263V14.2379H23.0657V14.8219Z" fill="#CCCCCC"/>
<path fill-rule="evenodd" clip-rule="evenodd" d="M17.9244 15.3855H20.3851V14.8218H17.9244V15.3855ZM23.0657 15.3855H25.4263V14.8218H23.0657V15.3855ZM17.9244 15.9695H20.3851V15.3855H17.9244V15.9695ZM23.0657 15.9695H25.4263V15.3855H23.0657V15.9695Z" fill="#CCCCCC"/>
<path fill-rule="evenodd" clip-rule="evenodd" d="M17.9244 16.5537H20.3851V15.9697H17.9244V16.5537ZM23.0657 16.5537H25.4263V15.9697H23.0657V16.5537Z" fill="#CCCCCC"/>
<path fill-rule="evenodd" clip-rule="evenodd" d="M17.9244 17.117H20.3851V16.5532H17.9244V17.117ZM23.0657 17.117H25.4263V16.5532H23.0657V17.117ZM17.9244 17.7013H20.3851V17.117H17.9244V17.7013ZM23.0657 17.7013H25.4263V17.117H23.0657V17.7013Z" fill="#CCCCCC"/>
<path fill-rule="evenodd" clip-rule="evenodd" d="M17.9244 18.2654H20.3851V17.7017H17.9244V18.2654ZM23.0658 18.2654H25.4264V17.7017H23.0658V18.2654ZM17.9244 18.8497H20.3851V18.2654H17.9244V18.8497ZM23.0658 18.8497H25.4264V18.2654H23.0658V18.8497ZM14.8305 19.4333H25.4264V18.8497H23.0658V18.9906H20.3851V18.8497H17.9244V18.9906H14.5434L14.8305 19.4333Z" fill="#CCCCCC"/>
<path fill-rule="evenodd" clip-rule="evenodd" d="M15.1964 19.9981H25.4264V19.4336H14.8305L15.1964 19.9981ZM15.5747 20.5817H25.4264V19.9981H15.1964L15.5747 20.5817Z" fill="#CCCCCC"/>
<path fill-rule="evenodd" clip-rule="evenodd" d="M15.9533 21.1655H25.4263V20.5815H15.5746L15.9533 21.1655ZM18.0245 21.7296H20.3451V21.4072H23.1259V21.7296H25.4263V21.1655H15.9533L16.0841 21.3672H18.0245V21.7296Z" fill="#CCCCCC"/>
<path fill-rule="evenodd" clip-rule="evenodd" d="M18.0245 22.3138H20.3451V21.7295H18.0245V22.3138ZM23.1259 22.3138H25.4263V21.7295H23.1259V22.3138Z" fill="#CCCCCC"/>
<path fill-rule="evenodd" clip-rule="evenodd" d="M18.0245 22.897H20.3451V22.3135H18.0245V22.897ZM23.1259 22.897H25.4263V22.3135H23.1259V22.897ZM18.0245 23.4608H20.3451V22.897H18.0245V23.4608ZM23.1259 23.4608H25.4263V22.897H23.1259V23.4608Z" fill="#CCCCCC"/>
<path fill-rule="evenodd" clip-rule="evenodd" d="M18.0245 24.0453H20.3451V23.4609H18.0245V24.0453ZM23.1259 24.0453H25.4263V23.4609H23.1259V24.0453ZM18.0245 24.6296H20.3451V24.0453H18.0245V24.6296ZM23.1259 24.6296H25.4263V24.0453H23.1259V24.6296ZM18.0245 25.1933H20.3451V24.6296H18.0245V25.1933ZM23.1259 25.1933H25.4263V24.6296H23.1259V25.1933Z" fill="#CCCCCC"/>
<path fill-rule="evenodd" clip-rule="evenodd" d="M18.0245 25.7764H20.3451V25.1929H18.0245V25.7764ZM23.1259 25.7764H25.4263V25.1929H23.1259V25.7764Z" fill="#CCCCCC"/>
</svg>
