<svg width="21" height="21" viewBox="0 0 21 21" fill="none" xmlns="http://www.w3.org/2000/svg">
<path d="M12.2162 1.33842C12.3237 0.938595 12.7353 0.700909 13.1351 0.808149C14.6463 1.21459 16.0246 2.01127 17.1312 3.11772C18.2378 4.22433 19.0352 5.60255 19.4418 7.11381C19.5493 7.51381 19.3115 7.92615 18.9115 8.03374C18.5116 8.14101 18.1001 7.90331 17.9925 7.50346C17.6543 6.24607 16.9914 5.09997 16.0707 4.17924C15.15 3.25853 14.0038 2.59564 12.7464 2.25737C12.3466 2.14983 12.1089 1.73826 12.2162 1.33842Z" fill="#00B307"/>
<path d="M11.3706 4.49411C11.4784 4.09433 11.8907 3.85724 12.2906 3.96482C13.2478 4.22241 14.1209 4.72773 14.8218 5.42868C15.5227 6.12967 16.0272 7.00271 16.2847 7.95993C16.3921 8.3598 16.1552 8.77123 15.7554 8.87888C15.3555 8.98647 14.9442 8.74941 14.8365 8.34958C14.6472 7.64613 14.2763 7.00439 13.7613 6.48923C13.246 5.97401 12.6036 5.60333 11.8999 5.41404C11.5002 5.30628 11.2631 4.89399 11.3706 4.49411Z" fill="#00B307"/>
<path d="M4.93945 0.0113179C5.27596 -0.0292641 5.61676 0.0398536 5.91016 0.20956C6.20283 0.378896 6.43271 0.638849 6.56543 0.949794L8.61719 5.73593V5.7369C8.7184 5.97411 8.75999 6.23293 8.7373 6.48983C8.71457 6.74659 8.62845 6.99386 8.4873 7.20956L6.78906 9.80526L6.08105 9.3414L6.16113 9.39413L6.78906 9.80526L6.78711 9.80722C6.78144 9.81586 6.77804 9.8262 6.77734 9.83651C6.77674 9.84618 6.7783 9.856 6.78223 9.86483C7.55451 11.4426 8.83339 12.7159 10.4141 13.482C10.4233 13.4864 10.4342 13.4887 10.4443 13.4879C10.4544 13.4871 10.4643 13.4838 10.4727 13.4781L10.4775 13.4752L10.8467 14.0308L10.8926 14.0992L10.4775 13.4752L13.0332 11.7711C13.2497 11.6267 13.4987 11.5383 13.7578 11.5142C14.017 11.4902 14.2782 11.5312 14.5176 11.6334L14.2881 12.1715L14.3271 12.0816L14.5176 11.6334L14.5186 11.6344L19.3008 13.6842H19.2998C19.611 13.8168 19.8706 14.0466 20.04 14.3394C20.2098 14.6329 20.2798 14.9736 20.2393 15.3101V15.315L20.2002 15.5699C19.9795 16.8343 19.3344 17.989 18.3672 18.8404C17.3355 19.7485 16.0082 20.2494 14.6338 20.2496L14.2695 20.2447C10.5204 20.1516 6.94455 18.6219 4.28613 15.9635C1.54185 13.2192 0 9.49681 0 5.61581C0.000218863 4.24146 0.501018 2.91397 1.40918 1.88241C2.31742 0.850775 3.57119 0.185618 4.93457 0.0113179H4.93945ZM5.18555 1.53866C5.18013 1.52601 5.17107 1.51533 5.15918 1.50839C5.14771 1.50175 5.13426 1.49842 5.12109 1.4996C4.12093 1.62828 3.20157 2.1167 2.53516 2.87362C1.868 3.63143 1.50009 4.60715 1.5 5.61679C1.50014 9.09977 2.88383 12.4401 5.34668 14.9029C7.80953 17.3658 11.1498 18.7485 14.6328 18.7486C15.6425 18.7486 16.6181 18.3815 17.376 17.7144C18.1325 17.0485 18.6207 16.1299 18.75 15.1305C18.7517 15.1166 18.7492 15.1025 18.7422 15.0904C18.7353 15.0785 18.7245 15.0695 18.7119 15.0641L18.709 15.0631L13.9277 13.0123C13.9179 13.0083 13.9071 13.0074 13.8965 13.0084C13.8855 13.0094 13.8744 13.013 13.8652 13.0191L11.3125 14.7193L11.3135 14.7203C11.0891 14.8722 10.8288 14.9633 10.5586 14.984C10.2884 15.0047 10.0173 14.9544 9.77246 14.8385L10.123 14.0992L9.7666 14.8355C7.88003 13.9231 6.35423 12.4037 5.43359 10.5211L6.10742 10.191L5.43164 10.5162C5.31483 10.2732 5.26306 10.004 5.28125 9.73495C5.29945 9.46595 5.3867 9.2061 5.53516 8.98104L7.23242 6.38827C7.23843 6.37909 7.2422 6.36796 7.24316 6.35702C7.244 6.3467 7.24215 6.33635 7.23828 6.32675L5.18652 1.54061L5.18555 1.53866ZM9.77246 14.8385L9.7666 14.8355L10.0938 14.1598L9.77246 14.8385Z" fill="#00B307"/>
</svg>
