<svg width="15" height="18" viewBox="0 0 15 18" fill="none" xmlns="http://www.w3.org/2000/svg">
<path d="M7.55696 0C2.62362 0 0 3.16139 0 6.60855C0 8.20724 0.89329 10.2008 2.32323 10.8331C2.54036 10.931 2.65849 10.8894 2.70687 10.688C2.74962 10.535 2.93751 9.79806 3.02864 9.45042C3.05676 9.33904 3.04214 9.24229 2.95213 9.13766C2.47736 8.58863 2.10047 7.58846 2.10047 6.65017C2.10047 4.24594 4.01193 1.91146 7.26445 1.91146C10.0771 1.91146 12.0448 3.73854 12.0448 6.35203C12.0448 9.30529 10.4821 11.3484 8.45138 11.3484C7.32745 11.3484 6.49042 10.4663 6.75593 9.37505C7.07657 8.07561 7.70547 6.6783 7.70547 5.74113C7.70547 4.90072 7.2307 4.20544 6.26091 4.20544C5.11673 4.20544 4.18856 5.33836 4.18856 6.85943C4.18856 7.82585 4.53058 8.47838 4.53058 8.47838C4.53058 8.47838 3.39878 13.0506 3.18839 13.9045C2.83288 15.3502 3.23677 17.6914 3.27165 17.8928C3.29302 18.0042 3.4179 18.0391 3.48766 17.9479C3.59904 17.8017 4.9671 15.8497 5.35074 14.4389C5.49025 13.9247 6.0629 11.84 6.0629 11.84C6.43979 12.5207 7.52771 13.0911 8.68651 13.0911C12.1337 13.0911 14.6245 10.0613 14.6245 6.30141C14.6122 2.69675 11.5273 0 7.55696 0Z" fill="#4D4D4D"/>
</svg>
