<svg width="39" height="40" viewBox="0 0 39 40" fill="none" xmlns="http://www.w3.org/2000/svg">
<path d="M38.768 5.5648C38.7613 5.44111 38.7156 5.3227 38.6375 5.22659C38.5593 5.13047 38.4528 5.06158 38.333 5.0298L19.5305 0.0198032C19.4314 -0.00660106 19.3271 -0.00660106 19.228 0.0198032L0.451778 5.0298C0.332472 5.06174 0.2263 5.13054 0.148409 5.22639C0.0705183 5.32224 0.024888 5.44024 0.0180283 5.56355C0.00552833 5.7998 -0.275722 11.3873 1.92178 18.4511C3.21303 22.6036 5.09928 26.3936 7.52553 29.7186C10.5618 33.8773 14.4555 37.3111 19.098 39.9248C19.1837 39.9729 19.2802 39.9987 19.3785 39.9998C19.4768 40.0009 19.5738 39.9773 19.6605 39.9311C24.3118 37.4611 28.2118 34.1136 31.253 29.9848C33.683 26.6848 35.5705 22.8823 36.863 18.6848C39.0618 11.5423 38.7805 5.8048 38.768 5.56355V5.5648ZM35.7305 18.3786C34.4743 22.4448 32.6455 26.1223 30.2943 29.3098C27.5518 33.0273 24.0843 36.0886 19.9793 38.4186V35.4048C25.3018 32.0436 29.3168 27.2873 31.9105 21.2598C34.048 16.2973 34.7443 11.5861 34.9518 8.50855C34.961 8.37288 34.9228 8.23821 34.8437 8.12761C34.7645 8.01701 34.6494 7.93736 34.518 7.9023L33.323 7.58355C33.1742 7.54735 33.017 7.57086 32.8853 7.64905C32.7535 7.72724 32.6576 7.8539 32.6181 8.00191C32.5786 8.14993 32.5985 8.30754 32.6738 8.44101C32.749 8.57448 32.8734 8.6732 33.0205 8.71605L33.7455 8.9098C33.5068 11.8936 32.7968 16.2373 30.8343 20.7973C28.3493 26.5698 24.5155 31.1311 19.4393 34.3598C18.9293 34.0223 18.4293 33.6723 17.9455 33.3123C17.8206 33.2248 17.6665 33.1894 17.5159 33.2137C17.3653 33.238 17.2301 33.32 17.139 33.4423C17.0479 33.5647 17.008 33.7177 17.0279 33.8689C17.0478 34.0202 17.1259 34.1577 17.2455 34.2523C17.7505 34.6273 18.2743 34.9948 18.808 35.3461V38.3998C14.6993 35.9423 11.2305 32.7998 8.48803 29.0498C6.13803 25.8348 4.30928 22.1661 3.05428 18.1448C1.24678 12.3561 1.15803 7.4748 1.17678 6.0498L18.8068 1.3448V4.02105L4.27678 7.8998C4.14494 7.93494 4.02948 8.01497 3.9503 8.12609C3.87113 8.23721 3.83319 8.37247 3.84303 8.50855C3.99428 10.6261 4.42053 13.9211 5.59053 17.5911C7.52553 23.6611 10.7743 28.7236 15.248 32.6411C15.3059 32.692 15.3733 32.731 15.4463 32.7558C15.5193 32.7806 15.5966 32.7907 15.6735 32.7854C15.7504 32.7802 15.8256 32.7598 15.8946 32.7254C15.9636 32.6909 16.0251 32.6431 16.0755 32.5848C16.1776 32.4679 16.2292 32.3152 16.2189 32.1603C16.2085 32.0054 16.1372 31.8609 16.0205 31.7586C11.7093 27.9836 8.57678 23.0986 6.70803 17.2361C5.8505 14.5293 5.29462 11.7361 5.05053 8.9073L19.3793 5.0823L30.488 8.04355C30.5633 8.06621 30.6423 8.07351 30.7204 8.06501C30.7986 8.05651 30.8742 8.03238 30.9428 7.99408C31.0114 7.95577 31.0717 7.90405 31.1199 7.842C31.1681 7.77996 31.2034 7.70885 31.2236 7.6329C31.2438 7.55695 31.2485 7.47772 31.2375 7.39991C31.2265 7.32209 31.1999 7.2473 31.1594 7.17996C31.1189 7.11262 31.0652 7.05411 31.0016 7.00791C30.9381 6.96172 30.8658 6.92878 30.7893 6.91105L19.9805 4.02855V1.3523L37.6093 6.0498C37.628 7.4998 37.543 12.5111 35.7305 18.3786Z" fill="#1A1A1A"/>
<path d="M28.2093 13.6923C28.0391 13.5207 27.8366 13.3846 27.6134 13.2919C27.3903 13.1992 27.1509 13.1518 26.9093 13.1523C26.6677 13.1516 26.4284 13.1989 26.2052 13.2913C25.9821 13.3838 25.7795 13.5197 25.6093 13.6911L18.1405 21.1598L14.063 17.0823C13.8927 16.9112 13.69 16.7755 13.4669 16.6833C13.2437 16.591 13.0045 16.5439 12.763 16.5448C12.5215 16.5439 12.2823 16.591 12.0591 16.6833C11.836 16.7755 11.6334 16.9112 11.463 17.0823C11.2917 17.2526 11.1559 17.4552 11.0634 17.6783C10.9709 17.9015 10.9236 18.1408 10.9243 18.3823C10.9243 18.8736 11.1155 19.3361 11.4618 19.6823L16.8405 25.0598C17.0108 25.2312 17.2133 25.367 17.4365 25.4595C17.6597 25.552 17.899 25.5993 18.1405 25.5986C18.382 25.5994 18.6212 25.5524 18.8444 25.4601C19.0675 25.3678 19.2702 25.2322 19.4405 25.0611L28.2093 16.2923C28.5568 15.9448 28.7468 15.4823 28.7468 14.9923C28.7476 14.7508 28.7006 14.5116 28.6083 14.2884C28.516 14.0653 28.3804 13.8627 28.2093 13.6923ZM27.3805 15.4623L18.6118 24.2311C18.5502 24.2936 18.4769 24.3432 18.396 24.3771C18.3151 24.411 18.2282 24.4284 18.1405 24.4284C18.0528 24.4284 17.966 24.411 17.8851 24.3771C17.8041 24.3432 17.7308 24.2936 17.6693 24.2311L12.2918 18.8536C12.2294 18.7919 12.1799 18.7186 12.1461 18.6377C12.1123 18.5568 12.0949 18.47 12.0949 18.3823C12.0949 18.2946 12.1123 18.2078 12.1461 18.1269C12.1799 18.0461 12.2294 17.9727 12.2918 17.9111C12.3533 17.8485 12.4266 17.7989 12.5076 17.765C12.5885 17.7311 12.6753 17.7137 12.763 17.7137C12.8507 17.7137 12.9376 17.7311 13.0185 17.765C13.0994 17.7989 13.1727 17.8485 13.2343 17.9111L17.7255 22.4023C17.9555 22.6311 18.3255 22.6311 18.5543 22.4023L26.438 14.5198C26.4996 14.4574 26.573 14.4079 26.6539 14.3741C26.7348 14.3404 26.8216 14.323 26.9093 14.323C26.9969 14.323 27.0837 14.3404 27.1646 14.3741C27.2455 14.4079 27.3189 14.4574 27.3805 14.5198C27.4429 14.5814 27.4924 14.6548 27.5262 14.7357C27.56 14.8166 27.5774 14.9034 27.5774 14.9911C27.5774 15.0787 27.56 15.1655 27.5262 15.2464C27.4924 15.3273 27.4429 15.4007 27.3805 15.4623Z" fill="#1A1A1A"/>
</svg>
