<svg viewBox="0 0 38.7861 39.9998" xmlns="http://www.w3.org/2000/svg" xmlns:xlink="http://www.w3.org/1999/xlink" width="38.786057" height="39.999840" fill="none" customFrame="#000000">
	<g id="Group">
		<path id="Vector" d="M38.768 5.5648C38.7613 5.44111 38.7157 5.3227 38.6375 5.22659C38.5593 5.13047 38.4528 5.06158 38.333 5.0298L19.5305 0.0198032C19.4314 -0.00660106 19.3271 -0.00660106 19.228 0.0198032L0.451778 5.0298C0.332472 5.06174 0.2263 5.13054 0.148409 5.22639C0.0705183 5.32224 0.024888 5.44024 0.0180283 5.56355C0.00552833 5.7998 -0.275722 11.3873 1.92178 18.4511C3.21303 22.6036 5.09928 26.3936 7.52553 29.7186C10.5618 33.8773 14.4555 37.3111 19.098 39.9248C19.1837 39.9729 19.2802 39.9987 19.3785 39.9998C19.4768 40.0009 19.5738 39.9773 19.6605 39.9311C24.3118 37.4611 28.2118 34.1136 31.253 29.9848C33.683 26.6848 35.5705 22.8823 36.863 18.6848C39.0618 11.5423 38.7805 5.8048 38.768 5.56355L38.768 5.5648ZM35.7305 18.3786C34.4743 22.4448 32.6455 26.1223 30.2943 29.3098C27.5518 33.0273 24.0843 36.0886 19.9793 38.4186L19.9793 35.4048C25.3018 32.0435 29.3168 27.2873 31.9105 21.2598C34.048 16.2973 34.7443 11.5861 34.9518 8.50855C34.961 8.37288 34.9228 8.23821 34.8437 8.12761C34.7645 8.01701 34.6494 7.93736 34.518 7.9023L33.323 7.58355C33.1742 7.54735 33.017 7.57086 32.8853 7.64905C32.7535 7.72724 32.6576 7.8539 32.6181 8.00191C32.5786 8.14993 32.5985 8.30754 32.6738 8.44101C32.749 8.57448 32.8734 8.6732 33.0205 8.71605L33.7455 8.9098C33.5068 11.8936 32.7968 16.2373 30.8343 20.7973C28.3493 26.5698 24.5155 31.1311 19.4393 34.3598C18.9293 34.0223 18.4293 33.6723 17.9455 33.3123C17.8206 33.2248 17.6665 33.1894 17.5159 33.2137C17.3653 33.2379 17.2301 33.32 17.139 33.4423C17.0479 33.5647 17.008 33.7177 17.0279 33.8689C17.0478 34.0202 17.1259 34.1577 17.2455 34.2523C17.7505 34.6273 18.2743 34.9948 18.808 35.3461L18.808 38.3998C14.6993 35.9423 11.2305 32.7998 8.48803 29.0498C6.13803 25.8348 4.30928 22.1661 3.05428 18.1448C1.24678 12.3561 1.15803 7.4748 1.17678 6.0498L18.8068 1.3448L18.8068 4.02105L4.27678 7.8998C4.14494 7.93494 4.02948 8.01497 3.9503 8.12609C3.87113 8.23721 3.83319 8.37247 3.84303 8.50855C3.99428 10.6261 4.42053 13.9211 5.59053 17.5911C7.52553 23.6611 10.7743 28.7236 15.248 32.6411C15.3059 32.692 15.3733 32.731 15.4463 32.7558C15.5193 32.7806 15.5966 32.7907 15.6735 32.7854C15.7504 32.7802 15.8256 32.7598 15.8946 32.7254C15.9636 32.6909 16.0251 32.6431 16.0755 32.5848C16.1776 32.4679 16.2292 32.3152 16.2189 32.1603C16.2085 32.0054 16.1372 31.8609 16.0205 31.7586C11.7093 27.9836 8.57678 23.0986 6.70803 17.2361C5.8505 14.5293 5.29462 11.7361 5.05053 8.9073L19.3793 5.0823L30.488 8.04355C30.5633 8.06621 30.6423 8.07351 30.7204 8.06501C30.7986 8.05651 30.8742 8.03238 30.9428 7.99408C31.0114 7.95577 31.0717 7.90405 31.1199 7.842C31.1681 7.77996 31.2034 7.70885 31.2236 7.6329C31.2438 7.55695 31.2485 7.47772 31.2375 7.39991C31.2265 7.32209 31.1999 7.2473 31.1594 7.17996C31.1189 7.11262 31.0652 7.05411 31.0016 7.00791C30.9381 6.96172 30.8658 6.92878 30.7893 6.91105L19.9805 4.02855L19.9805 1.3523L37.6093 6.0498C37.628 7.4998 37.543 12.5111 35.7305 18.3786Z" fill="rgb(25.5,25.5,25.5)" fill-rule="nonzero" />
		<path id="Vector" d="M28.2088 13.6923C28.0387 13.5207 27.8362 13.3846 27.613 13.2919C27.3898 13.1992 27.1505 13.1518 26.9088 13.1523C26.6673 13.1516 26.428 13.1989 26.2048 13.2913C25.9817 13.3838 25.7791 13.5197 25.6088 13.6911L18.1401 21.1598L14.0626 17.0823C13.8922 16.9112 13.6896 16.7755 13.4665 16.6833C13.2433 16.591 13.0041 16.5439 12.7626 16.5448C12.5211 16.5439 12.2819 16.591 12.0587 16.6833C11.8356 16.7755 11.6329 16.9112 11.4626 17.0823C11.2913 17.2526 11.1554 17.4552 11.063 17.6783C10.9705 17.9015 10.9232 18.1408 10.9238 18.3823C10.9238 18.8736 11.1151 19.3361 11.4613 19.6823L16.8401 25.0598C17.0103 25.2312 17.2129 25.367 17.4361 25.4595C17.6592 25.552 17.8985 25.5993 18.1401 25.5986C18.3816 25.5994 18.6208 25.5524 18.844 25.4601C19.0671 25.3678 19.2697 25.2322 19.4401 25.0611L28.2088 16.2923C28.5563 15.9448 28.7463 15.4823 28.7463 14.9923C28.7472 14.7508 28.7001 14.5116 28.6079 14.2884C28.5156 14.0653 28.38 13.8627 28.2088 13.6923ZM27.3801 15.4623L18.6113 24.2311C18.5498 24.2936 18.4764 24.3432 18.3955 24.3771C18.3146 24.411 18.2278 24.4284 18.1401 24.4284C18.0524 24.4284 17.9655 24.411 17.8846 24.3771C17.8037 24.3432 17.7304 24.2936 17.6688 24.2311L12.2913 18.8536C12.229 18.7919 12.1795 18.7186 12.1457 18.6377C12.1119 18.5568 12.0945 18.47 12.0945 18.3823C12.0945 18.2946 12.1119 18.2079 12.1457 18.127C12.1795 18.0461 12.229 17.9727 12.2913 17.9111C12.3529 17.8486 12.4262 17.7989 12.5071 17.765C12.588 17.7311 12.6749 17.7137 12.7626 17.7137C12.8503 17.7137 12.9371 17.7311 13.018 17.765C13.0989 17.7989 13.1723 17.8486 13.2338 17.9111L17.7251 22.4023C17.9551 22.6311 18.3251 22.6311 18.5538 22.4023L26.4376 14.5198C26.4992 14.4575 26.5726 14.4079 26.6535 14.3742C26.7344 14.3404 26.8212 14.323 26.9088 14.323C26.9965 14.323 27.0833 14.3404 27.1642 14.3742C27.2451 14.4079 27.3185 14.4575 27.3801 14.5198C27.4424 14.5814 27.492 14.6548 27.5257 14.7357C27.5595 14.8166 27.5769 14.9034 27.5769 14.9911C27.5769 15.0787 27.5595 15.1655 27.5257 15.2464C27.492 15.3273 27.4424 15.4007 27.3801 15.4623Z" fill="rgb(25.5,25.5,25.5)" fill-rule="nonzero" />
	</g>
</svg>
