<svg viewBox="0 0 31.9603 40" xmlns="http://www.w3.org/2000/svg" xmlns:xlink="http://www.w3.org/1999/xlink" width="31.960266" height="40.000000" fill="none" customFrame="#000000">
	<g id="Group">
		<path id="Vector" d="M31.9603 34.6678L29.6585 8.72697C29.6171 8.21362 29.1865 7.82447 28.6649 7.82447L23.8129 7.82447C23.8046 3.51066 20.2939 0 15.9801 0C11.6663 0 8.15566 3.51066 8.14738 7.82447L3.29538 7.82447C2.78203 7.82447 2.35148 8.21362 2.3018 8.72697L0 34.6678C0 34.7009 0 34.7257 0 34.7589C0 37.6485 2.65783 40 5.9201 40L26.0402 40C29.3024 40 31.9603 37.6485 31.9603 34.7589C31.9603 34.7257 31.9603 34.7009 31.9603 34.6678ZM15.9801 1.98717C19.201 1.98717 21.8174 4.6036 21.8257 7.82447L10.1345 7.82447C10.1428 4.6036 12.7593 1.98717 15.9801 1.98717ZM26.0402 38.0046L5.9201 38.0046C3.76734 38.0046 2.01201 36.5721 1.98717 34.792L4.20617 9.81163L8.14738 9.81163L8.14738 13.2975C8.14738 13.8439 8.59449 14.291 9.14096 14.291C9.68744 14.291 10.1345 13.8439 10.1345 13.2975L10.1345 9.81163L21.8257 9.81163L21.8257 13.2975C21.8257 13.8439 22.2728 14.291 22.8193 14.291C23.3658 14.291 23.8129 13.8439 23.8129 13.2975L23.8129 9.81163L27.7541 9.81163L29.9731 34.8002C29.9483 36.5721 28.1929 38.0046 26.0402 38.0046Z" fill="rgb(0,178.5,6.8)" fill-rule="nonzero" />
		<path id="Vector" d="M20.1117 20.6831L14.2496 26.5453L11.8567 24.1524C11.4676 23.7632 10.8383 23.7632 10.4492 24.1524C10.06 24.5415 10.06 25.1708 10.4492 25.56L13.5458 28.6566C13.7363 28.8471 13.9929 28.9464 14.2496 28.9464C14.5063 28.9464 14.7547 28.8471 14.9534 28.6566L21.5193 22.0907C21.9085 21.7015 21.9085 21.0723 21.5193 20.6831C21.1302 20.3022 20.5009 20.3022 20.1117 20.6831Z" fill="rgb(0,178.5,6.8)" fill-rule="nonzero" />
	</g>
</svg>
