<svg viewBox="0 0 16.3076 16.3" xmlns="http://www.w3.org/2000/svg" xmlns:xlink="http://www.w3.org/1999/xlink" width="16.307617" height="16.299999" fill="none" customFrame="#000000">
	<path id="Rectangle(Border)" d="M4.16667 7.13334L2.85914 7.13334L1.42884 15L14.8712 15L13.4409 7.13334L12.1333 7.13334L12.1333 8.98334C12.1333 9.34734 11.8473 9.63334 11.4833 9.63334C11.1193 9.63334 10.8333 9.34734 10.8333 8.98334L10.8333 7.13334L5.46667 7.13334L5.46667 8.98334C5.46667 9.34734 5.18067 9.63334 4.81667 9.63334C4.45267 9.63334 4.16667 9.34734 4.16667 8.98334L4.16667 7.13334ZM5.46667 5.83334L10.8333 5.83334L10.8333 3.98334C10.8333 3.61285 10.7678 3.26949 10.6369 2.95326C10.5059 2.63702 10.3094 2.34791 10.0474 2.08594C9.78543 1.82396 9.49632 1.62748 9.18009 1.49649C8.86385 1.3655 8.52049 1.30001 8.15 1.30001C7.77951 1.30001 7.43615 1.3655 7.11991 1.49649C6.80368 1.62748 6.51457 1.82396 6.2526 2.08594C5.99062 2.34791 5.79414 2.63702 5.66315 2.95325C5.53216 3.26949 5.46667 3.61285 5.46667 3.98334L5.46667 5.83334ZM12.1333 5.83334L13.9833 5.83334C14.1642 5.83334 14.3079 5.87782 14.4144 5.96677C14.521 6.05572 14.5905 6.18916 14.6228 6.36706L16.2895 15.5337C16.367 15.9601 16.1926 16.212 15.7663 16.2895C15.7278 16.2965 15.6891 16.3 15.65 16.3L0.65 16.3C0.433333 16.3 0.270833 16.2458 0.1625 16.1375C0.0541666 16.0292 0 15.8667 0 15.65C0 15.6109 0.00349486 15.5722 0.0104846 15.5337L1.67715 6.36706C1.7095 6.18916 1.77896 6.05573 1.88555 5.96677C1.99214 5.87782 2.13584 5.83334 2.31667 5.83334L4.16667 5.83334L4.16667 3.98334C4.16667 3.43336 4.26389 2.92364 4.45834 2.4542C4.65279 1.98476 4.94446 1.5556 5.33336 1.1667C5.72226 0.777801 6.15143 0.486127 6.62087 0.291679C7.09031 0.0972312 7.60002 7.56979e-06 8.15 7.62939e-06C8.69998 7.56979e-06 9.20969 0.0972314 9.67913 0.291679C10.1486 0.486128 10.5777 0.777801 10.9666 1.1667C11.3555 1.55559 11.6472 1.98476 11.8417 2.4542C12.0361 2.92364 12.1333 3.43335 12.1333 3.98334L12.1333 5.83334Z" fill="rgb(25.5,25.5,25.5)" fill-rule="evenodd" />
</svg>
