<svg viewBox="0 0 18.9131 16.5856" xmlns="http://www.w3.org/2000/svg" xmlns:xlink="http://www.w3.org/1999/xlink" width="18.913086" height="16.585617" fill="none" customFrame="#000000">
	<g id="Group">
		<path id="Vector(Border)" d="M7.39043 1.16333L0.329949 12.9502L0.323857 12.9606C0.109161 13.3324 0.0012123 13.733 1.01328e-05 14.1623C-0.00119203 14.5916 0.104512 14.9928 0.317122 15.3658C0.423432 15.5523 0.549421 15.7194 0.695088 15.8671C0.840745 16.0148 1.00608 16.143 1.19109 16.2519C1.56112 16.4696 1.96079 16.5809 2.39011 16.5856L16.515 16.5856C16.9498 16.5809 17.3522 16.4696 17.7223 16.2519C18.0923 16.0342 18.3836 15.7388 18.5962 15.3658C18.8089 14.9928 18.9146 14.5916 18.9134 14.1623C18.9122 13.733 18.8042 13.3324 18.5895 12.9606L11.5251 1.1669C11.4092 0.975894 11.273 0.806467 11.1164 0.658615C10.975 0.52509 10.8169 0.409162 10.6423 0.310832C10.2743 0.103621 9.87905 1.52588e-05 9.45668 1.52588e-05C9.2455 1.52588e-05 9.04111 0.025916 8.84351 0.0777176C8.64591 0.12952 8.4551 0.207225 8.27107 0.310832C8.08706 0.414435 7.92166 0.537276 7.77489 0.679354C7.62811 0.82144 7.49996 0.982765 7.39043 1.16333ZM1.62028 13.7152C1.54055 13.8549 1.50046 14.0054 1.5 14.1665C1.49978 14.2479 1.50969 14.3267 1.52974 14.4028C1.54978 14.4789 1.57997 14.5523 1.62029 14.623C1.70093 14.7645 1.81144 14.8765 1.95179 14.9591C2.09215 15.0417 2.24375 15.0839 2.40659 15.0857L16.515 15.0856C16.6724 15.0839 16.8212 15.0417 16.9616 14.9591C17.1019 14.8765 17.2124 14.7645 17.2931 14.623C17.3737 14.4815 17.4138 14.3294 17.4134 14.1665C17.4129 14.0037 17.372 13.8517 17.2905 13.7107L10.2383 1.93771C10.1566 1.80311 10.046 1.69651 9.9064 1.61791C9.7668 1.53931 9.61689 1.50002 9.45668 1.50002C9.29648 1.50002 9.14657 1.53931 9.00697 1.61791C8.86737 1.69651 8.75602 1.8043 8.67293 1.94127L1.62028 13.7152Z" fill="rgb(233.75,75.1234,72.0729)" fill-rule="evenodd" />
		<path id="Vector(Border)" d="M0.75 0L4.08333 0C4.50333 0 4.83333 0.33 4.83333 0.75C4.83333 1.17 4.50333 1.5 4.08333 1.5L0.75 1.5C0.33 1.5 0 1.17 0 0.75C0 0.33 0.33 0 0.75 0Z" fill="rgb(233.75,75.1234,72.0729)" fill-rule="evenodd" transform="matrix(0,1,-1,0,10.207,5.08562)" />
		<path id="Vector(Border)" d="M9.46537 11.7523C9.88537 11.7523 10.2154 12.0823 10.2154 12.5023C10.2154 12.9223 9.88537 13.2523 9.46537 13.2523L9.45703 13.2523C9.03703 13.2523 8.70703 12.9223 8.70703 12.5023C8.70703 12.0823 9.03703 11.7523 9.45703 11.7523L9.46537 11.7523Z" fill="rgb(233.75,75.1234,72.0729)" fill-rule="evenodd" />
	</g>
</svg>
