<svg viewBox="0 0 18.167 18.1667" xmlns="http://www.w3.org/2000/svg" xmlns:xlink="http://www.w3.org/1999/xlink" width="18.166992" height="18.166668" fill="none" customFrame="#000000">
	<g id="Group">
		<path id="Vector(Border)" d="M5.54746 17.4526C6.67304 17.9286 7.85167 18.1667 9.08333 18.1667C9.75979 18.1667 10.4202 18.0949 11.0647 17.9513C11.5937 17.8334 12.1118 17.6672 12.6192 17.4526C13.1318 17.2357 13.6168 16.9768 14.074 16.6759C14.5862 16.3388 15.0636 15.9489 15.5062 15.5062C15.9489 15.0636 16.3387 14.5862 16.6758 14.074C16.9768 13.6168 17.2357 13.1319 17.4525 12.6192C17.9286 11.4936 18.1667 10.315 18.1667 9.08334C18.1667 8.40689 18.0949 7.74644 17.9513 7.10199C17.8334 6.57303 17.6672 6.05486 17.4525 5.54746C16.9929 4.46066 16.3441 3.49832 15.5062 2.66045C15.0636 2.21781 14.5862 1.82795 14.0741 1.49086C13.6168 1.18988 13.1319 0.930962 12.6192 0.714125C12.1118 0.499518 11.5937 0.333281 11.0647 0.215414C10.4202 0.0718071 9.75979 3.8147e-06 9.08333 3.8147e-06C8.40689 3.75509e-06 7.74645 0.0718037 7.10201 0.215404C6.57305 0.333271 6.05486 0.499512 5.54746 0.714125C5.03481 0.930956 4.54986 1.18986 4.0926 1.49084C3.58048 1.82793 3.10309 2.2178 2.66045 2.66045C2.2178 3.10309 1.82794 3.58047 1.49085 4.09259C1.18986 4.54986 0.930955 5.03481 0.714121 5.54746C0.499512 6.05486 0.333274 6.57303 0.215407 7.10198C0.0718024 7.74643 0 8.40689 0 9.08334C-5.96046e-08 9.7598 0.0718032 10.4203 0.21541 11.0647C0.333276 11.5937 0.499514 12.1118 0.714121 12.6192C0.930965 13.1319 1.18989 13.6169 1.49089 14.0741C1.82797 14.5862 2.21782 15.0636 2.66045 15.5062C3.10312 15.9489 3.58054 16.3388 4.09269 16.6759C4.54993 16.9768 5.03485 17.2357 5.54746 17.4526ZM11.9945 16.1114C11.1008 16.4816 10.1304 16.6667 9.08333 16.6667C8.03629 16.6667 7.06592 16.4816 6.17222 16.1114C5.27851 15.7412 4.46148 15.1859 3.72111 14.4456C2.98074 13.7052 2.42547 12.8882 2.05528 11.9945C1.68509 11.1008 1.5 10.1304 1.5 9.08334C1.5 8.0363 1.68509 7.06593 2.05527 6.17223C2.42546 5.27852 2.98074 4.46148 3.72111 3.72111C4.46148 2.98074 5.27851 2.42547 6.17222 2.05528C7.06592 1.6851 8.03629 1.5 9.08333 1.5C10.1304 1.5 11.1007 1.6851 11.9945 2.05528C12.8882 2.42547 13.7052 2.98074 14.4456 3.72111C15.1859 4.46148 15.7412 5.27852 16.1114 6.17223C16.4816 7.06593 16.6667 8.0363 16.6667 9.08334C16.6667 10.1304 16.4816 11.1008 16.1114 11.9945C15.7412 12.8882 15.1859 13.7052 14.4456 14.4456C13.7052 15.1859 12.8882 15.7412 11.9945 16.1114Z" fill="rgb(255,137.7,0)" fill-rule="evenodd" />
		<path id="Vector(Border)" d="M0.75 0L4.08333 0C4.50333 0 4.83333 0.33 4.83333 0.75C4.83333 1.17 4.50333 1.5 4.08333 1.5L0.75 1.5C0.33 1.5 0 1.17 0 0.75C0 0.33 0.33 0 0.75 0Z" fill="rgb(255,137.7,0)" fill-rule="evenodd" transform="matrix(0,1,-1,0,9.83301,5)" />
		<path id="Vector(Border)" d="M9.09134 11.6667C9.51134 11.6667 9.84134 11.9967 9.84134 12.4167C9.84134 12.8367 9.51134 13.1667 9.09134 13.1667L9.08301 13.1667C8.66301 13.1667 8.33301 12.8367 8.33301 12.4167C8.33301 11.9967 8.66301 11.6667 9.08301 11.6667L9.09134 11.6667Z" fill="rgb(255,137.7,0)" fill-rule="evenodd" />
	</g>
</svg>
