<svg width="19" height="15" viewBox="0 0 19 15" fill="none" xmlns="http://www.w3.org/2000/svg">
<path d="M9.49974 0C12.9135 0 15.2904 1.77236 16.7839 3.4873C17.5306 4.34472 18.0678 5.19906 18.4187 5.83887C18.5945 6.1595 18.725 6.42879 18.8122 6.62012C18.8559 6.71585 18.8892 6.79264 18.9118 6.84668C18.9231 6.87353 18.932 6.89477 18.9382 6.91016C18.9412 6.91765 18.9432 6.92409 18.9451 6.92871L18.949 6.93652V6.9375C18.9491 6.93784 18.9492 6.93827 18.2497 7.20898C18.9417 7.47687 18.949 7.48011 18.949 7.48047V7.48145L18.9451 7.48926C18.9432 7.4939 18.9413 7.50023 18.9382 7.50781C18.932 7.52318 18.9231 7.54442 18.9118 7.57129C18.8892 7.62532 18.8559 7.70214 18.8122 7.79785C18.725 7.98914 18.5945 8.25847 18.4187 8.5791C18.0678 9.2188 17.5306 10.0734 16.7839 10.9307C15.2904 12.6452 12.9133 14.417 9.49974 14.417C6.08616 14.417 3.70909 12.6452 2.21556 10.9307C1.46883 10.0734 0.93167 9.2188 0.580794 8.5791C0.404946 8.25847 0.274523 7.98914 0.18724 7.79785C0.14357 7.70214 0.11029 7.62532 0.0876303 7.57129C0.0763652 7.54442 0.067453 7.52318 0.0612631 7.50781C0.0582102 7.50023 0.0562612 7.4939 0.0544271 7.48926L0.0505209 7.48145C0.0503901 7.48111 0.0503237 7.47976 0.74974 7.20898C0.0503259 6.93827 0.0503902 6.93784 0.0505209 6.9375V6.93652L0.0544271 6.92871C0.0562541 6.92409 0.058245 6.91765 0.0612631 6.91016C0.0674605 6.89477 0.0763719 6.87353 0.0876303 6.84668C0.110289 6.79264 0.143571 6.71585 0.18724 6.62012C0.27452 6.42879 0.404985 6.1595 0.580794 5.83887C0.931649 5.19906 1.46888 4.34472 2.21556 3.4873C3.70906 1.77236 6.08598 0 9.49974 0ZM9.49974 1.5C6.66359 1.5 4.66542 2.95715 3.34642 4.47168C2.68707 5.22879 2.20845 5.98936 1.89525 6.56055C1.74969 6.82602 1.64102 7.04889 1.56712 7.20898C1.64103 7.36907 1.74966 7.59196 1.89525 7.85742C2.20844 8.42847 2.68708 9.18838 3.34642 9.94531C4.6654 11.4595 6.66343 12.917 9.49974 12.917C12.3361 12.917 14.3341 11.4595 15.6531 9.94531C16.3124 9.18838 16.791 8.42847 17.1042 7.85742C17.2497 7.59216 17.3575 7.36904 17.4314 7.20898C17.3575 7.04891 17.2497 6.82581 17.1042 6.56055C16.791 5.98936 16.3124 5.22879 15.6531 4.47168C14.3341 2.95715 12.3359 1.5 9.49974 1.5ZM0.74974 7.20898L0.0505209 7.47949C-0.0168251 7.30537 -0.0168555 7.11259 0.0505209 6.93848L0.74974 7.20898ZM18.949 6.93848C19.0163 7.11259 19.0163 7.30537 18.949 7.47949L18.2497 7.20898L18.949 6.93848Z" fill="#1A1A1A"/>
<path d="M11.875 7.20897C11.875 6.57908 11.6251 5.97468 11.1797 5.52928C10.7343 5.08388 10.1299 4.83397 9.5 4.83397C8.87011 4.83397 8.26571 5.08388 7.82031 5.52928C7.37491 5.97468 7.125 6.57908 7.125 7.20897C7.125 7.83886 7.37491 8.44326 7.82031 8.88866C8.26571 9.33406 8.87011 9.58397 9.5 9.58397C10.1299 9.58397 10.7343 9.33406 11.1797 8.88866C11.6251 8.44326 11.875 7.83886 11.875 7.20897ZM13.375 7.20897C13.375 8.23668 12.9669 9.2225 12.2402 9.9492C11.5135 10.6759 10.5277 11.084 9.5 11.084C8.47229 11.084 7.48647 10.6759 6.75977 9.9492C6.03306 9.2225 5.625 8.23668 5.625 7.20897C5.625 6.18126 6.03306 5.19544 6.75977 4.46873C7.48647 3.74203 8.47229 3.33397 9.5 3.33397C10.5277 3.33397 11.5135 3.74203 12.2402 4.46873C12.9669 5.19544 13.375 6.18126 13.375 7.20897Z" fill="#1A1A1A"/>
</svg>
