<svg width="32" height="11" viewBox="0 0 32 11" fill="none" xmlns="http://www.w3.org/2000/svg">
<path fill-rule="evenodd" clip-rule="evenodd" d="M7.87533 10.2683H5.1492L3.10494 2.23991C3.00791 1.8706 2.80189 1.54412 2.49884 1.39024C1.74254 1.00354 0.909152 0.695787 0 0.540572V0.23148H4.39158C4.99768 0.23148 5.45226 0.695787 5.52802 1.23503L6.5887 7.02615L9.31349 0.23148H11.9639L7.87533 10.2683ZM13.4782 10.2683H10.9036L13.0236 0.23148H15.5982L13.4782 10.2683ZM18.9311 3.01197C19.0069 2.4714 19.4614 2.16231 19.9918 2.16231C20.8252 2.0847 21.733 2.23991 22.4906 2.62527L22.9452 0.464307C22.1876 0.155215 21.3542 0 20.5979 0C18.099 0 16.2807 1.39024 16.2807 3.31973C16.2807 4.78758 17.5687 5.5583 18.4779 6.02261C19.4614 6.48558 19.8403 6.79467 19.7645 7.25764C19.7645 7.95209 19.0069 8.26118 18.2506 8.26118C17.3414 8.26118 16.4323 8.0297 15.6002 7.643L15.1456 9.80531C16.0548 10.1907 17.0384 10.3459 17.9475 10.3459C20.7494 10.4222 22.4906 9.03324 22.4906 6.94855C22.4906 4.32327 18.9311 4.1694 18.9311 3.01197V3.01197ZM31.5009 10.2683L29.4566 0.23148H27.2608C26.8063 0.23148 26.3517 0.540572 26.2002 1.00354L22.4147 10.2683H25.0651L25.5941 8.80176H28.8505L29.1536 10.2683H31.5009ZM27.6379 2.93436L28.3941 6.71706H26.2741L27.6379 2.93436Z" fill="white"/>
</svg>
