<svg width="19" height="19" viewBox="0 0 19 19" fill="none" xmlns="http://www.w3.org/2000/svg">
<path d="M16.667 9.08301C16.6668 4.895 13.2711 1.5 9.08301 1.5C4.89511 1.50018 1.50018 4.89511 1.5 9.08301C1.5 13.2711 4.895 16.6668 9.08301 16.667C13.2712 16.667 16.667 13.2712 16.667 9.08301ZM18.167 9.08301C18.167 14.0996 14.0996 18.167 9.08301 18.167C4.06657 18.1668 0 14.0995 0 9.08301C0.000176264 4.06668 4.06668 0.00017626 9.08301 0C14.0995 0 18.1668 4.06657 18.167 9.08301Z" fill="#FF8A00"/>
<path d="M8.33301 9.08301V5.75C8.33301 5.33579 8.66879 5 9.08301 5C9.49722 5 9.83301 5.33579 9.83301 5.75V9.08301C9.83301 9.49723 9.49722 9.83301 9.08301 9.83301C8.66879 9.83301 8.33301 9.49723 8.33301 9.08301Z" fill="#FF8A00"/>
<path d="M9.0918 11.6667C9.5058 11.6669 9.8418 12.0026 9.8418 12.4167C9.8418 12.8307 9.5058 13.1664 9.0918 13.1667H9.08301C8.66879 13.1667 8.33301 12.8309 8.33301 12.4167C8.33301 12.0025 8.66879 11.6667 9.08301 11.6667H9.0918Z" fill="#FF8A00"/>
</svg>
