<svg width="40" height="19" viewBox="0 0 40 19" fill="none" xmlns="http://www.w3.org/2000/svg">
<path d="M14.5588 18.7646L39.7059 11.1543V15.7646C39.7059 17.4214 38.3628 18.7646 36.7059 18.7646H14.5588Z" fill="#FD6020"/>
<path fill-rule="evenodd" clip-rule="evenodd" d="M34.9339 0.1467C36.3174 0.1467 37.0783 0.786682 37.0783 1.99554C37.1475 2.91996 36.5249 3.70216 35.6948 3.84438L37.5625 6.47542H36.1099L34.5189 3.91549H34.3805V6.47542H33.2046V0.1467H34.9339ZM34.3801 3.0622H34.726C35.4869 3.0622 35.8328 2.70665 35.8328 2.06667C35.8328 1.49779 35.4869 1.14225 34.726 1.14225H34.3801V3.0622ZM29.1228 6.47542H32.4432V5.40878H30.2988V3.70216H32.374V2.63552H30.2988V1.21334H32.4432V0.1467H29.1228V6.47542V6.47542ZM25.6644 4.41325L24.0734 0.1467H22.8283L25.3877 6.61764H26.0103L28.5697 0.1467H27.3246L25.6644 4.41325V4.41325ZM11.6222 3.34663C11.6222 5.12436 13.0057 6.61765 14.7351 6.61765C15.2885 6.61765 15.7727 6.47543 16.2569 6.2621V4.83992C15.911 5.26657 15.4268 5.55101 14.8734 5.55101C13.7666 5.55101 12.8674 4.6977 12.8674 3.55995V3.41773C12.7982 2.27999 13.6975 1.28446 14.8042 1.21335C15.3576 1.21335 15.911 1.49779 16.2569 1.92444V0.502258C15.8418 0.217821 15.2885 0.146712 14.8042 0.146712C13.0057 0.00449382 11.6222 1.49779 11.6222 3.34663V3.34663ZM9.47622 2.56442C8.78448 2.27999 8.57696 2.13777 8.57696 1.78222C8.64614 1.35557 8.99201 1.00002 9.40705 1.07113C9.75292 1.07113 10.0988 1.28446 10.3755 1.56889L10.998 0.715584C10.5138 0.288929 9.89127 0.00449174 9.2687 0.00449174C8.30027 -0.0666175 7.47018 0.715584 7.40101 1.71111V1.78222C7.40101 2.63553 7.74688 3.1333 8.85366 3.48884C9.13035 3.55995 9.40705 3.70217 9.68374 3.84439C9.89127 3.98661 10.0296 4.19993 10.0296 4.48437C10.0296 4.98214 9.61457 5.40879 9.19953 5.40879H9.13035C8.57696 5.40879 8.09275 5.05325 7.88522 4.55548L7.12431 5.33768C7.53935 6.11988 8.36944 6.54654 9.19953 6.54654C10.3063 6.61765 11.2056 5.76434 11.2747 4.62659V4.41326C11.2056 3.55995 10.8597 3.1333 9.47622 2.56442V2.56442ZM5.46473 6.47542H6.64068V0.1467H5.46473V6.47542V6.47542ZM0 0.1467H1.72935H2.07522C3.73539 0.217809 5.04969 1.63999 4.98052 3.34661C4.98052 4.27103 4.56548 5.12435 3.87374 5.76433C3.25117 6.26209 2.49026 6.54653 1.72935 6.47542H0V0.1467ZM1.52194 5.40875C2.07533 5.47986 2.69789 5.26653 3.11294 4.91099C3.52798 4.48433 3.7355 3.91546 3.7355 3.27548C3.7355 2.7066 3.52798 2.13773 3.11294 1.71107C2.69789 1.35553 2.07533 1.1422 1.52194 1.21331H1.17607V5.40875H1.52194Z" fill="white"/>
<path fill-rule="evenodd" clip-rule="evenodd" d="M19.783 0C18.0536 0 16.601 1.42218 16.601 3.27102C16.601 5.04875 17.9844 6.54205 19.783 6.61316C21.5815 6.68427 22.965 5.19097 23.0341 3.34213C22.965 1.49329 21.5815 0 19.783 0V0Z" fill="#FD6020"/>
</svg>
