<svg viewBox="0 0 25.0703 32" xmlns="http://www.w3.org/2000/svg" xmlns:xlink="http://www.w3.org/1999/xlink" width="25.070312" height="32.000000" fill="none" customFrame="#000000">
	<g id="Group">
		<path id="Vector" d="M24.6023 24.2499C24.8611 24.2499 25.071 24.0401 25.071 23.7812L25.071 12.5312C25.071 11.9717 24.8529 11.3994 24.457 10.9197L20.9806 6.70756C20.7985 6.48688 20.5891 6.30088 20.3617 6.15275C20.3756 6.0095 20.3836 5.86481 20.3836 5.71875L20.3836 0.46875C20.3836 0.209875 20.1737 0 19.9148 0C19.656 0 19.4461 0.209875 19.4461 0.46875C19.4461 0.46875 19.4451 5.76344 19.4448 5.78581C19.3114 5.76219 19.176 5.75 19.0398 5.75L12.9773 5.75C12.5505 5.75 12.1321 5.86975 11.7576 6.08981C11.7414 6.09563 11.7253 6.10213 11.7096 6.10981L7.14014 8.33556C6.63389 8.5895 6.22908 9.01544 6.00014 9.53488C5.99764 9.54056 5.99526 9.54625 5.99301 9.552L4.10376 14.344C4.00883 14.5849 4.12708 14.8571 4.36795 14.9521C4.42439 14.9743 4.48251 14.9848 4.53976 14.9848C4.72664 14.9848 4.90326 14.8723 4.97595 14.6879L6.86151 9.90513C7.00332 9.58831 7.25126 9.32875 7.55557 9.176L9.96982 8.00006L7.56008 10.9198C7.19926 11.3569 7.00857 11.9142 7.00857 12.5313L7.00857 28.7188C7.00857 28.9073 7.02514 29.0919 7.0552 29.2718L2.22507 27.1315C1.13395 26.6481 0.63945 25.3639 1.12295 24.2689C1.12501 24.2641 1.12701 24.2593 1.12901 24.2546L4.1842 16.6618C4.28082 16.4216 4.16451 16.1486 3.92432 16.0519C3.68401 15.9553 3.41114 16.0717 3.31445 16.3118L0.26195 23.8975C-0.424425 25.4631 0.284575 27.297 1.84526 27.9885L7.50926 30.4983C7.5162 30.5013 7.52326 30.5036 7.53026 30.5063C8.10514 31.4045 9.09901 31.9999 10.2273 31.9999L21.7898 31.9999C23.5685 31.9999 25.0711 30.4973 25.0711 28.7187L25.0711 25.9687C25.0711 25.7098 24.8612 25.4999 24.6023 25.4999C24.3435 25.4999 24.1336 25.7098 24.1336 25.9687L24.1336 28.7187C24.1336 29.9891 23.0603 31.0624 21.7898 31.0624L10.2273 31.0624C8.96945 31.0624 7.94607 30.0111 7.94607 28.7187L7.94607 12.5312C7.94607 12.1288 8.05945 11.7874 8.28314 11.5164L11.7596 7.30431C12.0831 6.91231 12.527 6.68744 12.9773 6.68744L19.0398 6.68744C19.1281 6.68744 19.2161 6.69638 19.3031 6.71325C19.0096 7.71394 18.2828 8.54894 17.3012 8.96738C17.0445 8.53806 16.5753 8.24994 16.0398 8.24994C15.2299 8.24994 14.571 8.90881 14.571 9.71869C14.571 10.5286 15.2299 11.1874 16.0398 11.1874C16.7887 11.1874 17.4081 10.6238 17.4971 9.8985C18.7596 9.421 19.7142 8.40925 20.1395 7.17431C20.1803 7.21538 20.2198 7.25856 20.2576 7.30431L23.734 11.5165C23.9916 11.8286 24.1336 12.189 24.1336 12.5313L24.1336 23.7813C24.1335 24.0401 24.3434 24.2499 24.6023 24.2499ZM16.0398 10.2499C15.7468 10.2499 15.5085 10.0116 15.5085 9.71869C15.5085 9.42575 15.7468 9.18744 16.0398 9.18744C16.3327 9.18744 16.571 9.42575 16.571 9.71869C16.571 10.0116 16.3327 10.2499 16.0398 10.2499Z" fill="rgb(0,178.5,6.8)" fill-rule="nonzero" />
		<path id="Vector" d="M11.9776 24.9374C12.0975 24.9374 12.2175 24.8916 12.309 24.8001L20.309 16.8001C20.4921 16.617 20.4921 16.3202 20.309 16.1372C20.1259 15.9541 19.8291 15.9541 19.6461 16.1372L11.6461 24.1372C11.3472 24.4157 11.5766 24.9515 11.9776 24.9374Z" fill="rgb(0,178.5,6.8)" fill-rule="nonzero" />
		<path id="Vector 1" d="M12.9766 19.9999C14.0957 19.9999 15.0078 19.0886 15.0078 17.9686C15.0078 16.8486 14.0957 15.9374 12.9766 15.9374L12.9141 15.9374C11.7949 15.9374 10.8828 16.8486 10.8828 17.9686C10.8828 19.0886 11.7949 19.9999 12.9141 19.9999L12.9766 19.9999ZM11.8203 17.9686C11.8203 17.3656 12.3105 16.8749 12.9141 16.8749L12.9766 16.8749C13.5801 16.8749 14.0703 17.3656 14.0703 17.9686C14.0703 18.5717 13.5801 19.0624 12.9766 19.0624L12.9141 19.0624C12.3105 19.0624 11.8203 18.5717 11.8203 17.9686Z" fill="rgb(0,178.5,6.8)" fill-rule="evenodd" />
		<path id="Vector" d="M19.0391 24.9374L19.1016 24.9374C20.2216 24.9374 21.1328 24.0261 21.1328 22.9061C21.1328 21.7861 20.2216 20.8749 19.1016 20.8749L19.0391 20.8749C17.9191 20.8749 17.0078 21.7861 17.0078 22.9061C17.0078 24.0261 17.9191 24.9374 19.0391 24.9374ZM19.0391 21.8124L19.1016 21.8124C19.7046 21.8124 20.1953 22.3031 20.1953 22.9061C20.1953 23.5092 19.7046 23.9999 19.1016 23.9999L19.0391 23.9999C18.436 23.9999 17.9453 23.5092 17.9453 22.9061C17.9453 22.3031 18.436 21.8124 19.0391 21.8124Z" fill="rgb(0,178.5,6.8)" fill-rule="nonzero" />
	</g>
</svg>
