<svg width="30" height="18" viewBox="0 0 30 18" fill="none" xmlns="http://www.w3.org/2000/svg">
<path fill-rule="evenodd" clip-rule="evenodd" d="M20.6171 17.7353C25.5736 17.7353 29.5916 13.7651 29.5916 8.86765C29.5916 3.97018 25.5736 0 20.6171 0C18.3958 0 16.3629 0.797455 14.7958 2.11844C13.2286 0.797459 11.1958 7.42751e-06 8.97444 7.42751e-06C4.01799 7.42751e-06 0 3.97019 0 8.86765C0 13.7651 4.01799 17.7353 8.97444 17.7353C11.1958 17.7353 13.2287 16.9378 14.7958 15.6169C16.3629 16.9378 18.3958 17.7353 20.6171 17.7353Z" fill="#ED0006"/>
<path fill-rule="evenodd" clip-rule="evenodd" d="M14.7952 15.6168C16.7247 13.9903 17.9481 11.5701 17.9481 8.86765C17.9481 6.16515 16.7247 3.74502 14.7952 2.11853C16.3623 0.797492 18.3952 0 20.6166 0C25.5731 0 29.5911 3.97018 29.5911 8.86765C29.5911 13.7651 25.5731 17.7353 20.6166 17.7353C18.3952 17.7353 16.3623 16.9378 14.7952 15.6168Z" fill="#F9A000"/>
<path fill-rule="evenodd" clip-rule="evenodd" d="M14.7958 15.6169C16.7253 13.9904 17.9488 11.5703 17.9488 8.86777C17.9488 6.16527 16.7253 3.74514 14.7958 2.11865C12.8663 3.74514 11.6428 6.16527 11.6428 8.86777C11.6428 11.5703 12.8663 13.9904 14.7958 15.6169Z" fill="#FF5E00"/>
</svg>
