<svg aria-hidden="true" style="position: absolute; width: 0; height: 0; overflow: hidden;" version="1.1" xmlns="http://www.w3.org/2000/svg" xmlns:xlink="http://www.w3.org/1999/xlink">
   <defs>
      <symbol id="icon-apple-ios" viewBox="0 0 32 32">
         <path d="M28.675 24.938c-0.467 1.087-1.043 2.123-1.72 3.093-0.905 1.29-1.646 2.183-2.217 2.679-0.885 0.813-1.833 1.231-2.849 1.254-0.729 0-1.607-0.207-2.631-0.628-1.027-0.419-1.97-0.627-2.833-0.627-0.905 0-1.875 0.208-2.913 0.627-1.039 0.421-1.877 0.64-2.517 0.661-0.973 0.042-1.944-0.387-2.913-1.287-0.618-0.54-1.391-1.464-2.317-2.773-0.994-1.399-1.811-3.020-2.451-4.869-0.685-1.997-1.029-3.931-1.029-5.803 0-2.145 0.463-3.994 1.391-5.544 0.73-1.245 1.7-2.227 2.915-2.948 1.192-0.713 2.551-1.097 3.94-1.112 0.773 0 1.787 0.239 3.048 0.709 1.257 0.471 2.063 0.711 2.417 0.711 0.264 0 1.161-0.28 2.68-0.837 1.437-0.517 2.65-0.731 3.643-0.647 2.693 0.217 4.715 1.279 6.060 3.191-2.407 1.459-3.599 3.502-3.575 6.123 0.021 2.042 0.762 3.741 2.218 5.090 0.66 0.627 1.397 1.111 2.216 1.454-0.172 0.501-0.36 0.995-0.565 1.483zM22.5 0.641c0 1.6-0.585 3.095-1.75 4.477-1.407 1.645-3.107 2.595-4.952 2.445-0.025-0.201-0.037-0.404-0.037-0.607 0-1.536 0.669-3.18 1.857-4.525 0.593-0.681 1.347-1.247 2.261-1.698 0.913-0.445 1.776-0.691 2.588-0.733 0.023 0.214 0.033 0.428 0.033 0.64v0.001z"></path>
      </symbol>
      <symbol id="icon-apple-pay" viewBox="0 0 32 32">
         <path d="M5.711 10.936c0.36-0.464 0.598-1.088 0.537-1.724-0.519 0.025-1.16 0.356-1.526 0.821-0.336 0.401-0.623 1.050-0.549 1.66 0.586 0.051 1.172-0.305 1.538-0.757zM6.241 11.814c-0.516-0.031-0.987 0.162-1.368 0.318-0.245 0.1-0.452 0.185-0.61 0.185-0.177 0-0.393-0.089-0.635-0.19-0.318-0.132-0.681-0.282-1.062-0.275-0.873 0.013-1.685 0.528-2.13 1.349-0.916 1.641-0.238 4.071 0.647 5.407 0.433 0.662 0.952 1.387 1.636 1.361 0.301-0.012 0.517-0.107 0.741-0.206 0.258-0.114 0.526-0.232 0.944-0.232 0.404 0 0.66 0.115 0.906 0.226 0.234 0.105 0.458 0.206 0.791 0.2 0.708-0.013 1.154-0.662 1.587-1.323 0.468-0.71 0.673-1.403 0.704-1.508l0.004-0.012c-0.001-0.001-0.007-0.004-0.017-0.008-0.156-0.075-1.351-0.645-1.363-2.173-0.011-1.283 0.948-1.933 1.099-2.036 0.009-0.006 0.015-0.010 0.018-0.013-0.61-0.941-1.563-1.043-1.892-1.069zM11.142 19.886v-9.917h3.571c1.843 0 3.132 1.323 3.132 3.257s-1.312 3.27-3.18 3.27h-2.045v3.39h-1.477zM12.621 11.267h1.703c1.282 0 2.014 0.712 2.014 1.966s-0.732 1.972-2.021 1.972h-1.697v-3.937zM22.722 18.696c-0.391 0.776-1.251 1.266-2.179 1.266-1.373 0-2.332-0.852-2.332-2.137 0-1.272 0.928-2.004 2.643-2.112l1.843-0.114v-0.547c0-0.808-0.507-1.247-1.41-1.247-0.745 0-1.288 0.401-1.398 1.011h-1.331c0.043-1.285 1.203-2.22 2.771-2.22 1.691 0 2.79 0.922 2.79 2.354v4.936h-1.367v-1.19h-0.031zM20.94 18.785c-0.788 0-1.288-0.394-1.288-0.999 0-0.623 0.482-0.986 1.404-1.043l1.642-0.108v0.56c0 0.929-0.757 1.59-1.758 1.59zM28.658 20.274c-0.592 1.737-1.27 2.309-2.71 2.309-0.11 0-0.476-0.013-0.562-0.038v-1.189c0.092 0.013 0.317 0.025 0.433 0.025 0.653 0 1.019-0.286 1.245-1.030l0.134-0.439-2.503-7.22h1.544l1.74 5.858h0.031l1.74-5.858h1.502l-2.594 7.582z"></path>
      </symbol>
      <symbol id="icon-customer-feedback" viewBox="0 0 32 32">
         <path d="M24.844 13.912c-0.127-0.393-0.46-0.674-0.869-0.733l-4.844-0.704-2.166-4.389c-0.182-0.37-0.552-0.601-0.965-0.601s-0.783 0.23-0.965 0.6l-2.166 4.389-4.844 0.704c-0.408 0.059-0.741 0.34-0.869 0.733s-0.023 0.815 0.272 1.103l3.505 3.416-0.827 4.824c-0.070 0.407 0.094 0.81 0.428 1.053 0.189 0.137 0.409 0.207 0.632 0.207 0.171 0 0.343-0.041 0.502-0.125l4.333-2.278 4.332 2.278c0.154 0.081 0.327 0.123 0.501 0.123 0.229 0 0.448-0.071 0.633-0.206 0.333-0.242 0.498-0.646 0.428-1.053l-0.327-1.909c-0.047-0.273-0.306-0.456-0.579-0.41s-0.456 0.306-0.409 0.579l0.327 1.908c0.005 0.028-0.007 0.056-0.029 0.072-0.033 0.024-0.057 0.016-0.077 0.006l-4.566-2.4c-0.146-0.077-0.32-0.077-0.467 0l-4.566 2.4c-0.024 0.013-0.055 0.011-0.077-0.006s-0.034-0.044-0.029-0.072l0.872-5.084c0.028-0.163-0.026-0.329-0.144-0.444l-3.694-3.6c-0.020-0.020-0.027-0.049-0.019-0.075s0.032-0.046 0.059-0.050l5.105-0.742c0.163-0.024 0.305-0.126 0.378-0.274l2.283-4.626c0.025-0.050 0.106-0.051 0.131 0l2.283 4.626c0.073 0.148 0.214 0.251 0.378 0.274l5.105 0.742c0.027 0.004 0.051 0.024 0.059 0.050s0.001 0.056-0.019 0.075l-3.694 3.601c-0.118 0.115-0.172 0.281-0.144 0.444l0.276 1.606c0.047 0.273 0.306 0.456 0.579 0.409s0.456-0.306 0.409-0.579l-0.231-1.346 3.505-3.417c0.296-0.288 0.4-0.711 0.272-1.103z"></path>
         <path d="M24.602 13.318c-0.161-0.136-0.364-0.222-0.61-0.257l-4.782-0.695-2.138-4.333c-0.219-0.445-0.576-0.667-1.072-0.667s-0.853 0.222-1.072 0.667l-2.139 4.333-4.782 0.695c-0.49 0.071-0.812 0.342-0.965 0.814-0.076 0.235-0.089 0.455-0.039 0.659s0.164 0.394 0.342 0.567l3.46 3.373-0.817 4.762c-0.084 0.488 0.075 0.878 0.475 1.169 0.211 0.153 0.445 0.23 0.702 0.23 0.087 0 0.172-0.009 0.254-0.027 0.104-0.023 0.205-0.060 0.303-0.111l4.277-2.249 4.277 2.249c0.174 0.091 0.36 0.137 0.556 0.137 0.259 0 0.494-0.076 0.703-0.228 0.4-0.291 0.559-0.681 0.475-1.169l-0.327-1.909c-0.014-0.084-0.043-0.16-0.085-0.227s-0.098-0.125-0.169-0.175c-0.14-0.099-0.294-0.134-0.463-0.105s-0.303 0.113-0.402 0.253c-0.099 0.14-0.134 0.294-0.105 0.463l0.312 1.817-4.484-2.357c-0.192-0.101-0.385-0.101-0.578 0l-4.484 2.357 0.856-4.993c0.037-0.214-0.023-0.398-0.178-0.549l-3.628-3.536 5.013-0.729c0.108-0.016 0.2-0.052 0.278-0.108s0.141-0.134 0.189-0.231l2.242-4.542 2.242 4.542c0.096 0.195 0.252 0.308 0.467 0.34l5.013 0.729-3.628 3.536c-0.078 0.076-0.132 0.16-0.162 0.251s-0.035 0.191-0.017 0.298l0.276 1.606c0.029 0.169 0.113 0.303 0.253 0.402s0.294 0.134 0.463 0.105c0.169-0.029 0.303-0.113 0.402-0.253s0.134-0.294 0.105-0.463l-0.22-1.285 3.46-3.373c0.355-0.346 0.456-0.755 0.302-1.225-0.076-0.235-0.195-0.421-0.355-0.556zM19.052 12.584l4.906 0.713c0.393 0.057 0.651 0.274 0.773 0.652s0.042 0.704-0.242 0.981l-3.55 3.46 0.242 1.408c0.009 0.052 0.008 0.102-0.003 0.149s-0.031 0.093-0.062 0.136c-0.061 0.086-0.143 0.138-0.248 0.156s-0.199-0.004-0.285-0.065-0.138-0.143-0.156-0.248l-0.276-1.606c-0.023-0.132 0.014-0.245 0.11-0.338l3.694-3.6c0.029-0.028 0.047-0.059 0.055-0.092s0.006-0.068-0.006-0.105c-0.025-0.076-0.076-0.12-0.155-0.132l-5.105-0.742c-0.133-0.019-0.229-0.089-0.288-0.209l-2.283-4.626c-0.034-0.070-0.092-0.105-0.173-0.105s-0.138 0.035-0.172 0.104l-2.283 4.626c-0.059 0.12-0.155 0.19-0.288 0.209l-5.105 0.742c-0.039 0.006-0.072 0.019-0.098 0.041s-0.045 0.052-0.058 0.090c-0.025 0.076-0.008 0.141 0.049 0.197l3.694 3.6c0.096 0.094 0.133 0.206 0.11 0.338l-0.872 5.084c-0.013 0.079 0.012 0.141 0.077 0.188s0.132 0.052 0.203 0.015l4.566-2.4c0.119-0.062 0.237-0.062 0.356 0l4.566 2.4c0.071 0.037 0.138 0.032 0.203-0.015s0.090-0.11 0.077-0.189l-0.327-1.908c-0.018-0.104 0.004-0.199 0.065-0.285s0.143-0.138 0.248-0.156c0.104-0.018 0.199 0.004 0.285 0.065s0.138 0.144 0.156 0.248l0.327 1.909c0.067 0.391-0.060 0.703-0.381 0.936-0.168 0.122-0.355 0.183-0.563 0.183-0.079 0-0.155-0.009-0.23-0.027s-0.146-0.046-0.216-0.082l-4.388-2.307-4.388 2.307c-0.141 0.074-0.29 0.111-0.447 0.111-0.206 0-0.393-0.061-0.562-0.184-0.321-0.233-0.448-0.545-0.381-0.936l0.838-4.886-3.55-3.46c-0.142-0.139-0.234-0.29-0.274-0.454s-0.030-0.339 0.031-0.527c0.061-0.189 0.157-0.338 0.286-0.446s0.291-0.177 0.487-0.205l4.906-0.713 2.194-4.445c0.088-0.178 0.203-0.311 0.345-0.4s0.314-0.134 0.513-0.134c0.199 0 0.369 0.045 0.513 0.134s0.258 0.223 0.346 0.401l2.194 4.445z"></path>
         <path d="M3.002 15.498h-2.382c-0.277 0-0.501 0.224-0.501 0.501s0.225 0.501 0.501 0.501h2.382c0.277 0 0.501-0.225 0.501-0.502s-0.224-0.501-0.501-0.501z"></path>
         <path d="M3.003 15.38h-2.382c-0.086 0-0.165 0.015-0.238 0.046s-0.14 0.076-0.201 0.136c-0.061 0.061-0.106 0.127-0.136 0.201s-0.045 0.153-0.045 0.238c0 0.086 0.015 0.165 0.045 0.238s0.076 0.14 0.136 0.201c0.061 0.061 0.127 0.106 0.201 0.136s0.153 0.045 0.238 0.045h2.382c0.086 0 0.165-0.015 0.238-0.045s0.14-0.076 0.2-0.136c0.121-0.121 0.182-0.267 0.182-0.439 0-0.086-0.015-0.165-0.045-0.238s-0.076-0.14-0.136-0.201c-0.061-0.060-0.127-0.106-0.2-0.136s-0.153-0.046-0.238-0.046zM0.474 15.646c0.045-0.019 0.094-0.028 0.147-0.028h2.382c0.106 0 0.196 0.037 0.27 0.112 0.037 0.037 0.065 0.078 0.084 0.123s0.028 0.094 0.028 0.147-0.009 0.102-0.028 0.147c-0.019 0.045-0.047 0.086-0.084 0.124s-0.078 0.065-0.123 0.084c-0.045 0.019-0.094 0.028-0.147 0.028h-2.382c-0.053 0-0.102-0.009-0.147-0.028s-0.086-0.047-0.123-0.084-0.065-0.078-0.084-0.124c-0.019-0.045-0.028-0.094-0.028-0.147s0.009-0.102 0.028-0.147c0.019-0.045 0.047-0.086 0.084-0.123s0.078-0.065 0.123-0.084z"></path>
         <path d="M31.379 15.498h-2.382c-0.277 0-0.502 0.225-0.502 0.501s0.225 0.501 0.502 0.501h2.382c0.277 0 0.501-0.225 0.501-0.502s-0.224-0.501-0.501-0.501z"></path>
         <path d="M31.379 15.38h-2.382c-0.086 0-0.165 0.015-0.238 0.046s-0.14 0.076-0.201 0.136c-0.061 0.061-0.106 0.127-0.136 0.2s-0.046 0.153-0.046 0.238 0.015 0.165 0.046 0.238c0.030 0.073 0.076 0.14 0.136 0.201s0.127 0.106 0.201 0.136c0.073 0.030 0.153 0.045 0.238 0.045h2.382c0.086 0 0.165-0.015 0.238-0.045s0.14-0.076 0.201-0.136c0.121-0.121 0.182-0.267 0.182-0.439 0-0.086-0.015-0.165-0.046-0.238s-0.076-0.14-0.136-0.2c-0.121-0.121-0.267-0.182-0.439-0.182zM28.85 15.646c0.045-0.019 0.094-0.028 0.147-0.028h2.382c0.053 0 0.102 0.009 0.147 0.028s0.086 0.047 0.123 0.084c0.037 0.037 0.065 0.078 0.084 0.123s0.028 0.094 0.028 0.147c0 0.053-0.009 0.102-0.028 0.147s-0.047 0.086-0.084 0.124-0.078 0.065-0.123 0.084c-0.045 0.019-0.094 0.028-0.147 0.028h-2.382c-0.053 0-0.102-0.009-0.147-0.028s-0.086-0.047-0.123-0.084c-0.037-0.037-0.065-0.078-0.084-0.123s-0.028-0.094-0.028-0.147 0.009-0.102 0.028-0.147c0.019-0.045 0.047-0.086 0.084-0.124s0.078-0.065 0.123-0.084z"></path>
         <path d="M6.455 24.835l-1.684 1.684c-0.196 0.196-0.196 0.513-0 0.709 0.098 0.098 0.226 0.147 0.355 0.147s0.257-0.049 0.355-0.147l1.684-1.684c0.196-0.196 0.196-0.513 0-0.709s-0.513-0.196-0.709 0z"></path>
         <path d="M4.686 26.436l-0 0c-0.061 0.061-0.106 0.127-0.136 0.201s-0.045 0.153-0.045 0.238c0 0.086 0.015 0.165 0.045 0.238s0.076 0.14 0.136 0.201c0.061 0.061 0.127 0.106 0.201 0.136s0.153 0.046 0.238 0.046c0.086 0 0.166-0.015 0.239-0.046s0.14-0.076 0.2-0.136l1.684-1.684c0.061-0.061 0.106-0.127 0.136-0.2s0.046-0.153 0.046-0.238c0-0.171-0.061-0.318-0.182-0.439-0.061-0.061-0.127-0.106-0.201-0.136s-0.153-0.045-0.238-0.045c-0.086 0-0.165 0.015-0.238 0.046s-0.14 0.076-0.2 0.136l-1.684 1.684zM4.743 26.875c0-0.106 0.037-0.196 0.112-0.27h0l1.684-1.684c0.075-0.075 0.165-0.112 0.27-0.112 0.053 0 0.102 0.009 0.147 0.028s0.086 0.047 0.124 0.084c0.075 0.075 0.112 0.165 0.112 0.27 0 0.053-0.009 0.102-0.028 0.147s-0.047 0.086-0.084 0.124l-1.684 1.684c-0.037 0.037-0.078 0.065-0.123 0.084s-0.094 0.028-0.147 0.028c-0.053 0-0.102-0.009-0.147-0.028s-0.086-0.047-0.124-0.084-0.065-0.079-0.084-0.124c-0.019-0.045-0.028-0.094-0.028-0.147z"></path>
         <path d="M26.519 4.77l-1.684 1.684c-0.196 0.196-0.196 0.513 0 0.709 0.098 0.098 0.226 0.147 0.355 0.147s0.257-0.049 0.355-0.147l1.684-1.684c0.196-0.196 0.196-0.513 0-0.709s-0.513-0.196-0.709 0z"></path>
         <path d="M26.435 4.686l-1.684 1.684c-0.121 0.121-0.182 0.267-0.182 0.439 0 0.086 0.015 0.165 0.045 0.238s0.076 0.14 0.136 0.201 0.127 0.106 0.201 0.136c0.073 0.030 0.153 0.045 0.238 0.045s0.166-0.015 0.239-0.046c0.073-0.030 0.14-0.076 0.2-0.136l1.684-1.684c0.061-0.061 0.106-0.127 0.136-0.2s0.046-0.153 0.046-0.238c0-0.171-0.061-0.318-0.182-0.439-0.061-0.061-0.128-0.106-0.201-0.136s-0.152-0.045-0.238-0.045c-0.171 0-0.318 0.061-0.439 0.182zM24.807 6.809c0-0.106 0.037-0.196 0.112-0.27v-0l1.684-1.684c0.037-0.037 0.078-0.065 0.124-0.084s0.094-0.028 0.147-0.028c0.106 0 0.196 0.037 0.27 0.112 0.037 0.037 0.065 0.079 0.084 0.124s0.028 0.094 0.028 0.147c-0 0.106-0.037 0.196-0.112 0.27l-1.684 1.684c-0.037 0.037-0.078 0.065-0.123 0.084s-0.094 0.028-0.147 0.028c-0.053 0-0.102-0.009-0.147-0.028s-0.086-0.047-0.124-0.084c-0.075-0.075-0.112-0.165-0.112-0.27z"></path>
         <path d="M16 28.496c-0.277 0-0.501 0.225-0.501 0.502v2.382c0 0.277 0.224 0.502 0.501 0.502s0.501-0.225 0.501-0.502v-2.382c0-0.277-0.224-0.502-0.502-0.502z"></path>
         <path d="M15.424 28.76c-0.030 0.073-0.045 0.153-0.045 0.238v2.382c0 0.086 0.015 0.165 0.045 0.238s0.076 0.14 0.136 0.201c0.060 0.061 0.127 0.106 0.2 0.136s0.153 0.046 0.238 0.046c0.086 0 0.165-0.015 0.238-0.046s0.14-0.076 0.201-0.136c0.061-0.061 0.106-0.127 0.136-0.201s0.046-0.153 0.046-0.238v-2.382c0-0.086-0.015-0.165-0.046-0.238s-0.076-0.14-0.136-0.2-0.127-0.106-0.2-0.136c-0.073-0.030-0.153-0.046-0.238-0.046s-0.165 0.015-0.238 0.046c-0.073 0.030-0.14 0.076-0.2 0.136s-0.106 0.127-0.136 0.201zM15.617 31.38v-2.382c0-0.053 0.009-0.102 0.028-0.147s0.047-0.086 0.084-0.124c0.037-0.037 0.078-0.065 0.123-0.084s0.094-0.028 0.147-0.028c0.053 0 0.102 0.009 0.147 0.028s0.086 0.047 0.123 0.084c0.037 0.037 0.065 0.078 0.084 0.123s0.028 0.094 0.028 0.147v2.382c0 0.106-0.037 0.196-0.112 0.27-0.037 0.037-0.079 0.065-0.124 0.084s-0.094 0.028-0.147 0.028c-0.053 0-0.102-0.009-0.147-0.028s-0.086-0.047-0.124-0.084c-0.037-0.037-0.065-0.078-0.084-0.123s-0.028-0.094-0.028-0.147z"></path>
         <path d="M16 3.504c0.277 0 0.501-0.225 0.501-0.501v-2.382c0-0.277-0.225-0.501-0.502-0.501s-0.501 0.225-0.501 0.501v2.382c0 0.277 0.224 0.501 0.501 0.501z"></path>
         <path d="M16.575 3.241c0.030-0.073 0.046-0.153 0.046-0.238v-2.382c0-0.086-0.015-0.165-0.046-0.238s-0.076-0.14-0.136-0.201c-0.061-0.061-0.127-0.106-0.201-0.136s-0.153-0.045-0.238-0.045c-0.086 0-0.165 0.015-0.238 0.045s-0.14 0.076-0.2 0.136c-0.060 0.061-0.106 0.127-0.136 0.201s-0.045 0.153-0.045 0.238v2.382c0 0.086 0.015 0.165 0.046 0.238s0.076 0.14 0.136 0.2c0.061 0.061 0.127 0.106 0.2 0.136s0.153 0.046 0.238 0.046 0.165-0.015 0.238-0.046c0.073-0.030 0.14-0.076 0.201-0.136s0.106-0.127 0.136-0.201zM16.382 0.621v2.382c0 0.106-0.037 0.196-0.112 0.27-0.037 0.037-0.079 0.065-0.124 0.084s-0.094 0.028-0.147 0.028-0.102-0.009-0.147-0.028c-0.045-0.019-0.086-0.047-0.123-0.084s-0.065-0.078-0.084-0.123c-0.019-0.045-0.028-0.094-0.028-0.147v-2.382c0-0.053 0.009-0.102 0.028-0.147s0.047-0.086 0.084-0.124 0.078-0.065 0.123-0.084c0.045-0.019 0.094-0.028 0.147-0.028s0.102 0.009 0.147 0.028c0.045 0.019 0.086 0.047 0.123 0.084s0.065 0.078 0.084 0.123c0.019 0.045 0.028 0.094 0.028 0.147z"></path>
         <path d="M25.544 24.835c-0.196-0.196-0.513-0.196-0.709 0s-0.196 0.513 0 0.709l1.684 1.684c0.098 0.098 0.226 0.147 0.355 0.147s0.257-0.049 0.355-0.147c0.196-0.196 0.196-0.513-0-0.709l-1.684-1.684z"></path>
         <path d="M24.952 24.615c-0.073 0.030-0.14 0.076-0.201 0.136s-0.106 0.127-0.136 0.2c-0.030 0.073-0.045 0.153-0.045 0.238 0 0.171 0.061 0.318 0.182 0.439l1.684 1.684c0.060 0.061 0.127 0.106 0.2 0.136s0.153 0.046 0.239 0.046c0.086 0 0.165-0.015 0.239-0.046s0.14-0.076 0.2-0.136c0.061-0.061 0.106-0.127 0.136-0.2s0.046-0.153 0.046-0.239c-0-0.171-0.061-0.318-0.182-0.439l-1.684-1.684c-0.060-0.061-0.127-0.106-0.2-0.136s-0.153-0.046-0.239-0.046c-0.086 0-0.165 0.015-0.238 0.045zM24.807 25.191c0-0.106 0.037-0.196 0.112-0.27 0.037-0.037 0.079-0.065 0.124-0.084s0.094-0.028 0.147-0.028 0.102 0.009 0.147 0.028c0.045 0.019 0.086 0.047 0.123 0.084l1.684 1.684c0.037 0.037 0.065 0.079 0.084 0.124s0.028 0.094 0.028 0.147c0 0.106-0.037 0.196-0.112 0.27s-0.165 0.112-0.27 0.112c-0.053 0-0.102-0.009-0.147-0.028s-0.086-0.047-0.123-0.084l-1.684-1.684c-0.037-0.037-0.065-0.079-0.084-0.124s-0.028-0.094-0.028-0.147z"></path>
         <path d="M6.455 7.164c0.098 0.098 0.226 0.147 0.355 0.147s0.257-0.049 0.355-0.147c0.196-0.196 0.196-0.513 0-0.709l-1.684-1.684c-0.196-0.196-0.513-0.196-0.709 0s-0.196 0.513 0 0.709l1.684 1.684z"></path>
         <path d="M6.37 7.248c0.121 0.121 0.267 0.182 0.439 0.182 0.086 0 0.165-0.015 0.238-0.045s0.14-0.076 0.2-0.136c0.061-0.061 0.106-0.128 0.136-0.201s0.045-0.153 0.045-0.238c0-0.086-0.015-0.165-0.045-0.238s-0.076-0.14-0.136-0.201l-1.684-1.684c-0.061-0.061-0.127-0.106-0.2-0.136s-0.153-0.045-0.238-0.045c-0.086 0-0.165 0.015-0.238 0.045s-0.14 0.076-0.201 0.136c-0.061 0.061-0.106 0.127-0.136 0.2s-0.045 0.153-0.045 0.238 0.015 0.165 0.045 0.238c0.030 0.073 0.076 0.14 0.136 0.201l1.684 1.684zM7.080 7.080c-0.075 0.075-0.165 0.112-0.27 0.112s-0.196-0.037-0.27-0.112l-1.684-1.684c-0.037-0.037-0.065-0.079-0.084-0.124s-0.028-0.094-0.028-0.147c0-0.053 0.009-0.102 0.028-0.147s0.047-0.086 0.084-0.123c0.037-0.037 0.079-0.065 0.124-0.084s0.094-0.028 0.147-0.028c0.053 0 0.102 0.009 0.147 0.028s0.086 0.047 0.124 0.084l1.684 1.684c0.037 0.037 0.065 0.079 0.084 0.124s0.028 0.094 0.028 0.147c0 0.053-0.009 0.102-0.028 0.147s-0.047 0.086-0.084 0.123z"></path>
      </symbol>
      <symbol id="icon-customer-support" viewBox="0 0 32 32">
         <path d="M24.466 23.736c-0.038-0.298-0.145-0.583-0.312-0.833s-0.39-0.457-0.651-0.606l-6.003-3.457c-0.373-0.214-0.806-0.3-1.233-0.244s-0.823 0.252-1.127 0.556l-1.553 1.554c-0.148 0.147-0.345 0.235-0.553 0.245s-0.413-0.057-0.575-0.188c-0.936-0.758-1.832-1.565-2.683-2.417-0.852-0.851-1.659-1.747-2.417-2.683-0.132-0.162-0.199-0.367-0.188-0.575s0.098-0.405 0.245-0.553l1.554-1.554c0.304-0.304 0.499-0.7 0.555-1.127s-0.029-0.859-0.243-1.232l-3.458-6.005c-0.149-0.261-0.357-0.484-0.606-0.651s-0.535-0.274-0.833-0.312c-0.298-0.041-0.601-0.011-0.885 0.085s-0.543 0.258-0.754 0.471l-1.782 1.783c-2.544 2.544 0.111 9.185 6.045 15.119 4.41 4.41 9.21 7.010 12.43 7.009 1.112 0 2.036-0.31 2.69-0.964l1.781-1.782c0.213-0.212 0.375-0.47 0.471-0.755s0.126-0.588 0.085-0.885v0.001zM23.247 24.712l-0.237 0.238-5.142-2.934c-0.107-0.055-0.232-0.066-0.347-0.031s-0.213 0.112-0.273 0.217c-0.060 0.105-0.077 0.228-0.048 0.345s0.102 0.218 0.204 0.283l4.919 2.807-0.858 0.857c-0.965 0.966-2.957 0.919-5.463-0.13-2.676-1.118-5.634-3.22-8.33-5.915-2.696-2.696-4.797-5.654-5.915-8.33-1.049-2.506-1.097-4.498-0.13-5.463l0.915-0.916 0.325 0.565c0.031 0.053 0.072 0.1 0.12 0.138s0.105 0.065 0.164 0.081c0.059 0.016 0.122 0.020 0.183 0.012s0.12-0.028 0.173-0.059c0.053-0.031 0.1-0.072 0.138-0.12s0.065-0.105 0.081-0.164c0.016-0.059 0.020-0.122 0.012-0.183s-0.028-0.12-0.059-0.173l-0.451-0.783 0.18-0.18c0.11-0.111 0.244-0.195 0.392-0.245s0.306-0.066 0.461-0.045c0.317 0.042 0.59 0.225 0.75 0.502l3.457 6.004c0.229 0.399 0.162 0.903-0.163 1.228l-0.568 0.568-3.056-5.309c-0.062-0.108-0.164-0.187-0.285-0.219s-0.248-0.016-0.356 0.046c-0.108 0.062-0.187 0.164-0.219 0.285s-0.016 0.248 0.046 0.356l3.183 5.528-0.3 0.3c-0.311 0.311-0.496 0.726-0.519 1.166s0.118 0.872 0.395 1.213c0.779 0.962 1.608 1.882 2.484 2.757 0.875 0.876 1.796 1.705 2.758 2.484 0.342 0.277 0.774 0.418 1.214 0.395s0.855-0.208 1.166-0.519l0.216-0.216 1.157 0.66c0.053 0.031 0.112 0.051 0.173 0.059s0.123 0.004 0.183-0.012c0.059-0.016 0.115-0.044 0.164-0.082s0.089-0.085 0.12-0.139c0.031-0.054 0.050-0.113 0.058-0.174s0.003-0.123-0.013-0.183c-0.016-0.059-0.044-0.115-0.082-0.164s-0.085-0.089-0.138-0.12l-0.935-0.533 0.65-0.65c0.158-0.158 0.364-0.26 0.586-0.289s0.447 0.015 0.642 0.126l6.005 3.457c0.277 0.16 0.46 0.432 0.501 0.749 0.021 0.155 0.006 0.313-0.045 0.461s-0.134 0.282-0.245 0.392z"></path>
         <path d="M14.995 15.664h-3.512c0.164-1.37 1.041-2.3 1.964-3.279 0.992-1.050 2.017-2.137 2.017-3.769-0.001-0.656-0.262-1.284-0.725-1.748s-1.092-0.724-1.748-0.725c-0.656 0.001-1.285 0.261-1.748 0.725s-0.725 1.092-0.726 1.748c0 0.124 0.049 0.244 0.137 0.332s0.207 0.137 0.332 0.137c0.124 0 0.244-0.049 0.332-0.137s0.137-0.207 0.137-0.332c0-0.847 0.689-1.535 1.536-1.535s1.535 0.688 1.535 1.535c0 1.26-0.816 2.124-1.76 3.126-1.054 1.117-2.249 2.383-2.249 4.39 0 0.26 0.21 0.47 0.47 0.47h4.008c0.124 0 0.244-0.049 0.332-0.137s0.137-0.207 0.137-0.332-0.049-0.244-0.137-0.332c-0.088-0.088-0.207-0.137-0.332-0.137z"></path>
         <path d="M21.008 13.159h-0.533v-6.548c0-0.124-0.049-0.244-0.137-0.332s-0.207-0.137-0.332-0.137c-0.124 0-0.244 0.049-0.332 0.137s-0.137 0.207-0.137 0.332v6.546h-2.497l0.926-6.48c0.009-0.061 0.005-0.123-0.010-0.183s-0.042-0.116-0.079-0.165c-0.037-0.049-0.083-0.091-0.136-0.122s-0.112-0.052-0.173-0.061c-0.061-0.009-0.123-0.005-0.183 0.010s-0.116 0.042-0.165 0.079-0.091 0.083-0.122 0.136c-0.031 0.053-0.052 0.112-0.061 0.173l-1.002 7.016c-0.009 0.066-0.004 0.134 0.015 0.198s0.052 0.124 0.096 0.174c0.044 0.051 0.098 0.091 0.159 0.119s0.127 0.043 0.194 0.043h3.039v2.036c0 0.062 0.012 0.123 0.036 0.179s0.058 0.109 0.102 0.152c0.044 0.044 0.095 0.078 0.152 0.102s0.118 0.036 0.179 0.036 0.123-0.012 0.18-0.036c0.057-0.024 0.109-0.058 0.152-0.102s0.078-0.095 0.102-0.152c0.024-0.057 0.036-0.118 0.036-0.179v-2.036h0.533c0.124 0 0.244-0.049 0.332-0.137s0.137-0.207 0.137-0.332c0-0.124-0.049-0.244-0.137-0.332s-0.207-0.137-0.332-0.137l-0.001 0.002z"></path>
         <path d="M31.91 6.335c-0.044-0.060-0.101-0.108-0.167-0.141s-0.139-0.051-0.212-0.051h-3.508c-0.124 0-0.244 0.049-0.332 0.137s-0.137 0.207-0.137 0.332 0.049 0.244 0.137 0.332c0.088 0.088 0.207 0.137 0.332 0.137h2.868l-2.813 8.91c-0.034 0.118-0.021 0.244 0.037 0.352s0.155 0.189 0.272 0.226 0.243 0.027 0.352-0.028c0.109-0.055 0.193-0.151 0.233-0.266l3.006-9.521c0.022-0.070 0.027-0.145 0.015-0.217s-0.041-0.141-0.084-0.201h0.001z"></path>
         <path d="M26.145 4.657c-0.12-0.033-0.247-0.018-0.356 0.043s-0.188 0.162-0.221 0.282l-3.508 12.527c-0.030 0.119-0.013 0.245 0.048 0.351s0.162 0.184 0.28 0.217c0.118 0.033 0.244 0.019 0.352-0.040s0.188-0.158 0.223-0.275l3.507-12.527c0.017-0.059 0.021-0.121 0.014-0.183s-0.027-0.12-0.057-0.174c-0.030-0.054-0.071-0.101-0.119-0.139s-0.104-0.066-0.163-0.083h0.001z"></path>
      </symbol>
      <symbol id="icon-discount" viewBox="0 0 32 32">
         <path d="M28.102 24.25c0.259 0 0.469-0.21 0.469-0.469v-11.25c0-0.559-0.218-1.132-0.614-1.611l-3.476-4.212c-0.182-0.221-0.392-0.407-0.619-0.555 0.014-0.143 0.022-0.288 0.022-0.434v-5.25c0-0.259-0.21-0.469-0.469-0.469s-0.469 0.21-0.469 0.469c0 0-0.001 5.295-0.001 5.317-0.133-0.024-0.269-0.036-0.405-0.036h-6.063c-0.427 0-0.845 0.12-1.22 0.34-0.016 0.006-0.032 0.012-0.048 0.020l-4.569 2.226c-0.506 0.254-0.911 0.68-1.14 1.199-0.002 0.006-0.005 0.011-0.007 0.017l-1.889 4.792c-0.095 0.241 0.023 0.513 0.264 0.608 0.056 0.022 0.115 0.033 0.172 0.033 0.187 0 0.364-0.113 0.436-0.297l1.886-4.783c0.142-0.317 0.39-0.576 0.694-0.729l2.414-1.176-2.41 2.92c-0.361 0.437-0.552 0.994-0.552 1.611v16.188c0 0.189 0.017 0.373 0.047 0.553l-4.83-2.14c-1.091-0.483-1.586-1.768-1.102-2.863 0.002-0.005 0.004-0.010 0.006-0.014l3.055-7.593c0.097-0.24-0.020-0.513-0.26-0.61s-0.513 0.020-0.61 0.26l-3.053 7.586c-0.686 1.566 0.023 3.399 1.583 4.091l5.664 2.51c0.007 0.003 0.014 0.005 0.021 0.008 0.575 0.898 1.569 1.494 2.697 1.494h11.563c1.779 0 3.281-1.503 3.281-3.281v-2.75c0-0.259-0.21-0.469-0.469-0.469s-0.469 0.21-0.469 0.469v2.75c0 1.27-1.073 2.344-2.344 2.344h-11.563c-1.258 0-2.281-1.051-2.281-2.344v-16.188c0-0.402 0.113-0.744 0.337-1.015l3.476-4.212c0.323-0.392 0.767-0.617 1.218-0.617h6.063c0.088 0 0.176 0.009 0.263 0.026-0.294 1.001-1.020 1.836-2.002 2.254-0.257-0.429-0.726-0.717-1.261-0.717-0.81 0-1.469 0.659-1.469 1.469s0.659 1.469 1.469 1.469c0.749 0 1.368-0.564 1.457-1.289 1.262-0.477 2.217-1.489 2.642-2.724 0.041 0.041 0.080 0.084 0.118 0.13l3.476 4.212c0.258 0.312 0.4 0.672 0.4 1.015v11.25c-0 0.259 0.21 0.469 0.469 0.469zM19.54 10.25c-0.293 0-0.531-0.238-0.531-0.531s0.238-0.531 0.531-0.531c0.293 0 0.531 0.238 0.531 0.531s-0.238 0.531-0.531 0.531z"></path>
         <path d="M15.478 24.937c0.12 0 0.24-0.046 0.331-0.137l8-8c0.183-0.183 0.183-0.48 0-0.663s-0.48-0.183-0.663 0l-8 8c-0.299 0.279-0.069 0.814 0.332 0.8z"></path>
         <path d="M16.477 20c1.119 0 2.031-0.911 2.031-2.031s-0.912-2.031-2.031-2.031h-0.063c-1.119 0-2.031 0.911-2.031 2.031s0.912 2.031 2.031 2.031h0.063zM15.32 17.969c0-0.603 0.49-1.094 1.094-1.094h0.063c0.604 0 1.094 0.491 1.094 1.094s-0.49 1.094-1.094 1.094h-0.063c-0.604 0-1.094-0.491-1.094-1.094z"></path>
         <path d="M22.539 24.937h0.063c1.12 0 2.031-0.911 2.031-2.031s-0.911-2.031-2.031-2.031h-0.063c-1.12 0-2.031 0.911-2.031 2.031s0.911 2.031 2.031 2.031zM22.539 21.812h0.063c0.603 0 1.094 0.491 1.094 1.094s-0.491 1.094-1.094 1.094h-0.063c-0.603 0-1.094-0.491-1.094-1.094s0.491-1.094 1.094-1.094z"></path>
      </symbol>
      <symbol id="icon-discover-logo" viewBox="0 0 32 32">
         <path fill="#fd6020" style="fill: var(--color1, #fd6020)" d="M11.647 23.412l20.118-6.088v3.688c0 1.325-1.074 2.4-2.4 2.4h-17.718z"></path>
         <path fill="#fff" style="fill: var(--color2, #fff)" d="M27.947 8.517c1.107 0 1.716 0.512 1.716 1.479 0.055 0.74-0.443 1.365-1.107 1.479l1.494 2.105h-1.162l-1.273-2.048h-0.111v2.048h-0.941v-5.063h1.383zM27.504 10.85h0.277c0.609 0 0.885-0.284 0.885-0.796 0-0.455-0.277-0.74-0.885-0.74h-0.277v1.536zM23.298 13.58h2.656v-0.853h-1.716v-1.365h1.66v-0.853h-1.66v-1.138h1.716v-0.853h-2.656v5.063zM20.532 11.931l-1.273-3.413h-0.996l2.048 5.177h0.498l2.048-5.177h-0.996l-1.328 3.413zM9.298 11.077c0 1.422 1.107 2.617 2.49 2.617 0.443 0 0.83-0.114 1.217-0.284v-1.138c-0.277 0.341-0.664 0.569-1.107 0.569-0.885 0-1.605-0.683-1.605-1.593v-0.114c-0.055-0.91 0.664-1.707 1.549-1.764 0.443 0 0.885 0.228 1.162 0.569v-1.138c-0.332-0.228-0.775-0.284-1.162-0.284-1.439-0.114-2.546 1.081-2.546 2.56v0zM7.581 10.452c-0.553-0.228-0.719-0.341-0.719-0.626 0.055-0.341 0.332-0.626 0.664-0.569 0.277 0 0.553 0.171 0.775 0.398l0.498-0.683c-0.387-0.341-0.885-0.569-1.383-0.569-0.775-0.057-1.439 0.569-1.494 1.365v0.057c0 0.683 0.277 1.081 1.162 1.365 0.221 0.057 0.443 0.171 0.664 0.284 0.166 0.114 0.277 0.284 0.277 0.512 0 0.398-0.332 0.74-0.664 0.74h-0.055c-0.443 0-0.83-0.284-0.996-0.683l-0.609 0.626c0.332 0.626 0.996 0.967 1.66 0.967 0.885 0.057 1.605-0.626 1.66-1.536v-0.171c-0.055-0.683-0.332-1.024-1.439-1.479v0zM4.372 13.58h0.941v-5.063h-0.941v5.063zM0 8.517h1.66c1.328 0.057 2.38 1.195 2.324 2.56 0 0.74-0.332 1.422-0.885 1.934-0.498 0.398-1.107 0.626-1.716 0.569h-1.383v-5.063zM1.218 12.727c0.443 0.057 0.941-0.114 1.273-0.398 0.332-0.341 0.498-0.796 0.498-1.308 0-0.455-0.166-0.91-0.498-1.252-0.332-0.284-0.83-0.455-1.273-0.398h-0.277v3.356h0.277z"></path>
         <path fill="#fd6020" style="fill: var(--color1, #fd6020)" d="M15.826 8.4c-1.384 0-2.546 1.138-2.546 2.617 0 1.422 1.107 2.617 2.546 2.674s2.546-1.138 2.601-2.617c-0.055-1.479-1.162-2.674-2.601-2.674v0z"></path>
      </symbol>
      <symbol id="icon-free-shipping" viewBox="0 0 32 32">
         <path d="M6.982 22.938c-0.257 0-0.504 0.102-0.686 0.284s-0.284 0.429-0.284 0.686c0 0.257 0.102 0.504 0.284 0.686s0.429 0.284 0.686 0.284c0.257 0 0.504-0.102 0.686-0.284s0.284-0.429 0.284-0.686c0-0.257-0.102-0.504-0.284-0.686s-0.429-0.284-0.686-0.284z"></path>
         <path d="M27.022 22.938c-0.257 0-0.504 0.102-0.686 0.284s-0.284 0.429-0.284 0.686c0 0.257 0.102 0.504 0.284 0.686s0.429 0.284 0.686 0.284c0.257 0 0.504-0.102 0.686-0.284s0.284-0.429 0.284-0.686c0-0.257-0.102-0.504-0.284-0.686s-0.429-0.284-0.686-0.284z"></path>
         <path d="M30.652 15.605l-3.272-1.090-2.055-5.343c-0.144-0.371-0.397-0.69-0.725-0.915s-0.716-0.347-1.115-0.349h-8.471l-0.010-0.117c-0.020-0.242-0.13-0.468-0.31-0.632s-0.414-0.255-0.656-0.253h-1.578v-0.535c-0.001-0.523-0.209-1.024-0.579-1.393s-0.871-0.577-1.393-0.578c-0.522 0.001-1.023 0.209-1.393 0.578s-0.577 0.87-0.578 1.393v0.534h-1.577c-0.243-0.001-0.477 0.089-0.656 0.253s-0.29 0.39-0.31 0.632l-0.010 0.117h-4.994c-0.257 0-0.504 0.102-0.686 0.284s-0.284 0.429-0.284 0.686v13.527c0 0.534 0.435 0.97 0.97 0.97h3.087c-0.078 0.428-0.060 0.869 0.051 1.29s0.313 0.813 0.592 1.147c0.279 0.334 0.628 0.604 1.022 0.788s0.824 0.281 1.26 0.282c0.436-0.001 0.866-0.097 1.26-0.282s0.743-0.454 1.022-0.789c0.279-0.335 0.481-0.726 0.592-1.147s0.128-0.862 0.051-1.29h14.19c-0.078 0.429-0.060 0.869 0.051 1.29s0.313 0.813 0.592 1.147c0.279 0.334 0.628 0.604 1.022 0.788s0.824 0.281 1.26 0.282c0.448-0.001 0.889-0.102 1.292-0.297s0.757-0.478 1.035-0.828c0.278-0.35 0.474-0.759 0.573-1.196s0.097-0.89-0.003-1.326l0.992-0.496c0.328-0.163 0.604-0.414 0.797-0.725s0.294-0.67 0.293-1.037v-3.5c0-0.414-0.13-0.817-0.372-1.153s-0.583-0.587-0.976-0.717zM24.966 10.849l1.374 3.572h-1.485l-1.19-3.572h1.301zM23.866 14.421h-3.858c-0.141-0-0.277-0.056-0.377-0.156s-0.156-0.235-0.156-0.377v-3.039h3.201l1.19 3.572zM9.456 6.371c0-0.57 0.464-1.034 1.034-1.034s1.034 0.464 1.034 1.034v0.534h-2.069v-0.534h0.001zM5.993 18.394l0.915-10.521c0-0.008 0.004-0.016 0.010-0.021s0.014-0.009 0.022-0.009h1.577v1.034c0 0.124 0.049 0.244 0.137 0.332s0.207 0.137 0.332 0.137 0.244-0.049 0.332-0.137c0.088-0.088 0.137-0.207 0.137-0.332v-1.034h2.068v1.034c0 0.124 0.049 0.244 0.137 0.332s0.207 0.137 0.332 0.137 0.244-0.049 0.332-0.137c0.088-0.088 0.137-0.207 0.137-0.332v-1.034h1.577c0.017 0 0.030 0.013 0.032 0.030l0.915 10.52c0 0.005 0 0.015-0.009 0.025-0.010 0.010-0.020 0.010-0.024 0.010h-8.926c-0.004 0-0.014 0-0.024-0.010-0.003-0.003-0.005-0.007-0.007-0.011s-0.002-0.009-0.001-0.013h-0.001zM6.982 25.944c-0.54-0.001-1.058-0.215-1.439-0.597s-0.597-0.899-0.598-1.439c0-1.123 0.914-2.037 2.037-2.037s2.036 0.914 2.036 2.037c-0.001 0.54-0.216 1.057-0.597 1.439s-0.899 0.596-1.439 0.597zM27.022 25.944c-0.54-0.001-1.057-0.216-1.439-0.597s-0.596-0.899-0.597-1.439c0-1.123 0.913-2.037 2.036-2.037s2.037 0.914 2.037 2.037c-0.001 0.54-0.216 1.057-0.598 1.439s-0.9 0.596-1.439 0.597zM31.062 18.429h-0.533c-0.063-0.003-0.127 0.007-0.186 0.029s-0.114 0.056-0.16 0.1c-0.046 0.044-0.082 0.096-0.107 0.155s-0.038 0.121-0.038 0.184c0 0.063 0.013 0.126 0.038 0.184s0.061 0.111 0.107 0.155c0.046 0.044 0.1 0.078 0.16 0.1s0.123 0.032 0.186 0.029h0.534v1.608c0 0.395-0.22 0.75-0.572 0.926l-0.928 0.464c-0.265-0.436-0.638-0.797-1.083-1.047s-0.947-0.382-1.457-0.383c-1.106 0-2.071 0.606-2.584 1.503h-14.874c-0.26-0.456-0.635-0.835-1.089-1.099s-0.969-0.403-1.494-0.404c-1.105 0-2.070 0.606-2.583 1.503h-3.43c-0.008-0-0.016-0.004-0.022-0.010s-0.009-0.014-0.009-0.022v-3.039h2.537c0.063 0.003 0.127-0.007 0.186-0.029s0.114-0.056 0.16-0.1c0.046-0.044 0.082-0.096 0.107-0.155s0.038-0.121 0.038-0.184c0-0.063-0.013-0.126-0.038-0.184s-0.061-0.111-0.107-0.155c-0.046-0.044-0.1-0.078-0.16-0.1s-0.123-0.032-0.186-0.029h-2.538v-9.552c0-0.017 0.015-0.032 0.033-0.032h4.912l-0.823 9.468c-0.011 0.134 0.005 0.268 0.049 0.395s0.113 0.244 0.203 0.343c0.091 0.099 0.201 0.178 0.324 0.232s0.256 0.082 0.39 0.083h8.927c0.134-0 0.267-0.029 0.39-0.083s0.233-0.133 0.324-0.232c0.091-0.099 0.16-0.216 0.204-0.343s0.060-0.262 0.049-0.396l-0.824-9.468h8.39c0.425 0 0.813 0.267 0.965 0.663l0.155 0.404h-5.599c-0.124 0-0.243 0.049-0.331 0.137s-0.137 0.207-0.138 0.331v3.507c0 0.811 0.66 1.471 1.471 1.471h6.938l3.41 1.137c0.422 0.14 0.707 0.535 0.707 0.98v0.954h-0.001z"></path>
         <path d="M28.525 18.429h-11.022c-0.063-0.003-0.127 0.007-0.186 0.029s-0.114 0.056-0.16 0.1-0.082 0.096-0.107 0.155c-0.025 0.058-0.038 0.121-0.038 0.184s0.013 0.126 0.038 0.184c0.025 0.058 0.061 0.111 0.107 0.155s0.1 0.078 0.16 0.1c0.059 0.022 0.123 0.032 0.186 0.029h11.022c0.121-0.006 0.234-0.057 0.318-0.145s0.13-0.203 0.13-0.324-0.046-0.237-0.13-0.324c-0.083-0.087-0.197-0.139-0.318-0.145z"></path>
      </symbol>
      <symbol id="icon-googlr-play" viewBox="0 0 32 32">
         <path d="M20.087 14.646l-13.795-13.834 17.552 10.077-3.757 3.757zM2.69 0c-0.813 0.426-1.357 1.2-1.357 2.208v27.584c0 1.008 0.544 1.782 1.357 2.208l16.043-16.003-16.043-15.997zM29.271 14.102l-3.682-2.131-4.107 4.032 4.107 4.032 3.757-2.131c1.125-0.894 1.125-2.907-0.075-3.802zM6.292 31.194l17.552-10.077-3.757-3.757-13.795 13.834z"></path>
      </symbol>
      <symbol id="icon-great-support" viewBox="0 0 32 32">
         <path d="M26.497 12.168v-1.23c0-2.945-1.042-5.681-2.931-7.711-1.936-2.084-4.598-3.227-7.503-3.227h-1.015c-2.904 0-5.566 1.143-7.503 3.227-1.889 2.030-2.931 4.766-2.931 7.711v1.23c-2.292 0.155-4.114 2.064-4.114 4.397v1.923c0 2.427 1.976 4.403 4.403 4.403h2.481c0.444 0 0.807-0.363 0.807-0.807v-9.123c0-0.444-0.363-0.807-0.807-0.807h-1.156v-1.217c0-5.318 3.792-9.324 8.813-9.324h1.015c5.029 0 8.813 4.007 8.813 9.324v1.217h-1.156c-0.444 0-0.807 0.363-0.807 0.807v9.116c0 0.444 0.363 0.807 0.807 0.807h1.13c-0.329 4.208-3.227 5.183-4.572 5.405-0.37-1.136-1.439-1.956-2.696-1.956h-2.017c-1.56 0-2.83 1.271-2.83 2.83s1.271 2.837 2.83 2.837h2.024c1.304 0 2.4-0.887 2.729-2.084 0.659-0.094 1.701-0.329 2.736-0.934 1.459-0.854 3.187-2.595 3.415-6.104 2.306-0.141 4.134-2.057 4.134-4.397v-1.923c0.007-2.326-1.808-4.242-4.101-4.39zM6.591 21.271h-1.674c-1.54 0-2.79-1.25-2.79-2.79v-1.923c0-1.54 1.25-2.79 2.79-2.79h1.674v7.502zM17.582 30.387h-2.024c-0.672 0-1.217-0.545-1.217-1.217s0.545-1.217 1.217-1.217h2.024c0.672 0 1.217 0.545 1.217 1.217s-0.545 1.217-1.217 1.217zM28.991 18.481c0 1.54-1.25 2.79-2.79 2.79h-1.674v-7.503h1.674c1.54 0 2.79 1.25 2.79 2.79v1.923z"></path>
      </symbol>
      <symbol id="icon-mastercard" viewBox="0 0 32 32">
         <path fill="#ed0006" style="fill: var(--color3, #ed0006)" d="M21.992 25.318c5.287 0 9.573-4.235 9.573-9.459s-4.286-9.459-9.573-9.459c-2.369 0-4.538 0.851-6.209 2.26-1.672-1.409-3.84-2.26-6.209-2.26-5.287 0-9.573 4.235-9.573 9.459s4.286 9.459 9.573 9.459c2.369 0 4.538-0.851 6.209-2.26 1.672 1.409 3.84 2.26 6.209 2.26z"></path>
         <path fill="#f9a000" style="fill: var(--color4, #f9a000)" d="M15.782 23.058c2.058-1.735 3.363-4.316 3.363-7.199s-1.305-5.464-3.363-7.199c1.672-1.409 3.84-2.26 6.209-2.26 5.287 0 9.573 4.235 9.573 9.459s-4.286 9.459-9.573 9.459c-2.369 0-4.538-0.851-6.21-2.26z"></path>
         <path fill="#ff5e00" style="fill: var(--color5, #ff5e00)" d="M15.782 23.058c2.058-1.735 3.363-4.316 3.363-7.199s-1.305-5.464-3.363-7.199c-2.058 1.735-3.363 4.316-3.363 7.199s1.305 5.464 3.363 7.199z"></path>
      </symbol>
      <symbol id="icon-money-guarantee" viewBox="0 0 32 32">
         <path d="M30.447 7.544c0-0.122-0.027-0.243-0.081-0.358-0.108-0.23-0.317-0.385-0.547-0.432l-13.758-6.673c-0.223-0.108-0.486-0.108-0.709 0l-13.893 6.734c-0.27 0.128-0.446 0.398-0.459 0.702v0.007c0 0.007 0 0.013 0 0.027v16.898c0 0.311 0.176 0.594 0.459 0.73l13.893 6.734c0.007 0 0.007 0 0.014 0.007 0.020 0.007 0.040 0.014 0.061 0.027 0.007 0 0.014 0.007 0.027 0.007 0.020 0.007 0.040 0.014 0.061 0.020 0.007 0 0.014 0.007 0.020 0.007 0.020 0.007 0.047 0.007 0.068 0.014 0.007 0 0.014 0 0.020 0 0.027 0 0.061 0.007 0.088 0.007s0.061 0 0.088-0.007c0.007 0 0.014 0 0.020 0 0.020 0 0.047-0.007 0.068-0.014 0.007 0 0.014-0.007 0.020-0.007 0.020-0.007 0.040-0.014 0.061-0.020 0.007 0 0.014-0.007 0.027-0.007 0.020-0.007 0.041-0.014 0.061-0.027 0.007 0 0.007 0 0.014-0.007l13.933-6.754c0.277-0.135 0.459-0.419 0.459-0.729v-16.865c-0.014-0.007-0.014-0.013-0.014-0.020zM15.703 1.709l12.049 5.842-4.437 2.154-12.049-5.842 4.437-2.155zM15.703 13.393l-12.049-5.842 5.754-2.789 12.049 5.842-5.754 2.789zM2.621 8.854l12.272 5.95v15.081l-12.272-5.95v-15.081zM16.514 29.886v-15.081l5.761-2.796v3.944c0 0.446 0.365 0.811 0.811 0.811s0.81-0.365 0.81-0.81v-4.734l4.93-2.391v15.081l-12.312 5.977z"></path>
      </symbol>
      <symbol id="icon-order-history" viewBox="0 0 32 32">
         <path d="M0 32v-14h14l-6.434 6.44c1.099 1.124 2.411 2.017 3.859 2.629s3.003 0.928 4.575 0.931c2.479-0.004 4.895-0.775 6.918-2.207s3.552-3.456 4.378-5.793h0.036c0.228-0.65 0.402-1.32 0.518-2h4.024c-0.487 3.867-2.369 7.422-5.291 10s-6.686 4-10.583 4h-0.020c-2.1 0.006-4.181-0.404-6.122-1.207s-3.703-1.984-5.184-3.473l-4.674 4.68zM4.148 14h-4.024c0.487-3.865 2.367-7.42 5.288-9.997s6.682-4.001 10.578-4.003h0.010c2.101-0.007 4.182 0.404 6.123 1.207s3.703 1.984 5.185 3.473l4.692-4.68v14h-14l6.444-6.44c-1.1-1.125-2.413-2.019-3.863-2.631s-3.007-0.927-4.581-0.929c-2.479 0.004-4.895 0.775-6.918 2.207s-3.552 3.456-4.378 5.793h-0.036c-0.23 0.65-0.404 1.32-0.518 2h-0.002z"></path>
      </symbol>
      <symbol id="icon-partners-01" viewBox="0 0 32 32">
         <path d="M3.122 13.153c0.24-0.206 0.549-0.309 0.823-0.309 0.515 0 1.029 0.24 1.544 0.652l0.24 0.206 0.686-0.961-0.172-0.172c-0.652-0.549-1.338-0.823-2.127-0.823-0.583 0-1.132 0.206-1.681 0.549-0.549 0.377-0.892 0.857-0.995 1.441-0.137 0.618 0 1.166 0.446 1.578 0.274 0.275 0.72 0.515 1.372 0.789 0.48 0.206 0.789 0.377 0.926 0.515 0.172 0.206 0.24 0.48 0.172 0.823s-0.24 0.618-0.549 0.789c-0.274 0.206-0.583 0.275-0.892 0.275-0.72 0-1.338-0.309-1.887-0.995l-0.171-0.24-0.858 0.926 0.172 0.171c0.274 0.343 0.652 0.618 1.132 0.858 0.515 0.24 0.995 0.378 1.475 0.378 0.618 0 1.166-0.172 1.681-0.549 0.583-0.377 0.961-0.892 1.064-1.544 0.171-0.686 0-1.235-0.446-1.681-0.24-0.24-0.721-0.515-1.407-0.789h-0.034c-0.789-0.343-1.132-0.72-1.064-1.132 0.069-0.309 0.241-0.583 0.549-0.755zM10.224 9.756h-1.166l-0.48 2.161h-1.578l-0.24 1.064h1.578l-0.858 4.083c-0.206 0.926-0.137 1.612 0.24 2.024 0.24 0.343 0.686 0.515 1.269 0.515 1.063 0 1.99-0.584 2.813-1.75l0.24-0.343-1.166-0.274-0.103 0.171c-0.515 0.72-1.063 1.098-1.647 1.098-0.24 0-0.412-0.034-0.515-0.171s-0.137-0.412-0.034-0.789l0.961-4.563h2.539l0.24-1.064h-2.573l0.48-2.161zM18.183 12.501c-0.412-0.515-0.961-0.755-1.681-0.755-1.029 0-1.921 0.446-2.642 1.27-0.618 0.72-1.029 1.612-1.235 2.642-0.343 1.372-0.172 2.401 0.412 3.156 0.446 0.515 1.064 0.789 1.887 0.789 0.72 0 1.647-0.206 2.71-0.652l0.24-0.103-0.275-1.166-0.308 0.171c-0.823 0.446-1.578 0.652-2.23 0.652-0.48 0-0.823-0.137-1.029-0.378-0.343-0.377-0.446-1.063-0.309-2.058h4.769l0.069-0.24c0.309-1.509 0.171-2.642-0.377-3.328zM16.33 12.844c0.378 0 0.686 0.137 0.926 0.446 0.309 0.412 0.412 0.961 0.275 1.681h-3.568c0.172-0.583 0.48-1.064 0.892-1.475 0.48-0.412 0.96-0.652 1.475-0.652zM23.123 11.746c-0.686 0-1.304 0.24-1.818 0.72v-0.755l-1.167 0.171v0.275c0.069 0.686 0 1.509-0.206 2.401l-1.647 7.685h1.201l0.651-3.019c0.427 0.249 0.913 0.379 1.407 0.378 0.72 0 1.441-0.309 2.093-0.858 0.858-0.721 1.407-1.681 1.681-2.95 0.308-1.407 0.171-2.47-0.446-3.225-0.446-0.549-1.029-0.824-1.75-0.824zM21.202 14.079c0.583-0.823 1.167-1.235 1.784-1.235 0.377 0 0.686 0.172 0.926 0.446 0.412 0.48 0.446 1.269 0.24 2.333-0.24 1.201-0.72 2.024-1.475 2.504-0.377 0.24-0.789 0.378-1.201 0.378-0.377 0-0.755-0.171-1.098-0.515l0.823-3.911zM29.092 15.039c-0.823-0.343-1.201-0.72-1.098-1.132 0.069-0.309 0.24-0.583 0.514-0.755 0.275-0.206 0.549-0.309 0.858-0.309 0.515 0 1.029 0.24 1.544 0.652l0.24 0.206 0.686-0.961-0.171-0.172c-0.652-0.549-1.372-0.823-2.127-0.823-0.583 0-1.132 0.206-1.681 0.549-0.549 0.377-0.892 0.857-0.995 1.441-0.137 0.618 0 1.166 0.48 1.578 0.24 0.24 0.686 0.515 1.338 0.789l0.926 0.515c0.171 0.206 0.24 0.48 0.171 0.823s-0.274 0.618-0.549 0.789c-0.275 0.206-0.583 0.275-0.892 0.275-0.72 0-1.338-0.309-1.852-0.995l-0.206-0.24-0.823 0.926 0.137 0.171c0.275 0.343 0.652 0.618 1.132 0.858s0.995 0.378 1.475 0.378c0.618 0 1.166-0.172 1.681-0.549 0.583-0.377 0.96-0.892 1.064-1.544 0.171-0.686 0-1.235-0.412-1.681-0.275-0.24-0.755-0.515-1.441-0.789z"></path>
      </symbol>
      <symbol id="icon-partners-02" viewBox="0 0 32 32">
         <path d="M0.692 10.474h2.009c-0.18-0.123-0.519-0.279-1.076-0.279-0.404 0-0.706 0.113-0.932 0.279zM3.038 10.474h2.101c-0.248-0.166-0.594-0.279-1.078-0.279-0.511 0-0.842 0.156-1.023 0.279zM0.408 10.753h5.031c-0.085-0.108-0.186-0.203-0.3-0.279h-2.101c-0.117 0.079-0.171 0.144-0.171 0.144s-0.050-0.065-0.166-0.144h-2.009c-0.107 0.079-0.203 0.173-0.284 0.279z"></path>
         <path d="M0.24 11.023h5.362c-0.044-0.096-0.099-0.186-0.163-0.269h-5.031c-0.067 0.087-0.122 0.178-0.168 0.269z"></path>
         <path d="M0.125 11.301h5.575c-0.024-0.096-0.057-0.189-0.098-0.279h-5.362c-0.048 0.095-0.085 0.19-0.115 0.279zM0.052 11.58h1.283c0.083-0.096 0.219-0.183 0.441-0.183s0.349 0.087 0.421 0.183h1.422c0.084-0.096 0.223-0.183 0.449-0.183 0.214 0 0.342 0.087 0.418 0.183h1.259c-0.009-0.094-0.024-0.187-0.047-0.279h-5.575c-0.030 0.091-0.054 0.185-0.073 0.279z"></path>
         <path d="M0.019 11.85h1.194v-0.019c0 0 0.020-0.132 0.122-0.25h-1.283c-0.029 0.15-0.034 0.25-0.034 0.25v0.019zM2.293 11.85h1.204v-0.019c0 0 0.021-0.132 0.124-0.25h-1.422c0.054 0.073 0.086 0.16 0.095 0.25v0.019h-0zM4.596 11.85h1.156v-0.019c0 0 0.009-0.1-0.004-0.25h-1.259c0.093 0.118 0.108 0.25 0.108 0.25v0.019zM0.018 12.129h1.195v-0.279h-1.194l-0.001 0.279zM2.293 12.129h1.204v-0.279h-1.204v0.279zM4.596 12.129h1.156v-0.279h-1.156v0.279z"></path>
         <path d="M0.018 12.408h1.196v-0.279h-1.195l-0.001 0.279zM2.293 12.408h1.204v-0.279h-1.204v0.279zM4.596 12.408h1.156v-0.279h-1.156v0.279zM0.017 12.677h1.196v-0.269h-1.196l-0.001 0.269zM2.293 12.677h1.204v-0.269h-1.204v0.269zM4.596 12.677h1.156v-0.269h-1.156v0.269z"></path>
         <path d="M0.017 12.956h1.197v-0.279h-1.196l-0 0.279zM2.293 12.956h1.204v-0.279h-1.204v0.279zM4.596 12.956h1.156v-0.279h-1.156v0.279zM0.016 13.225h1.197v-0.269h-1.197l-0.001 0.269zM2.293 13.225h1.204v-0.269h-1.204v0.269zM4.596 13.225h1.156v-0.269h-1.156v0.269z"></path>
         <path d="M0.015 13.504h1.198v-0.279h-1.197l-0.001 0.279zM2.293 13.504h1.204v-0.279h-1.204v0.279zM4.596 13.504h1.156v-0.279h-1.156v0.279zM0.015 13.783h1.199v-0.279h-1.198l-0.001 0.279zM2.293 13.783h1.204v-0.279h-1.204v0.279zM4.596 13.783h1.156v-0.279h-1.156v0.279z"></path>
         <path d="M0.014 14.052h1.199v-0.269h-1.199l-0.001 0.269zM2.293 14.052h1.204v-0.269h-1.204v0.269zM4.596 14.052h1.156v-0.269h-1.156v0.269z"></path>
         <path d="M0.014 14.331h1.2v-0.279h-1.199l-0.001 0.279zM2.293 14.331h1.204v-0.279h-1.204v0.279zM4.596 14.331h1.156v-0.279h-1.156v0.279z"></path>
         <path d="M0.013 14.61h1.2v-0.279h-1.2l-0.001 0.279zM2.293 14.61h1.204v-0.279h-1.204v0.279zM4.596 14.61h1.156v-0.279h-1.156v0.279z"></path>
         <path d="M0.013 14.879h1.201v-0.269h-1.2l-0 0.269zM2.293 14.879h1.204v-0.269h-1.204v0.269zM4.596 14.879h1.156v-0.269h-1.156v0.269zM0.012 15.158h1.201v-0.279h-1.201l-0.001 0.279zM2.293 15.158h1.204v-0.279h-1.204v0.279zM4.596 15.158h1.156v-0.279h-1.156v0.279zM0.011 15.437h1.202v-0.279h-1.201l-0.001 0.279zM2.293 15.437h1.204v-0.279h-1.204v0.279zM4.596 15.437h1.156v-0.279h-1.156v0.279z"></path>
         <path d="M0.011 15.707h1.203v-0.269h-1.202l-0.001 0.269zM2.293 15.707h1.204v-0.269h-1.204v0.269zM4.596 15.707h1.156v-0.269h-1.156v0.269zM0.010 15.985h1.203v-0.279h-1.203l-0.001 0.279zM2.293 15.985h1.204v-0.279h-1.204v0.279zM4.596 15.985h1.156v-0.279h-1.156v0.279z"></path>
         <path d="M0.009 16.264h1.204v-0.279h-1.203l-0.001 0.279zM2.293 16.264h1.204v-0.279h-1.204v0.279zM4.596 16.264h1.156v-0.279h-1.156v0.279z"></path>
         <path d="M0.009 16.534h1.205v-0.269h-1.204l-0.001 0.269zM2.293 16.534h1.204v-0.269h-1.204v0.269zM4.596 16.534h1.156v-0.269h-1.156v0.269zM0.008 16.813h1.205v-0.279h-1.205l-0.001 0.279zM2.293 16.813h1.204v-0.279h-1.204v0.279zM4.596 16.813h1.156v-0.279h-1.156v0.279z"></path>
         <path d="M0.008 17.082h1.206v-0.269h-1.205l-0.001 0.269zM2.293 17.082h1.204v-0.269h-1.204v0.269zM4.596 17.082h1.156v-0.269h-1.156v0.269zM0.007 17.361h1.206v-0.279h-1.206l-0.001 0.279zM2.293 17.361h1.204v-0.279h-1.204v0.279zM4.596 17.361h1.156v-0.279h-1.156v0.279zM0.006 17.64h1.207v-0.279h-1.206l-0.001 0.279zM2.293 17.64h1.204v-0.279h-1.204v0.279zM4.596 17.64h1.156v-0.279h-1.156v0.279z"></path>
         <path d="M0.006 17.91h1.208v-0.27h-1.207l-0.001 0.27zM2.293 17.91h1.204v-0.27h-1.204v0.27zM4.596 17.91h1.156v-0.27h-1.156v0.27zM0.005 18.188h1.208v-0.279h-1.208l-0 0.279zM2.293 18.188h1.204v-0.279h-1.204v0.279zM4.596 18.188h1.156v-0.279h-1.156v0.279z"></path>
         <path d="M0.005 18.467h1.209v-0.279h-1.208l-0.001 0.279zM2.293 18.467h1.204v-0.279h-1.204v0.279zM4.596 18.467h1.156v-0.279h-1.156v0.279zM0.004 18.736h1.209v-0.269h-1.209l-0.001 0.269zM2.293 18.736h1.204v-0.269h-1.204v0.269zM4.596 18.736h1.156v-0.269h-1.156v0.269z"></path>
         <path d="M0.004 19.016h1.21v-0.279h-1.209l-0.001 0.279zM2.293 19.016h1.204v-0.279h-1.204v0.279zM4.596 19.016h1.156v-0.279h-1.156v0.279z"></path>
         <path d="M0.003 19.294h1.21v-0.279h-1.21l-0.001 0.279zM2.293 19.294h1.204v-0.279h-1.204v0.279zM4.596 19.294h1.156v-0.279h-1.156v0.279zM0.002 19.563h1.211v-0.269h-1.21l-0.001 0.269zM2.293 19.563h1.204v-0.269h-1.204v0.269zM4.596 19.563h1.156v-0.269h-1.156v0.269z"></path>
         <path d="M0.002 19.843h1.212v-0.279h-1.211l-0.001 0.279zM2.293 19.843h1.204v-0.279h-1.204v0.279zM4.596 19.843h1.156v-0.279h-1.156v0.279zM0.001 20.122h1.212v-0.279h-1.212l-0.001 0.279zM2.293 20.122h1.204v-0.279h-1.204v0.279zM4.596 20.122h1.156v-0.279h-1.156v0.279zM0.001 20.391h1.213v-0.269h-1.212l-0.001 0.269zM2.293 20.391h1.204v-0.269h-1.204v0.269zM4.596 20.391h1.156v-0.269h-1.156v0.269z"></path>
         <path d="M0 20.669h1.213v-0.279h-1.213l-0.001 0.279zM2.293 20.669h1.204v-0.279h-1.204v0.279zM4.596 20.669h1.156v-0.279h-1.156v0.279z"></path>
         <path d="M14.647 10.080h0.158l-0.158-0.279v0.279zM14.647 10.368h0.321l-0.163-0.289h-0.158v0.289z"></path>
         <path d="M14.647 10.657h0.484l-0.163-0.289h-0.321v0.289zM16.988 10.657h1.127v-0.279h-1.127v0.279z"></path>
         <path d="M14.647 10.946h0.648l-0.163-0.289h-0.484v0.289zM16.988 10.946h1.127v-0.289h-1.127v0.289z"></path>
         <path d="M14.647 11.225h0.806l-0.158-0.279h-0.648v0.279zM16.988 11.225h1.127v-0.279h-1.127v0.279z"></path>
         <path d="M14.647 11.513h0.969l-0.163-0.289h-0.806v0.289zM16.988 11.513h1.127v-0.289h-1.127v0.289zM14.647 11.802h1.132l-0.163-0.289h-0.969v0.289zM16.988 11.802h1.127v-0.289h-1.127v0.289z"></path>
         <path d="M14.647 12.090h1.296l-0.163-0.288h-1.132v0.288zM16.988 12.090h1.127v-0.288h-1.127v0.288zM14.647 12.369h1.453l-0.158-0.279h-1.296v0.279h0zM16.988 12.369h1.127v-0.279h-1.127v0.279z"></path>
         <path d="M14.647 12.658h1.617l-0.163-0.289h-1.453v0.289zM16.988 12.658h1.127v-0.289h-1.127v0.289zM14.647 12.946h1.78l-0.164-0.289h-1.617v0.289zM16.988 12.946h1.127v-0.289h-1.127v0.289z"></path>
         <path d="M14.647 13.235h1.944l-0.163-0.289h-1.78v0.289zM16.988 13.235h1.127v-0.289h-1.127v0.289z"></path>
         <path d="M14.647 13.514h2.101l-0.158-0.279h-1.943v0.279zM16.988 13.514h1.127v-0.279h-1.127v0.279zM14.647 13.802h2.264l-0.163-0.289h-2.101v0.289zM16.988 13.802h1.127v-0.289h-1.127v0.289z"></path>
         <path d="M14.647 14.091h3.468v-0.289h-1.127v0.135l-0.076-0.135h-2.264v0.289zM14.647 14.379h1.108v-0.26l0.167 0.26h2.193v-0.289h-3.468v0.289z"></path>
         <path d="M14.647 14.658h1.108v-0.279h-1.108v0.279zM16.102 14.658h2.014v-0.279h-2.193l0.179 0.279z"></path>
         <path d="M14.647 14.947h1.108v-0.289h-1.108v0.289zM16.288 14.947h1.828v-0.289h-2.014l0.186 0.289z"></path>
         <path d="M14.647 15.235h1.108v-0.289h-1.108v0.289zM16.473 15.235h1.642v-0.289h-1.828l0.186 0.289z"></path>
         <path d="M14.647 15.514h1.108v-0.279h-1.108v0.279zM16.652 15.514h1.463v-0.279h-1.642l0.179 0.279z"></path>
         <path d="M14.647 15.803h1.108v-0.289h-1.108v0.289zM16.838 15.803h1.278v-0.289h-1.463l0.186 0.289z"></path>
         <path d="M14.647 16.091h1.108v-0.289h-1.108v0.289zM17.024 16.091h1.092v-0.289h-1.278l0.186 0.289zM14.647 16.38h1.108v-0.289h-1.108v0.289zM17.036 16.38h1.080v-0.289h-1.092l0.012 0.019v0.269h0zM14.647 16.659h1.108v-0.279h-1.108v0.279zM17.036 16.659h1.080v-0.279h-1.080v0.279z"></path>
         <path d="M14.647 16.947h1.108v-0.289h-1.108v0.289zM17.036 16.947h1.080v-0.289h-1.080v0.289zM14.647 17.236h1.108v-0.289h-1.108v0.289zM17.036 17.236h1.080v-0.289h-1.080v0.289z"></path>
         <path d="M14.647 17.524h1.108v-0.289h-1.108v0.289zM17.036 17.524h1.080v-0.289h-1.080v0.289z"></path>
         <path d="M14.647 17.803h1.108v-0.279h-1.108v0.279zM17.036 17.803h1.080v-0.279h-1.080v0.279zM14.647 18.092h1.108v-0.289h-1.108v0.289zM17.036 18.092h1.080v-0.289h-1.080v0.289z"></path>
         <path d="M14.647 18.381h1.108v-0.289h-1.108v0.289zM17.036 18.381h1.080v-0.289h-1.080v0.289z"></path>
         <path d="M14.647 18.669h1.108v-0.289h-1.108v0.289zM17.036 18.669h1.080v-0.289h-1.080v0.289zM14.647 18.948h1.108v-0.279h-1.108v0.279zM17.036 18.948h1.080v-0.279h-1.080v0.279z"></path>
         <path d="M14.647 19.237h1.108v-0.289h-1.108v0.289zM17.036 19.237h1.080v-0.289h-1.080v0.289z"></path>
         <path d="M14.647 19.525h1.108v-0.289h-1.108v0.289zM17.036 19.525h1.080v-0.289h-1.080v0.289z"></path>
         <path d="M14.647 19.814h1.108v-0.289h-1.108v0.289zM17.036 19.814h1.080v-0.289h-1.080v0.289z"></path>
         <path d="M14.647 20.093h1.108v-0.279h-1.108v0.279zM17.036 20.093h1.080v-0.279h-1.080v0.279zM14.647 20.381h1.108v-0.289h-1.108v0.289zM17.036 20.381h1.080v-0.289h-1.080v0.289z"></path>
         <path d="M14.647 20.67h1.108v-0.289h-1.108v0.289zM17.036 20.67h1.080v-0.289h-1.080v0.289z"></path>
         <path d="M24.788 8.762h0.885v-0.404c0 0-0.356 0.122-0.885 0.404z"></path>
         <path d="M24.104 9.166h1.569v-0.404h-0.885c-0.234 0.125-0.462 0.259-0.684 0.404z"></path>
         <path d="M23.544 9.561h2.13v-0.394h-1.569c-0.192 0.125-0.379 0.256-0.561 0.394zM23.049 9.965h2.624v-0.404h-2.13c-0.169 0.129-0.334 0.264-0.494 0.404zM22.619 10.369h2.628c0.261-0.123 0.426-0.173 0.426-0.173v-0.231h-2.624c-0.148 0.13-0.291 0.264-0.43 0.404z"></path>
         <path d="M22.243 10.772h2.287c0.229-0.152 0.469-0.287 0.717-0.404h-2.628c-0.13 0.131-0.255 0.265-0.376 0.404zM21.914 11.176h2.074c0.173-0.145 0.354-0.28 0.542-0.404h-2.287c-0.114 0.131-0.224 0.266-0.329 0.404z"></path>
         <path d="M21.625 11.58h1.927c0.138-0.142 0.284-0.277 0.436-0.404h-2.074c-0.101 0.132-0.197 0.266-0.289 0.404zM21.378 11.975h1.823c0.111-0.137 0.228-0.268 0.35-0.394h-1.927c-0.085 0.127-0.167 0.258-0.247 0.394z"></path>
         <path d="M21.158 12.379h1.744c0.094-0.139 0.194-0.274 0.299-0.404h-1.823c-0.077 0.133-0.151 0.267-0.22 0.404zM20.968 12.783h1.686c0.080-0.142 0.163-0.276 0.248-0.404h-1.744c-0.067 0.131-0.13 0.265-0.191 0.404z"></path>
         <path d="M20.805 13.187h1.644c0.063-0.137 0.132-0.272 0.206-0.404h-1.686c-0.058 0.133-0.112 0.268-0.163 0.404z"></path>
         <path d="M20.668 13.59h1.612c0.052-0.14 0.108-0.275 0.168-0.404h-1.644c-0.048 0.132-0.094 0.266-0.137 0.404zM20.557 13.985h1.59c0.041-0.136 0.086-0.267 0.134-0.394h-1.612c-0.040 0.13-0.077 0.262-0.111 0.394z"></path>
         <path d="M20.465 14.389h1.575c0.032-0.139 0.068-0.274 0.107-0.404h-1.59c-0.034 0.134-0.065 0.269-0.092 0.404zM20.394 14.793h1.565c0.024-0.139 0.051-0.273 0.081-0.404h-1.575c-0.026 0.132-0.050 0.267-0.071 0.404z"></path>
         <path d="M20.344 15.197h1.558c0.016-0.138 0.035-0.273 0.057-0.404h-1.565c-0.020 0.134-0.037 0.269-0.051 0.404zM20.31 15.601h1.557c0.008-0.138 0.020-0.273 0.035-0.404h-1.558c-0.014 0.134-0.025 0.269-0.034 0.404zM20.296 15.995h1.557c0.002-0.134 0.006-0.266 0.014-0.394h-1.557c-0.007 0.131-0.012 0.263-0.014 0.394z"></path>
         <path d="M20.297 16.399h1.56c-0.004-0.096-0.006-0.192-0.006-0.289 0-0.039 0.001-0.077 0.001-0.115h-1.557c-0.001 0.054-0.002 0.109-0.002 0.164 0 0.081 0.002 0.161 0.003 0.24zM24.116 16.399h1.557v-0.24h-1.557v0.24z"></path>
         <path d="M20.318 16.803h1.568c-0.013-0.134-0.023-0.269-0.028-0.404h-1.56c0.004 0.137 0.011 0.272 0.021 0.404zM24.116 16.803h1.557v-0.404h-1.557v0.404z"></path>
         <path d="M20.356 17.207h1.582c-0.022-0.134-0.039-0.269-0.052-0.404h-1.568c0.010 0.137 0.022 0.272 0.038 0.404zM24.116 17.207h1.557v-0.404h-1.557v0.404z"></path>
         <path d="M20.415 17.611h1.601c-0.030-0.134-0.056-0.269-0.078-0.404h-1.582c0.017 0.137 0.037 0.272 0.060 0.404zM24.116 17.611h1.557v-0.404h-1.557v0.404z"></path>
         <path d="M20.496 18.015h1.627c-0.040-0.133-0.075-0.268-0.106-0.404h-1.601c0.024 0.137 0.051 0.272 0.081 0.404zM24.116 18.015h1.557v-0.404h-1.557v0.404z"></path>
         <path d="M20.596 18.409h1.659c-0.049-0.13-0.093-0.261-0.133-0.394h-1.626c0.030 0.134 0.064 0.266 0.1 0.394zM24.116 18.409h1.557v-0.394h-1.557v0.394zM20.723 18.814h1.7c-0.061-0.133-0.117-0.268-0.168-0.404h-1.659c0.039 0.138 0.081 0.273 0.127 0.404zM24.116 18.814h1.557v-0.404h-1.557v0.404z"></path>
         <path d="M20.877 19.217h1.751c-0.073-0.132-0.141-0.267-0.205-0.404h-1.7c0.048 0.138 0.1 0.273 0.154 0.404zM24.116 19.217h1.557v-0.404h-1.557v0.404z"></path>
         <path d="M21.060 19.621h1.813c-0.087-0.131-0.169-0.266-0.245-0.404h-1.751c0.057 0.138 0.119 0.273 0.183 0.404zM24.116 19.621h1.557v-0.404h-1.557v0.404z"></path>
         <path d="M21.274 20.025h1.893c-0.103-0.13-0.201-0.265-0.293-0.404h-1.813c0.068 0.139 0.14 0.273 0.214 0.404zM24.116 20.025h1.557v-0.404h-1.557v0.404z"></path>
         <path d="M21.516 20.42h1.993c-0.12-0.126-0.234-0.258-0.342-0.394h-1.893c0.076 0.134 0.157 0.265 0.242 0.394zM24.116 20.42h1.557v-0.394h-1.557v0.394z"></path>
         <path d="M21.801 20.824h2.139c-0.152-0.126-0.296-0.261-0.432-0.404h-1.993c0.091 0.138 0.186 0.273 0.286 0.404zM24.116 20.824h1.557v-0.404h-1.557v0.404z"></path>
         <path d="M22.13 21.228h3.544v-0.404h-1.557v0.135c0 0-0.066-0.044-0.175-0.135h-2.139c0.105 0.138 0.214 0.273 0.328 0.404z"></path>
         <path d="M22.507 21.632h3.166v-0.404h-3.544c0.123 0.142 0.25 0.276 0.377 0.404z"></path>
         <path d="M22.942 22.036h2.731v-0.404h-3.166c0.14 0.14 0.286 0.275 0.436 0.404z"></path>
         <path d="M23.447 22.439h2.226v-0.404h-2.731c0.163 0.141 0.331 0.276 0.504 0.404zM24.024 22.834h1.649v-0.395h-2.226c0.187 0.139 0.38 0.27 0.577 0.395zM24.736 23.238h0.938v-0.404h-1.649c0.256 0.16 0.497 0.295 0.711 0.404z"></path>
         <path d="M25.673 23.642v-0.404h-0.938c0.558 0.284 0.938 0.404 0.938 0.404z"></path>
         <path d="M28.32 16.553h1.137v-0.077h-1.137v0.077zM30.785 16.553h1.185v-0.077h-1.185v0.077zM28.32 16.832h1.137v-0.279h-1.137v0.279zM30.785 16.832h1.185v-0.279h-1.185v0.279z"></path>
         <path d="M28.32 17.111h1.137v-0.279h-1.137v0.279zM30.785 17.111h1.185v-0.279h-1.185v0.279z"></path>
         <path d="M28.32 17.389h1.137v-0.279h-1.137v0.279zM30.785 17.389h1.185v-0.279h-1.185v0.279zM28.32 17.669h1.137v-0.279h-1.137v0.279zM30.785 17.669h1.185v-0.279h-1.185v0.279z"></path>
         <path d="M28.32 17.948h1.137v-0.279h-1.137v0.279zM30.785 17.948h1.185v-0.279h-1.185v0.279zM28.32 18.227h1.137v-0.279h-1.137v0.279zM30.785 18.227h1.185v-0.279h-1.185v0.279z"></path>
         <path d="M28.32 18.505h1.137v-0.279h-1.137v0.279zM30.785 18.505h1.185v-0.279h-1.185v0.279zM28.32 18.794h1.137v-0.289h-1.137v0.289zM30.785 18.794h1.185v-0.289h-1.185v0.289zM28.32 19.073h1.137v-0.279h-1.137v0.279zM30.785 19.073h1.185v-0.279h-1.185v0.279z"></path>
         <path d="M28.348 19.352h1.233c-0.101-0.14-0.125-0.279-0.125-0.279h-1.137c0 0-0.002 0.112 0.028 0.279zM30.735 19.352h1.215c0.014-0.093 0.019-0.169 0.020-0.218v-0.062h-1.185c0 0 0.014 0.139-0.051 0.279zM28.42 19.631h1.635c-0.24-0.034-0.386-0.157-0.473-0.279h-1.233c0.015 0.082 0.037 0.177 0.072 0.279zM30.33 19.631h1.556c0.032-0.101 0.051-0.197 0.063-0.279h-1.215c-0.056 0.122-0.17 0.244-0.404 0.279z"></path>
         <path d="M28.541 19.91h3.233c0.049-0.095 0.085-0.189 0.112-0.279h-1.556c-0.091 0.013-0.184 0.013-0.275 0h-1.635c0.030 0.090 0.070 0.185 0.121 0.279z"></path>
         <path d="M28.735 20.189h2.854c0.072-0.086 0.134-0.179 0.185-0.279h-3.233c0.054 0.1 0.119 0.193 0.194 0.279zM29.062 20.468h2.209c0.119-0.076 0.226-0.17 0.318-0.279h-2.854c0.095 0.108 0.205 0.202 0.327 0.279z"></path>
         <path d="M31.271 20.467h-2.209c0.265 0.166 0.624 0.279 1.111 0.279 0.485 0 0.84-0.112 1.098-0.279z"></path>
         <path d="M29.056 10.397h2.186c-0.265-0.167-0.625-0.279-1.116-0.279-0.467-0-0.813 0.112-1.070 0.279zM28.739 10.676h2.829c-0.094-0.109-0.204-0.203-0.325-0.279h-2.186c-0.119 0.077-0.226 0.171-0.317 0.279z"></path>
         <path d="M28.549 10.955h3.209c-0.053-0.1-0.117-0.193-0.19-0.279h-2.829c-0.073 0.086-0.137 0.179-0.19 0.279zM28.428 11.234h3.448c-0.031-0.096-0.071-0.19-0.118-0.279h-3.209c-0.048 0.089-0.088 0.183-0.121 0.279zM28.354 11.513h1.206c0.089-0.13 0.252-0.25 0.556-0.25 0.308 0 0.475 0.12 0.564 0.25h1.264c-0.016-0.095-0.039-0.188-0.068-0.279h-3.448c-0.031 0.091-0.056 0.184-0.074 0.279z"></path>
         <path d="M28.321 11.792h1.139c0.011-0.1 0.046-0.195 0.101-0.279h-1.206c-0.024 0.127-0.031 0.227-0.034 0.279zM30.783 11.792h1.188v-0.022c-0.003-0.086-0.011-0.172-0.026-0.257h-1.264c0.074 0.107 0.096 0.221 0.102 0.279zM28.32 12.080h1.137v-0.25c0 0 0-0.014 0.003-0.038h-1.139c-0.001 0.025-0.001 0.038-0.001 0.038v0.25zM30.785 12.080h1.185v-0.289h-1.188c0.003 0.024 0.003 0.038 0.003 0.038v0.25h-0z"></path>
         <path d="M28.32 12.36h1.137v-0.279h-1.137v0.279zM30.785 12.36h1.185v-0.279h-1.185v0.279zM28.32 12.638h1.137v-0.279h-1.137v0.279zM30.785 12.638h1.185v-0.279h-1.185v0.279z"></path>
         <path d="M28.32 12.917h1.137v-0.279h-1.137v0.279zM30.785 12.917h1.185v-0.279h-1.185v0.279zM28.32 13.196h1.137v-0.279h-1.137v0.279zM30.785 13.196h1.185v-0.279h-1.185v0.279z"></path>
         <path d="M28.32 13.475h1.137v-0.279h-1.137v0.279zM30.785 13.475h1.185v-0.279h-1.185v0.279zM28.32 13.754h1.137v-0.279h-1.137v0.279zM30.785 13.754h1.185v-0.279h-1.185v0.279zM28.32 14.033h1.137v-0.279h-1.137v0.279zM30.785 14.033h1.185v-0.279h-1.185v0.279z"></path>
         <path d="M28.32 14.312h1.137v-0.279h-1.137v0.279zM30.785 14.312h1.185v-0.279h-1.185v0.279z"></path>
         <path d="M28.32 14.591h1.137v-0.279h-1.137v0.279zM30.785 14.591h1.185v-0.279h-1.185v0.279z"></path>
         <path d="M28.32 14.87h1.137v-0.279h-1.137v0.279zM30.785 14.87h1.185v-0.279h-1.185v0.279zM28.32 15.149h1.137v-0.279h-1.137v0.279zM30.785 15.149h1.185v-0.279h-1.185v0.279zM28.32 15.437h1.137v-0.289h-1.137v0.289zM30.785 15.437h1.185v-0.289h-1.185v0.289z"></path>
         <path d="M28.32 15.716h1.137v-0.279h-1.137v0.279zM30.785 15.716h1.185v-0.279h-1.185v0.279zM28.32 15.995h1.137v-0.279h-1.137v0.279zM30.785 15.995h1.185v-0.279h-1.185v0.279z"></path>
         <path d="M28.32 16.274h1.137v-0.279h-1.137v0.279zM30.785 16.274h1.185v-0.279h-1.185v0.279zM31.97 16.476v-0.202h-1.185v0.202h1.185zM29.457 16.274h-1.137v0.202h1.137v-0.202z"></path>
         <path d="M9.257 10.474h2.203c-0.258-0.166-0.614-0.279-1.103-0.279-0.487 0-0.841 0.113-1.1 0.279zM8.939 10.753h2.838c-0.091-0.109-0.198-0.203-0.317-0.279h-2.203c-0.12 0.076-0.227 0.17-0.318 0.279z"></path>
         <path d="M8.759 11.023h3.195c-0.049-0.096-0.109-0.186-0.178-0.269h-2.838c-0.070 0.083-0.13 0.173-0.18 0.269z"></path>
         <path d="M8.644 11.301h3.422c-0.029-0.096-0.066-0.19-0.112-0.279h-3.195c-0.046 0.089-0.085 0.183-0.115 0.279zM8.58 11.58h1.257c0.087-0.117 0.246-0.231 0.539-0.231 0.302 0 0.462 0.114 0.546 0.231h1.205c-0.013-0.094-0.034-0.188-0.061-0.279h-3.422c-0.032 0.102-0.052 0.198-0.064 0.279z"></path>
         <path d="M8.561 11.85h1.175v-0.019c0 0 0.010-0.127 0.101-0.25h-1.257c-0.023 0.15-0.019 0.25-0.019 0.25v0.019zM11.016 11.85h1.127v-0.079c-0.002-0.064-0.007-0.127-0.016-0.19h-1.205c0.089 0.123 0.094 0.25 0.094 0.25v0.019zM8.561 12.129h1.175v-0.279h-1.175v0.279zM11.016 12.129h1.127v-0.279h-1.127v0.279z"></path>
         <path d="M8.561 12.408h1.175v-0.279h-1.175v0.279zM11.016 12.408h1.127v-0.279h-1.127v0.279zM8.561 12.677h1.175v-0.269h-1.175v0.269zM11.016 12.677h1.127v-0.269h-1.127v0.269z"></path>
         <path d="M8.561 12.956h1.175v-0.279h-1.175v0.279zM11.016 12.956h1.127v-0.279h-1.127v0.279zM8.561 13.225h1.175v-0.269h-1.175v0.269zM11.016 13.225h1.127v-0.269h-1.127v0.269z"></path>
         <path d="M8.561 13.504h1.175v-0.279h-1.175v0.279zM11.016 13.504h1.127v-0.279h-1.127v0.279zM8.561 13.783h1.175v-0.279h-1.175v0.279zM11.016 13.783h1.127v-0.279h-1.127v0.279z"></path>
         <path d="M8.561 14.052h1.175v-0.269h-1.175v0.269zM11.016 14.052h1.127v-0.269h-1.127v0.269z"></path>
         <path d="M8.561 14.331h1.175v-0.279h-1.175v0.279zM11.016 14.331h1.127v-0.279h-1.127v0.279z"></path>
         <path d="M8.561 14.61h1.175v-0.279h-1.175v0.279zM11.016 14.61h1.127v-0.279h-1.127v0.279z"></path>
         <path d="M8.561 14.879h1.175v-0.269h-1.175v0.269zM11.016 14.879h1.127v-0.269h-1.127v0.269zM8.561 15.158h1.175v-0.279h-1.175v0.279zM11.016 15.158h1.127v-0.279h-1.127v0.279zM8.561 15.437h1.175v-0.279h-1.175v0.279zM11.016 15.437h1.127v-0.279h-1.127v0.279z"></path>
         <path d="M8.561 15.707h1.175v-0.269h-1.175v0.269zM11.016 15.707h1.127v-0.269h-1.127v0.269zM8.561 15.985h1.175v-0.279h-1.175v0.279zM11.016 15.985h1.127v-0.279h-1.127v0.279z"></path>
         <path d="M8.561 16.264h1.175v-0.279h-1.175v0.279zM11.016 16.264h1.127v-0.279h-1.127v0.279z"></path>
         <path d="M8.561 16.534h1.175v-0.269h-1.175v0.269zM11.016 16.534h1.127v-0.269h-1.127v0.269zM8.561 16.813h1.175v-0.279h-1.175v0.279zM11.016 16.813h1.127v-0.279h-1.127v0.279z"></path>
         <path d="M8.561 17.082h1.175v-0.269h-1.175v0.269zM11.017 17.082h1.127v-0.269h-1.127v0.269zM8.561 17.361h1.175v-0.279h-1.175v0.279zM11.017 17.361h1.127v-0.279h-1.127v0.279zM7.083 17.64h5.061v-0.279h-1.127v0.067h-1.28v-0.067h-1.175v0.067h-1.615l0.137 0.211z"></path>
         <path d="M7.258 17.91h4.886v-0.27h-5.061l0.175 0.27zM7.439 18.188h4.705v-0.279h-4.886l0.181 0.279z"></path>
         <path d="M7.62 18.467h4.524v-0.279h-4.705l0.181 0.279zM8.609 18.737h1.108v-0.154h1.328v0.154h1.099v-0.269h-4.524l0.062 0.096h0.927v0.173z"></path>
         <path d="M8.609 19.016h1.108v-0.279h-1.108v0.279zM11.045 19.016h1.099v-0.279h-1.099v0.279z"></path>
         <path d="M8.609 19.294h1.108v-0.279h-1.108v0.279zM11.045 19.294h1.099v-0.279h-1.099v0.279zM8.609 19.563h1.108v-0.269h-1.108v0.269zM11.045 19.563h1.099v-0.269h-1.099v0.269z"></path>
         <path d="M8.609 19.843h1.108v-0.279h-1.108v0.279zM11.045 19.843h1.099v-0.279h-1.099v0.279zM8.609 20.122h1.108v-0.279h-1.108v0.279zM11.045 20.122h1.099v-0.279h-1.099v0.279zM8.609 20.391h1.108v-0.269h-1.108v0.269zM11.045 20.391h1.099v-0.269h-1.099v0.269z"></path>
         <path d="M8.609 20.669h1.108v-0.279h-1.108v0.279zM11.045 20.669h1.099v-0.279h-1.099v0.279z"></path>
      </symbol>
      <symbol id="icon-partners-03" viewBox="0 0 32 32">
         <path d="M13.671 22.269c-1.378 1.132-3.199 1.821-5.119 1.821-4.528 0-8.158-3.642-8.158-8.109 0-4.479 3.63-8.121 8.158-8.121 3.002 0 5.611 1.624 7.038 4.085 0.197 0.049 0.345 0.098 0.541 0.148-1.427-2.756-4.282-4.627-7.58-4.627-4.725 0-8.552 3.79-8.552 8.515 0 4.713 3.827 8.552 8.552 8.552 2.215 0 4.233-0.886 5.759-2.264h-0.64z"></path>
         <path d="M9.635 21.876h22.333v-3.347h-22.333v3.347z"></path>
         <path d="M10.767 12.536l-0.098 0.443h-1.083c-0.295 3.15-0.492 5.697-0.689 6.878-0.443 2.116-2.412 3.298-3.691 3.298-0.443 0-0.984-0.197-0.984-0.738 0-0.295 0.246-0.541 0.541-0.541 0.443 0 0.787 0.344 1.034 0.738 0.689-0.394 0.788-0.738 1.083-2.116 0.148-0.64 0.541-5.205 0.738-7.518h-0.886l0.098-0.443h0.886l0.098-0.787c0.492-2.904 2.609-3.248 3.396-3.248 0.394 0 1.181 0.197 1.181 0.738 0 0.344-0.295 0.492-0.591 0.492-0.541 0-0.788-0.295-1.034-0.738-0.886 0.394-1.034 2.559-1.132 3.544l1.132 0zM10.668 16.572c0-2.313 1.477-4.331 3.987-4.331 1.575 0 2.461 0.689 2.461 2.215 0 2.313-1.476 4.27-3.987 4.27-1.575 0-2.461-0.689-2.461-2.154zM15.098 14.8c0-0.591-0.049-2.018-0.935-2.018-1.28 0-1.477 2.51-1.477 3.445 0 0.541 0.049 2.006 0.935 2.006 1.28-0 1.477-2.498 1.477-3.433zM17.657 16.572c0-2.313 1.526-4.331 4.036-4.331 1.526 0 2.449 0.689 2.449 2.215 0 2.313-1.514 4.27-4.024 4.27-1.526 0-2.461-0.689-2.461-2.154zM22.136 14.8c0-0.591-0.049-2.018-0.935-2.018-1.329 0-1.476 2.51-1.476 3.445 0 0.541 0 2.006 0.886 2.006 1.329-0 1.526-2.498 1.526-3.433zM31.771 17.987c-0.886 0.394-1.969 0.738-2.707 0.738-0.394 0-0.345-0.591-0.345-0.837 0-0.295 0-0.689 0.099-1.464l-0.049-0.049c-0.492 1.021-1.476 2.35-2.756 2.35-0.985 0-1.428-1.034-1.428-1.907 0-2.166 1.723-4.479 4.184-4.479h0.492c0.197-1.526 0.197-2.166 0.197-2.658 0-0.148 0-0.295-0.148-0.295s-0.344 0.049-0.837 0.197l-0.098-0.394c0.984-0.344 2.067-0.541 3.051-0.591 0.099 0 0.148 0 0.148 0.197 0 1.28-0.984 7.973-0.984 8.65 0 0.148 0 0.394 0.197 0.394 0.098 0 0.443-0.099 0.837-0.246l0.148 0.394zM28.571 15.883c0.345-0.837 0.443-1.674 0.64-2.953-0.099-0.049-0.197-0.049-0.246-0.049-1.526 0-2.264 2.264-2.264 3.495 0 0.295 0.049 1.021 0.492 1.021 0.64 0 1.181-1.021 1.378-1.513z"></path>
         <path d="M10.964 19.316h0.541l0.689 1.034v-1.034h0.443v1.969h-0.394l-0.837-1.132v1.132h-0.443v-1.969zM13.917 19.316h1.526v0.394h-0.935v0.344h0.591v0.443h-0.591v0.344h0.935v0.443h-1.526v-1.969zM17.067 19.71h-0.541v-0.394h1.673v0.394h-0.541v1.575h-0.59v-1.575zM19.183 19.316h0.59l0.246 1.034h0.049l0.246-1.034h0.493l0.246 1.034h0.049l0.246-1.034h0.443l-0.492 1.969h-0.492l-0.296-1.083-0.295 1.083h-0.492l-0.541-1.969zM23.797 21.334c-0.578 0-0.972-0.394-0.972-1.034s0.394-1.034 0.972-1.034c0.591 0 0.935 0.394 0.935 1.034s-0.344 1.034-0.935 1.034zM23.453 20.3c0 0.541 0.148 0.64 0.344 0.64s0.344-0.099 0.344-0.64c0-0.541-0.147-0.64-0.344-0.64-0.246 0-0.344 0.148-0.344 0.64zM25.914 19.316h0.985c0.64 0 0.787 0.295 0.787 0.541s-0.148 0.443-0.394 0.492l0.394 0.935h-0.64l-0.295-0.837h-0.246v0.837h-0.591v-1.969zM26.505 20.104h0.295c0.147 0 0.295-0.099 0.295-0.197 0-0.147-0.099-0.246-0.295-0.246h-0.295v0.443zM28.916 19.316h0.591v0.788l0.59-0.788h0.541l-0.492 0.64 0.59 1.329h-0.59l-0.394-0.837-0.246 0.345v0.492h-0.591v-1.969z"></path>
      </symbol>
      <symbol id="icon-partners-04" viewBox="0 0 32 32">
         <path d="M28.013 16.921c-0.125 0-0.219-0.031-0.291-0.104-0.062-0.062-0.104-0.167-0.104-0.291v-3.84c0-0.125 0.031-0.229 0.104-0.291s0.166-0.094 0.291-0.094h0.697c0.156 0 0.291 0.010 0.406 0.021 0.114 0.021 0.219 0.052 0.291 0.114 0.083 0.062 0.135 0.146 0.177 0.271 0.042 0.114 0.062 0.281 0.062 0.479v2.851c0 0.26-0.031 0.447-0.104 0.572s-0.177 0.208-0.312 0.25c-0.135 0.042-0.312 0.062-0.52 0.052l-0.697 0.010zM25.776 10.064c-0.125 0.010-0.229 0.042-0.291 0.104s-0.094 0.166-0.094 0.291v8.304c0 0.125 0.031 0.219 0.104 0.291 0.062 0.062 0.167 0.104 0.291 0.104h2.893c0.604 0 1.124-0.062 1.54-0.187s0.749-0.323 0.999-0.572c0.25-0.25 0.437-0.583 0.541-0.978 0.114-0.395 0.167-0.853 0.167-1.384v-2.851c0-0.531-0.052-0.989-0.167-1.384s-0.291-0.718-0.541-0.968c-0.25-0.26-0.583-0.447-0.999-0.572s-0.926-0.187-1.54-0.187l-2.903-0.010zM21.988 15.548c0 0.25-0.010 0.479-0.021 0.676-0.021 0.198-0.062 0.364-0.125 0.51s-0.167 0.25-0.312 0.323c-0.135 0.073-0.323 0.114-0.562 0.114s-0.427-0.042-0.562-0.114c-0.146-0.073-0.239-0.177-0.312-0.323-0.062-0.135-0.104-0.312-0.125-0.51s-0.031-0.427-0.021-0.676v-1.873c0-0.25 0.010-0.479 0.021-0.676 0.021-0.198 0.062-0.364 0.125-0.51s0.166-0.25 0.312-0.323c0.135-0.073 0.323-0.114 0.562-0.114s0.427 0.042 0.562 0.114c0.146 0.073 0.239 0.177 0.312 0.323 0.062 0.135 0.104 0.312 0.125 0.51s0.021 0.427 0.021 0.676v1.873zM24.215 12.988c0-0.146-0.010-0.323-0.031-0.531s-0.062-0.427-0.135-0.666c-0.073-0.239-0.177-0.468-0.312-0.697-0.146-0.229-0.333-0.437-0.572-0.624s-0.541-0.343-0.905-0.458-0.801-0.166-1.311-0.177c-0.51 0-0.947 0.062-1.311 0.177s-0.666 0.271-0.905 0.458c-0.239 0.187-0.427 0.395-0.572 0.624s-0.25 0.468-0.312 0.697c-0.073 0.239-0.114 0.458-0.135 0.666s-0.031 0.385-0.031 0.531v3.247c0 0.146 0.010 0.323 0.031 0.531s0.062 0.427 0.135 0.666c0.062 0.239 0.177 0.468 0.312 0.697 0.146 0.229 0.333 0.437 0.572 0.635 0.239 0.187 0.541 0.343 0.905 0.447 0.364 0.114 0.801 0.177 1.311 0.177s0.947-0.062 1.311-0.177c0.364-0.114 0.666-0.26 0.905-0.447s0.427-0.395 0.572-0.635c0.146-0.229 0.25-0.468 0.312-0.697 0.062-0.239 0.114-0.458 0.135-0.666s0.031-0.385 0.031-0.531v-3.247zM14.423 15.548c0 0.25-0.010 0.479-0.021 0.676-0.021 0.198-0.062 0.364-0.125 0.51s-0.167 0.25-0.312 0.323c-0.135 0.073-0.323 0.114-0.562 0.114s-0.427-0.042-0.562-0.114c-0.146-0.073-0.239-0.177-0.312-0.323-0.062-0.135-0.104-0.312-0.125-0.51s-0.031-0.427-0.021-0.676v-1.873c0-0.25 0.010-0.479 0.021-0.676 0.021-0.198 0.062-0.364 0.125-0.51s0.166-0.25 0.312-0.323c0.135-0.073 0.323-0.114 0.562-0.114s0.427 0.042 0.562 0.114c0.146 0.073 0.239 0.177 0.312 0.323 0.062 0.135 0.104 0.312 0.125 0.51s0.021 0.427 0.021 0.676v1.873zM16.66 12.988c0-0.146-0.010-0.323-0.031-0.531s-0.062-0.427-0.135-0.666c-0.073-0.239-0.177-0.468-0.312-0.697-0.146-0.229-0.333-0.437-0.572-0.624s-0.541-0.343-0.905-0.458c-0.364-0.114-0.801-0.166-1.311-0.177-0.51 0-0.947 0.062-1.311 0.177s-0.666 0.271-0.905 0.458-0.427 0.395-0.572 0.624c-0.146 0.229-0.25 0.468-0.312 0.697-0.073 0.239-0.114 0.458-0.135 0.666s-0.031 0.385-0.031 0.531v3.247c0 0.146 0.010 0.323 0.031 0.531s0.062 0.427 0.135 0.666c0.062 0.239 0.177 0.468 0.312 0.697 0.146 0.229 0.333 0.437 0.572 0.635 0.239 0.187 0.541 0.343 0.905 0.447 0.364 0.114 0.801 0.177 1.311 0.177s0.947-0.062 1.311-0.177c0.364-0.114 0.666-0.26 0.905-0.447s0.427-0.395 0.572-0.635c0.146-0.229 0.25-0.468 0.312-0.697 0.062-0.239 0.114-0.458 0.135-0.666s0.031-0.385 0.031-0.531v-3.247zM8.98 10.064c0.26 0 0.385 0.135 0.385 0.385v1.457c0 0.125-0.031 0.219-0.094 0.291s-0.167 0.104-0.291 0.104h-3.392c-0.125 0-0.219 0.031-0.291 0.094s-0.104 0.166-0.104 0.291v6.087c0 0.125-0.031 0.218-0.094 0.291-0.062 0.062-0.166 0.104-0.291 0.104h-1.53c-0.125 0-0.219-0.031-0.291-0.104-0.062-0.073-0.104-0.167-0.104-0.291v-8.314c0-0.125 0.031-0.229 0.104-0.291s0.167-0.094 0.291-0.094l5.702-0.010z"></path>
         <path d="M31.332 21.187c0-0.010-0.010-0.010-0.010-0.021s0-0.010 0.010-0.021l0.52-0.708c0.021-0.031 0.021-0.052 0.010-0.062s-0.031-0.031-0.062-0.031h-0.375c-0.021 0-0.042 0-0.052 0.010s-0.031 0.021-0.042 0.042l-0.406 0.552c-0.010 0.010-0.010 0.010-0.021 0.010s-0.010-0.010-0.010-0.021v-0.51c0-0.052-0.021-0.073-0.073-0.073h-0.291c-0.021 0-0.042 0.010-0.052 0.021s-0.021 0.031-0.021 0.062v1.644c0 0.021 0.010 0.042 0.021 0.052s0.031 0.021 0.052 0.021h0.291c0.021 0 0.042-0.010 0.062-0.021s0.021-0.031 0.021-0.052v-0.302c0-0.010 0-0.010 0.010-0.021l0.104-0.146c0-0.010 0.010-0.010 0.021-0.010s0.010 0 0.021 0.010l0.323 0.489c0.010 0.021 0.021 0.031 0.042 0.042 0.010 0.010 0.031 0.010 0.052 0.010h0.385c0.031 0 0.052-0.010 0.062-0.031s0.010-0.042-0.010-0.062l-0.583-0.874zM29.001 20.344c-0.021 0-0.042 0.010-0.052 0.021s-0.021 0.031-0.021 0.062v1.145c0 0.031 0 0.062 0.010 0.104 0 0.042 0.010 0.083 0.031 0.135 0.010 0.042 0.031 0.094 0.062 0.135s0.062 0.083 0.114 0.125c0.052 0.042 0.104 0.062 0.177 0.094 0.073 0.021 0.156 0.031 0.26 0.031s0.187-0.010 0.26-0.031c0.073-0.021 0.135-0.052 0.177-0.094 0.052-0.042 0.083-0.083 0.114-0.125s0.052-0.094 0.062-0.135 0.021-0.094 0.021-0.135c0-0.042 0.010-0.073 0.010-0.104v-1.145c0-0.052-0.021-0.073-0.073-0.073h-0.291c-0.021 0-0.042 0.010-0.052 0.021s-0.021 0.031-0.021 0.062v1.145c0 0.042-0.010 0.073-0.021 0.104s-0.031 0.052-0.062 0.062c-0.031 0.010-0.062 0.021-0.114 0.021s-0.083-0.010-0.114-0.021c-0.031-0.010-0.052-0.031-0.062-0.062s-0.021-0.062-0.021-0.104c0-0.042-0.010-0.083 0-0.135v-1.009c0-0.052-0.021-0.073-0.073-0.073l-0.323-0.021zM28.668 21.697c0.052 0 0.073 0.021 0.073 0.073v0.291c0 0.021-0.010 0.042-0.021 0.052s-0.031 0.021-0.062 0.021h-0.291c-0.021 0-0.042-0.010-0.052-0.021s-0.021-0.031-0.021-0.052v-0.291c0-0.021 0.010-0.042 0.021-0.062 0.010-0.010 0.031-0.021 0.052-0.021l0.302 0.010zM27.659 21.427v0.135c0 0.042-0.010 0.073-0.021 0.104s-0.031 0.052-0.062 0.062c-0.031 0.010-0.062 0.021-0.114 0.021s-0.083-0.010-0.114-0.021c-0.031-0.010-0.052-0.031-0.062-0.062s-0.021-0.062-0.021-0.104c0-0.042-0.010-0.083 0-0.135v-0.5c0-0.042 0.010-0.073 0.021-0.104s0.031-0.052 0.062-0.062c0.031-0.010 0.062-0.021 0.114-0.021s0.083 0.010 0.114 0.021c0.031 0.010 0.052 0.031 0.062 0.062s0.021 0.062 0.021 0.104v0.5zM28.106 20.917c0-0.031 0-0.062-0.010-0.104 0-0.042-0.010-0.083-0.021-0.135-0.010-0.042-0.031-0.094-0.062-0.135s-0.062-0.083-0.114-0.125c-0.052-0.042-0.104-0.062-0.177-0.094-0.073-0.021-0.156-0.031-0.26-0.031s-0.187 0.010-0.26 0.031c-0.073 0.021-0.135 0.052-0.177 0.094-0.052 0.042-0.083 0.083-0.114 0.125s-0.052 0.094-0.062 0.135c-0.010 0.042-0.021 0.094-0.031 0.135 0 0.042-0.010 0.073-0.010 0.104v0.645c0 0.031 0 0.062 0.010 0.104 0 0.042 0.010 0.083 0.031 0.135 0.010 0.042 0.031 0.094 0.062 0.135s0.062 0.083 0.114 0.125c0.052 0.042 0.104 0.062 0.177 0.094 0.073 0.021 0.156 0.031 0.26 0.031s0.187-0.010 0.26-0.031c0.073-0.021 0.135-0.052 0.177-0.094 0.052-0.042 0.083-0.083 0.114-0.125s0.052-0.094 0.062-0.135c0.010-0.042 0.021-0.094 0.021-0.135s0.010-0.073 0.010-0.104v-0.645zM25.38 21.562c0 0.031 0 0.062 0.010 0.104 0 0.042 0.010 0.083 0.031 0.135 0.010 0.042 0.031 0.094 0.062 0.135s0.062 0.083 0.114 0.125c0.052 0.042 0.104 0.062 0.177 0.094 0.073 0.021 0.156 0.031 0.26 0.031 0.094 0 0.167-0.010 0.239-0.031 0.062-0.021 0.125-0.042 0.167-0.073s0.083-0.062 0.114-0.104c0.031-0.042 0.052-0.083 0.073-0.125s0.031-0.083 0.031-0.125c0.010-0.042 0.010-0.073 0.010-0.114 0-0.021 0-0.031-0.010-0.052-0.010-0.010-0.021-0.021-0.042-0.021l-0.291-0.062c-0.021-0.010-0.052 0-0.062 0.010-0.021 0.010-0.031 0.031-0.031 0.062 0 0.042-0.010 0.073-0.031 0.104-0.010 0.031-0.031 0.052-0.062 0.062s-0.062 0.021-0.114 0.021c-0.052 0-0.083-0.010-0.114-0.021s-0.052-0.031-0.062-0.062c-0.010-0.031-0.021-0.062-0.021-0.104s-0.010-0.083 0-0.135v-0.5c0-0.042 0.010-0.073 0.021-0.104s0.031-0.052 0.062-0.062c0.031-0.010 0.062-0.021 0.114-0.021 0.042 0 0.083 0.010 0.114 0.021s0.052 0.031 0.062 0.062 0.021 0.062 0.021 0.094c0 0.031 0.010 0.052 0.031 0.062s0.042 0.021 0.073 0.021l0.281-0.062c0.021 0 0.031-0.010 0.042-0.021s0.010-0.031 0.010-0.042-0.010-0.073-0.010-0.114l-0.031-0.125c-0.021-0.042-0.042-0.083-0.073-0.125s-0.073-0.073-0.114-0.104c-0.052-0.031-0.104-0.052-0.167-0.073s-0.146-0.031-0.239-0.031c-0.104 0-0.187 0.010-0.26 0.031s-0.135 0.052-0.177 0.094c-0.052 0.042-0.083 0.083-0.114 0.125s-0.052 0.094-0.062 0.135c-0.010 0.042-0.021 0.094-0.031 0.135 0 0.042-0.010 0.073-0.010 0.104v0.645h0.010zM25.141 21.697c0.052 0 0.073 0.021 0.073 0.073v0.291c0 0.021-0.010 0.042-0.021 0.052s-0.031 0.021-0.062 0.021h-0.291c-0.021 0-0.042-0.010-0.052-0.021s-0.021-0.031-0.021-0.052v-0.291c0-0.021 0.010-0.042 0.021-0.062 0.010-0.010 0.031-0.021 0.052-0.021l0.302 0.010z"></path>
         <path d="M6.087 15.006c-0.968-0.083-5.692 0.687-6.046-0.146-0.593-1.384 4.37-0.604 5.037-0.583 0.333 0.010 0.749 0.073 0.989 0.010 0.166-0.052 0.281-0.323 0.468-0.427 0.416-0.25 1.093-0.114 1.675-0.062 0.395 0.031 0.78 0.073 1.197 0.104-0.593 0.083-1.228 0.166-1.852 0.25-0.073 0.010-0.187-0.021-0.239 0.062 0.635 0.104 1.353 0.125 2.040 0.177-0.676 0.104-1.436 0.125-2.102 0.25 0.042 0.073 0.166 0.052 0.239 0.062 0.593 0.042 1.249 0.094 1.873 0.125-0.645 0.104-1.394 0.125-2.040 0.25 0.021 0.104 0.156 0.073 0.219 0.073 0.593 0.073 1.259 0.156 1.873 0.208-0.676 0.052-1.509 0.208-2.206 0.25-0.541 0.031-0.864-0.281-1.124-0.604z"></path>
         <path d="M4.412 15.090c0.749-0.062 1.384-0.114 1.675-0.094 0.135 0.166 0.271 0.323 0.458 0.437 0.177 0.114 0.385 0.187 0.656 0.166 0.385-0.021 0.812-0.083 1.228-0.135 0.302-0.042 0.593-0.083 0.864-0.104-0.271-0.021-0.541-0.052-0.822-0.083-0.323-0.031-0.635-0.073-0.926-0.114h-0.052c-0.073 0-0.166 0-0.177-0.083v-0.010h0.010c0.354-0.073 0.749-0.114 1.145-0.146 0.271-0.021 0.541-0.052 0.791-0.083-0.468-0.031-0.957-0.062-1.415-0.094-0.114-0.010-0.229-0.021-0.343-0.021h-0.052c-0.073 0-0.156 0-0.198-0.062l-0.010-0.010h0.010c0.375-0.073 0.78-0.114 1.186-0.146 0.271-0.021 0.552-0.052 0.812-0.083-0.135-0.010-0.281-0.021-0.416-0.031-0.52-0.031-1.051-0.062-1.519-0.135h-0.021l0.010-0.010c0.042-0.062 0.114-0.062 0.177-0.062h0.062l0.499-0.062c0.416-0.052 0.843-0.114 1.238-0.167-0.239-0.021-0.479-0.042-0.708-0.062-0.125-0.010-0.239-0.021-0.375-0.031l-0.312-0.031c-0.5-0.052-1.020-0.114-1.353 0.094-0.083 0.052-0.156 0.135-0.219 0.219-0.083 0.094-0.156 0.187-0.25 0.219-0.167 0.042-0.416 0.031-0.666 0.010-0.114-0.010-0.229-0.021-0.333-0.021-0.114 0-0.354-0.031-0.666-0.062-1.124-0.177-3.236-0.395-4.058-0.042-0.291 0.125-0.416 0.312-0.291 0.614 0.239 0.572 2.612 0.375 4.36 0.229zM6.087 15.017c-0.291-0.021-0.926 0.031-1.675 0.094-1.748 0.146-4.131 0.343-4.381-0.25-0.135-0.312 0-0.51 0.302-0.645 0.832-0.354 2.945-0.135 4.079-0.021 0.312 0.031 0.552 0.062 0.666 0.062 0.104 0 0.219 0.010 0.333 0.021 0.25 0.021 0.489 0.031 0.656-0.010 0.083-0.021 0.156-0.114 0.239-0.208 0.073-0.083 0.135-0.166 0.229-0.219 0.343-0.208 0.864-0.146 1.374-0.094l0.312 0.031c0.114 0.010 0.25 0.021 0.375 0.031 0.271 0.021 0.541 0.052 0.822 0.062l0.114 0.010-0.104 0.021c-0.427 0.062-0.884 0.125-1.342 0.187l-0.499 0.062h-0.062c-0.052 0-0.114 0-0.156 0.042 0.468 0.073 0.989 0.104 1.509 0.135 0.177 0.010 0.343 0.021 0.52 0.031l0.104 0.010-0.104 0.010c-0.291 0.042-0.604 0.073-0.916 0.104-0.395 0.042-0.801 0.073-1.165 0.146 0.031 0.042 0.104 0.042 0.167 0.042h0.052c0.114 0.010 0.229 0.021 0.343 0.021 0.499 0.042 1.020 0.073 1.519 0.104l0.104 0.010-0.104 0.021c-0.291 0.042-0.593 0.073-0.895 0.104-0.385 0.042-0.77 0.073-1.124 0.146 0.021 0.062 0.094 0.052 0.156 0.052h0.052c0.302 0.031 0.614 0.073 0.926 0.114 0.312 0.031 0.635 0.073 0.937 0.094v0.021c-0.302 0.021-0.645 0.073-0.989 0.114-0.416 0.052-0.843 0.114-1.228 0.135-0.271 0.021-0.489-0.052-0.666-0.166-0.208-0.104-0.354-0.26-0.479-0.427z"></path>
      </symbol>
      <symbol id="icon-partners-05" viewBox="0 0 32 32">
         <path d="M27.437 12.121c-0.502 0-0.912 0.405-0.911 0.907-0.001 0.504 0.413 0.908 0.916 0.907 0.502 0.001 0.903-0.403 0.903-0.907-0.001-0.501-0.407-0.907-0.908-0.907zM10.969 12.136c-0.504 0-0.911 0.401-0.911 0.903 0 0.504 0.408 0.915 0.911 0.916 0.501 0 0.907-0.412 0.907-0.916 0.001-0.502-0.407-0.903-0.907-0.903zM24.52 13.155c-0.5 0-0.911 0.405-0.911 0.907s0.409 0.911 0.911 0.911c0.503 0 0.907-0.408 0.907-0.911 0.001-0.501-0.404-0.907-0.907-0.907zM30.372 13.155c-0.501 0-0.911 0.405-0.911 0.907s0.41 0.911 0.911 0.911c0.505 0 0.903-0.409 0.903-0.911s-0.399-0.908-0.903-0.907zM13.839 13.171c-0.501 0-0.911 0.41-0.911 0.911 0 0.503 0.409 0.907 0.911 0.907 0.499 0 0.907-0.405 0.907-0.907 0-0.501-0.407-0.911-0.907-0.911zM8.046 13.195c-0.501-0.001-0.907 0.404-0.907 0.905v0.004c0 0.503 0.404 0.912 0.907 0.911 0.499 0 0.907-0.409 0.907-0.911 0-0.503-0.408-0.908-0.907-0.908zM27.749 15.314c0 0-1.805 0.011-1.827 0.011-0.307 0-0.568 0.262-0.568 0.568l-0.004 3.283h0.004c0.014 0.389 0.339 0.703 0.731 0.703 0.395 0 0.72-0.314 0.734-0.703v-1.141c0 0 0.722-0.004 0.746-0.004 0.278 0 0.51-0.221 0.51-0.501 0-0.281-0.23-0.509-0.51-0.509h-0.746v-0.304h0.931c0.386 0 0.696-0.309 0.695-0.695-0.001-0.382-0.31-0.709-0.696-0.709zM31.071 15.314c0 0-1.805 0.011-1.827 0.011-0.31 0-0.568 0.26-0.568 0.568v3.283h0.004c0.013 0.389 0.333 0.703 0.727 0.703 0.396 0 0.714-0.313 0.727-0.703h0.004v-1.141c0 0 0.72-0.004 0.746-0.004 0.278 0 0.51-0.221 0.51-0.501 0-0.281-0.231-0.509-0.51-0.509h-0.747v-0.304h0.931c0.384 0 0.695-0.309 0.695-0.695 0-0.382-0.308-0.71-0.691-0.709zM14.73 15.322c-0.385 0-0.695 0.31-0.695 0.691 0 0.025 0.005 0.052 0.008 0.079l-0.004 3.078 0.004 0.036c0.019 0.363 0.32 0.656 0.691 0.656 0.385 0 0.695-0.309 0.695-0.691 0-0.044-0.004-0.086-0.011-0.126v-0.913l1.034 1.389c0.015 0.023 0.032 0.046 0.047 0.071l0.004 0.008c0.133 0.155 0.335 0.253 0.556 0.253 0.403 0 0.727-0.325 0.727-0.727 0.001-0.14-0.038-0.277-0.114-0.395l-0.011-0.015c-0.010-0.017-0.019-0.033-0.032-0.047l-0.935-1.255 0.761-0.92h-0.004c0.099-0.121 0.161-0.274 0.161-0.446-0.001-0.391-0.319-0.714-0.71-0.714-0.257 0-0.479 0.136-0.604 0.339l-0.88 1.062v-0.616c0.004-0.034 0.008-0.071 0.008-0.107 0-0.379-0.311-0.689-0.695-0.689zM0.616 15.325c-0.339 0-0.611 0.277-0.611 0.611 0 0-0.004 3.26-0.004 3.315 0 0.347 0.264 0.607 0.611 0.607l1.578 0.004c0.775 0 1.405-0.626 1.405-1.401 0-0.438-0.196-0.828-0.509-1.085 0.184-0.219 0.3-0.502 0.3-0.813 0.001-0.681-0.564-1.24-1.251-1.239l-1.518 0.001zM11.27 15.346c-1.24 0-2.249 1.008-2.249 2.249s1.009 2.253 2.249 2.253c1.241 0 2.25-1.011 2.249-2.253 0-1.241-1.008-2.249-2.249-2.249zM6.183 15.353c-1.243 0-2.246 1.010-2.245 2.254 0 1.24 1.001 2.246 2.245 2.245 1.244 0 2.249-1.005 2.249-2.245 0-1.243-1.005-2.254-2.249-2.254zM22.74 15.353c-1.246 0-2.258 1.014-2.258 2.261 0 1.245 1.010 2.258 2.258 2.258 1.245 0 2.258-1.013 2.258-2.258 0-1.248-1.011-2.261-2.258-2.261zM1.227 16.347h0.564c0.188 0 0.339 0.149 0.339 0.339 0 0.186-0.152 0.332-0.339 0.332-0.018 0-0.564 0.004-0.564 0.004v-0.675zM18.981 16.643c-0.502 0-0.906 0.409-0.907 0.911 0.001 0.502 0.405 0.911 0.907 0.911 0.503 0 0.911-0.409 0.911-0.911-0.001-0.501-0.41-0.911-0.911-0.911zM11.27 16.663c0.516 0 0.935 0.418 0.935 0.935 0 0.515-0.419 0.931-0.935 0.931s-0.931-0.419-0.931-0.935c-0.001-0.513 0.414-0.93 0.927-0.931h0.004zM6.183 16.671c0.515 0 0.935 0.418 0.935 0.935 0 0.516-0.419 0.933-0.935 0.931-0.511 0.001-0.93-0.415-0.931-0.931 0-0.517 0.419-0.935 0.931-0.935zM22.74 16.678c0.517 0 0.935 0.415 0.935 0.935 0 0.516-0.419 0.935-0.935 0.935-0.517 0-0.936-0.419-0.935-0.935-0.001-0.516 0.415-0.934 0.931-0.935h0.004zM1.227 17.981l0.718 0.004c0.196 0 0.356 0.155 0.356 0.351-0.001 0.198-0.159 0.356-0.356 0.356h-0.714l-0.004-0.71zM31.039 18.691c-0.328 0-0.588 0.263-0.588 0.592 0.001 0.33 0.259 0.592 0.588 0.592 0.328 0 0.592-0.263 0.592-0.592 0.001-0.327-0.263-0.591-0.59-0.592 0 0-0.001 0-0.002 0zM31.039 18.751c0.292 0 0.532 0.238 0.532 0.532 0 0.293-0.24 0.532-0.532 0.532-0.294 0-0.529-0.24-0.529-0.532 0-0.295 0.235-0.532 0.529-0.532zM30.771 18.932v0.686h0.142v-0.268h0.146c0.042 0 0.072 0.005 0.086 0.020 0.015 0.013 0.024 0.043 0.024 0.086v0.064c0 0.022 0.003 0.039 0.004 0.060 0.003 0.011 0.008 0.025 0.011 0.039h0.158v-0.015c-0.014-0.008-0.024-0.025-0.028-0.043-0.003-0.011-0.004-0.032-0.004-0.064v-0.043c0-0.048-0.006-0.084-0.020-0.107-0.013-0.024-0.038-0.042-0.067-0.055 0.035-0.013 0.067-0.036 0.082-0.067 0.017-0.030 0.023-0.062 0.024-0.095 0-0.028-0.004-0.050-0.011-0.071-0.010-0.022-0.024-0.041-0.040-0.060-0.017-0.022-0.039-0.037-0.064-0.047-0.027-0.011-0.060-0.018-0.107-0.020h-0.338zM30.913 19.054h0.165c0.032 0 0.052 0.004 0.067 0.011 0.028 0.014 0.043 0.041 0.043 0.083 0 0.037-0.017 0.062-0.043 0.075-0.017 0.008-0.038 0.011-0.071 0.011h-0.161v-0.18z"></path>
      </symbol>
      <symbol id="icon-partners-06" viewBox="0 0 32 32">
         <path d="M0.445 19.184l2.569-0.035 0.007-0.015-2.768-0.443-0.014-0.053 2.321-0.033c0 0-0.019-0.046-0.078-0.16l-2.388-0.38-0.008-0.053 2.234-0.032-0.035-0.156-2.265-0.338-0.003-0.066 2.201-0.032-0.017-0.162-2.2-0.362 0.004-0.054 2.197-0.032c-0.011-0.063 0.007-0.19 0.007-0.19l-2.173-0.331 0.010-0.054 2.195-0.026c-0-0.031 0.012-0.147 0.012-0.147l-2.137-0.384 0.010-0.054 2.216-0.032c0 0 0.014-0.121 0.040-0.185l-2.136-0.326 0.016-0.054 2.221-0.032c0 0 0.046-0.129 0.072-0.176l-2.126-0.321 0.016-0.048 2.258-0.033c0 0 0.065-0.136 0.080-0.173l-2.11-0.327 0.022-0.048 2.298-0.033c0 0 0.062-0.121 0.118-0.206l-2.108-0.326 0.022-0.042 2.364-0.028c0 0 0.071-0.112 0.133-0.17l-2.131-0.319 0.040-0.048 2.417-0.035c0 0 0.094-0.103 0.162-0.156l-2.095-0.32 0.034-0.048 2.462-0.037 0.161-0.143-1.913-0.412c0.819-0.519 1.835-0.833 3.060-0.849 2.277-0.031 4.199 1.096 4.263 3.742l-2.96 0.040c-0.098-0.938-0.657-1.258-1.454-1.247-1.722 0.023-2.465 1.869-2.442 3.619 0.016 1.195 0.539 1.985 1.805 1.968 0.84-0.011 1.547-0.319 1.849-1.149l-1.423 0.019 0.426-2.183 4.155-0.056-1.091 5.608-1.978 0.027 0.072-0.983-0.029-0.028c-0.643 0.891-1.648 1.274-2.729 1.289-2.114 0.029-3.208-1.017-3.734-2.14l-0.003-0.009zM15.691 15.498c-0.303-0.179-0.679-0.302-1.163-0.297-0.602 0.007-1.257 0.252-1.248 1.009 0.012 1.068 2.184 1.052 2.204 2.722 0.011 0.958-0.643 2.052-2.176 2.070-0.739 0.009-1.27-0.15-1.784-0.345l0.282-0.843c0.377 0.233 0.899 0.391 1.346 0.386 0.967-0.011 1.371-0.618 1.365-1.148-0.015-1.296-2.184-1.043-2.205-2.813-0.013-1.159 1.038-1.828 2.087-1.84 0.529-0.006 1.051 0.088 1.537 0.284l-0.246 0.815zM19.339 20.741c-0.446 0.115-0.91 0.202-1.376 0.207-1.132 0.013-2.15-0.431-2.169-2.074-0.015-1.287 0.872-2.785 2.514-2.804 1.122-0.013 1.76 0.655 1.773 1.759 0.003 0.31-0.030 0.575-0.072 0.849l-3.276 0.038c-0.017 0.097-0.025 0.194-0.024 0.293 0.011 0.976 0.617 1.252 1.447 1.243 0.429-0.005 0.893-0.12 1.311-0.298l-0.128 0.786zM19.199 18.050c0.017-0.137 0.025-0.247 0.023-0.356-0.006-0.547-0.348-0.936-0.996-0.929-0.703 0.008-1.234 0.626-1.408 1.312l2.381-0.028zM20.636 16.865c0.035-0.192 0.086-0.439 0.12-0.713l0.803-0.009-0.138 0.741h0.018c0.268-0.441 0.766-0.858 1.578-0.867 0.082-0.001 0.228 0.016 0.393 0.078l-0.183 0.759c-0.165-0.062-0.302-0.088-0.366-0.087-1.059 0.012-1.566 1.168-1.678 1.744l-0.457 2.296-0.858 0.010 0.767-3.952zM23.676 16.117l0.858-0.010-0.932 4.665-0.858 0.010 0.932-4.666zM24.805 15.064l-0.968 0.011 0.189-0.97 0.968-0.011-0.189 0.97zM27.943 20.641c-0.446 0.115-0.91 0.202-1.376 0.207-1.132 0.013-2.15-0.431-2.169-2.074-0.015-1.287 0.871-2.785 2.514-2.804 1.122-0.013 1.76 0.655 1.773 1.759 0.003 0.31-0.030 0.575-0.073 0.85l-3.276 0.038c-0.017 0.097-0.025 0.194-0.024 0.293 0.011 0.976 0.617 1.252 1.447 1.243 0.429-0.005 0.893-0.12 1.311-0.298l-0.128 0.786zM27.803 17.95c0.017-0.137 0.025-0.247 0.023-0.356-0.006-0.547-0.348-0.936-0.996-0.929-0.703 0.008-1.234 0.626-1.408 1.312l2.381-0.028z"></path>
         <path d="M31.587 16.847c-0.239-0.116-0.614-0.23-0.933-0.227-0.374 0.004-0.866 0.11-0.86 0.576 0.009 0.794 1.598 0.812 1.613 2.108 0.013 1.123-1.014 1.499-1.744 1.508-0.739 0.009-1.014-0.089-1.362-0.203l0.156-0.741c0.339 0.133 0.697 0.257 1.071 0.252 0.466-0.005 0.974-0.203 0.968-0.732-0.009-0.794-1.598-0.894-1.612-2.072-0.011-0.986 0.97-1.38 1.736-1.389 0.41-0.005 0.832 0.091 1.217 0.241l-0.248 0.679z"></path>
      </symbol>
      <symbol id="icon-truck-deliv" viewBox="0 0 32 32">
         <path d="M26.162 21.043c-0.782 0-1.525 0.306-2.085 0.86-0.56 0.56-0.873 1.29-0.873 2.072s0.306 1.512 0.873 2.072c0.567 0.554 1.303 0.86 2.085 0.86 1.603 0 2.906-1.316 2.906-2.932s-1.303-2.932-2.906-2.932zM26.162 25.605c-0.899 0-1.655-0.743-1.655-1.629s0.756-1.629 1.655-1.629c0.886 0 1.603 0.73 1.603 1.629s-0.717 1.629-1.603 1.629zM26.918 11.276c-0.117-0.111-0.274-0.169-0.437-0.169h-3.343c-0.358 0-0.652 0.293-0.652 0.652v5.343c0 0.358 0.293 0.652 0.652 0.652h5.304c0.358 0 0.652-0.293 0.652-0.652v-3.577c0-0.182-0.078-0.358-0.215-0.482l-1.961-1.766zM27.791 16.45h-4.001v-4.046h2.437l1.564 1.407v2.639zM10.25 21.043c-0.782 0-1.525 0.306-2.085 0.86-0.56 0.56-0.873 1.29-0.873 2.072s0.306 1.512 0.873 2.072c0.567 0.554 1.303 0.86 2.085 0.86 1.603 0 2.906-1.316 2.906-2.932s-1.303-2.932-2.906-2.932zM10.25 25.605c-0.899 0-1.655-0.743-1.655-1.629s0.756-1.629 1.655-1.629c0.886 0 1.603 0.73 1.603 1.629s-0.717 1.629-1.603 1.629zM5.903 21.845h-1.31v-1.733c0-0.358-0.293-0.652-0.652-0.652s-0.652 0.293-0.652 0.652v2.385c0 0.358 0.293 0.652 0.652 0.652h1.961c0.358 0 0.652-0.293 0.652-0.652s-0.293-0.652-0.652-0.652zM9.207 18.294c0-0.358-0.293-0.652-0.652-0.652h-7.904c-0.358 0-0.652 0.293-0.652 0.652s0.293 0.652 0.652 0.652h7.904c0.358 0 0.652-0.287 0.652-0.652zM1.974 15.941l7.904 0.046c0.358 0 0.652-0.287 0.658-0.645 0.007-0.365-0.287-0.658-0.645-0.658l-7.904-0.046c-0.007 0-0.007 0-0.007 0-0.358 0-0.652 0.287-0.652 0.645-0.007 0.365 0.287 0.658 0.645 0.658zM3.304 12.983h7.904c0.358 0 0.652-0.293 0.652-0.652s-0.293-0.652-0.652-0.652h-7.904c-0.358 0-0.652 0.293-0.652 0.652s0.293 0.652 0.652 0.652zM31.759 12.103l-4.665-3.864c-0.117-0.098-0.261-0.15-0.417-0.15h-5.486v-2.346c0-0.358-0.293-0.652-0.652-0.652h-16.596c-0.358 0-0.652 0.293-0.652 0.652v4.77c0 0.358 0.293 0.652 0.652 0.652s0.652-0.293 0.652-0.652v-4.118h15.299v15.449h-5.343c-0.358 0-0.652 0.293-0.652 0.652s0.293 0.652 0.652 0.652h7.956c0.358 0 0.652-0.293 0.652-0.652s-0.293-0.652-0.652-0.652h-1.31v-12.452h5.252l4.248 3.519-0.046 8.92h-0.678c-0.358 0-0.652 0.293-0.652 0.652s0.293 0.652 0.652 0.652h1.323c0.358 0 0.652-0.287 0.652-0.645l0.052-9.878c-0.006-0.195-0.091-0.384-0.241-0.508z"></path>
      </symbol>
      <symbol id="icon-star-empty1" viewBox="0 0 32 32">
         <path d="M7.224 19.715l-2.384 10.321c-0.074 0.313-0.052 0.64 0.064 0.94s0.318 0.558 0.582 0.74 0.577 0.281 0.898 0.283c0.321 0.002 0.635-0.093 0.902-0.273l8.71-5.807 8.71 5.807c0.272 0.181 0.594 0.274 0.921 0.267s0.644-0.114 0.908-0.307c0.264-0.193 0.463-0.462 0.57-0.771s0.116-0.644 0.028-0.958l-2.926-10.238 7.256-6.53c0.232-0.209 0.398-0.482 0.477-0.785s0.067-0.622-0.033-0.918c-0.1-0.296-0.285-0.556-0.532-0.749s-0.544-0.308-0.856-0.332l-9.12-0.726-3.946-8.736c-0.126-0.281-0.33-0.52-0.589-0.688s-0.56-0.257-0.868-0.257c-0.308 0-0.61 0.089-0.868 0.257s-0.463 0.406-0.589 0.688l-3.946 8.736-9.12 0.725c-0.306 0.024-0.599 0.136-0.844 0.323s-0.43 0.439-0.534 0.728c-0.104 0.289-0.123 0.602-0.055 0.902s0.222 0.573 0.443 0.788l6.741 6.57zM11.788 12.795c0.286-0.023 0.56-0.121 0.794-0.286s0.42-0.39 0.537-0.651l2.878-6.368 2.878 6.368c0.117 0.261 0.303 0.486 0.537 0.651s0.508 0.264 0.794 0.286l6.354 0.504-5.232 4.709c-0.454 0.41-0.635 1.040-0.469 1.629l2.004 7.015-5.976-3.985c-0.262-0.176-0.571-0.27-0.887-0.27s-0.625 0.094-0.887 0.27l-6.245 4.164 1.68-7.272c0.062-0.267 0.053-0.546-0.024-0.81s-0.221-0.502-0.418-0.694l-4.86-4.738 6.543-0.521z"></path>
      </symbol>
      <symbol id="icon-star-full1" viewBox="0 0 32 32">
         <path d="M31.911 11.488c-0.1-0.296-0.285-0.556-0.532-0.749s-0.545-0.308-0.856-0.333l-9.12-0.725-3.947-8.736c-0.126-0.281-0.33-0.52-0.589-0.688s-0.56-0.257-0.868-0.257c-0.308-0-0.61 0.089-0.869 0.256s-0.463 0.406-0.589 0.688l-3.947 8.738-9.12 0.725c-0.306 0.024-0.599 0.136-0.844 0.323s-0.43 0.439-0.534 0.728c-0.104 0.289-0.123 0.602-0.055 0.902s0.222 0.573 0.443 0.788l6.74 6.57-2.384 10.322c-0.072 0.312-0.049 0.639 0.067 0.939s0.319 0.556 0.583 0.739c0.264 0.182 0.576 0.281 0.897 0.284s0.635-0.092 0.901-0.27l8.711-5.807 8.711 5.807c0.273 0.181 0.594 0.274 0.921 0.267s0.644-0.114 0.908-0.307c0.264-0.193 0.463-0.462 0.57-0.771s0.116-0.644 0.028-0.958l-2.926-10.239 7.256-6.53c0.475-0.429 0.65-1.097 0.445-1.704z"></path>
      </symbol>
      <symbol id="icon-like" viewBox="0 0 32 32">
         <path d="M15.827 4.41c4.884-4.758 12.159-2.85 14.811 2.352 1.443 2.832 1.47 6.503-0.676 10.411-2.129 3.877-6.384 7.987-13.523 11.933l-0.61 0.337-0.612-0.337c-7.138-3.945-11.392-8.055-13.521-11.933-2.146-3.909-2.119-7.579-0.676-10.411 2.652-5.202 9.924-7.109 14.808-2.352zM28.388 7.909c-2.075-4.070-7.978-5.371-11.569-0.831l-0.99 1.252-0.992-1.252-0.342-0.41c-3.612-4.048-9.215-2.703-11.225 1.24-1.013 1.987-1.161 4.77 0.64 8.049 1.764 3.212 5.408 6.892 11.918 10.589 6.511-3.697 10.157-7.377 11.921-10.589 1.801-3.28 1.652-6.063 0.64-8.049z"></path>
   </symbol>
   </defs>
</svg>
